<svg width="14" height="14" viewBox="0 0 14 14" fill="none" xmlns="http://www.w3.org/2000/svg">
<path d="M0.5 3C0.223 3 0 3.223 0 3.5V4V8V9V9.5V11H1V9.5V9H13V10.5V11H13.5H14V10.5V9V8V6V5.5C14 5.223 13.777 5 13.5 5C13.223 5 13 5.223 13 5.5V6V8H1V4V3.5C1 3.223 0.777 3 0.5 3ZM3.5 4C2.67157 4 2 4.67157 2 5.5C2 6.32843 2.67157 7 3.5 7C4.32843 7 5 6.32843 5 5.5C5 4.67157 4.32843 4 3.5 4ZM6 5V7H12C12 6 10.9638 5 10 5H6Z" fill="#0092DA"/>
<path opacity="0.5" d="M14 0H0V2H14V0Z" fill="#0092DA"/>
<path opacity="0.5" d="M14 12H0V14H14V12Z" fill="#0092DA"/>
</svg>
