<?xml version="1.0" encoding="UTF-8" standalone="no"?>
<svg
   xmlns:dc="http://purl.org/dc/elements/1.1/"
   xmlns:cc="http://creativecommons.org/ns#"
   xmlns:rdf="http://www.w3.org/1999/02/22-rdf-syntax-ns#"
   xmlns:svg="http://www.w3.org/2000/svg"
   xmlns="http://www.w3.org/2000/svg"
   version="1.1"
   height="32"
   width="32"
   id="Svg">
  <defs
     id="defs3" />
  <path
     id="path1018"
     d="M 20.146484 7 L 19.984375 7.1484375 L 19.953125 7.3007812 L 19.980469 7.4550781 L 20.181641 7.4589844 L 20.232422 7.3554688 L 20.353516 7.2617188 L 20.310547 7.1074219 L 20.146484 7 z M 11.955078 8.7148438 L 11.699219 8.8027344 L 11.736328 8.9609375 L 11.929688 9.0800781 L 12.117188 9.09375 L 12.214844 8.984375 L 12.291016 8.7988281 L 12.132812 8.7421875 L 11.955078 8.7148438 z M 28.267578 8.7402344 L 28.134766 8.9121094 L 28.248047 9.0917969 L 28.447266 9.0996094 L 28.535156 8.9199219 L 28.447266 8.7714844 L 28.267578 8.7402344 z M 3.8164062 9.2929688 L 3.6796875 9.3417969 L 3.5996094 9.453125 L 3.6523438 9.6347656 L 3.8066406 9.6621094 L 3.9160156 9.5859375 L 3.9492188 9.40625 L 3.8164062 9.2929688 z M 20.111328 9.765625 L 19.900391 9.8574219 L 19.832031 10.087891 L 20.035156 10.287109 L 20.289062 10.166016 L 20.332031 9.9082031 L 20.111328 9.765625 z M 11.570312 10.865234 L 11.423828 11.197266 L 11.714844 11.408203 L 12.023438 11.232422 L 11.953125 10.876953 L 11.570312 10.865234 z M 3.6621094 11.103516 L 3.4765625 11.220703 L 3.3730469 11.427734 L 3.5683594 11.583984 L 3.7675781 11.607422 L 3.953125 11.525391 L 3.9726562 11.296875 L 3.8378906 11.166016 L 3.6621094 11.103516 z M 27.912109 11.232422 L 27.699219 11.40625 L 27.748047 11.611328 L 27.916016 11.748047 L 28.222656 11.701172 L 28.300781 11.482422 L 28.199219 11.310547 L 27.912109 11.232422 z M 19.767578 11.455078 L 19.505859 11.482422 L 19.484375 11.638672 L 19.505859 11.800781 L 19.703125 11.970703 L 19.894531 11.865234 L 19.984375 11.646484 L 19.939453 11.486328 L 19.767578 11.455078 z M 12.291016 12.101562 L 12.167969 12.298828 L 12.208984 12.484375 L 12.431641 12.615234 L 12.658203 12.490234 L 12.667969 12.279297 L 12.560547 12.117188 L 12.291016 12.101562 z M 20.498047 12.197266 L 20.273438 12.345703 L 20.320312 12.587891 L 20.539062 12.673828 L 20.753906 12.636719 L 20.873047 12.404297 L 20.708984 12.226562 L 20.498047 12.197266 z M 28.544922 12.269531 L 28.220703 12.453125 L 28.337891 12.78125 L 28.708984 12.787109 L 28.822266 12.466797 L 28.544922 12.269531 z M 11.300781 12.273438 L 11.080078 12.425781 L 11.029297 12.613281 L 11.300781 12.794922 L 11.626953 12.722656 L 11.769531 12.558594 L 11.662109 12.320312 L 11.300781 12.273438 z M 4.4492188 12.498047 L 4.2714844 12.521484 L 4.1308594 12.611328 L 4.1367188 12.814453 L 4.2558594 13.005859 L 4.4863281 12.955078 L 4.6074219 12.824219 L 4.6308594 12.642578 L 4.4492188 12.498047 z M 2.9648438 12.771484 L 2.7265625 12.876953 L 2.640625 13.025391 L 2.7597656 13.162109 L 3 13.310547 L 3.1367188 13.205078 L 3.2402344 13.072266 L 3.2050781 12.816406 L 2.9648438 12.771484 z M 12.359375 12.886719 L 11.900391 13.013672 L 11.818359 13.296875 L 12.107422 13.535156 L 12.638672 13.466797 L 12.71875 13.117188 L 12.359375 12.886719 z M 19.736328 12.957031 L 19.533203 13.283203 L 19.798828 13.564453 L 20.291016 13.515625 L 20.470703 13.253906 L 20.277344 12.976562 L 19.736328 12.957031 z M 20.291016 13.515625 L 20.449219 13.728516 L 20.621094 13.701172 L 20.833984 13.755859 L 20.990234 13.591797 L 20.916016 13.386719 L 20.677734 13.285156 L 20.462891 13.369141 L 20.291016 13.515625 z M 27.617188 12.990234 L 27.232422 13.257812 L 27.478516 13.628906 L 28.050781 13.548828 L 28.130859 13.152344 L 27.617188 12.990234 z M 3.7617188 13.458984 L 3.3085938 13.488281 L 3.2421875 13.998047 L 3.6367188 14.253906 L 3.9414062 13.902344 L 3.7617188 13.458984 z M 11.105469 13.525391 L 10.714844 13.675781 L 10.751953 14.029297 L 11.095703 14.195312 L 11.416016 13.998047 L 11.398438 13.710938 L 11.105469 13.525391 z M 29.197266 13.712891 L 28.898438 13.951172 L 29.089844 14.28125 L 29.535156 14.208984 L 29.597656 13.857422 L 29.197266 13.712891 z M 12.695312 13.841797 L 12.490234 14.169922 L 12.755859 14.451172 L 13.248047 14.400391 L 13.429688 14.138672 L 13.234375 13.861328 L 12.695312 13.841797 z M 5.0566406 13.861328 L 4.8945312 13.884766 L 4.8417969 14.048828 L 4.8378906 14.306641 L 4.9902344 14.345703 L 5.1503906 14.341797 L 5.3378906 14.171875 L 5.2578125 13.972656 L 5.0566406 13.861328 z M 20.46875 13.865234 L 20.072266 13.876953 L 19.853516 14.056641 L 19.740234 14.279297 L 20.113281 14.417969 L 20.320312 14.3125 L 20.644531 14.267578 L 20.724609 14.033203 L 20.46875 13.865234 z M 2.5351562 14.111328 L 2.1992188 14.263672 L 2.2324219 14.615234 L 2.5273438 14.78125 L 2.8007812 14.583984 L 2.7851562 14.296875 L 2.5351562 14.111328 z M 18.855469 14.115234 L 18.560547 14.267578 L 18.623047 14.509766 L 18.912109 14.591797 L 19.195312 14.556641 L 19.353516 14.324219 L 19.136719 14.146484 L 18.855469 14.115234 z M 18.912109 14.591797 L 18.503906 14.818359 L 18.517578 14.923828 L 18.294922 15.064453 L 18.246094 15.296875 L 18.367188 15.443359 L 18.623047 15.433594 L 18.986328 15.345703 L 18.96875 15.248047 L 19.013672 15.257812 L 19.357422 15.082031 L 19.376953 14.775391 L 18.912109 14.591797 z M 21.445312 14.119141 L 20.923828 14.201172 L 20.882812 14.537109 L 21.339844 14.664062 L 21.724609 14.412109 L 21.445312 14.119141 z M 4.2382812 14.195312 L 3.9960938 14.330078 L 3.9472656 14.560547 L 3.9863281 14.798828 L 4.2910156 14.804688 L 4.3671875 14.644531 L 4.546875 14.501953 L 4.4804688 14.265625 L 4.2382812 14.195312 z M 11.578125 14.210938 L 11.271484 14.347656 L 11.132812 14.585938 L 11.421875 14.841797 L 11.789062 14.869141 L 12.117188 14.792969 L 12.212891 14.519531 L 12.068359 14.21875 L 11.578125 14.210938 z M 27.378906 14.251953 L 27.142578 14.292969 L 26.923828 14.503906 L 27.115234 14.677734 L 27.455078 14.738281 L 27.6875 14.675781 L 27.705078 14.505859 L 27.617188 14.251953 L 27.378906 14.251953 z M 28.794922 14.375 L 28.355469 14.503906 L 28.212891 14.826172 L 28.638672 15.107422 L 29.166016 14.935547 L 29.253906 14.574219 L 28.794922 14.375 z M 10.673828 14.496094 L 10.326172 14.615234 L 10.300781 15.019531 L 10.669922 15.126953 L 10.900391 14.798828 L 10.673828 14.496094 z M 20.066406 14.513672 L 19.751953 14.681641 L 19.71875 14.974609 L 19.988281 15.162109 L 20.349609 15.275391 L 20.628906 15.017578 L 20.480469 14.851562 L 20.445312 14.607422 L 20.066406 14.513672 z M 13.617188 14.646484 L 13.429688 14.763672 L 13.326172 14.970703 L 13.521484 15.126953 L 13.720703 15.150391 L 13.904297 15.066406 L 13.925781 14.839844 L 13.791016 14.708984 L 13.617188 14.646484 z M 3.5097656 14.796875 L 3.1601562 15.175781 L 3.625 15.470703 L 4.2148438 15.271484 L 4.1132812 14.861328 L 3.5097656 14.796875 z M 21.541016 14.802734 L 21.035156 14.958984 L 21.082031 15.322266 L 21.527344 15.494141 L 21.849609 15.333984 L 21.798828 15.570312 L 21.919922 15.728516 L 21.757812 15.869141 L 21.751953 15.808594 L 21.427734 15.716797 L 21.148438 15.777344 L 21.128906 15.806641 L 20.697266 15.759766 L 20.496094 15.935547 L 20.207031 15.677734 L 19.724609 15.789062 L 19.685547 16.158203 L 20.201172 16.255859 L 20.386719 16.082031 L 20.654297 16.361328 L 21.167969 16.375 L 21.287109 16.207031 L 21.542969 16.195312 L 21.775391 16.072266 L 21.771484 16.023438 L 21.980469 16.240234 L 22.494141 16.251953 L 22.716797 15.945312 L 22.613281 15.826172 L 22.824219 15.865234 L 22.978516 15.744141 L 23 15.900391 L 23.121094 15.947266 L 22.994141 16.240234 L 23.417969 16.462891 L 23.818359 16.244141 L 23.748047 16.115234 L 23.808594 16.15625 L 24.097656 16.248047 L 24.212891 16.140625 L 24.447266 16.185547 L 24.658203 16.021484 L 24.630859 15.966797 L 24.796875 16.070312 L 24.984375 16.021484 L 25.001953 16.080078 L 25.208984 16.214844 L 25.585938 16.169922 L 25.681641 15.949219 L 25.558594 15.779297 L 25.205078 15.701172 L 25.126953 15.753906 L 24.939453 15.589844 L 24.628906 15.572266 L 24.320312 15.632812 L 24.337891 15.746094 L 24.238281 15.714844 L 24.179688 15.732422 L 24.177734 15.708984 L 23.873047 15.636719 L 23.814453 15.666016 L 23.808594 15.580078 L 23.443359 15.396484 L 22.966797 15.541016 L 22.941406 15.486328 L 22.609375 15.380859 L 22.501953 15.412109 L 22.486328 15.359375 L 22.191406 15.289062 L 21.857422 15.330078 L 21.939453 15.291016 L 21.917969 14.994141 L 21.541016 14.802734 z M 30.078125 14.835938 L 29.751953 14.857422 L 29.566406 15.011719 L 29.582031 15.292969 L 29.900391 15.408203 L 30.154297 15.283203 L 30.265625 15.083984 L 30.078125 14.835938 z M 4.9296875 14.884766 L 4.546875 14.958984 L 4.59375 15.273438 L 4.8710938 15.332031 L 5.1367188 15.5 L 5.5117188 15.402344 L 5.5800781 15.138672 L 5.3144531 14.904297 L 4.9296875 14.884766 z M 26.896484 14.912109 L 26.742188 15.056641 L 26.650391 15.228516 L 26.802734 15.501953 L 27.166016 15.494141 L 27.466797 15.322266 L 27.529297 15.138672 L 27.302734 15.017578 L 26.896484 14.912109 z M 28.115234 15.068359 L 27.736328 15.148438 L 27.517578 15.341797 L 27.660156 15.650391 L 28.085938 15.697266 L 28.388672 15.568359 L 28.480469 15.261719 L 28.115234 15.068359 z M 11.933594 15.076172 L 11.623047 15.134766 L 11.417969 15.326172 L 11.421875 15.494141 L 11.65625 15.564453 L 11.988281 15.59375 L 11.908203 15.617188 L 11.792969 15.880859 L 11.59375 15.707031 L 11.318359 15.691406 L 11.363281 15.646484 L 11.318359 15.392578 L 11.003906 15.347656 L 10.6875 15.453125 L 10.576172 15.603516 L 10.664062 15.677734 L 10.371094 15.777344 L 10.244141 15.931641 L 10.263672 16.048828 L 10.259766 16.046875 L 9.9941406 16.171875 L 10.019531 16.386719 L 10.294922 16.537109 L 10.603516 16.503906 L 10.880859 16.396484 L 10.759766 16.166016 L 10.830078 16.146484 L 11.001953 16.027344 L 10.923828 15.832031 L 10.914062 15.824219 L 10.992188 15.861328 L 11.013672 16.003906 L 11.236328 16.052734 L 11.246094 16.056641 L 11.132812 16.111328 L 11.15625 16.326172 L 11.431641 16.474609 L 11.740234 16.441406 L 12.017578 16.333984 L 11.888672 16.09375 L 11.759766 16.087891 L 11.800781 15.925781 L 12.164062 16.164062 L 12.335938 16.107422 L 12.365234 16.232422 L 12.625 16.390625 L 12.875 16.408203 L 13.007812 16.261719 L 13.039062 16.181641 L 13.064453 16.208984 L 13.556641 16.158203 L 13.736328 15.896484 L 13.542969 15.619141 L 13.095703 15.603516 L 13.316406 15.509766 L 13.222656 15.154297 L 12.703125 15.142578 L 12.505859 15.474609 L 12.898438 15.6875 L 12.964844 15.658203 L 12.800781 15.923828 L 12.667969 15.902344 L 12.722656 15.681641 L 12.304688 15.501953 L 12.052734 15.576172 L 12.126953 15.451172 L 12.152344 15.289062 L 11.933594 15.076172 z M 2.2988281 15.083984 L 2.1035156 15.310547 L 2.1679688 15.521484 L 2.5292969 15.671875 L 2.8925781 15.527344 L 2.9101562 15.289062 L 2.7363281 15.103516 L 2.2988281 15.083984 z M 16.191406 15.201172 L 15.945312 15.357422 L 15.949219 15.533203 L 16.056641 15.683594 L 16.357422 15.703125 L 16.666016 15.609375 L 16.628906 15.376953 L 16.457031 15.244141 L 16.191406 15.201172 z M 7.7753906 15.345703 L 7.5058594 15.630859 L 7.8203125 15.884766 L 8.109375 15.826172 L 8.2050781 16.001953 L 8.4199219 16.103516 L 8.6933594 16.105469 L 8.8769531 15.912109 L 8.8105469 15.742188 L 8.6503906 15.615234 L 8.3515625 15.642578 L 8.3222656 15.658203 L 8.2929688 15.433594 L 7.7753906 15.345703 z M 26.158203 15.375 L 25.751953 15.601562 L 25.789062 15.931641 L 26.015625 15.984375 L 26.046875 16.183594 L 26.269531 16.232422 L 26.484375 16.367188 L 26.503906 16.361328 L 26.310547 16.474609 L 26.367188 16.699219 L 26.585938 16.796875 L 26.832031 16.822266 L 27.027344 16.669922 L 27.085938 16.447266 L 26.779297 16.333984 L 26.541016 16.353516 L 26.787109 16.287109 L 26.816406 16.171875 L 26.855469 16.253906 L 27.195312 16.291016 L 27.435547 16.189453 L 27.507812 15.947266 L 27.21875 15.791016 L 26.917969 15.857422 L 26.755859 15.998047 L 26.626953 15.886719 L 26.564453 15.882812 L 26.601562 15.865234 L 26.623047 15.560547 L 26.158203 15.375 z M 9.7109375 15.417969 L 9.4394531 15.703125 L 9.5351562 15.78125 L 9.4921875 15.777344 L 9.1835938 15.837891 L 9.2070312 15.992188 L 9.0996094 16.029297 L 8.9199219 16.138672 L 8.8769531 16.375 L 8.71875 16.310547 L 8.2832031 16.408203 L 8.1894531 16.761719 L 8.6523438 16.935547 L 9.1015625 16.794922 L 9.0859375 16.462891 L 9.1621094 16.488281 L 9.5058594 16.435547 L 9.6699219 16.308594 L 9.6386719 16.261719 L 9.6601562 16.275391 L 9.9628906 16.195312 L 10.017578 15.984375 L 9.9433594 15.919922 L 10.273438 15.851562 L 10.228516 15.507812 L 9.7109375 15.417969 z M 0.3125 15.425781 L 0.04296875 15.486328 L 0 15.546875 L 0 16.214844 L 0.13085938 16.199219 L 0.16992188 16.109375 L 0.30664062 16.021484 L 0.29882812 15.896484 L 0.42382812 15.890625 L 0.6484375 15.771484 L 0.63476562 15.792969 L 0.73828125 15.884766 L 0.703125 16.005859 L 0.52734375 16.164062 L 0.66796875 16.337891 L 0.67773438 16.429688 L 0.95507812 16.580078 L 1.2421875 16.546875 L 1.2910156 16.648438 L 1.8222656 16.660156 L 2.1210938 16.394531 L 2.0097656 16.261719 L 2.1113281 16.292969 L 2.4941406 16.328125 L 2.5820312 16.179688 L 2.5859375 16.150391 L 2.6816406 16.292969 L 3.1113281 16.234375 L 3.0957031 16.298828 L 3.5664062 16.46875 L 3.9296875 16.234375 L 3.875 16.158203 L 3.9589844 16.189453 L 3.9316406 16.222656 L 3.9628906 16.404297 L 4.2734375 16.501953 L 4.5175781 16.4375 L 4.6894531 16.316406 L 4.6601562 16.242188 L 4.796875 16.386719 L 5.2890625 16.337891 L 5.4707031 16.076172 L 5.2753906 15.798828 L 4.7363281 15.779297 L 4.546875 16.080078 L 4.4140625 15.992188 L 4.4179688 15.988281 L 4.2011719 15.691406 L 3.6621094 15.710938 L 3.6074219 15.941406 L 3.2441406 15.955078 L 3.2617188 15.869141 L 2.8046875 15.724609 L 2.5136719 15.929688 L 2.3886719 15.808594 L 2.078125 15.865234 L 1.8730469 16.054688 L 1.875 16.105469 L 1.4453125 16.085938 L 1.2929688 16.191406 L 1.2597656 16.191406 L 1.2460938 15.992188 L 1.2285156 15.966797 L 1.3378906 15.941406 L 1.4042969 15.744141 L 1.3027344 15.529297 L 0.953125 15.525391 L 0.734375 15.623047 L 0.65039062 15.767578 L 0.62695312 15.515625 L 0.3125 15.425781 z M 6.3027344 15.439453 L 6.0566406 15.455078 L 5.9550781 15.589844 L 5.9023438 15.589844 L 5.6679688 15.630859 L 5.4472656 15.841797 L 5.6386719 16.013672 L 5.9785156 16.076172 L 6.2128906 16.013672 L 6.2226562 15.910156 L 6.28125 15.919922 L 6.328125 15.908203 L 6.3125 15.986328 L 6.3457031 16.146484 L 6.6328125 16.316406 L 6.7636719 16.267578 L 6.765625 16.269531 L 6.8085938 16.453125 L 7.0683594 16.613281 L 7.3183594 16.630859 L 7.4511719 16.484375 L 7.4726562 16.429688 L 7.7304688 16.458984 L 7.9707031 16.357422 L 8.0429688 16.113281 L 7.7558594 15.958984 L 7.5175781 16.011719 L 7.2675781 15.736328 L 6.7832031 15.806641 L 6.7285156 15.798828 L 6.5820312 15.810547 L 6.6855469 15.710938 L 6.5507812 15.5 L 6.3027344 15.439453 z M 29.056641 15.474609 L 28.8125 15.523438 L 28.490234 15.666016 L 28.533203 15.744141 L 28.400391 15.744141 L 28.335938 15.869141 L 28.103516 15.826172 L 27.785156 16.080078 L 27.908203 16.355469 L 28.330078 16.476562 L 28.753906 16.251953 L 28.734375 16.216797 L 28.84375 16.173828 L 29.070312 16.007812 L 29.087891 16.009766 L 29.263672 15.830078 L 29.228516 15.595703 L 29.056641 15.474609 z M 15.025391 15.513672 L 14.779297 15.673828 L 14.78125 15.767578 L 14.486328 15.826172 L 14.458984 15.779297 L 13.955078 15.792969 L 13.818359 16.111328 L 14.09375 16.255859 L 13.878906 16.339844 L 13.978516 16.662109 L 14.511719 16.730469 L 14.667969 16.480469 L 14.78125 16.558594 L 15.070312 16.650391 L 15.294922 16.443359 L 15.175781 16.308594 L 15.148438 16.111328 L 15.087891 16.097656 L 15.091797 16.011719 L 15.191406 16.019531 L 15.5 15.925781 L 15.464844 15.693359 L 15.292969 15.560547 L 15.025391 15.513672 z M 32 15.546875 L 31.925781 15.654297 L 31.794922 15.673828 L 31.777344 15.736328 L 31.751953 15.730469 L 31.554688 15.859375 L 31.455078 15.822266 L 31.193359 15.841797 L 31.175781 15.851562 L 31.111328 15.693359 L 30.802734 15.630859 L 30.527344 15.736328 L 30.501953 15.662109 L 30.261719 15.662109 L 30.027344 15.701172 L 30.001953 15.726562 L 29.904297 15.748047 L 29.732422 15.65625 L 29.431641 15.720703 L 29.255859 15.873047 L 29.369141 16.117188 L 29.707031 16.154297 L 29.757812 16.132812 L 29.833984 16.197266 L 30.148438 16.183594 L 30.248047 16.130859 L 30.337891 16.146484 L 30.472656 16.111328 L 30.484375 16.164062 L 30.867188 16.169922 L 30.966797 16.027344 L 30.998047 16.009766 L 31.042969 16.1875 L 31.261719 16.285156 L 31.505859 16.308594 L 31.664062 16.185547 L 31.753906 16.244141 L 32 16.214844 L 32 15.546875 z M 19.318359 15.587891 L 18.988281 15.654297 L 18.871094 15.810547 L 18.863281 15.974609 L 19.046875 16.056641 L 18.822266 16.125 L 18.751953 16.376953 L 19.025391 16.513672 L 19.308594 16.498047 L 19.542969 16.304688 L 19.40625 16.095703 L 19.451172 16.097656 L 19.582031 15.880859 L 19.521484 15.710938 L 19.318359 15.587891 z M 18.294922 15.630859 L 17.898438 15.748047 L 17.869141 15.814453 L 17.759766 15.693359 L 17.306641 15.642578 L 17.029297 15.880859 L 16.976562 15.869141 L 16.724609 16.001953 L 16.697266 16.238281 L 16.914062 16.388672 L 17.203125 16.480469 L 17.427734 16.273438 L 17.388672 16.228516 L 17.761719 16.238281 L 17.861328 16.101562 L 18.154297 16.294922 L 18.630859 16.138672 L 18.710938 15.810547 L 18.294922 15.630859 z M 15.742188 15.986328 L 15.560547 16.107422 L 15.375 16.333984 L 15.552734 16.439453 L 15.763672 16.509766 L 15.808594 16.832031 L 16.238281 16.998047 L 16.640625 16.802734 L 16.617188 16.513672 L 16.251953 16.328125 L 16.158203 16.357422 L 16.173828 16.238281 L 15.980469 16.042969 L 15.742188 15.986328 z M 17.71875 16.300781 L 17.515625 16.398438 L 17.560547 16.568359 L 17.734375 16.798828 L 17.966797 16.759766 L 18.181641 16.681641 L 18.318359 16.443359 L 18.070312 16.306641 L 17.71875 16.300781 z M 28.986328 16.326172 L 28.771484 16.427734 L 28.648438 16.572266 L 28.794922 16.75 L 29.085938 16.865234 L 29.351562 16.712891 L 29.417969 16.544922 L 29.322266 16.373047 L 28.986328 16.326172 z M 0 16.451172 L 0 16.955078 L 0.04296875 16.990234 L 0.56054688 16.884766 L 0.515625 16.541016 L 0 16.451172 z M 31.998047 16.451172 L 31.728516 16.736328 L 32 16.955078 L 32 16.451172 L 31.998047 16.451172 z M 30.060547 16.466797 L 29.800781 16.490234 L 29.591797 16.580078 L 29.595703 16.726562 L 29.566406 16.744141 L 29.519531 16.998047 L 29.808594 17.091797 L 30.152344 17.041016 L 30.314453 16.912109 L 30.253906 16.820312 L 30.292969 16.792969 L 30.328125 16.609375 L 30.060547 16.466797 z M 22.326172 16.539062 L 22.113281 16.613281 L 21.933594 16.722656 L 21.886719 16.976562 L 22.175781 17.070312 L 22.519531 17.019531 L 22.681641 16.890625 L 22.578125 16.734375 L 22.326172 16.539062 z M 5.1191406 16.640625 L 4.7910156 16.705078 L 4.671875 16.861328 L 4.6640625 17.027344 L 4.9160156 17.138672 L 5.2539062 17.150391 L 5.3828125 16.933594 L 5.3242188 16.763672 L 5.1191406 16.640625 z M 10.541016 16.646484 L 10.087891 16.90625 L 10.310547 17.251953 L 10.861328 17.220703 L 11.044922 16.837891 L 10.541016 16.646484 z M 27.732422 16.705078 L 27.462891 16.931641 L 27.552734 17.230469 L 28.070312 17.335938 L 28.384766 17.050781 L 28.226562 16.736328 L 27.732422 16.705078 z M 13.775391 16.744141 L 13.316406 16.873047 L 13.232422 17.164062 L 13.521484 17.40625 L 14.052734 17.337891 L 14.132812 16.980469 L 13.775391 16.744141 z M 13.521484 17.40625 L 13.207031 17.511719 L 13.09375 17.662109 L 13.251953 17.796875 L 13.566406 17.947266 L 13.746094 17.841797 L 13.882812 17.707031 L 13.835938 17.451172 L 13.521484 17.40625 z M 3.3417969 16.771484 L 3.0800781 16.851562 L 3.0117188 17.103516 L 3.2851562 17.242188 L 3.5683594 17.226562 L 3.8027344 17.03125 L 3.6542969 16.806641 L 3.3417969 16.771484 z M 2.3125 16.820312 L 1.9902344 16.851562 L 1.8613281 17.046875 L 2.0019531 17.265625 L 2.2988281 17.332031 L 2.6171875 17.322266 L 2.671875 17.070312 L 2.4726562 16.988281 L 2.3125 16.820312 z M 12.785156 16.996094 L 12.279297 17.009766 L 11.998047 17.240234 L 11.853516 17.53125 L 12.332031 17.708984 L 12.599609 17.572266 L 13.009766 17.511719 L 13.113281 17.208984 L 12.785156 16.996094 z M 21.205078 17.099609 L 20.917969 17.181641 L 20.6875 17.330078 L 20.896484 17.542969 L 21.128906 17.515625 L 21.414062 17.568359 L 21.625 17.404297 L 21.525391 17.201172 L 21.205078 17.099609 z M 20.896484 17.542969 L 20.376953 17.617188 L 20.181641 17.923828 L 20.521484 18.164062 L 20.949219 18.115234 L 21.179688 17.849609 L 20.896484 17.542969 z M 19.753906 17.103516 L 19.232422 17.185547 L 19.191406 17.521484 L 19.648438 17.648438 L 20.033203 17.396484 L 19.753906 17.103516 z M 29.152344 17.126953 L 28.933594 17.224609 L 28.833984 17.396484 L 29.041016 17.578125 L 29.302734 17.597656 L 29.537109 17.542969 L 29.603516 17.347656 L 29.501953 17.132812 L 29.152344 17.126953 z M 28.833984 17.396484 L 28.4375 17.199219 L 27.972656 17.382812 L 28.140625 17.710938 L 28.673828 17.716797 L 28.833984 17.396484 z M 4.2304688 17.183594 L 3.9902344 17.265625 L 3.7871094 17.388672 L 3.734375 17.675781 L 4.0605469 17.78125 L 4.3691406 17.734375 L 4.4511719 17.878906 L 4.59375 18.011719 L 4.9667969 18.074219 L 5.1425781 17.892578 L 5.1054688 17.660156 L 4.9355469 17.535156 L 4.6894531 17.585938 L 4.5332031 17.65625 L 4.6308594 17.580078 L 4.5136719 17.402344 L 4.2304688 17.183594 z M 26.904297 17.251953 L 26.537109 17.292969 L 26.423828 17.525391 L 26.621094 17.691406 L 26.896484 17.746094 L 27.199219 17.589844 L 27.130859 17.365234 L 26.904297 17.251953 z M 11 17.283203 L 10.857422 17.521484 L 11.021484 17.632812 L 11.117188 17.818359 L 11.439453 17.841797 L 11.636719 17.671875 L 11.578125 17.4375 L 11.314453 17.326172 L 11 17.283203 z M 2.78125 17.486328 L 2.484375 17.740234 L 2.6699219 18 L 2.9980469 18.09375 L 3.4277344 17.96875 L 3.4609375 17.662109 L 3.1464844 17.498047 L 2.78125 17.486328 z M 29.261719 17.880859 L 28.931641 17.945312 L 28.814453 18.101562 L 28.806641 18.267578 L 29.058594 18.376953 L 29.394531 18.388672 L 29.525391 18.173828 L 29.464844 18.001953 L 29.261719 17.880859 z M 10.966797 17.962891 L 10.705078 17.980469 L 10.498047 18.101562 L 10.554688 18.326172 L 10.773438 18.423828 L 11.019531 18.449219 L 11.214844 18.294922 L 11.273438 18.074219 L 10.966797 17.962891 z M 19.09375 17.982422 L 18.914062 18.107422 L 18.929688 18.322266 L 19.117188 18.472656 L 19.326172 18.439453 L 19.513672 18.332031 L 19.427734 18.091797 L 19.269531 18.080078 L 19.09375 17.982422 z M 27.796875 18.095703 L 27.449219 18.162109 L 27.373047 18.486328 L 27.589844 18.693359 L 27.916016 18.669922 L 28.072266 18.339844 L 27.796875 18.095703 z M 4.3027344 18.121094 L 3.9492188 18.1875 L 3.7167969 18.402344 L 3.7226562 18.59375 L 3.9863281 18.671875 L 4.421875 18.712891 L 4.5214844 18.544922 L 4.5507812 18.361328 L 4.3027344 18.121094 z M 21.369141 18.201172 L 21.087891 18.306641 L 21.076172 18.533203 L 21.220703 18.681641 L 21.519531 18.699219 L 21.675781 18.490234 L 21.570312 18.298828 L 21.369141 18.201172 z M 12.324219 18.384766 L 12.056641 18.427734 L 11.949219 18.642578 L 12.074219 18.798828 L 12.275391 18.896484 L 12.554688 18.822266 L 12.761719 18.642578 L 12.570312 18.447266 L 12.324219 18.384766 z M 20.164062 18.619141 L 20.003906 18.693359 L 19.869141 18.802734 L 19.833984 19.056641 L 20.050781 19.150391 L 20.310547 19.099609 L 20.433594 18.970703 L 20.355469 18.814453 L 20.164062 18.619141 z M 3.09375 18.738281 L 2.921875 18.853516 L 2.9023438 19.056641 L 3.0507812 19.185547 L 3.2480469 19.265625 L 3.4023438 19.085938 L 3.3203125 18.96875 L 3.3007812 18.800781 L 3.09375 18.738281 z M 28.798828 18.853516 L 28.419922 19.039062 L 28.556641 19.367188 L 28.990234 19.373047 L 29.121094 19.052734 L 28.798828 18.853516 z M 27.796875 19.060547 L 27.570312 19.089844 L 27.367188 19.228516 L 27.457031 19.449219 L 27.619141 19.550781 L 27.830078 19.552734 L 27.966797 19.357422 L 27.917969 19.189453 L 27.796875 19.060547 z M 12.003906 19.330078 L 11.576172 19.34375 L 11.460938 19.662109 L 11.820312 19.884766 L 12.160156 19.666016 L 12.003906 19.330078 z M 13.039062 19.380859 L 12.833984 19.486328 L 12.75 19.638672 L 12.771484 19.822266 L 12.974609 19.919922 L 13.136719 19.853516 L 13.25 19.734375 L 13.199219 19.539062 L 13.039062 19.380859 z M 20.648438 19.462891 L 20.416016 19.748047 L 20.617188 20.044922 L 20.964844 20.058594 L 21.115234 19.759766 L 20.962891 19.513672 L 20.648438 19.462891 z M 4.0136719 19.757812 L 3.8535156 19.771484 L 3.765625 19.953125 L 3.7792969 20.175781 L 4 20.236328 L 4.1621094 20.175781 L 4.265625 20.027344 L 4.1777344 19.816406 L 4.0136719 19.757812 z M 28.472656 19.998047 L 28.277344 20.0625 L 28.162109 20.214844 L 28.236328 20.458984 L 28.458984 20.496094 L 28.615234 20.394531 L 28.662109 20.152344 L 28.472656 19.998047 z M 20.041016 20.267578 L 19.902344 20.457031 L 19.900391 20.632812 L 20.005859 20.783203 L 20.238281 20.775391 L 20.355469 20.640625 L 20.400391 20.482422 L 20.259766 20.333984 L 20.041016 20.267578 z M 12.365234 20.511719 L 12.148438 20.630859 L 12.179688 20.841797 L 12.34375 21.001953 L 12.501953 21.017578 L 12.585938 20.873047 L 12.648438 20.623047 L 12.515625 20.548828 L 12.365234 20.511719 z M 28.933594 21.619141 L 28.695312 21.662109 L 28.623047 21.896484 L 28.75 22.060547 L 28.927734 22.115234 L 29.123047 21.958984 L 29.080078 21.734375 L 28.933594 21.619141 z M 3.6386719 22.470703 L 3.6484375 22.613281 L 3.6171875 22.763672 L 3.8671875 22.769531 L 3.9785156 22.621094 L 3.8671875 22.496094 L 3.6386719 22.470703 z M 19.851562 22.703125 L 19.765625 22.925781 L 19.878906 23.115234 L 20.085938 23.082031 L 20.164062 22.902344 L 20.082031 22.714844 L 19.851562 22.703125 z M 11.767578 23.041016 L 11.580078 23.189453 L 11.597656 23.408203 L 11.814453 23.478516 L 11.970703 23.361328 L 11.980469 23.162109 L 11.767578 23.041016 z M 27.958984 24.564453 L 27.863281 24.705078 L 27.894531 24.837891 L 28.074219 25.021484 L 28.253906 24.929688 L 28.261719 24.693359 L 28.175781 24.576172 L 27.958984 24.564453 z "
     style="fill:#999999;fill-opacity:1;stroke:none;stroke-width:0.72605091" />
  <rect
     style="fill:none;fill-opacity:1;stroke:none"
     id="rect8566"
     y="0"
     x="0"
     rx="0"
     height="32"
     width="32" />
</svg>
