<svg width="14" height="14" viewBox="0 0 14 14" fill="none" xmlns="http://www.w3.org/2000/svg">
<g clip-path="url(#clip0)">
<path d="M7 0C3.13444 0 0 3.13444 0 7C0 10.8656 3.13444 14 7 14C7.64556 14 8.16602 13.4795 8.16602 12.834C8.16602 12.5307 8.05384 12.2569 7.86328 12.0508C7.6805 11.8447 7.57227 11.5768 7.57227 11.2773C7.57227 10.6318 8.09273 10.1113 8.73828 10.1113H10.1113C12.258 10.1113 14 8.36932 14 6.22266C14 2.78488 10.8656 0 7 0V0ZM8.93359 1.30469C9.30185 1.30482 9.65499 1.45117 9.91539 1.71157C10.1758 1.97197 10.3221 2.3251 10.3223 2.69336C10.3225 2.87587 10.2867 3.05663 10.217 3.2253C10.1473 3.39398 10.045 3.54727 9.91608 3.67641C9.78711 3.80556 9.63397 3.90802 9.46539 3.97796C9.29681 4.04789 9.1161 4.08392 8.93359 4.08398C8.75109 4.08392 8.57038 4.04789 8.4018 3.97796C8.23322 3.90802 8.08007 3.80556 7.95111 3.67641C7.82215 3.54727 7.7199 3.39398 7.6502 3.2253C7.58051 3.05663 7.54473 2.87587 7.54492 2.69336C7.54506 2.3251 7.69141 1.97197 7.9518 1.71157C8.2122 1.45117 8.56534 1.30482 8.93359 1.30469V1.30469ZM5.03906 1.32422C5.22174 1.32403 5.40265 1.35987 5.57146 1.42969C5.74026 1.4995 5.89364 1.60193 6.02281 1.7311C6.15198 1.86027 6.2544 2.01365 6.32422 2.18245C6.39404 2.35125 6.42988 2.53217 6.42969 2.71484C6.42962 2.89735 6.39359 3.07806 6.32366 3.24664C6.25373 3.41522 6.15126 3.56836 6.02212 3.69733C5.89297 3.82629 5.73968 3.92854 5.57101 3.99823C5.40233 4.06793 5.22157 4.10371 5.03906 4.10352C4.67081 4.10338 4.31767 3.95703 4.05727 3.69663C3.79687 3.43624 3.65052 3.0831 3.65039 2.71484C3.6502 2.53234 3.68598 2.35158 3.75567 2.1829C3.82537 2.01422 3.92762 1.86093 4.05658 1.73179C4.18554 1.60265 4.33869 1.50018 4.50727 1.43025C4.67585 1.36031 4.85655 1.32429 5.03906 1.32422V1.32422ZM2.70703 4.44727C2.88954 4.44733 3.07025 4.48336 3.23883 4.55329C3.4074 4.62323 3.56055 4.72569 3.68951 4.85484C3.81848 4.98398 3.92073 5.13727 3.99042 5.30595C4.06012 5.47462 4.09589 5.65538 4.0957 5.83789C4.09557 6.20615 3.94922 6.55928 3.68882 6.81968C3.42842 7.08008 3.07529 7.22643 2.70703 7.22656C2.33877 7.22643 1.98564 7.08008 1.72524 6.81968C1.46484 6.55928 1.31849 6.20615 1.31836 5.83789C1.31817 5.65538 1.35394 5.47462 1.42364 5.30595C1.49334 5.13727 1.59559 4.98398 1.72455 4.85484C1.85351 4.72569 2.00666 4.62323 2.17524 4.55329C2.34382 4.48336 2.52452 4.44733 2.70703 4.44727V4.44727ZM11.2656 4.44727C11.4481 4.44733 11.6288 4.48336 11.7974 4.55329C11.966 4.62323 12.1191 4.72569 12.2481 4.85484C12.3771 4.98398 12.4793 5.13727 12.549 5.30595C12.6187 5.47462 12.6545 5.65538 12.6543 5.83789C12.6542 6.20615 12.5078 6.55928 12.2474 6.81968C11.987 7.08008 11.6339 7.22643 11.2656 7.22656C10.8974 7.22643 10.5442 7.08008 10.2838 6.81968C10.0234 6.55928 9.87709 6.20615 9.87695 5.83789C9.87676 5.65538 9.91254 5.47462 9.98223 5.30595C10.0519 5.13727 10.1542 4.98398 10.2831 4.85484C10.4121 4.72569 10.5653 4.62323 10.7338 4.55329C10.9024 4.48336 11.0831 4.44733 11.2656 4.44727V4.44727Z" fill="#AC39AC"/>
</g>
<defs>
<clipPath id="clip0">
<rect width="14" height="14" fill="white"/>
</clipPath>
</defs>
</svg>
