<svg width="14" height="14" viewBox="0 0 14 14" fill="none" xmlns="http://www.w3.org/2000/svg">
<path d="M0 0V1V2V3H0.0195312C0.59024 2.99977 0.999995 3.44758 1 4C0.999968 4.55242 0.570709 5.00015 0 5V6V7V8H2V7H1V5.7168C1.59352 5.3688 1.99991 4.73382 2 4C1.99989 3.26607 1.59367 2.63115 1 2.2832V1H13V2.2832C12.4063 2.63115 12.0001 3.26607 12 4C12.0001 4.74359 12.4024 5.38585 13 5.73047V7H12V8H14V7V5H13.9687C13.398 5.00019 13 4.55242 13 4C13 3.44758 13.3804 2.99981 13.9512 3C13.9587 3.0006 13.9687 3.00195 13.9687 3.00195V3H14V1V0H0Z" fill="#AC39AC"/>
<path d="M6.99998 3C5.82238 3 4.86601 4.17599 4.86601 5.624C4.86601 6.65541 5.35035 7.54799 6.05518 7.97589C6.26728 8.10465 6.03582 8.43802 5.88008 8.22197C5.48895 7.67942 4.91852 7.33704 4.28295 7.33704C3.10536 7.33704 2.14899 8.51303 2.14899 9.96104C2.14899 11.4091 3.10537 12.5827 4.28295 12.5827C5.45153 12.5827 6.40462 11.4269 6.41694 9.99416C6.41909 9.74001 6.73636 9.7137 6.73636 10.0557C6.73636 10.5943 6.31528 13.4546 6.08982 14C6.33591 13.9237 6.74604 13.8604 6.99998 13.8604C7.25391 13.8604 7.66405 13.9237 7.91014 14C7.68468 13.4546 7.2636 10.5943 7.2636 10.0557C7.2636 9.7137 7.58084 9.74001 7.58302 9.99416C7.59534 11.4269 8.54844 12.5827 9.717 12.5827C10.8946 12.5827 11.851 11.4091 11.851 9.96104C11.851 8.51303 10.8946 7.33704 9.717 7.33704C9.08145 7.33704 8.51101 7.67942 8.11988 8.22197C7.96413 8.43802 7.73268 8.10465 7.94478 7.97589C8.6496 7.54799 9.13395 6.65541 9.13395 5.624C9.13395 4.17599 8.17757 3 6.99998 3V3Z" fill="#AC39AC"/>
</svg>
