<svg width="14" height="14" viewBox="0 0 14 14" fill="none" xmlns="http://www.w3.org/2000/svg">
<path d="M7.89839 4.9696C6.79044 4.9696 5.89844 5.86156 5.89844 6.96956V10.9694C5.89844 12.0774 6.7904 12.9694 7.89839 12.9694H11.8982C13.0062 12.9694 13.8982 12.0774 13.8982 10.9694V6.96956C13.8982 5.8616 13.0062 4.9696 11.8982 4.9696H7.89839ZM11.8982 5.71961C12.2297 5.71961 12.5477 5.8513 12.7821 6.08571C13.0165 6.32012 13.1482 6.63805 13.1482 6.96956C13.1482 7.30107 13.0165 7.619 12.7821 7.85341C12.5477 8.08782 12.2297 8.21951 11.8982 8.21951C11.5667 8.21951 11.2488 8.08782 11.0144 7.85341C10.78 7.619 10.6483 7.30107 10.6483 6.96956C10.6483 6.63805 10.78 6.32012 11.0144 6.08571C11.2488 5.8513 11.5667 5.71961 11.8982 5.71961V5.71961ZM7.89839 9.71945C8.2299 9.71945 8.54783 9.85114 8.78225 10.0855C9.01666 10.32 9.14835 10.6379 9.14835 10.9694C9.14835 11.3009 9.01666 11.6188 8.78225 11.8532C8.54783 12.0877 8.2299 12.2194 7.89839 12.2194C7.56689 12.2194 7.24896 12.0877 7.01454 11.8532C6.78013 11.6188 6.64844 11.3009 6.64844 10.9694C6.64844 10.6379 6.78013 10.32 7.01454 10.0855C7.24896 9.85114 7.56689 9.71945 7.89839 9.71945V9.71945Z" fill="#734A08"/>
<path d="M3.86715 1.06347C3.22721 1.10845 2.61969 1.46364 2.27338 2.06345L0.273419 5.53219C-0.280579 6.49177 0.0326125 7.69675 0.992165 8.25093L4.46091 10.2509C4.60202 10.3318 4.74902 10.4254 4.89839 10.4696V6.96971C4.89839 5.32507 6.25367 3.96978 7.89832 3.96978H9.11709C8.95186 3.72335 8.73616 3.5038 8.46086 3.3448L4.99212 1.34484C4.63229 1.13698 4.25111 1.03677 3.86715 1.0636V1.06347ZM4.17183 1.77243C4.7329 1.77778 5.22163 2.15631 5.3671 2.69818C5.54605 3.36477 5.15086 4.05025 4.48432 4.22933C3.81773 4.40827 3.13225 4.01308 2.95317 3.34655C2.77423 2.67996 3.16942 1.99447 3.83595 1.8154C3.94546 1.78591 4.05848 1.77145 4.17188 1.77243L4.17183 1.77243ZM2.05078 5.44613C2.61238 5.45172 3.10126 5.83119 3.24605 6.37385C3.42361 7.0404 3.02766 7.72483 2.36131 7.90311C1.69536 8.08081 1.01123 7.68588 0.832047 7.02033C0.653099 6.35374 1.04829 5.66825 1.71482 5.48918C1.82433 5.4597 1.93735 5.44523 2.05076 5.44621L2.05078 5.44613Z" fill="#734A08"/>
</svg>
