<svg width="14" height="14" viewBox="0 0 14 14" fill="none" xmlns="http://www.w3.org/2000/svg">
<path d="M0 0C0 1 0 2 0 3H1V1H13V3H14V0C9.33333 0 4.66667 0 0 0ZM2 2V12L1 14C5 14 9 14 13 14L12 12V2C8.66667 2 5.33333 2 2 2ZM3 3H11V4H3V3ZM3 5H11C11 7.5 11 10 11 12.5C11 12.777 10.777 13 10.5 13H3.5C3.223 13 3 12.777 3 12.5C3 10 3 7.5 3 5ZM7 6C7 7 6.74264 7.56223 6 8C5.446 8 5 8.446 5 9C5 9.554 5.446 10 6 10H5C4.446 10 4 10.446 4 11C4 11.554 4.446 12 5 12H9C9.554 12 10 11.554 10 11C10 10.446 9.554 10 9 10H8C8.554 10 9 9.554 9 9C9 8.446 8.554 8 8 8C8.00033 7 7.71689 6.47641 7 6Z" fill="#734A08"/>
</svg>
