<svg width="14" height="14" viewBox="0 0 14 14" fill="none" xmlns="http://www.w3.org/2000/svg">
<g clip-path="url(#clip0)">
<path d="M5.86128 -0.0117188C7.4948 3.34105 -1.07561 5.53805 6.37691 10.1309L6.69917 10.0137C4.84359 7.32835 12.3744 4.18048 5.86128 -0.0117188ZM9.24996 3.42383C10.3004 6.51156 6.71387 7.39627 7.8398 9.59766L9.52925 8.98438C10.2071 7.3309 11.943 5.99768 9.24996 3.42383ZM1.47456 8.99805C1.35783 9.00223 1.24625 9.04715 1.15918 9.125C1.0721 9.20286 1.01503 9.30874 0.997863 9.42428C0.980695 9.53981 1.00451 9.65772 1.06519 9.75753C1.12586 9.85734 1.21956 9.93276 1.33003 9.9707L5.54488 11.5039L1.33199 13.0352C1.27094 13.0572 1.21484 13.0911 1.16688 13.1348C1.11893 13.1786 1.08006 13.2313 1.05249 13.2901C0.996814 13.4088 0.990563 13.5447 1.03511 13.668C1.07966 13.7913 1.17136 13.8918 1.29003 13.9475C1.40871 14.0031 1.54464 14.0094 1.66792 13.9648L6.99019 12.0293L12.33 13.9707C12.4549 14.0158 12.5925 14.0094 12.7126 13.953C12.8328 13.8966 12.9256 13.7948 12.9707 13.6699C13.0157 13.5451 13.0094 13.4075 12.9529 13.2873C12.8965 13.1672 12.7947 13.0744 12.6699 13.0293L8.45503 11.4961L12.6679 9.96484C12.7779 9.92656 12.8708 9.8507 12.9302 9.75063C12.9897 9.65055 13.012 9.53269 12.9931 9.41782C12.9742 9.30295 12.9153 9.19845 12.8269 9.12272C12.7384 9.047 12.6261 9.00492 12.5097 9.00391C12.4491 9.00333 12.3888 9.01392 12.332 9.03516L7.00972 10.9707L1.66988 9.0293C1.6075 9.00598 1.5411 8.99536 1.47456 8.99805V8.99805Z" fill="#734A08"/>
</g>
<defs>
<clipPath id="clip0">
<rect width="14" height="14" fill="white"/>
</clipPath>
</defs>
</svg>
