<svg width="14" height="14" viewBox="0 0 14 14" fill="none" xmlns="http://www.w3.org/2000/svg">
<path d="M4.375 0.5C3.5 0.5 2.625 1.1125 2.625 2.25C2.625 3.38663 3.14462 4 4.28125 4H6.84375H7.09375H9.65625C10.792 4 11.375 3.417 11.375 2.28125C11.3741 1.14375 10.5 0.5 9.625 0.5C8.2985 0.5 7.33338 1.30325 7 2.46875C6.66575 1.30325 5.73038 0.5 4.375 0.5ZM4.375 1.375C5.79163 1.375 6.03137 2.49588 6.125 3.125H4.375C3.45538 3.125 3.5 2.28762 3.5 2.25C3.5 2.21238 3.45538 1.375 4.375 1.375ZM9.625 1.375C10.5 1.375 10.5 2.21238 10.5 2.25C10.5 2.28762 10.5446 3.125 9.625 3.125H7.875C7.96863 2.49588 8.20662 1.375 9.625 1.375ZM4 5C3 5 2 6 2 7V8.75H6.25V5H4ZM7.75 5V8.75H12V7C12 6 11 5 10 5H7.75ZM2 10.25V12C2 13 3 14 4 14H6.25V10.25H2ZM7.75 10.25V14H10C11 14 12 13 12 12V10.25H7.75Z" fill="#AC39AC"/>
</svg>
