<?xml version="1.0" encoding="UTF-8" standalone="no"?>
<svg version="1.1"
    id="golf_rough"
    xmlns:svg="http://www.w3.org/2000/svg"
    xmlns="http://www.w3.org/2000/svg"
    width="40"
    height="40">
   <path fill="#a5d979" d="M 5.0507812,0 5.0058594,0.21289062 5.4589844,0.67578125 6.1445312,0.62304688 6.4199219,0 Z M 11.59375,0 11.775391,0.65234375 12.392578,0.84960938 12.976562,0.484375 12.943359,0 Z M 15.316406,0 15.375,0.07421875 15.789062,0.19726562 16.041016,0 Z m 2.158203,0 -0.02148,0.51171875 0.269531,0.33007813 0.556641,0.0429687 0.291011,-0.4726562 L 18.378906,0 Z m 6.449219,0 0.308594,0.31445312 0.685547,-0.0527344 L 25.035156,0 Z m 4.9375,0 -0.15039,0.14648438 0.0039,0.39453124 L 28.8789,0.87695312 29.330078,0.921875 29.791016,0.7109375 29.736328,0.18945312 29.572266,0 Z m 3.0625,0 -0.189453,0.17382812 -0.07227,0.57226563 0.435547,0.2109375 L 32.611328,0.84179688 32.857422,0.5546875 32.699219,0.203125 32.525391,0 Z m 7.056641,0 -0.0059,0.015625 0.398438,0.6328125 0.676478,-0.109375 V 0.00390625 Z M 1.2265625,0.046875 0.5703125,0.42773438 0.72070312,1.1542969 1.5175781,1.3066406 1.8183594,0.58789062 Z M 10.283203,0.2890625 9.9160156,0.55273438 9.7109375,1.0175781 l 0.3847655,0.3535157 0.390625,0.052734 0.367188,-0.1875 0.03906,-0.51367185 -0.265625,-0.29101563 z M 38.035156,0.3125 37.712891,0.45507812 37.269531,0.43945312 37.050781,0.875 37.304688,1.2851562 37.828125,1.3925781 38.201172,1.109375 38.457031,0.703125 Z M 2.8203125,0.34179688 2.6035156,0.875 2.8496094,1.1269531 2.9941406,1.546875 3.4785156,1.5976562 3.7714844,1.2148438 3.6875,0.6875 3.2890625,0.43945312 Z m 4.8808594,0.015625 -0.3320313,0.33984374 -0.074219,0.42578128 0.40625,0.40625 L 8.1894531,1.3671875 8.4023438,0.99804688 8.2441406,0.46289062 Z m 13.7500001,0.0117187 -0.511719,0.265625 0.07227,0.47851562 0.388672,0.3574219 0.375,0.037109 0.201171,-0.328125 0.146485,-0.56054692 -0.316406,-0.16992187 z M 34.634766,0.77734375 34.267578,1.0429688 34.0625,1.5058594 34.447266,1.8613281 34.837891,1.9140621 35.205078,1.724609 35.244138,1.2128902 34.978513,0.91992148 Z M 26.511719,0.8984375 26.037109,0.99023438 25.751953,1.4414062 25.884766,1.890625 26.171875,2.2753906 26.6875,2.0195312 26.669922,1.6679688 26.839844,1.2578125 Z m -12.748047,0.3066406 -0.328125,0.2207031 -0.148438,0.3847657 0.310547,0.4101562 0.392578,0.042969 0.351563,-0.1230469 0.09961,-0.4414062 -0.154297,-0.4824219 z m 17.30664,0.00391 -0.65625,0.3789062 0.152344,0.7285156 0.796875,0.1503907 L 31.664062,1.75 Z m -12.125,0.050781 -0.478515,0.5742188 0.1875,0.6191406 L 19.287109,2.726566 19.921875,2.2226562 19.662109,1.46875 Z M 4.8867188,1.4238281 4.375,1.6894531 4.4472656,2.1679688 4.8359375,2.5253906 5.2109375,2.5625 5.4121094,2.234375 5.5605469,1.6738281 5.2421875,1.5039062 Z m 19.4941402,0.029297 -0.404297,0.5058594 0.134766,0.6757812 0.775391,0.2363282 0.472656,-0.640625 -0.236328,-0.7089844 z m -8.435547,0.1796875 -0.472656,0.2363281 -0.167968,0.3378906 0.236328,0.3046876 0.472656,0.3378906 0.269531,-0.2363282 0.203125,-0.3046874 -0.06836,-0.5742188 z m 23.359376,0.1816406 -0.433594,0.2734375 -0.119141,0.4101563 0.28125,0.4824219 0.552735,-0.029297 0.240234,-0.40625 -0.0293,-0.4316407 z m -17.216797,0.078125 -0.478516,0.5742188 0.1875,0.6191406 0.630859,0.2734375 0.636719,-0.5039062 -0.259765,-0.7539063 z m 6.691406,0.2832031 -0.390625,0.052734 -0.3125,0.203125 0.0078,0.453125 0.265625,0.4316406 0.511731,-0.115234 L 29.126953,2.9101562 29.179688,2.5 Z M 11.117188,2.1875 10.359375,2.21875 10.154297,2.9335938 10.791016,3.4375 11.390625,2.9414062 Z M 37.435547,2.5039062 36.943359,2.6484375 36.763672,3 l -0.01172,0.3730469 0.378906,0.25 0.50586,0.027344 0.195312,-0.4863281 -0.08984,-0.3847656 z m -2.71875,0.021484 -0.273438,0.2714844 -0.277343,0.5097656 0.265625,0.2402344 0.326171,0.1640625 0.5625,-0.1367187 0.04297,-0.4804684 -0.291015,-0.4414062 z m -16.996094,0.03711 -0.390625,0.052734 -0.3125,0.203125 0.0078,0.453125 0.265625,0.4316406 0.509765,-0.1152344 0.265625,-0.2929687 0.05273,-0.4082031 z M 7.3027344,2.6796875 6.9707031,3.0195312 6.8984375,3.4453125 7.3027344,3.8515625 7.7910156,3.6894531 8.0039062,3.3203125 7.8457031,2.7851562 Z M 13.130859,2.7675781 12.539062,3.0273438 12.34375,3.6875 12.921875,4.2578125 13.636719,3.9101562 13.757812,3.171875 Z M 3.7441406,2.953125 3.1835938,3.078125 3.1152344,3.4238281 2.8515625,3.78125 3.0859375,4.2089844 3.5683594,4.2324219 3.953125,3.8632812 3.9316406,3.3945312 Z m -2.7148437,0.00781 -0.39257815,0.042969 -0.31054687,0.2695313 0.0839844,0.5078125 0.328125,0.2207031 0.36914062,0.054687 0.2929687,-0.34375 0.087891,-0.5 z m 31.5390621,0.050781 -0.492187,0.1445312 -0.179688,0.3515625 -0.01172,0.3730469 0.378906,0.25 0.505859,0.027344 L 32.964844,3.671875 32.875,3.2871094 Z m -6.427734,0.041016 -0.689453,0.2851562 -0.123047,0.6367188 0.433594,0.5332031 0.796875,-0.1503906 0.11914,-0.7871094 z m 4.078125,0.15625 -0.216797,0.5332031 0.246094,0.2519531 0.144531,0.4199219 0.484375,0.050781 L 31.169922,4.0820312 31.085938,3.5546875 30.6875,3.3066406 Z M 19.476562,3.5078125 19.083984,3.6875 18.978516,4.2539062 19.390625,4.5625 19.814453,4.5292969 20.166016,4.09375 19.943359,3.5878906 Z m 3.003907,0.296875 -0.371094,0.033203 L 21.90625,4.2421875 21.939453,4.75 22.447266,4.8847656 22.818359,4.75 23.054688,4.4121094 22.851562,3.9394531 Z M 5.6914062,4.0527344 5.2558594,4.328125 5.1367188,4.7382812 5.4199219,5.21875 5.9726562,5.1914062 6.2128906,4.7832031 6.1816406,4.3515625 Z m 34.1503908,0.056641 -0.273438,0.2714844 -0.277343,0.5097656 0.267578,0.2382812 0.326172,0.1640626 0.164719,-0.033203 V 4.6406254 4.1855473 Z m -12.052735,0.097656 -0.779296,0.1660157 -0.292969,0.6875 0.509765,0.5410156 0.638672,-0.109375 0.347657,-0.59375 z M 10.251953,4.2890625 9.828125,4.9804688 10.392578,5.515625 11.109375,5.1523438 10.986328,4.4042969 Z M 16.130859,4.4277344 15.654297,5 15.839844,5.6210938 16.472656,5.8945312 17.107422,5.3886719 16.847656,4.6367188 Z m 20.115235,0.2421875 -0.273438,0.2714843 -0.279297,0.5097657 0.267579,0.2382812 0.326171,0.1660157 0.5625,-0.1367188 0.04297,-0.4824219 -0.291016,-0.4394531 z m -12.410156,0.00586 -0.476563,0.5722657 0.185547,0.6210937 0.632812,0.2734375 0.634766,-0.50586 -0.259766,-0.7519532 z m -9.701172,0.109375 -0.496094,0.640625 0.43164,0.6699219 0.748047,0.03125 0.326172,-0.671875 -0.330078,-0.5566406 z m 19.59375,0.046875 -0.394532,0.3886719 0.08984,0.4648438 0.308594,0.3027343 0.566406,-0.1035156 0.142578,-0.4921875 -0.18164,-0.3867187 z m -12.71875,0.064453 -0.439454,0.3710937 0.101563,0.3378907 -0.06836,0.4394531 0.40625,0.2695312 0.4375,-0.203125 0.169922,-0.5058593 -0.236329,-0.4042969 z M 11.964844,4.9160156 11.533203,5.1015625 11.1875,5.4335938 11.501953,5.9140625 11.849609,5.8535156 12.277344,5.9726562 12.59375,5.6035156 12.447266,5.1445312 Z M 4.5859375,4.9882812 4.0253906,5.1113281 3.9570312,5.4570312 3.6933594,5.8144531 3.9277344,6.2421875 4.4101562,6.2675781 4.7929688,5.8964844 4.7734375,5.4277344 Z M 8.96875,5.1367188 8.6445312,5.2773438 8.2011719,5.2636719 7.9824219,5.6992188 8.2363281,6.109375 8.7597656,6.2167969 9.1328125,5.9335938 9.3886719,5.5273438 Z m 20.984375,0.2324218 -0.462891,0.6269532 0.445313,0.6660156 0.728515,-0.2128906 0.02734,-0.7421876 z M 0,5.3925781 V 6.4882812 L 0.4375,6.3828125 0.48046875,5.9003906 0.18945312,5.4609375 Z m 18.089844,0.1523438 -0.533203,0.023437 -0.294922,0.3632812 -0.152344,0.4550782 0.503906,0.2792968 0.279297,-0.2148437 0.433594,-0.091797 0.109375,-0.4746094 z M 2.3789062,5.6816406 1.6210938,5.7128906 1.4179688,6.4277344 2.0527344,6.9335938 2.6542969,6.4355469 Z m 36.3964848,0.091797 -0.322266,0.140625 -0.443359,-0.013672 -0.220704,0.4355469 0.253907,0.4101563 0.523437,0.1074218 0.373047,-0.2851562 0.257813,-0.4042969 z M 6.1660156,5.890625 5.703125,6.1582031 5.6113281,6.6171875 5.6875,7.0917969 6.2617188,7.1035156 6.4101562,6.7851562 6.7519531,6.5 l -0.125,-0.46875 z m 19.0156254,0.4824219 -0.367188,0.2636719 -0.205078,0.4628906 0.384766,0.3554687 0.392578,0.052734 0.365234,-0.1894531 0.04102,-0.5117188 -0.265625,-0.2910156 z m -11.53711,0.2714843 -0.439453,0.3710938 0.101563,0.3378906 -0.06836,0.4394532 0.40625,0.2695312 0.4375,-0.203125 0.169922,-0.5058594 -0.236328,-0.4042968 z m 8.347657,0.1074219 -0.550782,0.09375 -0.169922,0.5273438 0.296875,0.3691406 0.414063,0.125 0.453125,-0.3535156 -0.101563,-0.5039063 z m 11.207031,0.00977 -0.392578,0.042969 -0.310547,0.2714844 0.08398,0.5058593 0.328125,0.2207032 0.367188,0.056641 0.294921,-0.3457031 0.08789,-0.5 z m -4.53711,0.066406 -0.697265,0.4160156 0.251953,0.7363282 0.800781,0.011719 0.240234,-0.71875 z m 2.449219,0.1171875 -0.216797,0.5332031 0.246094,0.2519532 0.144531,0.4199218 0.484375,0.050781 L 32.0625,7.8183594 31.976562,7.2910156 31.580078,7.0429688 Z m -4.658203,0.1347656 -0.392578,0.1816407 -0.105469,0.5664062 0.410156,0.3085938 0.425782,-0.033203 0.351562,-0.4355468 -0.222656,-0.5078126 z m 13.365234,0.00391 -0.451171,0.1464844 -0.261719,0.3417968 0.169922,0.5488282 0.507812,0.083984 0.266282,-0.1816406 V 7.2968825 Z m -2.390625,0.056641 -0.78125,0.1816406 -0.06055,0.7558594 0.683593,0.2890625 0.578125,-0.5703125 z m -1.984375,0.015625 -0.4375,0.3710938 0.09961,0.3378906 -0.06641,0.4375 0.404297,0.2714844 0.439453,-0.203125 0.167969,-0.5058594 -0.236328,-0.40625 z m -30.8574215,0.083984 -0.6875,0.2851562 -0.125,0.6367188 L 4.2070312,8.6972656 5.0039062,8.5449219 5.125,7.7578125 Z M 16.09375,7.265625 15.361328,7.4140625 15.205078,8.1425781 15.658203,8.6054688 16.34375,8.5527344 16.671875,7.8125 Z M 10.259766,7.3847656 9.8652344,7.7714844 9.9570312,8.2363281 10.265625,8.5390625 10.830078,8.4375 10.974609,7.9433594 10.791016,7.5585938 Z M 8.84375,7.4355469 8.4902344,7.765625 8.4179688,8.2890625 8.5996094,8.6191406 8.9824219,8.5976562 9.5292969,8.4003906 9.4882812,8.0449219 9.3535156,7.7050781 Z M 0.86914062,7.6972656 0.55078125,7.8613281 0.28125,8.1074219 0.20898438,8.6816406 0.64453125,8.8925781 1.1601562,8.7773438 1.4042969,8.4882812 1.2480469,8.1386719 Z M 17.539062,8.2636719 17.160156,8.5644531 17.117188,9.0976562 17.443359,9.4335938 17.876953,9.640625 18.214844,9.1738281 18.035156,8.8710938 17.996094,8.4296875 Z m 3.173829,0.015625 -0.808594,0.042969 -0.121094,0.7714844 0.705078,0.3808594 0.546875,-0.5253906 z m 2.884765,0.1152343 -0.5,0.095703 -0.07227,0.5175781 0.179687,0.3535156 0.363281,0.1933594 0.44336,-0.2578125 0.08984,-0.3847656 -0.07812,-0.3652344 z M 6.5605469,8.4179688 6.2539062,8.6386719 6.3222656,9.0175781 6.5839844,9.5351562 6.9316406,9.4511719 7.2519531,9.2773438 7.4589844,8.7363281 7.0878906,8.4277344 Z m 26.7246091,0.2949218 -0.689453,0.2851563 -0.123047,0.6367187 0.433594,0.5351564 0.796875,-0.152344 0.121094,-0.7871092 z m -6.09375,0.1992188 -0.353515,0.3320312 -0.07422,0.5234375 0.183594,0.3300779 0.382812,-0.02148 0.546875,-0.1972658 -0.04102,-0.3554687 -0.134766,-0.3398437 z m -14.542968,0.03125 -0.523438,0.234375 -0.02148,0.5136718 0.269531,0.3320318 0.556641,0.04101 L 13.220703,9.59375 13.021484,9.1640625 Z M 29.25,9.03125 l -0.462891,0.2675781 -0.0918,0.4589844 0.07617,0.4746095 0.574219,0.01367 L 29.494141,9.9257812 29.835938,9.6425781 29.712891,9.171875 Z M 2.7382812,9.0664062 2.1445312,9.328125 1.9511719,9.9882812 2.5273438,10.556641 3.2441406,10.208984 3.3632812,9.4726562 Z m 35.6249998,0.4160157 -0.513672,0.041016 -0.294921,0.3066406 0.02539,0.5585935 0.503906,0.232422 0.402344,-0.25 0.173828,-0.3964842 z m -13.408203,0.1210937 -0.332031,0.3378906 -0.07227,0.4257818 0.404297,0.40625 0.488281,-0.16211 0.212891,-0.36914 -0.158203,-0.5351568 z m -20.0195311,0.00586 -0.4785157,0.5722664 0.1875,0.621093 0.6328126,0.271485 0.6347656,-0.503907 -0.2597656,-0.7539062 z m 9.1171871,0.089844 -0.474609,0.091797 -0.285156,0.4511724 0.132812,0.449218 0.28711,0.382813 0.515625,-0.253907 -0.01758,-0.353515 0.169921,-0.408203 z m 5.263672,0.044922 -0.464844,0.1289063 -0.308593,0.4277341 0.0078,0.378907 0.34961,0.158203 0.576171,0.08008 0.128907,-0.335938 0.03711,-0.361328 z m -2.873047,0.1503906 -0.355468,0.4511718 0.21875,0.464844 0.392578,0.167969 L 17.210938,10.75586 17.25,10.203125 16.873047,9.9160156 Z m 5.041016,0.048828 -0.369141,0.3574218 0.0039,0.394531 0.164062,0.333985 0.451172,0.04687 0.460937,-0.210938 -0.05469,-0.521484 -0.257813,-0.298828 z m -12.7460938,0.033203 -0.4980468,0.093749 -0.072266,0.519532 0.1777343,0.351562 0.3632813,0.19336 0.4453125,-0.257813 0.089844,-0.384765 -0.078125,-0.363282 z m 27.3593748,0.1152348 -0.367187,0.265625 -0.207031,0.46289 0.386718,0.355469 0.390625,0.05274 0.365235,-0.189454 0.04102,-0.511718 -0.265625,-0.292969 z m -4.1875,0.447265 -0.478515,0.494141 0.248047,0.773438 0.794921,0.02344 0.449219,-0.597656 -0.365234,-0.648438 z m -20.558594,0.0332 -0.322265,0.140625 -0.443359,-0.01367 -0.220704,0.433593 0.253907,0.41211 0.523437,0.105469 0.373047,-0.283203 0.257813,-0.404297 z m -10.73242138,0.05664 -0.60742187,0.523438 0.29882813,0.697265 0.74023432,-0.0625 0.2460938,-0.773437 z M 3.6152344,11.228516 3.2480469,11.341797 2.7636719,11.664062 2.890625,12 3.1015625,12.296875 3.6621094,12.4375 3.9238281,12.03125 3.8710938,11.505859 Z m 24.7480466,0.228515 -0.355469,0.451172 0.21875,0.464844 0.392579,0.167969 0.511718,-0.222657 0.03906,-0.552734 -0.375,-0.287109 z m -16.152343,0.117188 -0.332032,0.339843 -0.07226,0.425782 0.40625,0.40625 0.486328,-0.16211 0.214843,-0.36914 -0.160156,-0.535156 z m 8.048828,0.0332 -0.466797,0.234375 -0.189453,0.347656 0.04687,0.408203 0.464843,0.21875 0.367188,-0.144531 0.255859,-0.271484 -0.117187,-0.4375 z m 17.568359,0.02734 -0.578125,0.472656 0.199219,0.71875 0.617187,0.199219 0.583985,-0.367188 -0.05469,-0.808594 z m -3.070313,0.04101 -0.271484,0.271485 -0.279297,0.509765 0.267578,0.238281 0.326172,0.164063 0.560547,-0.134766 0.04492,-0.482421 -0.292969,-0.439454 z m 5.291673,0.126951 -0.563157,0.25586 0.08594,0.798828 0.477217,0.111328 v -0.648438 z m -31.9420631,-0.07423 -0.703125,0.238281 -0.054687,0.810547 0.75,0.210937 0.4648437,-0.652343 z m 14.9746091,0.002 -0.451172,0.144531 -0.263671,0.34375 0.169921,0.548828 0.507813,0.08398 0.361328,-0.228515 0.107422,-0.546875 z m 7.802735,0.08008 -0.373047,0.05469 -0.115235,0.365235 -0.0098,0.582031 0.347656,0.08789 0.365234,-0.0059 0.433594,-0.382812 -0.185547,-0.445313 z m -13.310547,0.08203 -0.703125,0.339844 0.08594,0.796875 0.744141,0.150391 0.36914,-0.644532 z m 6.90625,0.314453 -0.205078,0.292969 -0.125,0.34375 0.203125,0.541016 0.482422,-0.01563 0.402343,-0.341797 0.08398,-0.367188 -0.302735,-0.240234 z M 5.7617188,12.238281 5.3671875,12.625 5.4570312,13.089844 5.765625,13.392578 6.3320312,13.289062 6.4746094,12.796875 6.2929688,12.410156 Z m 9.9863282,0.169922 -0.373047,0.0332 -0.201172,0.404297 0.0332,0.507813 0.50586,0.134765 0.371093,-0.134765 0.236328,-0.337891 -0.201171,-0.472656 z m 10.970703,0.289063 -0.482422,0.06641 -0.193359,0.441406 0.208984,0.492188 0.445313,0.146484 0.480468,-0.01953 0.08203,-0.56836 -0.300782,-0.185547 z m -16.8417969,0.269531 -0.3046875,0.423828 -0.00586,0.396484 0.2324219,0.339844 0.5117185,-0.02148 0.259765,-0.298828 0.09961,-0.359375 -0.306641,-0.333985 z m 23.8144529,0.02539 -0.52539,0.236328 -0.02148,0.513672 0.271485,0.330078 0.55664,0.04101 0.289063,-0.470703 -0.197266,-0.429687 z m -19.40625,0.105468 -0.449218,0.06445 -0.396485,0.314453 0.175781,0.494141 0.322266,0.228516 0.412109,0.002 0.273438,-0.433594 -0.09961,-0.382812 z M 0,13.1875 v 1.271484 l 0.34375,0.01367 0.328125,-0.669922 -0.33007812,-0.558593 z m 2.4492188,0.0918 -0.3222657,0.140625 -0.4453125,-0.01367 -0.21875,0.433594 0.2539063,0.412109 0.5234375,0.105469 0.3730468,-0.283203 0.2578126,-0.404297 z m 1.2382812,0.01367 -0.7382812,0.33789 0.072266,0.792969 0.6464844,0.375 0.5996093,-0.443359 -0.03125,-0.646485 z m 17.166016,0.02148 -0.460938,0.265625 -0.0918,0.460938 0.07617,0.472656 0.574219,0.01367 0.148437,-0.320313 0.339844,-0.283203 -0.123047,-0.470703 z m 15.21289,0.0332 -0.513672,0.267578 0.07422,0.476563 0.386719,0.357422 0.376953,0.03906 0.199219,-0.328125 0.148437,-0.5625 -0.316406,-0.167968 z M 18.875,13.804688 18.556641,13.96875 18.287109,14.214844 18.216797,14.789062 18.650391,15 l 0.515625,-0.117188 0.24414,-0.287109 -0.15625,-0.351562 z m 11.949219,0.08984 -0.810547,0.04297 -0.119141,0.771484 0.705078,0.38086 0.546875,-0.525391 z m 8.117187,0.06836 -0.46289,0.625 0.445312,0.666015 0.728516,-0.210937 0.02734,-0.742188 z M 5.59375,14.091797 4.9863281,14.615234 5.2851562,15.3125 6.0253906,15.25 6.2714844,14.476562 Z m 22.839844,0.169922 -0.525391,0.236328 -0.02148,0.513672 0.269531,0.330078 0.558594,0.04101 0.289062,-0.470703 -0.199218,-0.429687 z m -20.7578128,0.15039 -0.40625,0.640625 0.4726563,0.574219 0.7773437,-0.236328 -0.068359,-0.777344 z m 15.7246098,0.03711 -0.472657,0.236328 -0.167968,0.337891 0.236328,0.302734 0.472656,0.33789 0.269531,-0.236328 0.203125,-0.302734 -0.06836,-0.574219 z m 2.162109,0.07031 -0.304688,0.425781 -0.0059,0.394532 0.232422,0.341797 0.513672,-0.02344 0.257812,-0.298828 L 26.355469,15 26.048828,14.667969 Z m -14.671875,0.0059 -0.40625,0.505859 0.134766,0.673828 0.777343,0.236328 0.472657,-0.640625 -0.236329,-0.708984 z m 5.837891,0.06836 -0.294922,0.746094 0.58789,0.478515 0.626954,-0.398437 -0.140626,-0.800781 z M 32.65625,14.710938 32,15.089844 32.150391,15.816406 32.947266,15.96875 33.248047,15.25 Z m 4.623047,0.257812 -0.304688,0.736328 0.398438,0.63086 0.738281,-0.111329 0.271484,-0.589843 -0.292968,-0.623047 z m -23.5625,0.04883 -0.757813,0.03125 -0.203125,0.714844 0.634766,0.503906 0.599609,-0.496094 z m -10.3125001,0.564453 -0.3710938,0.0332 -0.203125,0.40625 0.033203,0.50586 0.5058594,0.134765 0.3710938,-0.134765 0.2363281,-0.337891 -0.2011719,-0.472656 z m 11.9921871,0.07617 -0.460937,0.132813 0.05664,0.572265 0.333984,0.107422 0.324219,0.304688 0.451171,-0.179688 0.08398,-0.476562 -0.322266,-0.425782 z m -6.0468746,0.150391 -0.5292969,0.160156 -0.1367187,0.453125 0.1328124,0.412109 0.5488282,0.171875 0.3554687,-0.36914 0.017578,-0.427735 z m 26.1425786,0.171875 -0.214844,0.533203 0.246094,0.251953 0.144531,0.419922 0.482422,0.05078 0.294921,-0.382812 -0.08594,-0.527344 -0.396484,-0.248047 z m -2.228516,0.224609 -0.460938,0.267578 -0.0918,0.458985 0.07617,0.472656 0.574219,0.01367 0.148438,-0.320313 0.339843,-0.283203 -0.123047,-0.470703 z m -1.94336,0.09375 -0.810546,0.04297 -0.121094,0.769531 0.705078,0.382813 0.546875,-0.525391 z m -7.505859,0.0098 -0.523437,0.234375 -0.02148,0.513672 0.269531,0.332031 0.556641,0.04102 0.291016,-0.470704 -0.199219,-0.43164 z m 16.235032,-0.02897 -0.301438,0.21842 -0.15625,0.730469 0.453125,0.46289 0.0046,-0.495951 v -0.915828 z m -21.137376,0.230139 -0.480468,0.06641 -0.195313,0.443359 0.210938,0.490235 0.445312,0.146484 0.478516,-0.01953 0.08203,-0.56836 -0.298828,-0.185547 z m -13.1347652,0.02344 -0.4453126,0.339844 0.095703,0.544922 0.4335937,0.189453 0.4238281,-0.08203 0.2363282,-0.523438 -0.3242188,-0.398437 z m 20.3476562,0.07227 -0.378906,0.300781 -0.04102,0.53125 0.326172,0.337891 0.431641,0.205078 0.33789,-0.464844 -0.179687,-0.302734 -0.03906,-0.44336 z m -5.037109,0.01758 -0.271485,0.269531 -0.279297,0.509766 0.267579,0.240234 0.326171,0.164063 0.560547,-0.136719 0.04492,-0.480469 -0.292969,-0.441406 z M 1.359375,16.75 1.0058594,16.8418 0.67578125,17.316409 0.96289062,17.705081 1.4726562,17.8418 1.8222656,17.701175 1.8476566,17.318362 1.7167973,16.751956 Z M 0,16.886719 v 0.5625 l 0.1171875,-0.125 z m 28.849609,0.173828 -0.443359,0.337891 0.09375,0.544921 0.433594,0.189453 0.425781,-0.08203 0.236328,-0.523437 -0.324219,-0.398438 z m -21.4042965,0.04102 -0.4296875,0.185547 -0.3457031,0.332032 0.3144531,0.480468 0.3476562,-0.06055 0.4277344,0.121094 0.3164063,-0.36914 -0.1484375,-0.460938 z m 3.7226565,0.05859 -0.257813,0.445313 0.08399,0.417969 0.474609,0.296874 0.476562,-0.283203 0.02344,-0.472656 -0.226562,-0.367187 z m 26.517578,0.04883 -0.6875,0.285157 -0.125,0.634765 0.433594,0.535156 0.796875,-0.15039 0.121093,-0.78711 z m -23.757813,0.251954 -0.404296,0.505859 0.134765,0.675781 0.775391,0.236328 0.472656,-0.640625 -0.236328,-0.708984 z m 4.623047,0.320312 -0.689453,0.283203 -0.123047,0.636719 0.431641,0.535156 0.796875,-0.15039 0.121094,-0.78711 z m 5.482422,0.181641 -0.466797,0.128906 -0.308594,0.429687 0.0078,0.376954 0.351563,0.158203 0.574218,0.08008 0.128906,-0.335938 0.03906,-0.361328 z m -19.9570311,0.08984 -0.2207031,0.275391 -0.3984376,0.193359 0.00781,0.488282 0.4160156,0.24414 0.5117187,-0.148437 0.1992188,-0.423828 0.039063,-0.478516 z m 35.8613281,0.111328 -0.451172,0.144532 -0.263672,0.34375 0.171875,0.548828 0.50586,0.08398 0.149094,-0.240179 v -0.712119 z m -13.189453,0.08789 -0.435547,0.273438 -0.119141,0.410156 0.283203,0.482422 0.552735,-0.0293 0.240234,-0.408203 -0.0293,-0.431641 z m -10.519531,0.109375 -0.371094,0.0332 -0.203125,0.404297 0.03516,0.507813 0.505859,0.134765 0.371094,-0.134765 0.236328,-0.337891 -0.203125,-0.472656 z m 19.240234,0.08984 -0.560547,0.125 -0.06641,0.345703 -0.263672,0.357422 0.232422,0.425781 0.482422,0.02539 0.384765,-0.369141 -0.02148,-0.46875 z m -14.597656,0.05078 -0.496094,0.640625 0.431641,0.669922 0.746093,0.03125 0.326172,-0.669922 -0.330078,-0.558594 z m -8.421875,0.164063 -0.371094,0.357422 0.0059,0.394531 0.164063,0.333984 0.451172,0.04687 0.460937,-0.210937 -0.05469,-0.521485 -0.257813,-0.298828 z m 17.796875,0.0293 -0.376953,0.302735 -0.04297,0.53125 0.326172,0.337891 0.433594,0.205078 0.335937,-0.464844 -0.177734,-0.304688 -0.03906,-0.441406 z m -28.7695315,0.240235 -0.3671875,0.113281 -0.48242188,0.322266 0.125,0.335937 0.2109375,0.296875 0.56054688,0.140625 0.2617187,-0.40625 -0.052734,-0.52539 z m 9.1933595,0.152344 -0.7031251,0.238281 -0.054687,0.810547 0.7500001,0.210937 0.464844,-0.652344 z m 21.845703,0.05469 -0.472656,0.236328 -0.169922,0.337891 0.236328,0.304687 0.472656,0.335938 0.269531,-0.236328 0.203126,-0.302735 -0.06641,-0.574218 z m -27.4375,0.06836 -0.3222656,0.228515 -0.1835938,0.324219 0.21875,0.396484 0.4355469,0.259766 L 5.625,20.080078 5.7246094,19.697266 5.5820312,19.3125 Z m 2.875,0.169921 -0.4257812,0.691407 0.5664062,0.537109 0.7148438,-0.363281 -0.1230469,-0.748047 z m 21.103516,0.285157 -0.464844,0.626953 0.447265,0.666015 0.728516,-0.21289 0.02539,-0.742188 z m -9.603516,0.171875 -0.523437,0.236328 -0.02148,0.513672 0.269531,0.330078 0.556641,0.04102 0.291016,-0.470703 -0.199219,-0.429687 z m 4.824219,0.06055 -0.779297,0.166015 -0.292969,0.6875 0.511719,0.542969 0.638672,-0.111328 0.345703,-0.59375 z m 13.583984,0.01367 -0.273437,0.271485 -0.277344,0.509765 0.267578,0.240235 0.326172,0.164062 0.560547,-0.136718 0.04297,-0.480469 -0.291015,-0.441407 z m -22.335937,0.177735 -0.158203,0.457031 0.177734,0.498047 0.314453,0.207031 0.330078,-0.197265 0.392578,-0.427735 -0.201172,-0.296875 -0.277343,-0.238281 z m 11.066406,0.199218 -0.324219,0.140626 -0.443359,-0.01367 -0.21875,0.435546 0.253906,0.410157 0.523437,0.107422 0.373047,-0.285157 0.257813,-0.404296 z M 39.757812,20.478516 39.5,20.923828 l 0.08594,0.417969 0.472656,0.296875 -0.0091,-0.399839 v -0.437666 -0.332196 z m -36.6152339,0.08008 -0.7324219,0.15039 -0.15625,0.728516 0.453125,0.462891 0.6875,-0.05273 0.328125,-0.742187 z M 0.03710937,20.662109 0,20.697266 v 1.066406 l 0.28710938,0.0293 0.4609375,-0.210938 L 0.6953125,21.0625 0.43554688,20.761719 Z m 35.44531263,0.07422 -0.205078,0.294922 -0.123047,0.34375 0.203125,0.541016 0.482422,-0.01563 0.402344,-0.341797 0.08203,-0.369141 -0.300781,-0.238281 z M 12.21875,20.9375 l -0.294922,0.746094 0.587891,0.480468 0.626953,-0.40039 -0.140625,-0.798828 z m 15.498047,0.04883 -0.738281,0.337891 0.07227,0.792969 0.646485,0.373046 0.599609,-0.441406 -0.03125,-0.646484 z m -6.085938,0.113281 -0.318359,0.164063 -0.269531,0.246094 -0.07227,0.574218 0.435547,0.210938 0.513672,-0.117188 0.246094,-0.287109 -0.158204,-0.351563 z M 6.3691406,21.146481 5.9238281,21.486325 6.0195311,22.031247 6.4531249,22.2207 6.876953,22.13867 7.1132811,21.615232 6.7890624,21.216795 Z m 27.0800784,0.01563 -0.423828,0.691407 0.564453,0.537109 0.714844,-0.363281 -0.121094,-0.748047 z m -15.123047,0.138672 -0.732422,0.150391 -0.15625,0.728516 0.453125,0.46289 0.6875,-0.05273 0.328125,-0.742188 z m 12.794922,0.269531 -0.40625,0.640626 0.472656,0.574218 0.777344,-0.236328 -0.06836,-0.77539 z m -22.5781252,0.08008 -0.4433594,0.33789 0.095703,0.544922 0.4335937,0.189453 0.4238282,-0.08203 0.2363281,-0.523437 -0.3242187,-0.398438 z m -4.0664063,0.216797 -0.3320313,0.339843 -0.072266,0.425781 0.4042969,0.40625 0.4882813,-0.162109 0.2128906,-0.369141 -0.1582032,-0.535156 z m 10.1699215,0.01172 -0.498046,0.0957 -0.07422,0.517579 0.179687,0.351562 0.363282,0.195312 0.445312,-0.257812 0.08789,-0.384766 -0.07813,-0.365234 z m 23.025391,0.181641 -0.779297,0.166015 -0.292969,0.6875 0.509766,0.542969 0.638672,-0.109375 0.347656,-0.595703 z m -26.71875,0.273437 -0.220703,0.275391 -0.398438,0.193359 0.0078,0.486328 0.416015,0.246094 0.511719,-0.148437 0.199219,-0.423828 0.03906,-0.478516 z m 9.384766,0.05859 -0.736329,0.337891 0.07227,0.792969 0.646484,0.373046 0.59961,-0.441406 -0.0332,-0.646484 z m 3.199218,0.02539 -0.46289,0.626953 0.445312,0.666016 0.728516,-0.210938 0.02734,-0.744141 z m 1.931641,0.318359 -0.462891,0.265625 -0.0918,0.460938 0.07617,0.472656 0.574219,0.01367 0.148438,-0.320313 0.341797,-0.283203 -0.125,-0.470703 z m 14.441406,0.171875 -0.376953,0.302735 -0.04297,0.53125 0.326172,0.33789 0.233079,0.14676 v -0.488171 -0.386333 -0.35976 z m -38.363281,0.02734 -0.3691406,0.355469 0.00391,0.396484 0.1640625,0.333984 0.4511719,0.04687 0.4609375,-0.21289 -0.052734,-0.519531 -0.2597656,-0.300782 z m 33.845703,0.0078 -0.550781,0.09375 -0.169922,0.527344 0.296875,0.369141 0.414062,0.125 0.453126,-0.355469 -0.101563,-0.503906 z m -7.34375,0.04102 -0.478516,0.494141 0.246094,0.773437 0.794922,0.02344 0.449219,-0.595703 -0.365235,-0.650391 z m -21.2851561,0.236328 -0.4941407,0.142578 -0.1796874,0.353516 -0.00977,0.371094 0.3769531,0.25 0.5058594,0.02734 0.1953125,-0.486328 -0.087891,-0.384765 z m 5.8281251,0.136719 -0.351563,0.332031 -0.07422,0.523438 0.18164,0.330078 0.384766,-0.02148 0.546875,-0.197265 -0.04102,-0.357422 -0.136719,-0.337891 z m 4.451172,0.0957 -0.498047,0.09375 -0.07422,0.519531 0.179688,0.351563 0.363281,0.193359 0.445312,-0.257812 0.08789,-0.384766 -0.07813,-0.363281 z m 13.560547,0.03125 -0.373047,0.05273 -0.117188,0.367188 -0.0098,0.580078 0.349609,0.08789 0.363281,-0.0059 0.435547,-0.380859 -0.185547,-0.447266 z m -15.6875,0.496094 -0.158204,0.457031 0.177735,0.496094 0.314453,0.208984 0.330078,-0.197266 0.392578,-0.427734 -0.201172,-0.296875 -0.277343,-0.238281 z m 23.603515,0.07813 -0.52539,0.234375 -0.02148,0.513672 0.269532,0.330078 0.558593,0.04102 0.289063,-0.470703 -0.199219,-0.429687 z m -15.902343,0.0059 -0.367188,0.263672 -0.205078,0.462891 0.384766,0.355468 0.392578,0.05273 0.365234,-0.189453 0.03906,-0.511719 -0.265624,-0.291016 z m -18.4082036,0.01172 -0.5800782,0.472656 0.2011719,0.716797 0.6171875,0.199219 0.5820313,-0.365235 -0.052734,-0.808593 z m 28.7382816,0.03906 -0.498047,0.0957 -0.07227,0.517578 0.177735,0.353515 0.365234,0.19336 0.443359,-0.257813 0.08984,-0.384766 -0.07813,-0.365234 z m -14.628907,0.02539 -0.332031,0.337891 -0.07422,0.425781 0.40625,0.40625 0.488282,-0.162109 0.21289,-0.369141 -0.158203,-0.535156 z m -7.830078,0.140625 -0.40625,0.134766 -0.2363279,0.507812 0.3378909,0.4375 0.472656,-0.0332 0.337891,-0.269531 -0.0332,-0.574219 z m 24.720703,0.458984 -0.529296,0.158204 -0.136719,0.455078 0.132812,0.410156 0.546875,0.171875 0.357422,-0.369141 0.01758,-0.425781 z m -8.902343,0.04492 -0.478516,0.572266 0.1875,0.621094 0.630859,0.271484 0.636719,-0.503906 -0.259765,-0.753906 z m -25.47265662,0.03711 -0.51367188,0.03906 -0.29492187,0.308594 0.02539062,0.55664 0.50195313,0.232422 0.40429687,-0.25 0.17187495,-0.394531 z m 29.51367162,0.287109 -0.476562,0.572266 0.185547,0.621093 0.632812,0.273438 0.634766,-0.503906 -0.259766,-0.753907 z m -22.5175779,0.07227 -0.4042969,0.642578 0.4726563,0.572265 0.7753906,-0.236328 -0.068359,-0.77539 z m -2.03125,0.05664 -0.3671875,0.263672 -0.2050781,0.464844 0.3867187,0.353515 0.390625,0.05273 0.3652344,-0.1875 0.041016,-0.513672 -0.265625,-0.291016 z m 34.2506569,0.120818 -0.164719,0.12137 -0.105469,0.566406 0.270188,0.308594 v -0.254812 -0.579835 z m -18.903001,0.04129 -0.613281,0.509765 0.06055,0.746094 0.705078,0.242188 0.513672,-0.394532 0.03125,-0.6875 z M 2.625,25.425781 l -0.3671875,0.265625 -0.2050781,0.462891 0.3867187,0.355469 0.390625,0.05273 0.3652344,-0.189453 0.041016,-0.511719 -0.265625,-0.292969 z m 10.863281,0.210938 -0.78125,0.18164 -0.06055,0.75586 0.683594,0.289062 0.578125,-0.570312 z m 23.775391,0.130859 -0.304688,0.736328 0.398438,0.63086 0.736328,-0.111328 0.273438,-0.589844 -0.292969,-0.623047 z m -18.300781,0.07031 -0.367188,0.263671 -0.205078,0.464844 0.384766,0.355469 0.390625,0.05273 0.367187,-0.189453 0.03906,-0.511718 -0.265625,-0.292969 z m -8.615235,0.25 -0.4042966,0.507812 0.1347656,0.673828 0.777344,0.236328 0.472656,-0.640625 -0.236328,-0.708984 z m 13.769532,0.06445 -0.376954,0.300781 -0.04297,0.533203 0.326172,0.335938 0.433593,0.207031 0.337891,-0.466797 -0.179688,-0.302734 -0.03906,-0.441407 z m 3.820312,0.03125 -0.306641,0.220703 0.06836,0.378906 0.261719,0.517578 0.349609,-0.08398 0.320312,-0.173828 0.205079,-0.539063 -0.371094,-0.308594 z m -12.492188,0.08008 -0.78125,0.179687 -0.06055,0.75586 0.683593,0.289062 0.578125,-0.570312 z m 17.859376,0.18164 -0.464844,0.626954 0.447265,0.666015 0.726563,-0.210937 0.02734,-0.744141 z m -10.25586,0.431641 -0.701172,0.339844 0.08594,0.796875 0.742187,0.15039 0.369141,-0.644531 z m -15.3554686,0.01367 -0.2167969,0.53125 0.2460937,0.251953 0.1445313,0.419922 0.484375,0.05078 0.2949219,-0.382812 -0.085937,-0.527344 -0.3984375,-0.248047 z m 22.0429686,0.175781 -0.513672,0.539063 0.328125,0.742187 0.763672,-0.160156 0.107422,-0.794922 z m -24.3476561,0.236328 -0.7363281,0.337891 0.070312,0.792969 0.6464844,0.375 0.6015629,-0.4414 L 5.9375,27.71875 Z M 0,27.322266 v 1.074218 l 0.03515625,0.101563 0.484375,0.05078 L 0.8125,28.166016 0.72851562,27.638672 0.33007812,27.390625 Z m 35.496094,0.03516 -0.607422,0.523437 0.296875,0.699219 0.740234,-0.06445 0.246094,-0.771484 z m -17.064453,0.201172 -0.779297,0.166015 -0.292969,0.685547 0.511719,0.542969 0.638672,-0.109375 0.345703,-0.59375 z m 13.375,0.08594 -0.369141,0.357422 0.0059,0.394531 0.16211,0.335938 0.451172,0.04492 0.460937,-0.210938 -0.05273,-0.521484 -0.257813,-0.298828 z m -29.3769535,0.02148 -0.4667969,0.128906 -0.3085937,0.429687 0.00781,0.376953 0.3515625,0.158204 0.5742187,0.08008 0.1289063,-0.333985 0.039063,-0.363281 z m 23.4277345,0.0098 -0.496094,0.642578 0.431641,0.667969 0.746093,0.03125 0.326172,-0.669922 -0.328125,-0.558594 z m 14.192063,0.0423 -0.270188,0.0202 -0.203125,0.714844 0.473313,0.393421 v -1.128466 z m -28.104173,0.164732 -0.40039,0.0957 -0.16211,0.488281 0.1875,0.347656 0.300782,0.220703 0.419922,-0.169922 0.310546,-0.40039 -0.289062,-0.4375 z m 26.132813,0.189454 -0.810547,0.04297 -0.121094,0.769532 0.707032,0.382812 0.546875,-0.52539 z m -22.300781,0.06836 -0.654297,0.214844 -0.140625,0.798828 0.693359,0.392578 0.675781,-0.320313 -0.02344,-0.746093 z M 9.9804688,28.171875 9.4472656,28.193359 9.1523438,28.558594 9,29.013672 l 0.5039062,0.277344 0.2792969,-0.212891 0.4335939,-0.09375 0.109375,-0.474609 z m -6.609375,0.275391 -0.4628907,0.267578 -0.091797,0.458984 0.076172,0.47461 0.5742188,0.01172 0.1484375,-0.318359 0.3417968,-0.283203 -0.1230468,-0.470703 z m 19.0566402,0.113281 -0.392578,0.05469 -0.3125,0.201172 0.0078,0.453125 0.265625,0.431641 0.511718,-0.115234 0.265626,-0.291016 0.05273,-0.410156 z m -2.595703,0.126953 -0.318359,0.164062 -0.269531,0.246094 -0.07031,0.574219 0.433594,0.210937 0.515625,-0.115234 0.244141,-0.289062 -0.15625,-0.34961 z m 10.777344,0.128906 -0.560547,0.125 -0.06641,0.345703 -0.263672,0.357422 0.232422,0.425781 0.482422,0.02539 0.384765,-0.369141 -0.02148,-0.46875 z m -16.177734,0.472656 -0.462891,0.625 0.445312,0.666016 0.728516,-0.210937 0.02734,-0.742188 z m -7.8203129,0.01563 -0.3046875,0.425781 -0.00586,0.394531 0.2324219,0.341797 0.5136719,-0.02344 0.2578125,-0.298828 0.099609,-0.359375 -0.3066407,-0.332031 z m 26.5996099,0.08398 -0.392579,0.179687 -0.105468,0.566407 0.410156,0.308593 0.425781,-0.0332 0.351563,-0.435547 -0.222657,-0.505859 z m 2.572265,0.283203 -0.777344,0.167969 -0.292968,0.685547 0.509765,0.542968 0.638672,-0.109375 0.347656,-0.595703 z M 17.707031,29.830078 17.050781,30.208984 17.203125,30.9375 18,31.087891 18.300781,30.371094 Z m -5.857422,0.105469 -0.355468,0.451172 0.21875,0.464843 0.392578,0.167969 0.511719,-0.222656 0.03906,-0.550781 -0.375,-0.289063 z m 12.306641,0.210937 -0.396484,0.28125 0.0332,0.482422 0.414062,0.337891 0.462891,-0.07813 0.416016,-0.238281 -0.191407,-0.542969 -0.351562,-0.02344 z m 13.529297,0.0039 -0.607422,0.523437 0.296875,0.699219 0.740234,-0.06445 0.246094,-0.771485 z m -15.5,0.09375 -0.689453,0.283203 -0.123047,0.636718 0.433594,0.535157 0.796875,-0.150391 0.11914,-0.787109 z m 17.496094,0.0293 -0.371094,0.03516 -0.203125,0.404297 0.0332,0.505859 0.505859,0.134766 0.403001,-0.151339 v -0.365512 -0.433986 z m -13.453125,0.0293 -0.46875,0.234375 -0.1875,0.345703 0.04687,0.410157 0.464843,0.21875 0.367188,-0.144531 0.253906,-0.271485 -0.115234,-0.4375 z m 1.77539,0.148438 -0.320312,0.228516 -0.183594,0.324218 0.216797,0.396485 0.4375,0.259765 0.398437,-0.339844 0.09961,-0.382812 -0.144532,-0.384766 z M 9.8359375,30.636719 9.1328125,30.875 l -0.054687,0.810547 0.75,0.210937 0.4648445,-0.654296 z m 20.4101565,0.01563 -0.462891,0.626953 0.445313,0.666015 0.728515,-0.21289 0.02734,-0.742188 z m -25.5976565,0.123047 -0.6132813,0.509765 0.060547,0.746094 0.7050781,0.242188 0.5136719,-0.394532 0.03125,-0.6875 z m -2.2519531,0.07617 -0.2578125,0.445313 0.083984,0.417969 0.4746094,0.294922 0.4765625,-0.28125 0.023437,-0.472657 L 2.96875,30.888672 Z m 16.4101566,0.416016 -0.496094,0.642578 0.431641,0.669922 0.746093,0.0293 0.326172,-0.669922 -0.330078,-0.558594 z m -4.164063,0.150391 -0.392578,0.18164 -0.103516,0.564453 0.410157,0.310547 0.425781,-0.03516 0.349609,-0.433594 -0.222656,-0.507812 z m -2.265625,0.0059 -0.429687,0.185547 -0.345704,0.332031 0.314454,0.480469 0.347656,-0.06055 0.427734,0.121094 0.316406,-0.369141 -0.148437,-0.460937 z m -5.2539061,0.0566 -0.4667969,0.234375 -0.1894531,0.347656 0.046875,0.410156 0.4648437,0.21875 0.3671875,-0.144531 0.2558594,-0.271484 -0.1171875,-0.4375 z m -6.30468752,0.01758 -0.55078126,0.09375 -0.16992187,0.527344 0.296875,0.36914 0.4140625,0.125 0.45312505,-0.353515 -0.1015626,-0.503907 z m 15.67968762,0.433594 -0.607422,0.523437 0.298828,0.697266 0.740235,-0.0625 0.246093,-0.773438 z m 19.796875,0.148437 -0.447266,0.0625 -0.398437,0.316406 0.177734,0.492188 0.322266,0.228516 0.412109,0.0039 0.273438,-0.435547 -0.09961,-0.382813 z m -4.669922,0.111328 -0.443359,0.339844 0.09375,0.544922 0.435547,0.189453 0.423828,-0.08203 0.236328,-0.523438 -0.324219,-0.40039 z m -9.177734,0.208985 -0.328125,0.21875 -0.148438,0.384765 0.310547,0.410156 0.392578,0.04297 0.351563,-0.123047 0.101562,-0.441406 -0.154297,-0.482422 z m 6.044922,0.0078 -0.214844,0.53125 0.246094,0.251953 0.144531,0.419922 0.482422,0.05078 0.294921,-0.382812 -0.08594,-0.525391 -0.396484,-0.25 z m -4.1875,0.07031 -0.404297,0.505859 0.134765,0.673828 0.775391,0.236328 0.472656,-0.640625 -0.236328,-0.708984 z m 9.25,0.0059 -0.404297,0.642578 0.472656,0.574219 0.775391,-0.236328 -0.06641,-0.777344 z m -25.4824224,0.08984 -0.4609375,0.265625 -0.091797,0.460937 0.076172,0.472657 0.5742188,0.01367 0.1484375,-0.320312 0.3398437,-0.283203 -0.1230469,-0.470703 z m 31.6855464,0.158203 -0.498046,0.0957 -0.07422,0.517578 0.179687,0.353516 0.363282,0.193359 0.320969,-0.202569 V 33.216875 32.86269 Z m -19.191406,0.06055 -0.214844,0.533203 0.246094,0.251953 0.144532,0.419922 0.484374,0.05078 0.292969,-0.382812 -0.08594,-0.527344 -0.396485,-0.248047 z m -18.3554685,0.07422 -0.59375,0.259765 -0.1933594,0.660156 0.578125,0.56836 0.7148438,-0.347657 0.1210937,-0.736328 z M 4.9511719,33.009798 4.6289062,33.240266 4.4472656,33.564485 4.6640625,33.96097 5.0996094,34.220735 5.5,33.880859 5.5996094,33.498047 5.4550781,33.113281 Z m 5.4140621,0.226562 -0.294922,0.746094 0.587891,0.478516 0.625,-0.398438 -0.140625,-0.798828 z m 16.105469,0.253906 -0.392578,0.04297 -0.310547,0.271485 0.08398,0.507812 0.328126,0.21875 0.367187,0.05664 0.294922,-0.345703 0.08789,-0.5 z m 11.634766,0.0332 -0.21875,0.27539 -0.400391,0.19336 0.0078,0.486328 0.416015,0.246093 0.511719,-0.148437 0.199219,-0.423828 0.03906,-0.478516 z m -19.84375,0.10935 -0.304688,0.734376 L 18.355469,35 l 0.736328,-0.113281 0.273437,-0.587891 -0.292968,-0.623047 z m -5.228516,0.253907 -0.607422,0.52539 0.296875,0.697266 0.740235,-0.0625 0.248047,-0.773437 z m 18.373047,0.361328 -0.21875,0.275391 -0.400391,0.193359 0.0078,0.486328 0.416016,0.246094 0.513671,-0.148438 0.197266,-0.425781 0.03906,-0.476562 z m -14.855469,0.207031 -0.404297,0.50586 0.134766,0.675781 0.775391,0.236328 0.472656,-0.642578 -0.236328,-0.707031 z m 15.828125,0.02148 -0.304687,0.734376 0.398437,0.632812 0.736328,-0.113281 0.273438,-0.587891 -0.292969,-0.623047 z m -23.457031,0.191407 -0.7011719,0.339843 0.085937,0.796876 0.7441406,0.15039 0.3671876,-0.644531 z m 20.324219,0.05664 -0.429688,0.185547 -0.345703,0.330078 0.314453,0.480469 0.347656,-0.05859 0.427735,0.119141 0.316406,-0.369141 -0.148437,-0.458984 z m 5.951172,0.01563 -0.607422,0.523438 0.298828,0.697266 0.740234,-0.0625 L 35.875,35.125 Z m -29.3164066,0.136719 -0.53125,0.158203 -0.1347656,0.455078 0.1308593,0.410157 0.5488281,0.171875 0.3574219,-0.369141 0.017578,-0.425781 z m 18.5546876,0.01367 -0.392578,0.04297 -0.310547,0.271484 0.08398,0.507813 0.328125,0.21875 0.367188,0.05664 0.294922,-0.345703 0.08789,-0.498047 z m -9.578125,0.05859 -0.320313,0.166015 -0.269531,0.246094 -0.07031,0.574219 0.433593,0.210937 0.515625,-0.117187 0.244141,-0.287109 -0.15625,-0.351563 z m 25.017578,0.140625 -0.496094,0.642578 0.431641,0.669922 0.238938,0.0017 v -1.278235 z m -37.2773438,0.01758 -0.2949218,0.746094 0.5878906,0.478515 0.625,-0.40039 L 3.375,35.132812 Z m 19.2480468,0.01367 -0.810547,0.04297 -0.11914,0.771485 0.705078,0.380859 0.546875,-0.52539 z m 15.097656,0.0078 -0.304687,0.736328 0.398437,0.63086 0.738282,-0.111328 0.271484,-0.587891 -0.292969,-0.623047 z m -36.02343712,0.304688 -0.69726563,0.416015 0.25195313,0.736329 0.80078122,0.01172 0.2402344,-0.720703 z m 26.03515612,0.08398 -0.46289,0.267578 -0.0918,0.458985 0.07617,0.474609 0.574219,0.01172 0.148438,-0.31836 0.341797,-0.283203 -0.125,-0.470703 z m -16.117187,0.4375 -0.353516,0.451172 0.21875,0.464844 0.392578,0.167968 0.511719,-0.222656 0.03906,-0.550781 -0.376953,-0.289063 z m 8.535156,0.171875 -0.371094,0.357422 0.0059,0.394531 0.164063,0.335938 0.449219,0.04492 0.460937,-0.210938 -0.05273,-0.521484 -0.257813,-0.298828 z m -6.470703,0.05859 -0.533203,0.02148 -0.294922,0.363281 -0.152344,0.455079 0.503906,0.279297 0.279297,-0.214844 0.433594,-0.0918 0.109375,-0.474609 z m -6.0917971,0.353515 -0.4433594,0.337891 0.095703,0.546875 0.4335938,0.189453 0.4238281,-0.08398 0.2363281,-0.523438 -0.3242187,-0.398437 z m 10.4628911,0.183594 -0.478516,0.496094 0.246094,0.771484 0.796875,0.02539 0.449218,-0.597656 -0.367187,-0.648438 z m 8.24414,0.03711 -0.472656,0.236328 -0.167969,0.33789 0.236328,0.302735 0.472657,0.33789 0.269531,-0.236328 0.203125,-0.302734 -0.06836,-0.574219 z m -20.8808592,0.05078 -0.3671876,0.111328 -0.4824218,0.322266 0.125,0.335937 0.2109375,0.298828 0.5605469,0.138672 0.2617187,-0.404297 -0.052734,-0.52539 z m 25.9765622,0.138672 -0.52539,0.234375 -0.02148,0.513672 0.269532,0.330078 0.558593,0.04297 0.289063,-0.472656 -0.199219,-0.429687 z m -8.539062,0.224609 -0.435547,0.275391 -0.119141,0.410156 0.283203,0.480469 0.552735,-0.02734 0.240234,-0.408203 -0.03125,-0.431641 z m 11.189453,0.03125 -0.306641,0.220703 0.06836,0.378907 0.261718,0.517578 0.34961,-0.08398 0.320312,-0.175781 0.207031,-0.539062 -0.373046,-0.308594 z m 4.589844,0.0078 -0.613282,0.509765 0.06055,0.744141 0.705078,0.242187 0.513672,-0.394531 0.03125,-0.6875 z M 9.2890625,37.234332 8.8105469,37.728473 9.0566406,38.50191 9.8535156,38.52535 10.302734,37.929688 9.9375,37.279297 Z M 35.869141,37.25 35.650391,37.525391 35.25,37.71875 l 0.0078,0.488281 0.416016,0.246094 0.511719,-0.150391 0.199219,-0.423828 0.03906,-0.478515 z m -20.435547,0.259766 -0.220703,0.27539 -0.400391,0.19336 0.0078,0.486328 0.416016,0.246094 L 15.75,38.5625 l 0.199219,-0.425781 0.03906,-0.476563 z m 24.167968,0.105468 -0.429687,0.185547 -0.347656,0.332031 0.316406,0.480469 0.347656,-0.05859 0.427735,0.11914 0.133469,-0.170266 V 37.82718 Z m -11.6875,0.160157 -0.613281,0.509765 0.06055,0.744141 0.705078,0.244141 0.513672,-0.394532 0.03125,-0.689453 z M 1.4609375,37.9375 1.15625,38.363281 l -0.00586,0.394531 0.2324219,0.339844 0.5136719,-0.02148 0.2578125,-0.298828 0.099609,-0.359375 -0.3066406,-0.332031 z m 21.8808595,0.179688 -0.462891,0.625 0.445313,0.666015 0.728515,-0.210937 0.02734,-0.742188 z M 3.6933594,38.402344 3.2324219,38.535156 3.2890625,39.107422 3.625,39.214844 3.9472656,39.519531 4.4003906,39.339844 4.4824219,38.865234 4.1621094,38.4375 Z m 4.4414062,0.05273 -0.703125,0.238281 -0.054687,0.808594 0.75,0.212891 0.4648438,-0.654297 z m 4.0097654,0.103516 -0.533203,0.02344 -0.294922,0.363281 -0.152344,0.455079 0.503907,0.279297 0.279297,-0.214844 0.433593,-0.0918 0.109375,-0.474609 z M 0,38.566406 v 0.566406 l 0.07617187,-0.09961 z m 19.921875,0.148438 -0.318359,0.166015 -0.269532,0.246094 -0.07227,0.574219 0.435547,0.210937 0.513672,-0.117187 0.246093,-0.28711 -0.158203,-0.351562 z m 11.912109,0.002 -0.451172,0.144531 -0.261718,0.34375 0.169922,0.548828 0.505859,0.08398 0.361328,-0.228516 0.109375,-0.548828 z m 3.900391,0.169922 -0.460937,0.134765 0.05664,0.570313 0.335938,0.109375 0.322265,0.304687 0.453125,-0.179687 0.08203,-0.476563 -0.320313,-0.425781 z m -18.365234,0.05273 -0.445313,0.339844 0.0957,0.544922 0.433594,0.189453 0.423828,-0.08203 0.236328,-0.523438 -0.324219,-0.398437 z m 9.576171,0.0078 -0.560546,0.125 -0.06836,0.345703 -0.263672,0.355469 0.167969,0.276017 h 0.708984 l 0.22461,-0.193986 -0.02148,-0.466797 z m -21.2949214,0.474609 -0.2578125,0.443359 0.030694,0.184221 h 0.5629977 0.4469881 l 0.017913,-0.225236 -0.2265625,-0.367188 z m 23.5039064,0.06445 -0.158203,0.457031 0.05664,0.106099 h 0.509766 0.603515 l 0.04492,-0.02602 -0.203126,-0.296876 -0.277343,-0.236328 z m -18.943359,0.01953 -0.4355474,0.273438 -0.0625,0.270162 h 0.2695312 0.3847662 0.349609 l -0.01367,-0.246728 z m 4.423828,0.140625 -0.367188,0.113282 -0.4375,0.289693 h 0.179688 0.271484 0.34961 0.273437 l -0.01367,-0.125631 z m 18.779296,0.164063 -0.407647,0.238912 c 0.251919,0 0.576094,0 0.905197,0 l -0.03466,-0.100266 z"/>
</svg>
