<svg width="14" height="14" viewBox="0 0 14 14" fill="none" xmlns="http://www.w3.org/2000/svg">
<g clip-path="url(#clip0)">
<path d="M6.99985 0C5.14337 0 3.36293 0.737482 2.05021 2.05021C0.737482 3.36293 0 5.14337 0 6.99985C0 8.85632 0.737482 10.6368 2.05021 11.9495C3.36293 13.2622 5.14337 13.9997 6.99985 13.9997C8.85632 13.9997 10.6368 13.2622 11.9495 11.9495C13.2622 10.6368 13.9997 8.85632 13.9997 6.99985C13.9997 5.14337 13.2622 3.36293 11.9495 2.05021C10.6368 0.737482 8.85632 0 6.99985 0V0ZM5.99987 2.99994H7.99983V5.99987H10.9998V7.99983H7.99983V10.9998H5.99987V7.99983H2.99994V5.99987H5.99987V2.99994Z" fill="#BF0000"/>
</g>
<defs>
<clipPath id="clip0">
<rect width="14" height="14" fill="white"/>
</clipPath>
</defs>
</svg>
