<svg width="14" height="14" viewBox="0 0 14 14" fill="none" xmlns="http://www.w3.org/2000/svg">
<path fill-rule="evenodd" clip-rule="evenodd" d="M1.30664 0L0 4.8125H2.86133V12.8789H1.51562V14H5.33008V12.8789H3.98438V4.8125H6.8457L5.52734 0H1.30664ZM11.2461 0.542969C10.9885 0.543364 10.7381 0.627367 10.5324 0.782345C10.3267 0.937323 10.1769 1.1549 10.1055 1.40234C10.0128 1.3793 9.91774 1.36749 9.82227 1.36719C9.66605 1.36714 9.51136 1.39787 9.36702 1.45763C9.22269 1.51738 9.09154 1.605 8.98108 1.71546C8.87062 1.82592 8.78301 1.95706 8.72325 2.1014C8.66349 2.24573 8.63276 2.40043 8.63281 2.55664C8.63331 2.74213 8.6772 2.92493 8.76096 3.09043C8.84473 3.25593 8.96605 3.39953 9.11523 3.50977C8.96579 3.6202 8.8443 3.76411 8.76052 3.92998C8.67675 4.09584 8.63301 4.27902 8.63281 4.46484C8.63276 4.62106 8.66349 4.77575 8.72325 4.92009C8.78301 5.06442 8.87062 5.19557 8.98108 5.30603C9.09154 5.41649 9.22269 5.5041 9.36702 5.56386C9.51136 5.62362 9.66605 5.65435 9.82227 5.6543C9.92313 5.654 10.0235 5.64088 10.1211 5.61523C10.1774 5.78448 10.2711 5.93889 10.3951 6.06703C10.5192 6.19517 10.6705 6.29375 10.8379 6.35547V8.65625H8.54297L9.5957 14H12.959L14 8.65625H11.6504V6.35742C11.8393 6.28925 12.0079 6.17432 12.1405 6.02336C12.273 5.8724 12.3651 5.69033 12.4082 5.49414C12.537 5.54194 12.6732 5.56705 12.8105 5.56836C12.9668 5.56841 13.1215 5.53768 13.2658 5.47792C13.4101 5.41816 13.5413 5.33055 13.6517 5.22009C13.7622 5.10963 13.8498 4.97848 13.9096 4.83415C13.9693 4.68982 14.0001 4.53512 14 4.37891C13.9995 4.21707 13.966 4.05702 13.9016 3.90858C13.8371 3.76014 13.743 3.62643 13.625 3.51562C13.7432 3.4046 13.8374 3.27057 13.9019 3.12177C13.9664 2.97298 13.9998 2.81256 14 2.65039C14.0001 2.49418 13.9693 2.33948 13.9096 2.19515C13.8498 2.05081 13.7622 1.91967 13.6517 1.80921C13.5413 1.69875 13.4101 1.61113 13.2658 1.55138C13.1215 1.49162 12.9668 1.46089 12.8105 1.46094C12.6767 1.46211 12.5439 1.48588 12.418 1.53125C12.3706 1.25475 12.227 1.00391 12.0125 0.823056C11.7981 0.642206 11.5266 0.542997 11.2461 0.542969V0.542969ZM11.3164 2.60156C11.4326 2.60152 11.5477 2.62438 11.655 2.66883C11.7624 2.71328 11.8599 2.77845 11.9421 2.86062C12.0243 2.94278 12.0895 3.04034 12.1339 3.1477C12.1784 3.25506 12.2012 3.37013 12.2012 3.48633C12.2012 3.60253 12.1784 3.7176 12.1339 3.82496C12.0895 3.93232 12.0243 4.02987 11.9421 4.11204C11.8599 4.1942 11.7624 4.25937 11.655 4.30382C11.5477 4.34827 11.4326 4.37113 11.3164 4.37109C11.2002 4.37113 11.0851 4.34827 10.9778 4.30382C10.8704 4.25937 10.7729 4.1942 10.6907 4.11204C10.6085 4.02987 10.5434 3.93232 10.4989 3.82496C10.4545 3.7176 10.4316 3.60253 10.4316 3.48633C10.4316 3.37013 10.4545 3.25506 10.4989 3.1477C10.5434 3.04034 10.6085 2.94279 10.6907 2.86062C10.7729 2.77845 10.8704 2.71328 10.9778 2.66883C11.0851 2.62438 11.2002 2.60152 11.3164 2.60156V2.60156Z" fill="#AC39AC"/>
</svg>
