<svg width="128" height="128" viewBox="0 0 128 128" fill="none" xmlns="http://www.w3.org/2000/svg">
<path d="M77 0V2.5H77.5V0H77ZM95 0V1.5H95.5V0H95ZM124 0V0.5H124.5V0H124ZM58.25 2C57.264 2 56.5 2.91774 56.5 4C56.5 4.98789 57.139 5.82984 58 5.9707V8.5H58.5V5.9707C59.361 5.82984 60 4.98789 60 4C60 2.91774 59.236 2 58.25 2ZM58.25 2.5C58.9208 2.5 59.5 3.14938 59.5 4C59.5 4.85062 58.9208 5.5 58.25 5.5C57.5792 5.5 57 4.85062 57 4C57 3.14938 57.5792 2.5 58.25 2.5ZM25.25 3C24.264 3 23.5 3.91774 23.5 5C23.5 5.98789 24.139 6.82984 25 6.9707V9.5H25.5V6.9707C26.361 6.82984 27 5.98789 27 5C27 3.91774 26.236 3 25.25 3ZM25.25 3.5C25.9208 3.5 26.5 4.14938 26.5 5C26.5 5.85062 25.9208 6.5 25.25 6.5C24.5792 6.5 24 5.85062 24 5C24 4.14938 24.5792 3.5 25.25 3.5ZM6.75 5.5C5.76395 5.5 5 6.41774 5 7.5C5 8.48789 5.63904 9.32984 6.5 9.4707V12H7V9.4707C7.86096 9.32984 8.5 8.48789 8.5 7.5C8.5 6.41774 7.73605 5.5 6.75 5.5ZM6.75 6C7.4208 6 8 6.64938 8 7.5C8 8.35062 7.4208 9 6.75 9C6.0792 9 5.5 8.35062 5.5 7.5C5.5 6.64938 6.0792 6 6.75 6ZM107.5 6L106 10V10.5H107.5V12.5H108V10.5H109.5V10L108 6H107.5ZM107.75 6.5L109 10H106.5L107.75 6.5ZM89 9L87.5 13V13.5H89V15.5H89.5V13.5H91V13L89.5 9H89ZM38.25 9.5C37.264 9.5 36.5 10.4177 36.5 11.5C36.5 12.4879 37.139 13.3298 38 13.4707V16H38.5V13.4707C39.361 13.3298 40 12.4879 40 11.5C40 10.4177 39.236 9.5 38.25 9.5ZM89.25 9.5L90.5 13H88L89.25 9.5ZM38.25 10C38.9208 10 39.5 10.6494 39.5 11.5C39.5 12.3506 38.9208 13 38.25 13C37.5792 13 37 12.3506 37 11.5C37 10.6494 37.5792 10 38.25 10ZM68.5 11L67 15V15.5H68.5V17.5H69V15.5H70.5V15L69 11H68.5ZM68.75 11.5L70 15H67.5L68.75 11.5ZM120.5 14L119 18V18.5H120.5V20.5H121V18.5H122.5V18L121 14H120.5ZM120.75 14.5L122 18H119.5L120.75 14.5ZM22.5 19.5L21 23.5V24H22.5V26H23V24H24.5V23.5L23 19.5H22.5ZM22.75 20L24 23.5H21.5L22.75 20ZM56.5 20.5L55 24.5V25H56.5V27H57V25H58.5V24.5L57 20.5H56.5ZM56.75 21L58 24.5H55.5L56.75 21ZM78.25 22C77.2639 22 76.5 22.9177 76.5 24C76.5 24.9879 77.139 25.8298 78 25.9707V28.5H78.5V25.9707C79.361 25.8298 80 24.9879 80 24C80 22.9177 79.236 22 78.25 22ZM78.25 22.5C78.9208 22.5 79.5 23.1494 79.5 24C79.5 24.8506 78.9208 25.5 78.25 25.5C77.5792 25.5 77 24.8506 77 24C77 23.1494 77.5792 22.5 78.25 22.5ZM110 23L108.5 27V27.5H110V29.5H110.5V27.5H112V27L110.5 23H110ZM110.25 23.5L111.5 27H109L110.25 23.5ZM37.25 24C36.264 24 35.5 24.9177 35.5 26C35.5 26.9879 36.139 27.8298 37 27.9707V30.5H37.5V27.9707C38.361 27.8298 39 26.9879 39 26C39 24.9177 38.236 24 37.25 24ZM5.25 24.5C4.26395 24.5 3.5 25.4177 3.5 26.5C3.5 27.4879 4.13904 28.3298 5 28.4707V31H5.5V28.4707C6.36096 28.3298 7 27.4879 7 26.5C7 25.4177 6.23605 24.5 5.25 24.5ZM37.25 24.5C37.9208 24.5 38.5 25.1494 38.5 26C38.5 26.8506 37.9208 27.5 37.25 27.5C36.5792 27.5 36 26.8506 36 26C36 25.1494 36.5792 24.5 37.25 24.5ZM5.25 25C5.9208 25 6.5 25.6494 6.5 26.5C6.5 27.3506 5.9208 28 5.25 28C4.5792 28 4 27.3506 4 26.5C4 25.6494 4.5792 25 5.25 25ZM91.25 26.5C90.2639 26.5 89.5 27.4177 89.5 28.5C89.5 29.4879 90.139 30.3298 91 30.4707V33H91.5V30.4707C92.361 30.3298 93 29.4879 93 28.5C93 27.4177 92.236 26.5 91.25 26.5ZM91.25 27C91.9208 27 92.5 27.6494 92.5 28.5C92.5 29.3506 91.9208 30 91.25 30C90.5792 30 90 29.3506 90 28.5C90 27.6494 90.5792 27 91.25 27ZM17.75 34C16.764 34 16 34.9177 16 36C16 36.9879 16.639 37.8298 17.5 37.9707V40.5H18V37.9707C18.861 37.8298 19.5 36.9879 19.5 36C19.5 34.9177 18.736 34 17.75 34ZM17.75 34.5C18.4208 34.5 19 35.1494 19 36C19 36.8506 18.4208 37.5 17.75 37.5C17.0792 37.5 16.5 36.8506 16.5 36C16.5 35.1494 17.0792 34.5 17.75 34.5ZM50.75 34.5C49.764 34.5 49 35.4177 49 36.5C49 37.4879 49.639 38.3298 50.5 38.4707V41H51V38.4707C51.861 38.3298 52.5 37.4879 52.5 36.5C52.5 35.4177 51.736 34.5 50.75 34.5ZM50.75 35C51.4208 35 52 35.6494 52 36.5C52 37.3506 51.4208 38 50.75 38C50.0792 38 49.5 37.3506 49.5 36.5C49.5 35.6494 50.0792 35 50.75 35ZM67 35.5L65.5 39.5V40H67V42H67.5V40H69V39.5L67.5 35.5H67ZM67.25 36L68.5 39.5H66L67.25 36ZM103.75 37.5C102.764 37.5 102 38.4177 102 39.5C102 40.4879 102.639 41.3298 103.5 41.4707V44H104V41.4707C104.861 41.3298 105.5 40.4879 105.5 39.5C105.5 38.4177 104.736 37.5 103.75 37.5ZM103.75 38C104.421 38 105 38.6494 105 39.5C105 40.3506 104.421 41 103.75 41C103.079 41 102.5 40.3506 102.5 39.5C102.5 38.6494 103.079 38 103.75 38ZM82.25 39.5C81.2639 39.5 80.5 40.4177 80.5 41.5C80.5 42.4879 81.139 43.3298 82 43.4707V46H82.5V43.4707C83.361 43.3298 84 42.4879 84 41.5C84 40.4177 83.236 39.5 82.25 39.5ZM82.25 40C82.9208 40 83.5 40.6494 83.5 41.5C83.5 42.3506 82.9208 43 82.25 43C81.5792 43 81 42.3506 81 41.5C81 40.6494 81.5792 40 82.25 40ZM37.25 41C36.264 41 35.5 41.9177 35.5 43C35.5 43.9879 36.139 44.8298 37 44.9707V47.5H37.5V44.9707C38.361 44.8298 39 43.9879 39 43C39 41.9177 38.236 41 37.25 41ZM37.25 41.5C37.9208 41.5 38.5 42.1494 38.5 43C38.5 43.8506 37.9208 44.5 37.25 44.5C36.5792 44.5 36 43.8506 36 43C36 42.1494 36.5792 41.5 37.25 41.5ZM118.5 42.5L117 46.5V47H118.5V49H119V47H120.5V46.5L119 42.5H118.5ZM5.5 43L4 47V47.5H5.5V49.5H6V47.5H7.5V47L6 43H5.5ZM118.75 43L120 46.5H117.5L118.75 43ZM5.75 43.5L7 47H4.5L5.75 43.5ZM93 50L91.5 54V54.5H93V56.5H93.5V54.5H95V54L93.5 50H93ZM24.25 50.5C23.264 50.5 22.5 51.4177 22.5 52.5C22.5 53.4879 23.139 54.3298 24 54.4707V57H24.5V54.4707C25.361 54.3298 26 53.4879 26 52.5C26 51.4177 25.236 50.5 24.25 50.5ZM55 50.5L53.5 54.5V55H55V57H55.5V55H57V54.5L55.5 50.5H55ZM93.25 50.5L94.5 54H92L93.25 50.5ZM24.25 51C24.9208 51 25.5 51.6494 25.5 52.5C25.5 53.3506 24.9208 54 24.25 54C23.5792 54 23 53.3506 23 52.5C23 51.6494 23.5792 51 24.25 51ZM55.25 51L56.5 54.5H54L55.25 51ZM73 53.5L71.5 57.5V58H73V60H73.5V58H75V57.5L73.5 53.5H73ZM73.25 54L74.5 57.5H72L73.25 54ZM108 55L106.5 59V59.5H108V61.5H108.5V59.5H110V59L108.5 55H108ZM41 55.5L39.5 59.5V60H41V62H41.5V60H43V59.5L41.5 55.5H41ZM108.25 55.5L109.5 59H107L108.25 55.5ZM41.25 56L42.5 59.5H40L41.25 56ZM9 56.5L7.5 60.5V61H9V63H9.5V61H11V60.5L9.5 56.5H9ZM9.25 57L10.5 60.5H8L9.25 57ZM122.5 61.5L121 65.5V66H122.5V68H123V66H124.5V65.5L123 61.5H122.5ZM122.75 62L124 65.5H121.5L122.75 62ZM84 62.5L82.5 66.5V67H84V69H84.5V67H86V66.5L84.5 62.5H84ZM84.25 63L85.5 66.5H83L84.25 63ZM57 66L55.5 70V70.5H57V72.5H57.5V70.5H59V70L57.5 66H57ZM19.5 66.5L18 70.5V71H19.5V73H20V71H21.5V70.5L20 66.5H19.5ZM57.25 66.5L58.5 70H56L57.25 66.5ZM19.75 67L21 70.5H18.5L19.75 67ZM101 69.5L99.5 73.5V74H101V76H101.5V74H103V73.5L101.5 69.5H101ZM101.25 70L102.5 73.5H100L101.25 70ZM41 72.5L39.5 76.5V77H41V79H41.5V77H43V76.5L41.5 72.5H41ZM41.25 73L42.5 76.5H40L41.25 73ZM114 74.5L112.5 78.5V79H114V81H114.5V79H116V78.5L114.5 74.5H114ZM5.5 75L4 79V79.5H5.5V81.5H6V79.5H7.5V79L6 75H5.5ZM73.25 75C72.2639 75 71.5 75.9177 71.5 77C71.5 77.9879 72.139 78.8298 73 78.9707V81.5H73.5V78.9707C74.361 78.8298 75 77.9879 75 77C75 75.9177 74.236 75 73.25 75ZM114.25 75L115.5 78.5H113L114.25 75ZM5.75 75.5L7 79H4.5L5.75 75.5ZM73.25 75.5C73.9208 75.5 74.5 76.1494 74.5 77C74.5 77.8506 73.9208 78.5 73.25 78.5C72.5792 78.5 72 77.8506 72 77C72 76.1494 72.5792 75.5 73.25 75.5ZM27 78L25.5 82V82.5H27V84.5H27.5V82.5H29V82L27.5 78H27ZM27.25 78.5L28.5 82H26L27.25 78.5ZM88 80L86.5 84V84.5H88V86.5H88.5V84.5H90V84L88.5 80H88ZM88.25 80.5L89.5 84H87L88.25 80.5ZM58.5 82L57 86V86.5H58.5V88.5H59V86.5H60.5V86L59 82H58.5ZM58.75 82.5L60 86H57.5L58.75 82.5ZM104.75 87C103.764 87 103 87.9177 103 89C103 89.9879 103.639 90.8298 104.5 90.9707V93.5H105V90.9707C105.861 90.8298 106.5 89.9879 106.5 89C106.5 87.9177 105.736 87 104.75 87ZM43.75 87.5C42.764 87.5 42 88.4177 42 89.5C42 90.4879 42.639 91.3298 43.5 91.4707V94H44V91.4707C44.861 91.3298 45.5 90.4879 45.5 89.5C45.5 88.4177 44.736 87.5 43.75 87.5ZM104.75 87.5C105.421 87.5 106 88.1494 106 89C106 89.8506 105.421 90.5 104.75 90.5C104.079 90.5 103.5 89.8506 103.5 89C103.5 88.1494 104.079 87.5 104.75 87.5ZM13 88L11.5 92V92.5H13V94.5H13.5V92.5H15V92L13.5 88H13ZM43.75 88C44.4208 88 45 88.6494 45 89.5C45 90.3506 44.4208 91 43.75 91C43.0792 91 42.5 90.3506 42.5 89.5C42.5 88.6494 43.0792 88 43.75 88ZM13.25 88.5L14.5 92H12L13.25 88.5ZM125.5 90L124 94V94.5H125.5V96.5H126V94.5H127.5V94L126 90H125.5ZM125.75 90.5L127 94H124.5L125.75 90.5ZM73.25 92.5C72.2639 92.5 71.5 93.4177 71.5 94.5C71.5 95.4879 72.139 96.3298 73 96.4707V99H73.5V96.4707C74.361 96.3298 75 95.4879 75 94.5C75 93.4177 74.236 92.5 73.25 92.5ZM73.25 93C73.9208 93 74.5 93.6494 74.5 94.5C74.5 95.3506 73.9208 96 73.25 96C72.5792 96 72 95.3506 72 94.5C72 93.6494 72.5792 93 73.25 93ZM88.5 94.5L87 98.5V99H88.5V101H89V99H90.5V98.5L89 94.5H88.5ZM88.75 95L90 98.5H87.5L88.75 95ZM28.5 97L27 101V101.5H28.5V103.5H29V101.5H30.5V101L29 97H28.5ZM28.75 97.5L30 101H27.5L28.75 97.5ZM56.5 98L55 102V102.5H56.5V104.5H57V102.5H58.5V102L57 98H56.5ZM56.75 98.5L58 102H55.5L56.75 98.5ZM117.25 102.5C116.264 102.5 115.5 103.418 115.5 104.5C115.5 105.488 116.139 106.33 117 106.471V109H117.5V106.471C118.361 106.33 119 105.488 119 104.5C119 103.418 118.236 102.5 117.25 102.5ZM117.25 103C117.921 103 118.5 103.649 118.5 104.5C118.5 105.351 117.921 106 117.25 106C116.579 106 116 105.351 116 104.5C116 103.649 116.579 103 117.25 103ZM7.5 103.5L6 107.5V108H7.5V110H8V108H9.5V107.5L8 103.5H7.5ZM7.75 104L9 107.5H6.5L7.75 104ZM101.5 104L100 108V108.5H101.5V110.5H102V108.5H103.5V108L102 104H101.5ZM101.75 104.5L103 108H100.5L101.75 104.5ZM39.5 105.5L38 109.5V110H39.5V112H40V110H41.5V109.5L40 105.5H39.5ZM39.75 106L41 109.5H38.5L39.75 106ZM69.5 107L68 111V111.5H69.5V113.5H70V111.5H71.5V111L70 107H69.5ZM69.75 107.5L71 111H68.5L69.75 107.5ZM22.75 110C21.764 110 21 110.918 21 112C21 112.988 21.639 113.83 22.5 113.971V116.5H23V113.971C23.861 113.83 24.5 112.988 24.5 112C24.5 110.918 23.736 110 22.75 110ZM22.75 110.5C23.4208 110.5 24 111.149 24 112C24 112.851 23.4208 113.5 22.75 113.5C22.0792 113.5 21.5 112.851 21.5 112C21.5 111.149 22.0792 110.5 22.75 110.5ZM84.5 111.5L83 115.5V116H84.5V118H85V116H86.5V115.5L85 111.5H84.5ZM84.75 112L86 115.5H83.5L84.75 112ZM53.75 117C52.764 117 52 117.918 52 119C52 119.988 52.639 120.83 53.5 120.971V123.5H54V120.971C54.861 120.83 55.5 119.988 55.5 119C55.5 117.918 54.736 117 53.75 117ZM53.75 117.5C54.4208 117.5 55 118.149 55 119C55 119.851 54.4208 120.5 53.75 120.5C53.0792 120.5 52.5 119.851 52.5 119C52.5 118.149 53.0792 117.5 53.75 117.5ZM109 119L107.5 123V123.5H109V125.5H109.5V123.5H111V123L109.5 119H109ZM109.25 119.5L110.5 123H108L109.25 119.5ZM11 120L9.5 124V124.5H11V126.5H11.5V124.5H13V124L11.5 120H11ZM11.25 120.5L12.5 124H10L11.25 120.5ZM40.5 121L39 125V125.5H40.5V127.5H41V125.5H42.5V125L41 121H40.5ZM40.75 121.5L42 125H39.5L40.75 121.5ZM124.25 122C123.264 122 122.5 122.918 122.5 124C122.5 124.988 123.139 125.83 124 125.971V128H124.5V125.971C125.361 125.83 126 124.988 126 124C126 122.918 125.236 122 124.25 122ZM124.25 122.5C124.921 122.5 125.5 123.149 125.5 124C125.5 124.851 124.921 125.5 124.25 125.5C123.579 125.5 123 124.851 123 124C123 123.149 123.579 122.5 124.25 122.5ZM95.25 123C94.2639 123 93.5 123.918 93.5 125C93.5 125.988 94.139 126.83 95 126.971V128H95.5V126.971C96.361 126.83 97 125.988 97 125C97 123.918 96.236 123 95.25 123ZM95.25 123.5C95.9208 123.5 96.5 124.149 96.5 125C96.5 125.851 95.9208 126.5 95.25 126.5C94.5792 126.5 94 125.851 94 125C94 124.149 94.5792 123.5 95.25 123.5ZM77.25 124C76.2639 124 75.5 124.918 75.5 126C75.5 126.988 76.139 127.83 77 127.971V128H77.5V127.971C78.361 127.83 79 126.988 79 126C79 124.918 78.236 124 77.25 124ZM77.25 124.5C77.9208 124.5 78.5 125.149 78.5 126C78.5 126.851 77.9208 127.5 77.25 127.5C76.5792 127.5 76 126.851 76 126C76 125.149 76.5792 124.5 77.25 124.5Z" fill="#6B8D5E"/>
</svg>
