<svg width="128" height="128" viewBox="0 0 128 128" fill="none" xmlns="http://www.w3.org/2000/svg">
<path d="M77 0V2.5H77.5V0H77ZM95 0V1.5H95.5V0H95ZM124 0V0.5H124.5V0H124ZM58.25 2C57.264 2 56.5 2.91774 56.5 4C56.5 4.98789 57.139 5.82984 58 5.9707V8.5H58.5V5.9707C59.361 5.82984 60 4.98789 60 4C60 2.91774 59.236 2 58.25 2ZM58.25 2.5C58.9208 2.5 59.5 3.14938 59.5 4C59.5 4.85062 58.9208 5.5 58.25 5.5C57.5792 5.5 57 4.85062 57 4C57 3.14938 57.5792 2.5 58.25 2.5ZM25.25 3C24.264 3 23.5 3.91774 23.5 5C23.5 5.98789 24.139 6.82984 25 6.9707V9.5H25.5V6.9707C26.361 6.82984 27 5.98789 27 5C27 3.91774 26.236 3 25.25 3ZM25.25 3.5C25.9208 3.5 26.5 4.14938 26.5 5C26.5 5.85062 25.9208 6.5 25.25 6.5C24.5792 6.5 24 5.85062 24 5C24 4.14938 24.5792 3.5 25.25 3.5ZM6.75 5.5C5.76395 5.5 5 6.41774 5 7.5C5 8.48789 5.63904 9.32984 6.5 9.4707V12H7V9.4707C7.86096 9.32984 8.5 8.48789 8.5 7.5C8.5 6.41774 7.73605 5.5 6.75 5.5ZM6.75 6C7.4208 6 8 6.64938 8 7.5C8 8.35062 7.4208 9 6.75 9C6.0792 9 5.5 8.35062 5.5 7.5C5.5 6.64938 6.0792 6 6.75 6ZM107.75 6C106.764 6 106 6.91774 106 8C106 8.98789 106.639 9.82984 107.5 9.9707V12.5H108V9.9707C108.861 9.82984 109.5 8.98789 109.5 8C109.5 6.91774 108.736 6 107.75 6ZM107.75 6.5C108.421 6.5 109 7.14938 109 8C109 8.85062 108.421 9.5 107.75 9.5C107.079 9.5 106.5 8.85062 106.5 8C106.5 7.14938 107.079 6.5 107.75 6.5ZM89.25 9C88.2639 9 87.5 9.91774 87.5 11C87.5 11.9879 88.139 12.8298 89 12.9707V15.5H89.5V12.9707C90.361 12.8298 91 11.9879 91 11C91 9.91774 90.236 9 89.25 9ZM38.25 9.5C37.264 9.5 36.5 10.4177 36.5 11.5C36.5 12.4879 37.139 13.3298 38 13.4707V16H38.5V13.4707C39.361 13.3298 40 12.4879 40 11.5C40 10.4177 39.236 9.5 38.25 9.5ZM89.25 9.5C89.9208 9.5 90.5 10.1494 90.5 11C90.5 11.8506 89.9208 12.5 89.25 12.5C88.5792 12.5 88 11.8506 88 11C88 10.1494 88.5792 9.5 89.25 9.5ZM38.25 10C38.9208 10 39.5 10.6494 39.5 11.5C39.5 12.3506 38.9208 13 38.25 13C37.5792 13 37 12.3506 37 11.5C37 10.6494 37.5792 10 38.25 10ZM68.75 11C67.7639 11 67 11.9177 67 13C67 13.9879 67.639 14.8298 68.5 14.9707V17.5H69V14.9707C69.861 14.8298 70.5 13.9879 70.5 13C70.5 11.9177 69.736 11 68.75 11ZM68.75 11.5C69.4208 11.5 70 12.1494 70 13C70 13.8506 69.4208 14.5 68.75 14.5C68.0792 14.5 67.5 13.8506 67.5 13C67.5 12.1494 68.0792 11.5 68.75 11.5ZM120.75 14C119.764 14 119 14.9177 119 16C119 16.9879 119.639 17.8298 120.5 17.9707V20.5H121V17.9707C121.861 17.8298 122.5 16.9879 122.5 16C122.5 14.9177 121.736 14 120.75 14ZM120.75 14.5C121.421 14.5 122 15.1494 122 16C122 16.8506 121.421 17.5 120.75 17.5C120.079 17.5 119.5 16.8506 119.5 16C119.5 15.1494 120.079 14.5 120.75 14.5ZM22.75 19.5C21.764 19.5 21 20.4177 21 21.5C21 22.4879 21.639 23.3298 22.5 23.4707V26H23V23.4707C23.861 23.3298 24.5 22.4879 24.5 21.5C24.5 20.4177 23.736 19.5 22.75 19.5ZM22.75 20C23.4208 20 24 20.6494 24 21.5C24 22.3506 23.4208 23 22.75 23C22.0792 23 21.5 22.3506 21.5 21.5C21.5 20.6494 22.0792 20 22.75 20ZM56.75 20.5C55.764 20.5 55 21.4177 55 22.5C55 23.4879 55.639 24.3298 56.5 24.4707V27H57V24.4707C57.861 24.3298 58.5 23.4879 58.5 22.5C58.5 21.4177 57.736 20.5 56.75 20.5ZM56.75 21C57.4208 21 58 21.6494 58 22.5C58 23.3506 57.4208 24 56.75 24C56.0792 24 55.5 23.3506 55.5 22.5C55.5 21.6494 56.0792 21 56.75 21ZM78.25 22C77.2639 22 76.5 22.9177 76.5 24C76.5 24.9879 77.139 25.8298 78 25.9707V28.5H78.5V25.9707C79.361 25.8298 80 24.9879 80 24C80 22.9177 79.236 22 78.25 22ZM78.25 22.5C78.9208 22.5 79.5 23.1494 79.5 24C79.5 24.8506 78.9208 25.5 78.25 25.5C77.5792 25.5 77 24.8506 77 24C77 23.1494 77.5792 22.5 78.25 22.5ZM110.25 23C109.264 23 108.5 23.9177 108.5 25C108.5 25.9879 109.139 26.8298 110 26.9707V29.5H110.5V26.9707C111.361 26.8298 112 25.9879 112 25C112 23.9177 111.236 23 110.25 23ZM110.25 23.5C110.921 23.5 111.5 24.1494 111.5 25C111.5 25.8506 110.921 26.5 110.25 26.5C109.579 26.5 109 25.8506 109 25C109 24.1494 109.579 23.5 110.25 23.5ZM37.25 24C36.264 24 35.5 24.9177 35.5 26C35.5 26.9879 36.139 27.8298 37 27.9707V30.5H37.5V27.9707C38.361 27.8298 39 26.9879 39 26C39 24.9177 38.236 24 37.25 24ZM5.25 24.5C4.26395 24.5 3.5 25.4177 3.5 26.5C3.5 27.4879 4.13904 28.3298 5 28.4707V31H5.5V28.4707C6.36096 28.3298 7 27.4879 7 26.5C7 25.4177 6.23605 24.5 5.25 24.5ZM37.25 24.5C37.9208 24.5 38.5 25.1494 38.5 26C38.5 26.8506 37.9208 27.5 37.25 27.5C36.5792 27.5 36 26.8506 36 26C36 25.1494 36.5792 24.5 37.25 24.5ZM5.25 25C5.9208 25 6.5 25.6494 6.5 26.5C6.5 27.3506 5.9208 28 5.25 28C4.5792 28 4 27.3506 4 26.5C4 25.6494 4.5792 25 5.25 25ZM91.25 26.5C90.2639 26.5 89.5 27.4177 89.5 28.5C89.5 29.4879 90.139 30.3298 91 30.4707V33H91.5V30.4707C92.361 30.3298 93 29.4879 93 28.5C93 27.4177 92.236 26.5 91.25 26.5ZM91.25 27C91.9208 27 92.5 27.6494 92.5 28.5C92.5 29.3506 91.9208 30 91.25 30C90.5792 30 90 29.3506 90 28.5C90 27.6494 90.5792 27 91.25 27ZM17.75 34C16.764 34 16 34.9177 16 36C16 36.9879 16.639 37.8298 17.5 37.9707V40.5H18V37.9707C18.861 37.8298 19.5 36.9879 19.5 36C19.5 34.9177 18.736 34 17.75 34ZM17.75 34.5C18.4208 34.5 19 35.1494 19 36C19 36.8506 18.4208 37.5 17.75 37.5C17.0792 37.5 16.5 36.8506 16.5 36C16.5 35.1494 17.0792 34.5 17.75 34.5ZM50.75 34.5C49.764 34.5 49 35.4177 49 36.5C49 37.4879 49.639 38.3298 50.5 38.4707V41H51V38.4707C51.861 38.3298 52.5 37.4879 52.5 36.5C52.5 35.4177 51.736 34.5 50.75 34.5ZM50.75 35C51.4208 35 52 35.6494 52 36.5C52 37.3506 51.4208 38 50.75 38C50.0792 38 49.5 37.3506 49.5 36.5C49.5 35.6494 50.0792 35 50.75 35ZM67.25 35.5C66.2639 35.5 65.5 36.4177 65.5 37.5C65.5 38.4879 66.139 39.3298 67 39.4707V42H67.5V39.4707C68.361 39.3298 69 38.4879 69 37.5C69 36.4177 68.236 35.5 67.25 35.5ZM67.25 36C67.9208 36 68.5 36.6494 68.5 37.5C68.5 38.3506 67.9208 39 67.25 39C66.5792 39 66 38.3506 66 37.5C66 36.6494 66.5792 36 67.25 36ZM103.75 37.5C102.764 37.5 102 38.4177 102 39.5C102 40.4879 102.639 41.3298 103.5 41.4707V44H104V41.4707C104.861 41.3298 105.5 40.4879 105.5 39.5C105.5 38.4177 104.736 37.5 103.75 37.5ZM103.75 38C104.421 38 105 38.6494 105 39.5C105 40.3506 104.421 41 103.75 41C103.079 41 102.5 40.3506 102.5 39.5C102.5 38.6494 103.079 38 103.75 38ZM82.25 39.5C81.2639 39.5 80.5 40.4177 80.5 41.5C80.5 42.4879 81.139 43.3298 82 43.4707V46H82.5V43.4707C83.361 43.3298 84 42.4879 84 41.5C84 40.4177 83.236 39.5 82.25 39.5ZM82.25 40C82.9208 40 83.5 40.6494 83.5 41.5C83.5 42.3506 82.9208 43 82.25 43C81.5792 43 81 42.3506 81 41.5C81 40.6494 81.5792 40 82.25 40ZM37.25 41C36.264 41 35.5 41.9177 35.5 43C35.5 43.9879 36.139 44.8298 37 44.9707V47.5H37.5V44.9707C38.361 44.8298 39 43.9879 39 43C39 41.9177 38.236 41 37.25 41ZM37.25 41.5C37.9208 41.5 38.5 42.1494 38.5 43C38.5 43.8506 37.9208 44.5 37.25 44.5C36.5792 44.5 36 43.8506 36 43C36 42.1494 36.5792 41.5 37.25 41.5ZM118.75 42.5C117.764 42.5 117 43.4177 117 44.5C117 45.4879 117.639 46.3298 118.5 46.4707V49H119V46.4707C119.861 46.3298 120.5 45.4879 120.5 44.5C120.5 43.4177 119.736 42.5 118.75 42.5ZM5.75 43C4.76395 43 4 43.9177 4 45C4 45.9879 4.63904 46.8298 5.5 46.9707V49.5H6V46.9707C6.86096 46.8298 7.5 45.9879 7.5 45C7.5 43.9177 6.73605 43 5.75 43ZM118.75 43C119.421 43 120 43.6494 120 44.5C120 45.3506 119.421 46 118.75 46C118.079 46 117.5 45.3506 117.5 44.5C117.5 43.6494 118.079 43 118.75 43ZM5.75 43.5C6.4208 43.5 7 44.1494 7 45C7 45.8506 6.4208 46.5 5.75 46.5C5.0792 46.5 4.5 45.8506 4.5 45C4.5 44.1494 5.0792 43.5 5.75 43.5ZM93.25 50C92.2639 50 91.5 50.9177 91.5 52C91.5 52.9879 92.139 53.8298 93 53.9707V56.5H93.5V53.9707C94.361 53.8298 95 52.9879 95 52C95 50.9177 94.236 50 93.25 50ZM24.25 50.5C23.264 50.5 22.5 51.4177 22.5 52.5C22.5 53.4879 23.139 54.3298 24 54.4707V57H24.5V54.4707C25.361 54.3298 26 53.4879 26 52.5C26 51.4177 25.236 50.5 24.25 50.5ZM55.25 50.5C54.264 50.5 53.5 51.4177 53.5 52.5C53.5 53.4879 54.139 54.3298 55 54.4707V57H55.5V54.4707C56.361 54.3298 57 53.4879 57 52.5C57 51.4177 56.236 50.5 55.25 50.5ZM93.25 50.5C93.9208 50.5 94.5 51.1494 94.5 52C94.5 52.8506 93.9208 53.5 93.25 53.5C92.5792 53.5 92 52.8506 92 52C92 51.1494 92.5792 50.5 93.25 50.5ZM24.25 51C24.9208 51 25.5 51.6494 25.5 52.5C25.5 53.3506 24.9208 54 24.25 54C23.5792 54 23 53.3506 23 52.5C23 51.6494 23.5792 51 24.25 51ZM55.25 51C55.9208 51 56.5 51.6494 56.5 52.5C56.5 53.3506 55.9208 54 55.25 54C54.5792 54 54 53.3506 54 52.5C54 51.6494 54.5792 51 55.25 51ZM73.25 53.5C72.2639 53.5 71.5 54.4177 71.5 55.5C71.5 56.4879 72.139 57.3298 73 57.4707V60H73.5V57.4707C74.361 57.3298 75 56.4879 75 55.5C75 54.4177 74.236 53.5 73.25 53.5ZM73.25 54C73.9208 54 74.5 54.6494 74.5 55.5C74.5 56.3506 73.9208 57 73.25 57C72.5792 57 72 56.3506 72 55.5C72 54.6494 72.5792 54 73.25 54ZM108.25 55C107.264 55 106.5 55.9177 106.5 57C106.5 57.9879 107.139 58.8298 108 58.9707V61.5H108.5V58.9707C109.361 58.8298 110 57.9879 110 57C110 55.9177 109.236 55 108.25 55ZM41.25 55.5C40.264 55.5 39.5 56.4177 39.5 57.5C39.5 58.4879 40.139 59.3298 41 59.4707V62H41.5V59.4707C42.361 59.3298 43 58.4879 43 57.5C43 56.4177 42.236 55.5 41.25 55.5ZM108.25 55.5C108.921 55.5 109.5 56.1494 109.5 57C109.5 57.8506 108.921 58.5 108.25 58.5C107.579 58.5 107 57.8506 107 57C107 56.1494 107.579 55.5 108.25 55.5ZM41.25 56C41.9208 56 42.5 56.6494 42.5 57.5C42.5 58.3506 41.9208 59 41.25 59C40.5792 59 40 58.3506 40 57.5C40 56.6494 40.5792 56 41.25 56ZM9.25 56.5C8.26395 56.5 7.5 57.4177 7.5 58.5C7.5 59.4879 8.13904 60.3298 9 60.4707V63H9.5V60.4707C10.361 60.3298 11 59.4879 11 58.5C11 57.4177 10.236 56.5 9.25 56.5ZM9.25 57C9.9208 57 10.5 57.6494 10.5 58.5C10.5 59.3506 9.9208 60 9.25 60C8.5792 60 8 59.3506 8 58.5C8 57.6494 8.5792 57 9.25 57ZM122.75 61.5C121.764 61.5 121 62.4177 121 63.5C121 64.4879 121.639 65.3298 122.5 65.4707V68H123V65.4707C123.861 65.3298 124.5 64.4879 124.5 63.5C124.5 62.4177 123.736 61.5 122.75 61.5ZM122.75 62C123.421 62 124 62.6494 124 63.5C124 64.3506 123.421 65 122.75 65C122.079 65 121.5 64.3506 121.5 63.5C121.5 62.6494 122.079 62 122.75 62ZM84.25 62.5C83.2639 62.5 82.5 63.4177 82.5 64.5C82.5 65.4879 83.139 66.3298 84 66.4707V69H84.5V66.4707C85.361 66.3298 86 65.4879 86 64.5C86 63.4177 85.236 62.5 84.25 62.5ZM84.25 63C84.9208 63 85.5 63.6494 85.5 64.5C85.5 65.3506 84.9208 66 84.25 66C83.5792 66 83 65.3506 83 64.5C83 63.6494 83.5792 63 84.25 63ZM57.25 66C56.264 66 55.5 66.9177 55.5 68C55.5 68.9879 56.139 69.8298 57 69.9707V72.5H57.5V69.9707C58.361 69.8298 59 68.9879 59 68C59 66.9177 58.236 66 57.25 66ZM19.75 66.5C18.764 66.5 18 67.4177 18 68.5C18 69.4879 18.639 70.3298 19.5 70.4707V73H20V70.4707C20.861 70.3298 21.5 69.4879 21.5 68.5C21.5 67.4177 20.736 66.5 19.75 66.5ZM57.25 66.5C57.9208 66.5 58.5 67.1494 58.5 68C58.5 68.8506 57.9208 69.5 57.25 69.5C56.5792 69.5 56 68.8506 56 68C56 67.1494 56.5792 66.5 57.25 66.5ZM19.75 67C20.4208 67 21 67.6494 21 68.5C21 69.3506 20.4208 70 19.75 70C19.0792 70 18.5 69.3506 18.5 68.5C18.5 67.6494 19.0792 67 19.75 67ZM101.25 69.5C100.264 69.5 99.5 70.4177 99.5 71.5C99.5 72.4879 100.139 73.3298 101 73.4707V76H101.5V73.4707C102.361 73.3298 103 72.4879 103 71.5C103 70.4177 102.236 69.5 101.25 69.5ZM101.25 70C101.921 70 102.5 70.6494 102.5 71.5C102.5 72.3506 101.921 73 101.25 73C100.579 73 100 72.3506 100 71.5C100 70.6494 100.579 70 101.25 70ZM41.25 72.5C40.264 72.5 39.5 73.4177 39.5 74.5C39.5 75.4879 40.139 76.3298 41 76.4707V79H41.5V76.4707C42.361 76.3298 43 75.4879 43 74.5C43 73.4177 42.236 72.5 41.25 72.5ZM41.25 73C41.9208 73 42.5 73.6494 42.5 74.5C42.5 75.3506 41.9208 76 41.25 76C40.5792 76 40 75.3506 40 74.5C40 73.6494 40.5792 73 41.25 73ZM114.25 74.5C113.264 74.5 112.5 75.4177 112.5 76.5C112.5 77.4879 113.139 78.3298 114 78.4707V81H114.5V78.4707C115.361 78.3298 116 77.4879 116 76.5C116 75.4177 115.236 74.5 114.25 74.5ZM5.75 75C4.76395 75 4 75.9177 4 77C4 77.9879 4.63904 78.8298 5.5 78.9707V81.5H6V78.9707C6.86096 78.8298 7.5 77.9879 7.5 77C7.5 75.9177 6.73605 75 5.75 75ZM73.25 75C72.2639 75 71.5 75.9177 71.5 77C71.5 77.9879 72.139 78.8298 73 78.9707V81.5H73.5V78.9707C74.361 78.8298 75 77.9879 75 77C75 75.9177 74.236 75 73.25 75ZM114.25 75C114.921 75 115.5 75.6494 115.5 76.5C115.5 77.3506 114.921 78 114.25 78C113.579 78 113 77.3506 113 76.5C113 75.6494 113.579 75 114.25 75ZM5.75 75.5C6.4208 75.5 7 76.1494 7 77C7 77.8506 6.4208 78.5 5.75 78.5C5.0792 78.5 4.5 77.8506 4.5 77C4.5 76.1494 5.0792 75.5 5.75 75.5ZM73.25 75.5C73.9208 75.5 74.5 76.1494 74.5 77C74.5 77.8506 73.9208 78.5 73.25 78.5C72.5792 78.5 72 77.8506 72 77C72 76.1494 72.5792 75.5 73.25 75.5ZM27.25 78C26.264 78 25.5 78.9177 25.5 80C25.5 80.9879 26.139 81.8298 27 81.9707V84.5H27.5V81.9707C28.361 81.8298 29 80.9879 29 80C29 78.9177 28.236 78 27.25 78ZM27.25 78.5C27.9208 78.5 28.5 79.1494 28.5 80C28.5 80.8506 27.9208 81.5 27.25 81.5C26.5792 81.5 26 80.8506 26 80C26 79.1494 26.5792 78.5 27.25 78.5ZM88.25 80C87.2639 80 86.5 80.9177 86.5 82C86.5 82.9879 87.139 83.8298 88 83.9707V86.5H88.5V83.9707C89.361 83.8298 90 82.9879 90 82C90 80.9177 89.236 80 88.25 80ZM88.25 80.5C88.9208 80.5 89.5 81.1494 89.5 82C89.5 82.8506 88.9208 83.5 88.25 83.5C87.5792 83.5 87 82.8506 87 82C87 81.1494 87.5792 80.5 88.25 80.5ZM58.75 82C57.764 82 57 82.9177 57 84C57 84.9879 57.639 85.8298 58.5 85.9707V88.5H59V85.9707C59.861 85.8298 60.5 84.9879 60.5 84C60.5 82.9177 59.736 82 58.75 82ZM58.75 82.5C59.4208 82.5 60 83.1494 60 84C60 84.8506 59.4208 85.5 58.75 85.5C58.0792 85.5 57.5 84.8506 57.5 84C57.5 83.1494 58.0792 82.5 58.75 82.5ZM104.75 87C103.764 87 103 87.9177 103 89C103 89.9879 103.639 90.8298 104.5 90.9707V93.5H105V90.9707C105.861 90.8298 106.5 89.9879 106.5 89C106.5 87.9177 105.736 87 104.75 87ZM43.75 87.5C42.764 87.5 42 88.4177 42 89.5C42 90.4879 42.639 91.3298 43.5 91.4707V94H44V91.4707C44.861 91.3298 45.5 90.4879 45.5 89.5C45.5 88.4177 44.736 87.5 43.75 87.5ZM104.75 87.5C105.421 87.5 106 88.1494 106 89C106 89.8506 105.421 90.5 104.75 90.5C104.079 90.5 103.5 89.8506 103.5 89C103.5 88.1494 104.079 87.5 104.75 87.5ZM13.25 88C12.264 88 11.5 88.9177 11.5 90C11.5 90.9879 12.139 91.8298 13 91.9707V94.5H13.5V91.9707C14.361 91.8298 15 90.9879 15 90C15 88.9177 14.236 88 13.25 88ZM43.75 88C44.4208 88 45 88.6494 45 89.5C45 90.3506 44.4208 91 43.75 91C43.0792 91 42.5 90.3506 42.5 89.5C42.5 88.6494 43.0792 88 43.75 88ZM13.25 88.5C13.9208 88.5 14.5 89.1494 14.5 90C14.5 90.8506 13.9208 91.5 13.25 91.5C12.5792 91.5 12 90.8506 12 90C12 89.1494 12.5792 88.5 13.25 88.5ZM125.75 90C124.764 90 124 90.9177 124 92C124 92.9879 124.639 93.8298 125.5 93.9707V96.5H126V93.9707C126.861 93.8298 127.5 92.9879 127.5 92C127.5 90.9177 126.736 90 125.75 90ZM125.75 90.5C126.421 90.5 127 91.1494 127 92C127 92.8506 126.421 93.5 125.75 93.5C125.079 93.5 124.5 92.8506 124.5 92C124.5 91.1494 125.079 90.5 125.75 90.5ZM73.25 92.5C72.2639 92.5 71.5 93.4177 71.5 94.5C71.5 95.4879 72.139 96.3298 73 96.4707V99H73.5V96.4707C74.361 96.3298 75 95.4879 75 94.5C75 93.4177 74.236 92.5 73.25 92.5ZM73.25 93C73.9208 93 74.5 93.6494 74.5 94.5C74.5 95.3506 73.9208 96 73.25 96C72.5792 96 72 95.3506 72 94.5C72 93.6494 72.5792 93 73.25 93ZM88.75 94.5C87.7639 94.5 87 95.4177 87 96.5C87 97.4879 87.639 98.3298 88.5 98.4707V101H89V98.4707C89.861 98.3298 90.5 97.4879 90.5 96.5C90.5 95.4177 89.736 94.5 88.75 94.5ZM88.75 95C89.4208 95 90 95.6494 90 96.5C90 97.3506 89.4208 98 88.75 98C88.0792 98 87.5 97.3506 87.5 96.5C87.5 95.6494 88.0792 95 88.75 95ZM28.75 97C27.764 97 27 97.9177 27 99C27 99.9879 27.639 100.83 28.5 100.971V103.5H29V100.971C29.861 100.83 30.5 99.9879 30.5 99C30.5 97.9177 29.736 97 28.75 97ZM28.75 97.5C29.4208 97.5 30 98.1494 30 99C30 99.8506 29.4208 100.5 28.75 100.5C28.0792 100.5 27.5 99.8506 27.5 99C27.5 98.1494 28.0792 97.5 28.75 97.5ZM56.75 98C55.764 98 55 98.9177 55 100C55 100.988 55.639 101.83 56.5 101.971V104.5H57V101.971C57.861 101.83 58.5 100.988 58.5 100C58.5 98.9177 57.736 98 56.75 98ZM56.75 98.5C57.4208 98.5 58 99.1494 58 100C58 100.851 57.4208 101.5 56.75 101.5C56.0792 101.5 55.5 100.851 55.5 100C55.5 99.1494 56.0792 98.5 56.75 98.5ZM117.25 102.5C116.264 102.5 115.5 103.418 115.5 104.5C115.5 105.488 116.139 106.33 117 106.471V109H117.5V106.471C118.361 106.33 119 105.488 119 104.5C119 103.418 118.236 102.5 117.25 102.5ZM117.25 103C117.921 103 118.5 103.649 118.5 104.5C118.5 105.351 117.921 106 117.25 106C116.579 106 116 105.351 116 104.5C116 103.649 116.579 103 117.25 103ZM7.75 103.5C6.76395 103.5 6 104.418 6 105.5C6 106.488 6.63904 107.33 7.5 107.471V110H8V107.471C8.86096 107.33 9.5 106.488 9.5 105.5C9.5 104.418 8.73605 103.5 7.75 103.5ZM7.75 104C8.4208 104 9 104.649 9 105.5C9 106.351 8.4208 107 7.75 107C7.0792 107 6.5 106.351 6.5 105.5C6.5 104.649 7.0792 104 7.75 104ZM101.75 104C100.764 104 100 104.918 100 106C100 106.988 100.639 107.83 101.5 107.971V110.5H102V107.971C102.861 107.83 103.5 106.988 103.5 106C103.5 104.918 102.736 104 101.75 104ZM101.75 104.5C102.421 104.5 103 105.149 103 106C103 106.851 102.421 107.5 101.75 107.5C101.079 107.5 100.5 106.851 100.5 106C100.5 105.149 101.079 104.5 101.75 104.5ZM39.75 105.5C38.764 105.5 38 106.418 38 107.5C38 108.488 38.639 109.33 39.5 109.471V112H40V109.471C40.861 109.33 41.5 108.488 41.5 107.5C41.5 106.418 40.736 105.5 39.75 105.5ZM39.75 106C40.4208 106 41 106.649 41 107.5C41 108.351 40.4208 109 39.75 109C39.0792 109 38.5 108.351 38.5 107.5C38.5 106.649 39.0792 106 39.75 106ZM69.75 107C68.7639 107 68 107.918 68 109C68 109.988 68.639 110.83 69.5 110.971V113.5H70V110.971C70.861 110.83 71.5 109.988 71.5 109C71.5 107.918 70.736 107 69.75 107ZM69.75 107.5C70.4208 107.5 71 108.149 71 109C71 109.851 70.4208 110.5 69.75 110.5C69.0792 110.5 68.5 109.851 68.5 109C68.5 108.149 69.0792 107.5 69.75 107.5ZM22.75 110C21.764 110 21 110.918 21 112C21 112.988 21.639 113.83 22.5 113.971V116.5H23V113.971C23.861 113.83 24.5 112.988 24.5 112C24.5 110.918 23.736 110 22.75 110ZM22.75 110.5C23.4208 110.5 24 111.149 24 112C24 112.851 23.4208 113.5 22.75 113.5C22.0792 113.5 21.5 112.851 21.5 112C21.5 111.149 22.0792 110.5 22.75 110.5ZM84.75 111.5C83.7639 111.5 83 112.418 83 113.5C83 114.488 83.639 115.33 84.5 115.471V118H85V115.471C85.861 115.33 86.5 114.488 86.5 113.5C86.5 112.418 85.736 111.5 84.75 111.5ZM84.75 112C85.4208 112 86 112.649 86 113.5C86 114.351 85.4208 115 84.75 115C84.0792 115 83.5 114.351 83.5 113.5C83.5 112.649 84.0792 112 84.75 112ZM53.75 117C52.764 117 52 117.918 52 119C52 119.988 52.639 120.83 53.5 120.971V123.5H54V120.971C54.861 120.83 55.5 119.988 55.5 119C55.5 117.918 54.736 117 53.75 117ZM53.75 117.5C54.4208 117.5 55 118.149 55 119C55 119.851 54.4208 120.5 53.75 120.5C53.0792 120.5 52.5 119.851 52.5 119C52.5 118.149 53.0792 117.5 53.75 117.5ZM109.25 119C108.264 119 107.5 119.918 107.5 121C107.5 121.988 108.139 122.83 109 122.971V125.5H109.5V122.971C110.361 122.83 111 121.988 111 121C111 119.918 110.236 119 109.25 119ZM109.25 119.5C109.921 119.5 110.5 120.149 110.5 121C110.5 121.851 109.921 122.5 109.25 122.5C108.579 122.5 108 121.851 108 121C108 120.149 108.579 119.5 109.25 119.5ZM11.25 120C10.264 120 9.5 120.918 9.5 122C9.5 122.988 10.139 123.83 11 123.971V126.5H11.5V123.971C12.361 123.83 13 122.988 13 122C13 120.918 12.236 120 11.25 120ZM11.25 120.5C11.9208 120.5 12.5 121.149 12.5 122C12.5 122.851 11.9208 123.5 11.25 123.5C10.5792 123.5 10 122.851 10 122C10 121.149 10.5792 120.5 11.25 120.5ZM40.75 121C39.764 121 39 121.918 39 123C39 123.988 39.639 124.83 40.5 124.971V127.5H41V124.971C41.861 124.83 42.5 123.988 42.5 123C42.5 121.918 41.736 121 40.75 121ZM40.75 121.5C41.4208 121.5 42 122.149 42 123C42 123.851 41.4208 124.5 40.75 124.5C40.0792 124.5 39.5 123.851 39.5 123C39.5 122.149 40.0792 121.5 40.75 121.5ZM124.25 122C123.264 122 122.5 122.918 122.5 124C122.5 124.988 123.139 125.83 124 125.971V128H124.5V125.971C125.361 125.83 126 124.988 126 124C126 122.918 125.236 122 124.25 122ZM124.25 122.5C124.921 122.5 125.5 123.149 125.5 124C125.5 124.851 124.921 125.5 124.25 125.5C123.579 125.5 123 124.851 123 124C123 123.149 123.579 122.5 124.25 122.5ZM95.25 123C94.2639 123 93.5 123.918 93.5 125C93.5 125.988 94.139 126.83 95 126.971V128H95.5V126.971C96.361 126.83 97 125.988 97 125C97 123.918 96.236 123 95.25 123ZM95.25 123.5C95.9208 123.5 96.5 124.149 96.5 125C96.5 125.851 95.9208 126.5 95.25 126.5C94.5792 126.5 94 125.851 94 125C94 124.149 94.5792 123.5 95.25 123.5ZM77.25 124C76.2639 124 75.5 124.918 75.5 126C75.5 126.988 76.139 127.83 77 127.971V128H77.5V127.971C78.361 127.83 79 126.988 79 126C79 124.918 78.236 124 77.25 124ZM77.25 124.5C77.9208 124.5 78.5 125.149 78.5 126C78.5 126.851 77.9208 127.5 77.25 127.5C76.5792 127.5 76 126.851 76 126C76 125.149 76.5792 124.5 77.25 124.5Z" fill="#6B8D5E"/>
</svg>
