<svg width="14" height="14" viewBox="0 0 14 14" fill="none" xmlns="http://www.w3.org/2000/svg">
<path d="M0.5 0C0.223 0 0 0.223 0 0.5V1V6H1V5H13V6H14V2V1.5C14 1.223 13.777 1 13.5 1C13.223 1 13 1.223 13 1.5V2V4H1V1V0.5C1 0.223 0.777 0 0.5 0ZM3.5 0C2.67157 0 2 0.671573 2 1.5C2 2.32843 2.67157 3 3.5 3C4.32843 3 5 2.32843 5 1.5C5 0.671573 4.32843 0 3.5 0ZM6 1V3H12C12 2 10.9638 1 10 1H6ZM4 6L3 9C2.52733 9 2 9.38429 2 10V13H3C3 13 3 14 4 14C5 14 5 13 5 13H9C9 13 9 14 10 14C11 14 11 13 11 13H12V10C12 9.47939 11.5446 9 11 9L10 6H4ZM5 7H9L9.625 9H4.375L5 7ZM4 10.25C4.41421 10.25 4.75 10.5858 4.75 11C4.75 11.4142 4.41421 11.75 4 11.75C3.58579 11.75 3.25 11.4142 3.25 11C3.25 10.5858 3.58579 10.25 4 10.25ZM10 10.25C10.4142 10.25 10.75 10.5858 10.75 11C10.75 11.4142 10.4142 11.75 10 11.75C9.58579 11.75 9.25 11.4142 9.25 11C9.25 10.5858 9.58579 10.25 10 10.25Z" fill="#0092DA"/>
</svg>
