<svg width="14" height="14" viewBox="0 0 14 14" fill="none" xmlns="http://www.w3.org/2000/svg">
<g clip-path="url(#clip0)">
<path d="M6.07026 0L4.12615 0.306641C4.11108 3.59419 4.0982 6.88237 4.0852 10.1699L3.53726 10.1309C2.20864 10.0371 0.803765 10.6914 0.187237 11.6895C-0.039725 12.0568 -0.0630404 12.6401 0.136538 12.957C0.448115 13.4519 1.18802 13.8664 1.9929 14C3.84375 13.9468 5.1693 13.2994 6.06831 11.9668C6.06831 7.92614 6.07007 3.58344 6.07026 0ZM7.01014 0.0195312C7.00299 0.0201713 6.99584 0.0208223 6.98869 0.0214844V1.00391C8.57528 1.00665 10.0959 1.64063 11.2168 2.76665C12.3378 3.89268 12.9673 5.41872 12.9673 7.00977C12.9673 7.79857 12.8123 8.57966 12.5113 9.30841C12.2102 10.0372 11.769 10.6993 11.2127 11.257C10.6564 11.8147 9.99607 12.2571 9.26929 12.5588C8.54252 12.8606 7.76359 13.0158 6.97699 13.0156C6.81291 13.0139 6.64898 13.0054 6.4856 12.9902L5.61787 13.8457C6.07595 13.9403 6.54238 13.9887 7.01014 13.9902C8.86398 13.9903 10.6419 13.2545 11.9529 11.9447C13.2639 10.6349 14.0005 8.85835 14.0007 7.00586C14.0009 6.08843 13.8201 5.17997 13.4689 4.33234C13.1176 3.48471 12.6027 2.71453 11.9536 2.06577C11.3044 1.41702 10.5337 0.902395 9.68554 0.551298C8.83734 0.200201 7.92823 0.0195058 7.01014 0.0195312V0.0195312ZM3.02637 1.26758C2.09913 1.9106 1.34149 2.76842 0.81821 3.7677C0.294928 4.76699 0.0215661 5.87803 0.0214909 7.00586C0.0237518 8.01299 0.243929 9.00773 0.666927 9.92188L1.54051 9.50781C1.17977 8.72455 0.99155 7.87253 0.98867 7.00977C0.989985 6.157 1.17239 5.31428 1.52373 4.5377C1.87508 3.76112 2.38733 3.06848 3.02637 2.50586V1.26758ZM6.98869 5V6C6.99454 5.99995 7.00039 5.99995 7.00624 6C7.14194 5.99996 7.27632 6.02579 7.4017 6.07603C7.52709 6.12626 7.64102 6.19991 7.73699 6.29278C7.83296 6.38564 7.90909 6.49589 7.96104 6.61724C8.01298 6.73859 8.03971 6.86865 8.03971 7C8.03971 7.13135 8.01298 7.26141 7.96104 7.38276C7.90909 7.50411 7.83296 7.61436 7.73699 7.70722C7.64102 7.80009 7.52709 7.87374 7.4017 7.92397C7.27632 7.97421 7.14194 8.00004 7.00624 8C7.00038 7.9994 6.99453 7.99875 6.98869 7.99805V9C7.51679 8.99664 8.02213 8.78445 8.39439 8.40975C8.76666 8.03505 8.97563 7.52826 8.97569 7C8.97563 6.47174 8.76666 5.96495 8.39439 5.59025C8.02213 5.21555 7.51679 5.00336 6.98869 5V5Z" fill="#AC39AC"/>
</g>
<defs>
<clipPath id="clip0">
<rect width="14" height="14" fill="white"/>
</clipPath>
</defs>
</svg>
