<svg width="14" height="14" viewBox="0 0 14 14" fill="none" xmlns="http://www.w3.org/2000/svg">
<path d="M5 3.00006L0 6.00006C0 8.00006 0.25 11.0001 1.25 11.0001H5C6 11.0001 6.25 7.50006 6.25 7.50006C6.76702 7.25006 7.23298 7.25006 7.75 7.50006C7.75 7.50006 8 11.0001 9 11.0001H12.75C13.75 11.0001 14 8.00006 14 6.00006L9 3.00006C8.52141 2.72374 8.12726 3.74618 9 4.25006L12 6.00006H2L5 4.25006C5.9225 3.71745 5.36497 2.78934 5 3.00006ZM1.25 7.25006H5L4.5 9.75006H1.75L1.25 7.25006ZM9 7.25006H12.75L12.25 9.75006H9.5L9 7.25006Z" fill="#AC39AC"/>
</svg>
