<svg width="14" height="14" viewBox="0 0 14 14" fill="none" xmlns="http://www.w3.org/2000/svg">
<g clip-path="url(#clip0)">
<path d="M2.99952 2C1.67749 2 1.67749 3.5 2.99952 3.5H10.9995C12.3386 3.5 12.3385 2 10.9995 2H2.99952ZM3.99952 4L3.24952 7H0.999521C-0.322513 7 -0.322513 8.5 0.999521 8.5H2.87452L1.99952 12H3.49952L4.37452 8.5H9.62452L10.4995 12H11.9995L11.1245 8.5H12.9995C14.3386 8.5 14.3385 7 12.9995 7H10.7495L9.99952 4H8.49952L9.24952 7H4.74952L5.49952 4H3.99952V4Z" fill="#2F6133"/>
</g>
<defs>
<clipPath id="clip0">
<rect width="14" height="14" fill="white"/>
</clipPath>
</defs>
</svg>
