<?xml version="1.0" encoding="UTF-8" standalone="no"?>
<svg
   xmlns:dc="http://purl.org/dc/elements/1.1/"
   xmlns:cc="http://creativecommons.org/ns#"
   xmlns:rdf="http://www.w3.org/1999/02/22-rdf-syntax-ns#"
   xmlns:svg="http://www.w3.org/2000/svg"
   xmlns="http://www.w3.org/2000/svg"
   id="Svg"
   width="32"
   height="32"
   version="1.1">
  <metadata
     id="metadata911">
    <rdf:RDF>
      <cc:Work
         rdf:about="">
        <dc:format>image/svg+xml</dc:format>
        <dc:type
           rdf:resource="http://purl.org/dc/dcmitype/StillImage" />
        <dc:title></dc:title>
      </cc:Work>
    </rdf:RDF>
  </metadata>
  <defs
     id="defs3" />
  <path
     id="path4362"
     d="M 16.949219 1.0507812 L 16.662109 1.1757812 L 16.431641 1.3964844 L 16.642578 1.7167969 L 16.873047 1.6757812 L 17.158203 1.7558594 L 17.369141 1.5097656 L 17.269531 1.203125 L 16.949219 1.0507812 z M 22.943359 2.0253906 L 22.636719 2.203125 L 22.574219 2.5097656 L 22.625 2.8261719 L 23.009766 2.8339844 L 23.107422 2.6210938 L 23.335938 2.4316406 L 23.251953 2.1191406 L 22.943359 2.0253906 z M 6.1855469 2.8535156 L 5.9375 2.8886719 L 5.859375 3.1347656 L 5.8535156 3.5214844 L 6.0859375 3.5800781 L 6.328125 3.5761719 L 6.6171875 3.3222656 L 6.4941406 3.0234375 L 6.1855469 2.8535156 z M 28.464844 4.7558594 L 28.134766 5.1835938 L 28.421875 5.6308594 L 28.919922 5.6503906 L 29.138672 5.203125 L 28.917969 4.8300781 L 28.464844 4.7558594 z M 13.638672 4.8789062 L 13.296875 5.0566406 L 13.345703 5.375 L 13.605469 5.6132812 L 13.855469 5.640625 L 13.988281 5.4199219 L 14.087891 5.046875 L 13.876953 4.9335938 L 13.638672 4.8789062 z M 9.8222656 5.0664062 L 9.6035156 5.2128906 L 9.5039062 5.46875 L 9.7109375 5.7421875 L 9.9726562 5.7714844 L 10.207031 5.6894531 L 10.275391 5.3964844 L 10.171875 5.0742188 L 9.8222656 5.0664062 z M 2.0859375 5.7441406 L 1.7871094 5.8417969 L 1.6113281 6.0703125 L 1.7246094 6.4355469 L 2.0625 6.4921875 L 2.3027344 6.3398438 L 2.375 5.9746094 L 2.0859375 5.7441406 z M 20.943359 6.5 L 20.546875 6.671875 L 20.417969 7.1132812 L 20.802734 7.4921875 L 21.28125 7.2597656 L 21.361328 6.7695312 L 20.943359 6.5 z M 27.080078 8.8183594 L 26.818359 9.078125 L 26.876953 9.3867188 L 27.083984 9.5898438 L 27.460938 9.5214844 L 27.556641 9.1914062 L 27.433594 8.9355469 L 27.080078 8.8183594 z M 10.96875 8.9140625 L 10.771484 9.4121094 L 11.164062 9.7304688 L 11.580078 9.4648438 L 11.486328 8.9316406 L 10.96875 8.9140625 z M 19.220703 9.1816406 L 18.835938 9.2226562 L 18.804688 9.4589844 L 18.837891 9.7011719 L 19.125 9.9570312 L 19.40625 9.7988281 L 19.537109 9.4707031 L 19.472656 9.2285156 L 19.220703 9.1816406 z M 3.2480469 9.2949219 L 3.0039062 9.4707031 L 2.8671875 9.7792969 L 3.1230469 10.015625 L 3.3847656 10.050781 L 3.6289062 9.9257812 L 3.65625 9.5839844 L 3.4785156 9.3886719 L 3.2480469 9.2949219 z M 22.544922 10.140625 L 22.248047 10.365234 L 22.310547 10.728516 L 22.599609 10.855469 L 22.882812 10.800781 L 23.041016 10.451172 L 22.824219 10.185547 L 22.544922 10.140625 z M 14.664062 10.609375 L 14.492188 10.90625 L 14.548828 11.183594 L 14.865234 11.380859 L 15.183594 11.193359 L 15.199219 10.876953 L 15.046875 10.632812 L 14.664062 10.609375 z M 6.3886719 10.748047 L 6.1289062 10.783203 L 5.9199219 10.917969 L 5.9257812 11.220703 L 6.1015625 11.507812 L 6.4433594 11.431641 L 6.6210938 11.236328 L 6.65625 10.964844 L 6.3886719 10.748047 z M 8.2929688 10.8125 L 8.0722656 11.039062 L 8.0214844 11.322266 L 8.2929688 11.59375 L 8.6191406 11.486328 L 8.7617188 11.240234 L 8.6542969 10.882812 L 8.2929688 10.8125 z M 1.0371094 11.15625 L 0.72265625 11.314453 L 0.609375 11.539062 L 0.76757812 11.742188 L 1.0820312 11.966797 L 1.2617188 11.808594 L 1.3984375 11.607422 L 1.3515625 11.224609 L 1.0371094 11.15625 z M 28.158203 11.248047 L 27.693359 11.523438 L 27.859375 12.015625 L 28.394531 12.023438 L 28.554688 11.542969 L 28.158203 11.248047 z M 17.824219 11.558594 L 17.621094 12.048828 L 17.886719 12.470703 L 18.378906 12.396484 L 18.558594 12.003906 L 18.365234 11.587891 L 17.824219 11.558594 z M 24.902344 11.847656 L 24.560547 12.205078 L 24.779297 12.701172 L 25.287109 12.59375 L 25.359375 12.064453 L 24.902344 11.847656 z M 4.2460938 12.515625 L 3.7070312 12.544922 L 3.6269531 13.056641 L 4.0976562 13.3125 L 4.4609375 12.960938 L 4.2460938 12.515625 z M 30.474609 12.568359 L 30.132812 12.927734 L 30.351562 13.421875 L 30.859375 13.314453 L 30.931641 12.785156 L 30.474609 12.568359 z M 11.816406 12.671875 L 11.611328 13.162109 L 11.876953 13.583984 L 12.369141 13.509766 L 12.550781 13.117188 L 12.355469 12.701172 L 11.816406 12.671875 z M 14.746094 12.808594 L 14.287109 13 L 14.205078 13.423828 L 14.494141 13.78125 L 15.025391 13.679688 L 15.105469 13.154297 L 14.746094 12.808594 z M 10.236328 12.849609 L 9.7460938 13.074219 L 9.7929688 13.603516 L 10.224609 13.853516 L 10.625 13.558594 L 10.603516 13.126953 L 10.236328 12.849609 z M 20.394531 12.880859 L 20.039062 12.896484 L 19.841797 13.138672 L 19.740234 13.441406 L 20.076172 13.626953 L 20.261719 13.484375 L 20.552734 13.423828 L 20.625 13.107422 L 20.394531 12.880859 z M 26.355469 12.990234 L 26.119141 13.050781 L 25.900391 13.367188 L 26.091797 13.626953 L 26.431641 13.71875 L 26.664062 13.625 L 26.681641 13.369141 L 26.59375 12.990234 L 26.355469 12.990234 z M 29.232422 13.359375 L 28.835938 13.533203 L 28.707031 13.972656 L 29.091797 14.353516 L 29.568359 14.121094 L 29.648438 13.628906 L 29.232422 13.359375 z M 6.4628906 13.480469 L 5.9707031 13.707031 L 6.0175781 14.236328 L 6.4492188 14.484375 L 6.8496094 14.189453 L 6.828125 13.757812 L 6.4628906 13.480469 z M 0.94335938 13.6875 L 0.63671875 13.865234 L 0.57421875 14.171875 L 0.625 14.488281 L 1.0097656 14.496094 L 1.1074219 14.283203 L 1.3359375 14.09375 L 1.2519531 13.78125 L 0.94335938 13.6875 z M 8.5703125 13.847656 L 8.1015625 14.007812 L 8.0644531 14.546875 L 8.5644531 14.689453 L 8.875 14.251953 L 8.5703125 13.847656 z M 17.257812 13.964844 L 17.005859 14.166016 L 16.978516 14.521484 L 17.195312 14.746094 L 17.484375 14.882812 L 17.708984 14.572266 L 17.589844 14.371094 L 17.5625 14.076172 L 17.257812 13.964844 z M 23.398438 14.048828 L 22.876953 14.169922 L 22.835938 14.673828 L 23.292969 14.865234 L 23.677734 14.486328 L 23.398438 14.048828 z M 21.486328 14.275391 L 20.994141 14.501953 L 21.041016 15.03125 L 21.472656 15.279297 L 21.785156 15.048828 L 21.736328 15.390625 L 21.853516 15.623047 L 21.695312 15.826172 L 21.689453 15.738281 L 21.375 15.603516 L 21.105469 15.693359 L 21.085938 15.736328 L 20.667969 15.667969 L 20.472656 15.921875 L 20.191406 15.548828 L 19.722656 15.708984 L 19.685547 16.248047 L 20.185547 16.388672 L 20.365234 16.136719 L 20.625 16.541016 L 21.123047 16.5625 L 21.240234 16.318359 L 21.488281 16.300781 L 21.712891 16.121094 L 21.708984 16.050781 L 21.912109 16.365234 L 22.410156 16.384766 L 22.626953 15.9375 L 22.525391 15.763672 L 22.730469 15.822266 L 22.941406 15.576172 L 22.84375 15.269531 L 22.521484 15.117188 L 22.417969 15.162109 L 22.402344 15.083984 L 22.117188 14.982422 L 21.792969 15.042969 L 21.873047 14.984375 L 21.851562 14.552734 L 21.486328 14.275391 z M 18.9375 14.306641 L 18.691406 14.542969 L 18.695312 14.806641 L 18.802734 15.03125 L 19.103516 15.060547 L 19.412109 14.919922 L 19.375 14.572266 L 19.203125 14.373047 L 18.9375 14.306641 z M 24.998047 14.320312 L 24.861328 14.515625 L 24.779297 14.744141 L 24.914062 15.105469 L 25.236328 15.095703 L 25.503906 14.867188 L 25.558594 14.623047 L 25.357422 14.462891 L 24.998047 14.320312 z M 5.0292969 14.330078 L 4.7207031 14.419922 L 4.7597656 14.800781 L 4.9824219 14.873047 L 5.1972656 15.076172 L 5.5 14.957031 L 5.5546875 14.638672 L 5.3398438 14.355469 L 5.0292969 14.330078 z M 3.4433594 14.386719 L 3.1601562 14.847656 L 3.5371094 15.205078 L 4.0136719 14.962891 L 3.9316406 14.464844 L 3.4433594 14.386719 z M 15.646484 14.5 L 15.351562 14.726562 L 15.414062 15.089844 L 15.703125 15.214844 L 15.986328 15.160156 L 16.144531 14.8125 L 15.927734 14.544922 L 15.646484 14.5 z M 31.708984 14.541016 L 31.367188 14.568359 L 31.169922 14.773438 L 31.185547 15.144531 L 31.521484 15.298828 L 31.789062 15.132812 L 31.90625 14.869141 L 31.708984 14.541016 z M 14.40625 14.576172 L 14.160156 14.753906 L 14.023438 15.0625 L 14.28125 15.298828 L 14.542969 15.333984 L 14.785156 15.207031 L 14.8125 14.867188 L 14.634766 14.671875 L 14.40625 14.576172 z M 16.626953 14.59375 L 16.21875 14.933594 L 16.232422 15.091797 L 16.009766 15.302734 L 15.960938 15.650391 L 16.082031 15.871094 L 16.337891 15.855469 L 16.701172 15.724609 L 16.683594 15.576172 L 16.728516 15.591797 L 17.072266 15.328125 L 17.091797 14.869141 L 16.626953 14.59375 z M 11.933594 14.615234 L 11.623047 14.703125 L 11.417969 14.988281 L 11.421875 15.240234 L 11.65625 15.345703 L 11.988281 15.390625 L 11.908203 15.425781 L 11.792969 15.822266 L 11.59375 15.560547 L 11.318359 15.537109 L 11.363281 15.470703 L 11.318359 15.089844 L 11.003906 15.021484 L 10.6875 15.179688 L 10.576172 15.404297 L 10.664062 15.517578 L 10.371094 15.666016 L 10.244141 15.896484 L 10.263672 16.072266 L 10.259766 16.070312 L 9.9941406 16.257812 L 10.019531 16.580078 L 10.294922 16.804688 L 10.603516 16.753906 L 10.880859 16.59375 L 10.759766 16.248047 L 10.830078 16.21875 L 11.001953 16.039062 L 10.923828 15.746094 L 10.914062 15.736328 L 10.992188 15.791016 L 11.013672 16.005859 L 11.236328 16.078125 L 11.246094 16.085938 L 11.132812 16.167969 L 11.15625 16.488281 L 11.431641 16.712891 L 11.740234 16.662109 L 12.017578 16.501953 L 11.888672 16.140625 L 11.759766 16.132812 L 11.800781 15.888672 L 12.164062 16.246094 L 12.335938 16.162109 L 12.365234 16.347656 L 12.625 16.585938 L 12.875 16.611328 L 13.007812 16.392578 L 13.039062 16.273438 L 13.064453 16.3125 L 13.556641 16.238281 L 13.736328 15.845703 L 13.542969 15.429688 L 13.095703 15.40625 L 13.316406 15.263672 L 13.222656 14.732422 L 12.703125 14.714844 L 12.505859 15.210938 L 12.898438 15.53125 L 12.964844 15.488281 L 12.800781 15.884766 L 12.667969 15.853516 L 12.722656 15.523438 L 12.304688 15.253906 L 12.052734 15.363281 L 12.126953 15.175781 L 12.152344 14.933594 L 11.933594 14.615234 z M 27.849609 14.6875 L 27.548828 14.783203 L 27.375 15.013672 L 27.488281 15.378906 L 27.826172 15.435547 L 28.066406 15.283203 L 28.138672 14.917969 L 27.849609 14.6875 z M 2.2753906 14.736328 L 2.1035156 15.03125 L 2.1601562 15.310547 L 2.4765625 15.507812 L 2.7949219 15.318359 L 2.8105469 15.003906 L 2.6582031 14.759766 L 2.2753906 14.736328 z M 7.7753906 15.017578 L 7.5058594 15.445312 L 7.8203125 15.828125 L 8.109375 15.740234 L 8.2050781 16.003906 L 8.4199219 16.15625 L 8.6933594 16.158203 L 8.8769531 15.869141 L 8.8105469 15.613281 L 8.6503906 15.423828 L 8.3515625 15.464844 L 8.3222656 15.488281 L 8.2929688 15.152344 L 7.7753906 15.017578 z M 26.158203 15.0625 L 25.751953 15.402344 L 25.789062 15.898438 L 26.015625 15.976562 L 26.046875 16.275391 L 26.269531 16.347656 L 26.484375 16.550781 L 26.503906 16.542969 L 26.310547 16.710938 L 26.367188 17.048828 L 26.585938 17.195312 L 26.832031 17.232422 L 27.027344 17.003906 L 27.085938 16.669922 L 26.779297 16.501953 L 26.541016 16.529297 L 26.787109 16.431641 L 26.816406 16.257812 L 26.855469 16.380859 L 27.195312 16.4375 L 27.435547 16.285156 L 27.507812 15.919922 L 27.21875 15.6875 L 26.917969 15.787109 L 26.755859 15.998047 L 26.626953 15.830078 L 26.564453 15.824219 L 26.601562 15.796875 L 26.623047 15.339844 L 26.158203 15.0625 z M 23.443359 15.09375 L 22.951172 15.320312 L 23 15.849609 L 23.121094 15.919922 L 22.994141 16.359375 L 23.417969 16.695312 L 23.818359 16.365234 L 23.748047 16.171875 L 23.808594 16.234375 L 24.097656 16.371094 L 24.212891 16.210938 L 24.447266 16.277344 L 24.658203 16.03125 L 24.630859 15.949219 L 24.796875 16.105469 L 24.984375 16.03125 L 25.001953 16.119141 L 25.208984 16.322266 L 25.585938 16.253906 L 25.681641 15.923828 L 25.558594 15.667969 L 25.205078 15.552734 L 25.126953 15.630859 L 24.939453 15.384766 L 24.628906 15.359375 L 24.320312 15.449219 L 24.337891 15.619141 L 24.238281 15.572266 L 24.179688 15.597656 L 24.177734 15.564453 L 23.873047 15.455078 L 23.814453 15.5 L 23.808594 15.371094 L 23.443359 15.09375 z M 9.7109375 15.126953 L 9.4394531 15.554688 L 9.5351562 15.671875 L 9.4921875 15.667969 L 9.1835938 15.757812 L 9.2070312 15.990234 L 9.0996094 16.044922 L 8.9199219 16.208984 L 8.8769531 16.564453 L 8.71875 16.466797 L 8.2832031 16.611328 L 8.1894531 17.142578 L 8.6523438 17.404297 L 9.1015625 17.191406 L 9.0859375 16.695312 L 9.1621094 16.732422 L 9.5058594 16.654297 L 9.6699219 16.462891 L 9.6386719 16.394531 L 9.6601562 16.414062 L 9.9628906 16.294922 L 10.017578 15.976562 L 9.9433594 15.880859 L 10.273438 15.779297 L 10.228516 15.261719 L 9.7109375 15.126953 z M 0.3125 15.138672 L 0.04296875 15.228516 L 0 15.320312 L 0 16.322266 L 0.13085938 16.298828 L 0.16992188 16.164062 L 0.30664062 16.03125 L 0.29882812 15.845703 L 0.42382812 15.835938 L 0.6484375 15.658203 L 0.63476562 15.691406 L 0.73828125 15.828125 L 0.703125 16.009766 L 0.52734375 16.248047 L 0.66796875 16.507812 L 0.67773438 16.646484 L 0.95507812 16.871094 L 1.2421875 16.822266 L 1.2910156 16.974609 L 1.8222656 16.992188 L 2.1210938 16.59375 L 2.0097656 16.394531 L 2.1113281 16.441406 L 2.4941406 16.494141 L 2.5820312 16.271484 L 2.5859375 16.226562 L 2.6816406 16.441406 L 3.1113281 16.351562 L 3.0957031 16.449219 L 3.5664062 16.705078 L 3.9296875 16.353516 L 3.875 16.238281 L 3.9589844 16.285156 L 3.9316406 16.333984 L 3.9628906 16.607422 L 4.2734375 16.753906 L 4.5175781 16.65625 L 4.6894531 16.476562 L 4.6601562 16.363281 L 4.796875 16.582031 L 5.2890625 16.507812 L 5.4707031 16.115234 L 5.2753906 15.699219 L 4.7363281 15.669922 L 4.546875 16.121094 L 4.4140625 15.988281 L 4.4179688 15.984375 L 4.2011719 15.539062 L 3.6621094 15.568359 L 3.6074219 15.914062 L 3.2441406 15.933594 L 3.2617188 15.804688 L 2.8046875 15.587891 L 2.5136719 15.894531 L 2.3886719 15.712891 L 2.078125 15.798828 L 1.8730469 16.083984 L 1.875 16.160156 L 1.4453125 16.130859 L 1.2929688 16.289062 L 1.2597656 16.287109 L 1.2460938 15.990234 L 1.2285156 15.949219 L 1.3378906 15.912109 L 1.4042969 15.617188 L 1.3027344 15.294922 L 0.953125 15.289062 L 0.734375 15.435547 L 0.65039062 15.652344 L 0.62695312 15.273438 L 0.3125 15.138672 z M 6.3027344 15.160156 L 6.0566406 15.183594 L 5.9550781 15.384766 L 5.9023438 15.384766 L 5.6679688 15.445312 L 5.4472656 15.761719 L 5.6386719 16.021484 L 5.9785156 16.113281 L 6.2128906 16.019531 L 6.2226562 15.865234 L 6.28125 15.880859 L 6.328125 15.863281 L 6.3125 15.978516 L 6.3457031 16.21875 L 6.6328125 16.474609 L 6.7636719 16.400391 L 6.765625 16.404297 L 6.8085938 16.679688 L 7.0683594 16.919922 L 7.3183594 16.945312 L 7.4511719 16.724609 L 7.4726562 16.644531 L 7.7304688 16.6875 L 7.9707031 16.535156 L 8.0429688 16.169922 L 7.7558594 15.939453 L 7.5175781 16.017578 L 7.2675781 15.605469 L 6.7832031 15.708984 L 6.7285156 15.699219 L 6.5820312 15.714844 L 6.6855469 15.566406 L 6.5507812 15.25 L 6.3027344 15.160156 z M 29.056641 15.210938 L 28.8125 15.285156 L 28.490234 15.5 L 28.533203 15.617188 L 28.400391 15.617188 L 28.335938 15.804688 L 28.103516 15.738281 L 27.785156 16.119141 L 27.908203 16.533203 L 28.330078 16.714844 L 28.753906 16.378906 L 28.734375 16.324219 L 28.84375 16.259766 L 29.070312 16.011719 L 29.087891 16.015625 L 29.263672 15.746094 L 29.228516 15.394531 L 29.056641 15.210938 z M 15.025391 15.271484 L 14.779297 15.509766 L 14.78125 15.650391 L 14.486328 15.740234 L 14.458984 15.667969 L 13.955078 15.689453 L 13.818359 16.166016 L 14.09375 16.384766 L 13.878906 16.509766 L 13.978516 16.994141 L 14.511719 17.095703 L 14.667969 16.720703 L 14.78125 16.837891 L 15.070312 16.976562 L 15.294922 16.666016 L 15.175781 16.462891 L 15.148438 16.167969 L 15.087891 16.146484 L 15.091797 16.017578 L 15.191406 16.027344 L 15.5 15.886719 L 15.464844 15.539062 L 15.292969 15.339844 L 15.025391 15.271484 z M 32 15.320312 L 31.925781 15.480469 L 31.794922 15.509766 L 31.777344 15.603516 L 31.751953 15.595703 L 31.554688 15.789062 L 31.455078 15.734375 L 31.193359 15.761719 L 31.175781 15.777344 L 31.111328 15.539062 L 30.802734 15.445312 L 30.527344 15.603516 L 30.501953 15.492188 L 30.261719 15.492188 L 30.027344 15.552734 L 30.001953 15.589844 L 29.904297 15.623047 L 29.732422 15.484375 L 29.431641 15.580078 L 29.255859 15.808594 L 29.369141 16.175781 L 29.707031 16.230469 L 29.757812 16.199219 L 29.833984 16.296875 L 30.148438 16.275391 L 30.248047 16.195312 L 30.337891 16.220703 L 30.472656 16.167969 L 30.484375 16.246094 L 30.867188 16.255859 L 30.966797 16.041016 L 30.998047 16.015625 L 31.042969 16.28125 L 31.261719 16.427734 L 31.505859 16.464844 L 31.664062 16.279297 L 31.753906 16.367188 L 32 16.322266 L 32 15.320312 z M 19.318359 15.382812 L 18.988281 15.480469 L 18.871094 15.714844 L 18.863281 15.962891 L 19.046875 16.083984 L 18.822266 16.1875 L 18.751953 16.564453 L 19.025391 16.769531 L 19.308594 16.748047 L 19.542969 16.457031 L 19.40625 16.144531 L 19.451172 16.146484 L 19.582031 15.822266 L 19.521484 15.566406 L 19.318359 15.382812 z M 18.294922 15.447266 L 17.898438 15.621094 L 17.869141 15.722656 L 17.759766 15.539062 L 17.306641 15.462891 L 17.029297 15.820312 L 16.976562 15.802734 L 16.724609 16.003906 L 16.697266 16.357422 L 16.914062 16.582031 L 17.203125 16.720703 L 17.427734 16.410156 L 17.388672 16.34375 L 17.761719 16.357422 L 17.861328 16.152344 L 18.154297 16.441406 L 18.630859 16.208984 L 18.710938 15.716797 L 18.294922 15.447266 z M 15.742188 15.980469 L 15.560547 16.160156 L 15.375 16.5 L 15.552734 16.660156 L 15.763672 16.765625 L 15.808594 17.248047 L 16.238281 17.496094 L 16.640625 17.203125 L 16.617188 16.769531 L 16.251953 16.492188 L 16.158203 16.535156 L 16.173828 16.357422 L 15.980469 16.064453 L 15.742188 15.980469 z M 30.779297 16.271484 L 30.457031 16.316406 L 30.328125 16.611328 L 30.46875 16.939453 L 30.765625 17.037109 L 31.083984 17.023438 L 31.138672 16.644531 L 30.939453 16.521484 L 30.779297 16.271484 z M 17.71875 16.451172 L 17.515625 16.597656 L 17.560547 16.851562 L 17.734375 17.197266 L 17.966797 17.140625 L 18.181641 17.023438 L 18.318359 16.664062 L 18.070312 16.458984 L 17.71875 16.451172 z M 22.019531 16.458984 L 21.806641 16.570312 L 21.626953 16.734375 L 21.580078 17.115234 L 21.869141 17.257812 L 22.212891 17.179688 L 22.375 16.988281 L 22.271484 16.753906 L 22.019531 16.458984 z M 5.7832031 16.466797 L 5.3769531 16.816406 L 5.5761719 17.28125 L 6.0703125 17.240234 L 6.234375 16.724609 L 5.7832031 16.466797 z M 24.986328 16.490234 L 24.771484 16.642578 L 24.648438 16.859375 L 24.794922 17.125 L 25.085938 17.296875 L 25.351562 17.070312 L 25.417969 16.816406 L 25.322266 16.558594 L 24.986328 16.490234 z M 29.472656 16.525391 L 29.212891 16.560547 L 29.003906 16.695312 L 29.009766 16.996094 L 29.185547 17.285156 L 29.527344 17.207031 L 29.705078 17.013672 L 29.740234 16.740234 L 29.472656 16.525391 z M 27.445312 16.550781 L 27.226562 16.697266 L 27.126953 16.953125 L 27.333984 17.226562 L 27.595703 17.255859 L 27.830078 17.173828 L 27.896484 16.880859 L 27.794922 16.558594 L 27.445312 16.550781 z M 13.224609 16.669922 L 12.703125 16.791016 L 12.662109 17.294922 L 13.119141 17.486328 L 13.503906 17.107422 L 13.224609 16.669922 z M 0 16.675781 L 0 17.433594 L 0.04296875 17.486328 L 0.56054688 17.328125 L 0.515625 16.810547 L 0 16.675781 z M 31.998047 16.675781 L 31.728516 17.103516 L 32 17.433594 L 32 16.675781 L 31.998047 16.675781 z M 11.316406 16.830078 L 10.857422 17.019531 L 10.773438 17.445312 L 11.0625 17.800781 L 11.59375 17.701172 L 11.673828 17.175781 L 11.316406 16.830078 z M 20.289062 16.833984 L 19.769531 16.945312 L 19.574219 17.404297 L 19.914062 17.765625 L 20.341797 17.691406 L 20.572266 17.294922 L 20.289062 16.833984 z M 25.958984 16.839844 L 25.746094 16.949219 L 25.566406 17.115234 L 25.519531 17.496094 L 25.808594 17.636719 L 26.152344 17.560547 L 26.314453 17.369141 L 26.210938 17.134766 L 25.958984 16.839844 z M 2.9277344 16.841797 L 2.6816406 16.917969 L 2.359375 17.132812 L 2.4433594 17.357422 L 2.5859375 17.554688 L 2.9589844 17.648438 L 3.1347656 17.376953 L 3.0976562 17.027344 L 2.9277344 16.841797 z M 4.453125 16.923828 L 4.3105469 17.279297 L 4.4746094 17.447266 L 4.5703125 17.726562 L 4.8925781 17.761719 L 5.0898438 17.505859 L 5.03125 17.154297 L 4.7675781 16.988281 L 4.453125 16.923828 z M 23.732422 17.058594 L 23.462891 17.396484 L 23.552734 17.845703 L 24.070312 18.003906 L 24.384766 17.576172 L 24.226562 17.103516 L 23.732422 17.058594 z M 1.5410156 17.148438 L 1.2128906 17.244141 L 1.09375 17.478516 L 1.0859375 17.728516 L 1.3378906 17.894531 L 1.6757812 17.912109 L 1.8046875 17.587891 L 1.7460938 17.332031 L 1.5410156 17.148438 z M 30.394531 17.191406 L 30.132812 17.3125 L 30.064453 17.689453 L 30.337891 17.896484 L 30.621094 17.873047 L 30.855469 17.582031 L 30.707031 17.244141 L 30.394531 17.191406 z M 18.513672 17.271484 L 18.226562 17.396484 L 17.996094 17.617188 L 18.205078 17.9375 L 18.4375 17.896484 L 18.722656 17.976562 L 18.933594 17.730469 L 18.833984 17.423828 L 18.513672 17.271484 z M 28.4375 17.798828 L 27.972656 18.074219 L 28.140625 18.566406 L 28.673828 18.574219 L 28.833984 18.09375 L 28.4375 17.798828 z M 12.457031 18.0625 L 12.101562 18.076172 L 11.904297 18.318359 L 11.802734 18.623047 L 12.138672 18.808594 L 12.326172 18.666016 L 12.615234 18.603516 L 12.6875 18.287109 L 12.457031 18.0625 z M 9.5214844 18.109375 L 9.2070312 18.267578 L 9.09375 18.492188 L 9.2519531 18.695312 L 9.5664062 18.919922 L 9.7460938 18.761719 L 9.8828125 18.560547 L 9.8359375 18.177734 L 9.5214844 18.109375 z M 20.736328 18.316406 L 20.25 18.416016 L 20.144531 18.902344 L 20.447266 19.210938 L 20.904297 19.175781 L 21.123047 18.681641 L 20.736328 18.316406 z M 22.318359 18.525391 L 21.951172 18.587891 L 21.837891 18.9375 L 22.035156 19.185547 L 22.310547 19.267578 L 22.613281 19.033203 L 22.544922 18.695312 L 22.318359 18.525391 z M 3.96875 18.548828 L 3.7558594 18.658203 L 3.5761719 18.822266 L 3.5292969 19.205078 L 3.8183594 19.345703 L 4.1621094 19.267578 L 4.3242188 19.076172 L 4.2207031 18.841797 L 3.96875 18.548828 z M 25.693359 18.882812 L 25.363281 18.980469 L 25.246094 19.214844 L 25.238281 19.462891 L 25.490234 19.628906 L 25.826172 19.646484 L 25.957031 19.322266 L 25.896484 19.066406 L 25.693359 18.882812 z M 6.9667969 18.943359 L 6.7050781 18.970703 L 6.4980469 19.152344 L 6.5546875 19.490234 L 6.7734375 19.636719 L 7.0195312 19.673828 L 7.2148438 19.443359 L 7.2734375 19.111328 L 6.9667969 18.943359 z M 14.724609 18.974609 L 14.458984 19.162109 L 14.482422 19.484375 L 14.757812 19.708984 L 15.066406 19.658203 L 15.34375 19.498047 L 15.216797 19.136719 L 14.982422 19.119141 L 14.724609 18.974609 z M 30.648438 19.173828 L 30.396484 19.375 L 30.369141 19.728516 L 30.585938 19.953125 L 30.875 20.091797 L 31.099609 19.78125 L 30.980469 19.578125 L 30.953125 19.283203 L 30.648438 19.173828 z M 17.441406 19.300781 L 17.091797 19.458984 L 17.076172 19.800781 L 17.255859 20.021484 L 17.626953 20.048828 L 17.822266 19.734375 L 17.689453 19.449219 L 17.441406 19.300781 z M 1.8261719 19.837891 L 1.515625 19.923828 L 1.3105469 20.208984 L 1.3164062 20.460938 L 1.5488281 20.566406 L 1.9316406 20.619141 L 2.0195312 20.396484 L 2.0449219 20.154297 L 1.8261719 19.837891 z M 23.308594 20.625 L 23.009766 20.667969 L 22.744141 20.876953 L 22.861328 21.207031 L 23.076172 21.359375 L 23.351562 21.361328 L 23.533203 21.070312 L 23.466797 20.816406 L 23.308594 20.625 z M 9.6210938 21.007812 L 9.3085938 21.166016 L 9.1816406 21.396484 L 9.2128906 21.669922 L 9.5234375 21.816406 L 9.7675781 21.71875 L 9.9394531 21.539062 L 9.8613281 21.246094 L 9.6210938 21.007812 z M 27.193359 21.072266 L 26.892578 21.169922 L 26.716797 21.398438 L 26.830078 21.763672 L 27.169922 21.820312 L 27.410156 21.667969 L 27.482422 21.302734 L 27.193359 21.072266 z M 11.359375 21.132812 L 11.017578 21.310547 L 11.066406 21.628906 L 11.326172 21.867188 L 11.576172 21.892578 L 11.708984 21.673828 L 11.808594 21.298828 L 11.597656 21.1875 L 11.359375 21.132812 z M 6.3808594 21.673828 L 6.1132812 21.738281 L 6.0058594 22.0625 L 6.1308594 22.294922 L 6.3320312 22.441406 L 6.6113281 22.330078 L 6.8183594 22.060547 L 6.6269531 21.769531 L 6.3808594 21.673828 z M 19.119141 22.025391 L 18.787109 22.453125 L 19.076172 22.900391 L 19.574219 22.919922 L 19.791016 22.472656 L 19.572266 22.101562 L 19.119141 22.025391 z M 14.050781 22.402344 L 13.845703 22.685547 L 13.841797 22.949219 L 13.998047 23.175781 L 14.339844 23.162109 L 14.511719 22.960938 L 14.578125 22.722656 L 14.373047 22.5 L 14.050781 22.402344 z M 2.5703125 22.607422 L 2.2402344 23.035156 L 2.5273438 23.482422 L 3.0253906 23.501953 L 3.2441406 23.054688 L 3.0234375 22.683594 L 2.5703125 22.607422 z M 30.378906 23.503906 L 30.142578 23.804688 L 30.289062 24.115234 L 30.550781 24.226562 L 30.892578 24.078125 L 30.917969 23.710938 L 30.667969 23.517578 L 30.378906 23.503906 z M 27.023438 24.429688 L 26.558594 24.707031 L 26.724609 25.199219 L 27.259766 25.207031 L 27.419922 24.726562 L 27.023438 24.429688 z M 16.705078 25.296875 L 16.492188 25.40625 L 16.3125 25.570312 L 16.265625 25.953125 L 16.554688 26.09375 L 16.898438 26.015625 L 17.0625 25.824219 L 16.957031 25.589844 L 16.705078 25.296875 z M 21.103516 26.429688 L 20.736328 26.492188 L 20.623047 26.84375 L 20.820312 27.089844 L 21.095703 27.173828 L 21.398438 26.9375 L 21.332031 26.601562 L 21.103516 26.429688 z M 5.7402344 26.611328 L 5.3339844 26.951172 L 5.3730469 27.447266 L 5.84375 27.609375 L 6.1855469 27.345703 L 6.2070312 26.888672 L 5.7402344 26.611328 z M 1.7714844 28.072266 L 1.5253906 28.09375 L 1.390625 28.365234 L 1.4121094 28.701172 L 1.75 28.791016 L 1.9980469 28.701172 L 2.1542969 28.476562 L 2.0195312 28.162109 L 1.7714844 28.072266 z M 23.947266 28.59375 L 23.775391 28.890625 L 23.832031 29.169922 L 24.148438 29.365234 L 24.464844 29.177734 L 24.480469 28.863281 L 24.328125 28.617188 L 23.947266 28.59375 z M 13.1875 28.853516 L 12.984375 29.34375 L 13.25 29.763672 L 13.742188 29.689453 L 13.923828 29.296875 L 13.728516 28.882812 L 13.1875 28.853516 z M 9.9160156 28.994141 L 9.4121094 29.015625 L 9.2753906 29.492188 L 9.6992188 29.828125 L 10.099609 29.498047 L 9.9160156 28.994141 z " style="fill:#999999;fill-opacity:1;stroke:none" />
  <rect
     width="32"
     height="32"
     rx="0"
     x="0"
     y="0"
     id="rect8566"
     style="fill:none;fill-opacity:1;stroke:none" />
  <desc
     id="desc907">Created with Snap</desc>
</svg>
