<svg width="128" height="128" viewBox="0 0 128 128" fill="none" xmlns="http://www.w3.org/2000/svg">
<path d="M1.75 3.27539C1.62462 3.27518 1.49952 3.35012 1.25 3.5L0 4.5H3.5L2.25 3.5C2.00102 3.35095 1.87538 3.2756 1.75 3.27539ZM10.75 3.27539C10.6246 3.27518 10.4995 3.35012 10.25 3.5L9 4.5H12.5L11.25 3.5C11.001 3.35095 10.8754 3.2756 10.75 3.27539ZM20.25 3.27539C20.1246 3.27518 19.9995 3.35012 19.75 3.5L18.5 4.5H22L20.75 3.5C20.501 3.35095 20.3754 3.2756 20.25 3.27539ZM29.25 3.27539C29.1246 3.27518 28.9995 3.35012 28.75 3.5L27.5 4.5H31L29.75 3.5C29.501 3.35095 29.3754 3.2756 29.25 3.27539ZM38.25 3.27539C38.1246 3.27518 37.9995 3.35012 37.75 3.5L36.5 4.5H40L38.75 3.5C38.501 3.35095 38.3754 3.2756 38.25 3.27539ZM47.75 3.27539C47.6246 3.27518 47.4995 3.35012 47.25 3.5L46 4.5H49.5L48.25 3.5C48.001 3.35095 47.8754 3.2756 47.75 3.27539ZM56.75 3.27539C56.6246 3.27518 56.4995 3.35012 56.25 3.5L55 4.5H58.5L57.25 3.5C57.001 3.35095 56.8754 3.2756 56.75 3.27539ZM65.75 3.27539C65.6246 3.27518 65.4995 3.35012 65.25 3.5L64 4.5H67.5L66.25 3.5C66.001 3.35095 65.8754 3.2756 65.75 3.27539ZM74.75 3.27539C74.6246 3.27518 74.4995 3.35012 74.25 3.5L73 4.5H76.5L75.25 3.5C75.001 3.35095 74.8754 3.2756 74.75 3.27539ZM84.25 3.27539C84.1246 3.27518 83.9995 3.35012 83.75 3.5L82.5 4.5H86L84.75 3.5C84.501 3.35095 84.3754 3.2756 84.25 3.27539ZM93.25 3.27539C93.1246 3.27518 92.9995 3.35012 92.75 3.5L91.5 4.5H95L93.75 3.5C93.501 3.35095 93.3754 3.2756 93.25 3.27539ZM102.25 3.27539C102.125 3.27518 102 3.35012 101.75 3.5L100.5 4.5H104L102.75 3.5C102.501 3.35095 102.375 3.2756 102.25 3.27539ZM111.75 3.27539C111.625 3.27518 111.5 3.35012 111.25 3.5L110 4.5H113.5L112.25 3.5C112.001 3.35095 111.875 3.2756 111.75 3.27539ZM120.75 3.27539C120.625 3.27518 120.5 3.35012 120.25 3.5L119 4.5H122.5L121.25 3.5C121.001 3.35095 120.875 3.2756 120.75 3.27539ZM6.25 11.2754C6.12462 11.2752 5.99952 11.3501 5.75 11.5L4.5 12.5H8L6.75 11.5C6.50102 11.351 6.37538 11.2756 6.25 11.2754ZM15.75 11.2754C15.6246 11.2752 15.4995 11.3501 15.25 11.5L14 12.5H17.5L16.25 11.5C16.001 11.351 15.8754 11.2756 15.75 11.2754ZM24.75 11.2754C24.6246 11.2752 24.4995 11.3501 24.25 11.5L23 12.5H26.5L25.25 11.5C25.001 11.351 24.8754 11.2756 24.75 11.2754ZM33.75 11.2754C33.6246 11.2752 33.4995 11.3501 33.25 11.5L32 12.5H35.5L34.25 11.5C34.001 11.351 33.8754 11.2756 33.75 11.2754ZM42.75 11.2754C42.6246 11.2752 42.4995 11.3501 42.25 11.5L41 12.5H44.5L43.25 11.5C43.001 11.351 42.8754 11.2756 42.75 11.2754ZM52.25 11.2754C52.1246 11.2752 51.9995 11.3501 51.75 11.5L50.5 12.5H54L52.75 11.5C52.501 11.351 52.3754 11.2756 52.25 11.2754ZM61.25 11.2754C61.1246 11.2752 60.9995 11.3501 60.75 11.5L59.5 12.5H63L61.75 11.5C61.501 11.351 61.3754 11.2756 61.25 11.2754ZM70.25 11.2754C70.1246 11.2752 69.9995 11.3501 69.75 11.5L68.5 12.5H72L70.75 11.5C70.501 11.351 70.3754 11.2756 70.25 11.2754ZM79.75 11.2754C79.6246 11.2752 79.4995 11.3501 79.25 11.5L78 12.5H81.5L80.25 11.5C80.001 11.351 79.8754 11.2756 79.75 11.2754ZM88.75 11.2754C88.6246 11.2752 88.4995 11.3501 88.25 11.5L87 12.5H90.5L89.25 11.5C89.001 11.351 88.8754 11.2756 88.75 11.2754ZM97.75 11.2754C97.6246 11.2752 97.4995 11.3501 97.25 11.5L96 12.5H99.5L98.25 11.5C98.001 11.351 97.8754 11.2756 97.75 11.2754ZM106.75 11.2754C106.625 11.2752 106.5 11.3501 106.25 11.5L105 12.5H108.5L107.25 11.5C107.001 11.351 106.875 11.2756 106.75 11.2754ZM116.25 11.2754C116.125 11.2752 116 11.3501 115.75 11.5L114.5 12.5H118L116.75 11.5C116.501 11.351 116.375 11.2756 116.25 11.2754ZM125.25 11.2754C125.125 11.2752 125 11.3501 124.75 11.5L123.5 12.5H127L125.75 11.5C125.501 11.351 125.375 11.2756 125.25 11.2754ZM1.75 19.2754C1.62462 19.2752 1.49952 19.3501 1.25 19.5L0 20.5H3.5L2.25 19.5C2.00102 19.351 1.87538 19.2756 1.75 19.2754ZM10.75 19.2754C10.6246 19.2752 10.4995 19.3501 10.25 19.5L9 20.5H12.5L11.25 19.5C11.001 19.351 10.8754 19.2756 10.75 19.2754ZM20.25 19.2754C20.1246 19.2752 19.9995 19.3501 19.75 19.5L18.5 20.5H22L20.75 19.5C20.501 19.351 20.3754 19.2756 20.25 19.2754ZM29.25 19.2754C29.1246 19.2752 28.9995 19.3501 28.75 19.5L27.5 20.5H31L29.75 19.5C29.501 19.351 29.3754 19.2756 29.25 19.2754ZM38.25 19.2754C38.1246 19.2752 37.9995 19.3501 37.75 19.5L36.5 20.5H40L38.75 19.5C38.501 19.351 38.3754 19.2756 38.25 19.2754ZM47.75 19.2754C47.6246 19.2752 47.4995 19.3501 47.25 19.5L46 20.5H49.5L48.25 19.5C48.001 19.351 47.8754 19.2756 47.75 19.2754ZM56.75 19.2754C56.6246 19.2752 56.4995 19.3501 56.25 19.5L55 20.5H58.5L57.25 19.5C57.001 19.351 56.8754 19.2756 56.75 19.2754ZM65.75 19.2754C65.6246 19.2752 65.4995 19.3501 65.25 19.5L64 20.5H67.5L66.25 19.5C66.001 19.351 65.8754 19.2756 65.75 19.2754ZM74.75 19.2754C74.6246 19.2752 74.4995 19.3501 74.25 19.5L73 20.5H76.5L75.25 19.5C75.001 19.351 74.8754 19.2756 74.75 19.2754ZM84.25 19.2754C84.1246 19.2752 83.9995 19.3501 83.75 19.5L82.5 20.5H86L84.75 19.5C84.501 19.351 84.3754 19.2756 84.25 19.2754ZM93.25 19.2754C93.1246 19.2752 92.9995 19.3501 92.75 19.5L91.5 20.5H95L93.75 19.5C93.501 19.351 93.3754 19.2756 93.25 19.2754ZM102.25 19.2754C102.125 19.2752 102 19.3501 101.75 19.5L100.5 20.5H104L102.75 19.5C102.501 19.351 102.375 19.2756 102.25 19.2754ZM111.75 19.2754C111.625 19.2752 111.5 19.3501 111.25 19.5L110 20.5H113.5L112.25 19.5C112.001 19.351 111.875 19.2756 111.75 19.2754ZM120.75 19.2754C120.625 19.2752 120.5 19.3501 120.25 19.5L119 20.5H122.5L121.25 19.5C121.001 19.351 120.875 19.2756 120.75 19.2754ZM6.25 27.2754C6.12462 27.2752 5.99952 27.3501 5.75 27.5L4.5 28.5H8L6.75 27.5C6.50102 27.351 6.37538 27.2756 6.25 27.2754ZM15.75 27.2754C15.6246 27.2752 15.4995 27.3501 15.25 27.5L14 28.5H17.5L16.25 27.5C16.001 27.351 15.8754 27.2756 15.75 27.2754ZM24.75 27.2754C24.6246 27.2752 24.4995 27.3501 24.25 27.5L23 28.5H26.5L25.25 27.5C25.001 27.351 24.8754 27.2756 24.75 27.2754ZM33.75 27.2754C33.6246 27.2752 33.4995 27.3501 33.25 27.5L32 28.5H35.5L34.25 27.5C34.001 27.351 33.8754 27.2756 33.75 27.2754ZM42.75 27.2754C42.6246 27.2752 42.4995 27.3501 42.25 27.5L41 28.5H44.5L43.25 27.5C43.001 27.351 42.8754 27.2756 42.75 27.2754ZM52.25 27.2754C52.1246 27.2752 51.9995 27.3501 51.75 27.5L50.5 28.5H54L52.75 27.5C52.501 27.351 52.3754 27.2756 52.25 27.2754ZM61.25 27.2754C61.1246 27.2752 60.9995 27.3501 60.75 27.5L59.5 28.5H63L61.75 27.5C61.501 27.351 61.3754 27.2756 61.25 27.2754ZM70.25 27.2754C70.1246 27.2752 69.9995 27.3501 69.75 27.5L68.5 28.5H72L70.75 27.5C70.501 27.351 70.3754 27.2756 70.25 27.2754ZM79.75 27.2754C79.6246 27.2752 79.4995 27.3501 79.25 27.5L78 28.5H81.5L80.25 27.5C80.001 27.351 79.8754 27.2756 79.75 27.2754ZM88.75 27.2754C88.6246 27.2752 88.4995 27.3501 88.25 27.5L87 28.5H90.5L89.25 27.5C89.001 27.351 88.8754 27.2756 88.75 27.2754ZM97.75 27.2754C97.6246 27.2752 97.4995 27.3501 97.25 27.5L96 28.5H99.5L98.25 27.5C98.001 27.351 97.8754 27.2756 97.75 27.2754ZM106.75 27.2754C106.625 27.2752 106.5 27.3501 106.25 27.5L105 28.5H108.5L107.25 27.5C107.001 27.351 106.875 27.2756 106.75 27.2754ZM116.25 27.2754C116.125 27.2752 116 27.3501 115.75 27.5L114.5 28.5H118L116.75 27.5C116.501 27.351 116.375 27.2756 116.25 27.2754ZM125.25 27.2754C125.125 27.2752 125 27.3501 124.75 27.5L123.5 28.5H127L125.75 27.5C125.501 27.351 125.375 27.2756 125.25 27.2754ZM1.75 35.2754C1.62462 35.2752 1.49952 35.3501 1.25 35.5L0 36.5H3.5L2.25 35.5C2.00102 35.351 1.87538 35.2756 1.75 35.2754ZM10.75 35.2754C10.6246 35.2752 10.4995 35.3501 10.25 35.5L9 36.5H12.5L11.25 35.5C11.001 35.351 10.8754 35.2756 10.75 35.2754ZM20.25 35.2754C20.1246 35.2752 19.9995 35.3501 19.75 35.5L18.5 36.5H22L20.75 35.5C20.501 35.351 20.3754 35.2756 20.25 35.2754ZM29.25 35.2754C29.1246 35.2752 28.9995 35.3501 28.75 35.5L27.5 36.5H31L29.75 35.5C29.501 35.351 29.3754 35.2756 29.25 35.2754ZM38.25 35.2754C38.1246 35.2752 37.9995 35.3501 37.75 35.5L36.5 36.5H40L38.75 35.5C38.501 35.351 38.3754 35.2756 38.25 35.2754ZM47.75 35.2754C47.6246 35.2752 47.4995 35.3501 47.25 35.5L46 36.5H49.5L48.25 35.5C48.001 35.351 47.8754 35.2756 47.75 35.2754ZM56.75 35.2754C56.6246 35.2752 56.4995 35.3501 56.25 35.5L55 36.5H58.5L57.25 35.5C57.001 35.351 56.8754 35.2756 56.75 35.2754ZM65.75 35.2754C65.6246 35.2752 65.4995 35.3501 65.25 35.5L64 36.5H67.5L66.25 35.5C66.001 35.351 65.8754 35.2756 65.75 35.2754ZM74.75 35.2754C74.6246 35.2752 74.4995 35.3501 74.25 35.5L73 36.5H76.5L75.25 35.5C75.001 35.351 74.8754 35.2756 74.75 35.2754ZM84.25 35.2754C84.1246 35.2752 83.9995 35.3501 83.75 35.5L82.5 36.5H86L84.75 35.5C84.501 35.351 84.3754 35.2756 84.25 35.2754ZM93.25 35.2754C93.1246 35.2752 92.9995 35.3501 92.75 35.5L91.5 36.5H95L93.75 35.5C93.501 35.351 93.3754 35.2756 93.25 35.2754ZM102.25 35.2754C102.125 35.2752 102 35.3501 101.75 35.5L100.5 36.5H104L102.75 35.5C102.501 35.351 102.375 35.2756 102.25 35.2754ZM111.75 35.2754C111.625 35.2752 111.5 35.3501 111.25 35.5L110 36.5H113.5L112.25 35.5C112.001 35.351 111.875 35.2756 111.75 35.2754ZM120.75 35.2754C120.625 35.2752 120.5 35.3501 120.25 35.5L119 36.5H122.5L121.25 35.5C121.001 35.351 120.875 35.2756 120.75 35.2754ZM6.25 43.2754C6.12462 43.2752 5.99952 43.3501 5.75 43.5L4.5 44.5H8L6.75 43.5C6.50102 43.351 6.37538 43.2756 6.25 43.2754ZM15.75 43.2754C15.6246 43.2752 15.4995 43.3501 15.25 43.5L14 44.5H17.5L16.25 43.5C16.001 43.351 15.8754 43.2756 15.75 43.2754ZM24.75 43.2754C24.6246 43.2752 24.4995 43.3501 24.25 43.5L23 44.5H26.5L25.25 43.5C25.001 43.351 24.8754 43.2756 24.75 43.2754ZM33.75 43.2754C33.6246 43.2752 33.4995 43.3501 33.25 43.5L32 44.5H35.5L34.25 43.5C34.001 43.351 33.8754 43.2756 33.75 43.2754ZM42.75 43.2754C42.6246 43.2752 42.4995 43.3501 42.25 43.5L41 44.5H44.5L43.25 43.5C43.001 43.351 42.8754 43.2756 42.75 43.2754ZM52.25 43.2754C52.1246 43.2752 51.9995 43.3501 51.75 43.5L50.5 44.5H54L52.75 43.5C52.501 43.351 52.3754 43.2756 52.25 43.2754ZM61.25 43.2754C61.1246 43.2752 60.9995 43.3501 60.75 43.5L59.5 44.5H63L61.75 43.5C61.501 43.351 61.3754 43.2756 61.25 43.2754ZM70.25 43.2754C70.1246 43.2752 69.9995 43.3501 69.75 43.5L68.5 44.5H72L70.75 43.5C70.501 43.351 70.3754 43.2756 70.25 43.2754ZM79.75 43.2754C79.6246 43.2752 79.4995 43.3501 79.25 43.5L78 44.5H81.5L80.25 43.5C80.001 43.351 79.8754 43.2756 79.75 43.2754ZM88.75 43.2754C88.6246 43.2752 88.4995 43.3501 88.25 43.5L87 44.5H90.5L89.25 43.5C89.001 43.351 88.8754 43.2756 88.75 43.2754ZM97.75 43.2754C97.6246 43.2752 97.4995 43.3501 97.25 43.5L96 44.5H99.5L98.25 43.5C98.001 43.351 97.8754 43.2756 97.75 43.2754ZM106.75 43.2754C106.625 43.2752 106.5 43.3501 106.25 43.5L105 44.5H108.5L107.25 43.5C107.001 43.351 106.875 43.2756 106.75 43.2754ZM116.25 43.2754C116.125 43.2752 116 43.3501 115.75 43.5L114.5 44.5H118L116.75 43.5C116.501 43.351 116.375 43.2756 116.25 43.2754ZM125.25 43.2754C125.125 43.2752 125 43.3501 124.75 43.5L123.5 44.5H127L125.75 43.5C125.501 43.351 125.375 43.2756 125.25 43.2754ZM1.75 51.2754C1.62462 51.2752 1.49952 51.3501 1.25 51.5L0 52.5H3.5L2.25 51.5C2.00102 51.351 1.87538 51.2756 1.75 51.2754ZM10.75 51.2754C10.6246 51.2752 10.4995 51.3501 10.25 51.5L9 52.5H12.5L11.25 51.5C11.001 51.351 10.8754 51.2756 10.75 51.2754ZM20.25 51.2754C20.1246 51.2752 19.9995 51.3501 19.75 51.5L18.5 52.5H22L20.75 51.5C20.501 51.351 20.3754 51.2756 20.25 51.2754ZM29.25 51.2754C29.1246 51.2752 28.9995 51.3501 28.75 51.5L27.5 52.5H31L29.75 51.5C29.501 51.351 29.3754 51.2756 29.25 51.2754ZM38.25 51.2754C38.1246 51.2752 37.9995 51.3501 37.75 51.5L36.5 52.5H40L38.75 51.5C38.501 51.351 38.3754 51.2756 38.25 51.2754ZM47.75 51.2754C47.6246 51.2752 47.4995 51.3501 47.25 51.5L46 52.5H49.5L48.25 51.5C48.001 51.351 47.8754 51.2756 47.75 51.2754ZM56.75 51.2754C56.6246 51.2752 56.4995 51.3501 56.25 51.5L55 52.5H58.5L57.25 51.5C57.001 51.351 56.8754 51.2756 56.75 51.2754ZM65.75 51.2754C65.6246 51.2752 65.4995 51.3501 65.25 51.5L64 52.5H67.5L66.25 51.5C66.001 51.351 65.8754 51.2756 65.75 51.2754ZM74.75 51.2754C74.6246 51.2752 74.4995 51.3501 74.25 51.5L73 52.5H76.5L75.25 51.5C75.001 51.351 74.8754 51.2756 74.75 51.2754ZM84.25 51.2754C84.1246 51.2752 83.9995 51.3501 83.75 51.5L82.5 52.5H86L84.75 51.5C84.501 51.351 84.3754 51.2756 84.25 51.2754ZM93.25 51.2754C93.1246 51.2752 92.9995 51.3501 92.75 51.5L91.5 52.5H95L93.75 51.5C93.501 51.351 93.3754 51.2756 93.25 51.2754ZM102.25 51.2754C102.125 51.2752 102 51.3501 101.75 51.5L100.5 52.5H104L102.75 51.5C102.501 51.351 102.375 51.2756 102.25 51.2754ZM111.75 51.2754C111.625 51.2752 111.5 51.3501 111.25 51.5L110 52.5H113.5L112.25 51.5C112.001 51.351 111.875 51.2756 111.75 51.2754ZM120.75 51.2754C120.625 51.2752 120.5 51.3501 120.25 51.5L119 52.5H122.5L121.25 51.5C121.001 51.351 120.875 51.2756 120.75 51.2754ZM6.25 59.2754C6.12462 59.2752 5.99952 59.3501 5.75 59.5L4.5 60.5H8L6.75 59.5C6.50102 59.351 6.37538 59.2756 6.25 59.2754ZM15.75 59.2754C15.6246 59.2752 15.4995 59.3501 15.25 59.5L14 60.5H17.5L16.25 59.5C16.001 59.351 15.8754 59.2756 15.75 59.2754ZM24.75 59.2754C24.6246 59.2752 24.4995 59.3501 24.25 59.5L23 60.5H26.5L25.25 59.5C25.001 59.351 24.8754 59.2756 24.75 59.2754ZM33.75 59.2754C33.6246 59.2752 33.4995 59.3501 33.25 59.5L32 60.5H35.5L34.25 59.5C34.001 59.351 33.8754 59.2756 33.75 59.2754ZM42.75 59.2754C42.6246 59.2752 42.4995 59.3501 42.25 59.5L41 60.5H44.5L43.25 59.5C43.001 59.351 42.8754 59.2756 42.75 59.2754ZM52.25 59.2754C52.1246 59.2752 51.9995 59.3501 51.75 59.5L50.5 60.5H54L52.75 59.5C52.501 59.351 52.3754 59.2756 52.25 59.2754ZM61.25 59.2754C61.1246 59.2752 60.9995 59.3501 60.75 59.5L59.5 60.5H63L61.75 59.5C61.501 59.351 61.3754 59.2756 61.25 59.2754ZM70.25 59.2754C70.1246 59.2752 69.9995 59.3501 69.75 59.5L68.5 60.5H72L70.75 59.5C70.501 59.351 70.3754 59.2756 70.25 59.2754ZM79.75 59.2754C79.6246 59.2752 79.4995 59.3501 79.25 59.5L78 60.5H81.5L80.25 59.5C80.001 59.351 79.8754 59.2756 79.75 59.2754ZM88.75 59.2754C88.6246 59.2752 88.4995 59.3501 88.25 59.5L87 60.5H90.5L89.25 59.5C89.001 59.351 88.8754 59.2756 88.75 59.2754ZM97.75 59.2754C97.6246 59.2752 97.4995 59.3501 97.25 59.5L96 60.5H99.5L98.25 59.5C98.001 59.351 97.8754 59.2756 97.75 59.2754ZM106.75 59.2754C106.625 59.2752 106.5 59.3501 106.25 59.5L105 60.5H108.5L107.25 59.5C107.001 59.351 106.875 59.2756 106.75 59.2754ZM116.25 59.2754C116.125 59.2752 116 59.3501 115.75 59.5L114.5 60.5H118L116.75 59.5C116.501 59.351 116.375 59.2756 116.25 59.2754ZM125.25 59.2754C125.125 59.2752 125 59.3501 124.75 59.5L123.5 60.5H127L125.75 59.5C125.501 59.351 125.375 59.2756 125.25 59.2754ZM1.75 67.2754C1.62462 67.2752 1.49952 67.3501 1.25 67.5L0 68.5H3.5L2.25 67.5C2.00102 67.351 1.87538 67.2756 1.75 67.2754ZM10.75 67.2754C10.6246 67.2752 10.4995 67.3501 10.25 67.5L9 68.5H12.5L11.25 67.5C11.001 67.351 10.8754 67.2756 10.75 67.2754ZM20.25 67.2754C20.1246 67.2752 19.9995 67.3501 19.75 67.5L18.5 68.5H22L20.75 67.5C20.501 67.351 20.3754 67.2756 20.25 67.2754ZM29.25 67.2754C29.1246 67.2752 28.9995 67.3501 28.75 67.5L27.5 68.5H31L29.75 67.5C29.501 67.351 29.3754 67.2756 29.25 67.2754ZM38.25 67.2754C38.1246 67.2752 37.9995 67.3501 37.75 67.5L36.5 68.5H40L38.75 67.5C38.501 67.351 38.3754 67.2756 38.25 67.2754ZM47.75 67.2754C47.6246 67.2752 47.4995 67.3501 47.25 67.5L46 68.5H49.5L48.25 67.5C48.001 67.351 47.8754 67.2756 47.75 67.2754ZM56.75 67.2754C56.6246 67.2752 56.4995 67.3501 56.25 67.5L55 68.5H58.5L57.25 67.5C57.001 67.351 56.8754 67.2756 56.75 67.2754ZM65.75 67.2754C65.6246 67.2752 65.4995 67.3501 65.25 67.5L64 68.5H67.5L66.25 67.5C66.001 67.351 65.8754 67.2756 65.75 67.2754ZM74.75 67.2754C74.6246 67.2752 74.4995 67.3501 74.25 67.5L73 68.5H76.5L75.25 67.5C75.001 67.351 74.8754 67.2756 74.75 67.2754ZM84.25 67.2754C84.1246 67.2752 83.9995 67.3501 83.75 67.5L82.5 68.5H86L84.75 67.5C84.501 67.351 84.3754 67.2756 84.25 67.2754ZM93.25 67.2754C93.1246 67.2752 92.9995 67.3501 92.75 67.5L91.5 68.5H95L93.75 67.5C93.501 67.351 93.3754 67.2756 93.25 67.2754ZM102.25 67.2754C102.125 67.2752 102 67.3501 101.75 67.5L100.5 68.5H104L102.75 67.5C102.501 67.351 102.375 67.2756 102.25 67.2754ZM111.75 67.2754C111.625 67.2752 111.5 67.3501 111.25 67.5L110 68.5H113.5L112.25 67.5C112.001 67.351 111.875 67.2756 111.75 67.2754ZM120.75 67.2754C120.625 67.2752 120.5 67.3501 120.25 67.5L119 68.5H122.5L121.25 67.5C121.001 67.351 120.875 67.2756 120.75 67.2754ZM6.25 75.2754C6.12462 75.2752 5.99952 75.3501 5.75 75.5L4.5 76.5H8L6.75 75.5C6.50102 75.351 6.37538 75.2756 6.25 75.2754ZM15.75 75.2754C15.6246 75.2752 15.4995 75.3501 15.25 75.5L14 76.5H17.5L16.25 75.5C16.001 75.351 15.8754 75.2756 15.75 75.2754ZM24.75 75.2754C24.6246 75.2752 24.4995 75.3501 24.25 75.5L23 76.5H26.5L25.25 75.5C25.001 75.351 24.8754 75.2756 24.75 75.2754ZM33.75 75.2754C33.6246 75.2752 33.4995 75.3501 33.25 75.5L32 76.5H35.5L34.25 75.5C34.001 75.351 33.8754 75.2756 33.75 75.2754ZM42.75 75.2754C42.6246 75.2752 42.4995 75.3501 42.25 75.5L41 76.5H44.5L43.25 75.5C43.001 75.351 42.8754 75.2756 42.75 75.2754ZM52.25 75.2754C52.1246 75.2752 51.9995 75.3501 51.75 75.5L50.5 76.5H54L52.75 75.5C52.501 75.351 52.3754 75.2756 52.25 75.2754ZM61.25 75.2754C61.1246 75.2752 60.9995 75.3501 60.75 75.5L59.5 76.5H63L61.75 75.5C61.501 75.351 61.3754 75.2756 61.25 75.2754ZM70.25 75.2754C70.1246 75.2752 69.9995 75.3501 69.75 75.5L68.5 76.5H72L70.75 75.5C70.501 75.351 70.3754 75.2756 70.25 75.2754ZM79.75 75.2754C79.6246 75.2752 79.4995 75.3501 79.25 75.5L78 76.5H81.5L80.25 75.5C80.001 75.351 79.8754 75.2756 79.75 75.2754ZM88.75 75.2754C88.6246 75.2752 88.4995 75.3501 88.25 75.5L87 76.5H90.5L89.25 75.5C89.001 75.351 88.8754 75.2756 88.75 75.2754ZM97.75 75.2754C97.6246 75.2752 97.4995 75.3501 97.25 75.5L96 76.5H99.5L98.25 75.5C98.001 75.351 97.8754 75.2756 97.75 75.2754ZM106.75 75.2754C106.625 75.2752 106.5 75.3501 106.25 75.5L105 76.5H108.5L107.25 75.5C107.001 75.351 106.875 75.2756 106.75 75.2754ZM116.25 75.2754C116.125 75.2752 116 75.3501 115.75 75.5L114.5 76.5H118L116.75 75.5C116.501 75.351 116.375 75.2756 116.25 75.2754ZM125.25 75.2754C125.125 75.2752 125 75.3501 124.75 75.5L123.5 76.5H127L125.75 75.5C125.501 75.351 125.375 75.2756 125.25 75.2754ZM1.75 83.2754C1.62462 83.2752 1.49952 83.3501 1.25 83.5L0 84.5H3.5L2.25 83.5C2.00102 83.351 1.87538 83.2756 1.75 83.2754ZM10.75 83.2754C10.6246 83.2752 10.4995 83.3501 10.25 83.5L9 84.5H12.5L11.25 83.5C11.001 83.351 10.8754 83.2756 10.75 83.2754ZM20.25 83.2754C20.1246 83.2752 19.9995 83.3501 19.75 83.5L18.5 84.5H22L20.75 83.5C20.501 83.351 20.3754 83.2756 20.25 83.2754ZM29.25 83.2754C29.1246 83.2752 28.9995 83.3501 28.75 83.5L27.5 84.5H31L29.75 83.5C29.501 83.351 29.3754 83.2756 29.25 83.2754ZM38.25 83.2754C38.1246 83.2752 37.9995 83.3501 37.75 83.5L36.5 84.5H40L38.75 83.5C38.501 83.351 38.3754 83.2756 38.25 83.2754ZM47.75 83.2754C47.6246 83.2752 47.4995 83.3501 47.25 83.5L46 84.5H49.5L48.25 83.5C48.001 83.351 47.8754 83.2756 47.75 83.2754ZM56.75 83.2754C56.6246 83.2752 56.4995 83.3501 56.25 83.5L55 84.5H58.5L57.25 83.5C57.001 83.351 56.8754 83.2756 56.75 83.2754ZM65.75 83.2754C65.6246 83.2752 65.4995 83.3501 65.25 83.5L64 84.5H67.5L66.25 83.5C66.001 83.351 65.8754 83.2756 65.75 83.2754ZM74.75 83.2754C74.6246 83.2752 74.4995 83.3501 74.25 83.5L73 84.5H76.5L75.25 83.5C75.001 83.351 74.8754 83.2756 74.75 83.2754ZM84.25 83.2754C84.1246 83.2752 83.9995 83.3501 83.75 83.5L82.5 84.5H86L84.75 83.5C84.501 83.351 84.3754 83.2756 84.25 83.2754ZM93.25 83.2754C93.1246 83.2752 92.9995 83.3501 92.75 83.5L91.5 84.5H95L93.75 83.5C93.501 83.351 93.3754 83.2756 93.25 83.2754ZM102.25 83.2754C102.125 83.2752 102 83.3501 101.75 83.5L100.5 84.5H104L102.75 83.5C102.501 83.351 102.375 83.2756 102.25 83.2754ZM111.75 83.2754C111.625 83.2752 111.5 83.3501 111.25 83.5L110 84.5H113.5L112.25 83.5C112.001 83.351 111.875 83.2756 111.75 83.2754ZM120.75 83.2754C120.625 83.2752 120.5 83.3501 120.25 83.5L119 84.5H122.5L121.25 83.5C121.001 83.351 120.875 83.2756 120.75 83.2754ZM6.25 91.2754C6.12462 91.2752 5.99952 91.3501 5.75 91.5L4.5 92.5H8L6.75 91.5C6.50102 91.351 6.37538 91.2756 6.25 91.2754ZM15.75 91.2754C15.6246 91.2752 15.4995 91.3501 15.25 91.5L14 92.5H17.5L16.25 91.5C16.001 91.351 15.8754 91.2756 15.75 91.2754ZM24.75 91.2754C24.6246 91.2752 24.4995 91.3501 24.25 91.5L23 92.5H26.5L25.25 91.5C25.001 91.351 24.8754 91.2756 24.75 91.2754ZM33.75 91.2754C33.6246 91.2752 33.4995 91.3501 33.25 91.5L32 92.5H35.5L34.25 91.5C34.001 91.351 33.8754 91.2756 33.75 91.2754ZM42.75 91.2754C42.6246 91.2752 42.4995 91.3501 42.25 91.5L41 92.5H44.5L43.25 91.5C43.001 91.351 42.8754 91.2756 42.75 91.2754ZM52.25 91.2754C52.1246 91.2752 51.9995 91.3501 51.75 91.5L50.5 92.5H54L52.75 91.5C52.501 91.351 52.3754 91.2756 52.25 91.2754ZM61.25 91.2754C61.1246 91.2752 60.9995 91.3501 60.75 91.5L59.5 92.5H63L61.75 91.5C61.501 91.351 61.3754 91.2756 61.25 91.2754ZM70.25 91.2754C70.1246 91.2752 69.9995 91.3501 69.75 91.5L68.5 92.5H72L70.75 91.5C70.501 91.351 70.3754 91.2756 70.25 91.2754ZM79.75 91.2754C79.6246 91.2752 79.4995 91.3501 79.25 91.5L78 92.5H81.5L80.25 91.5C80.001 91.351 79.8754 91.2756 79.75 91.2754ZM88.75 91.2754C88.6246 91.2752 88.4995 91.3501 88.25 91.5L87 92.5H90.5L89.25 91.5C89.001 91.351 88.8754 91.2756 88.75 91.2754ZM97.75 91.2754C97.6246 91.2752 97.4995 91.3501 97.25 91.5L96 92.5H99.5L98.25 91.5C98.001 91.351 97.8754 91.2756 97.75 91.2754ZM106.75 91.2754C106.625 91.2752 106.5 91.3501 106.25 91.5L105 92.5H108.5L107.25 91.5C107.001 91.351 106.875 91.2756 106.75 91.2754ZM116.25 91.2754C116.125 91.2752 116 91.3501 115.75 91.5L114.5 92.5H118L116.75 91.5C116.501 91.351 116.375 91.2756 116.25 91.2754ZM125.25 91.2754C125.125 91.2752 125 91.3501 124.75 91.5L123.5 92.5H127L125.75 91.5C125.501 91.351 125.375 91.2756 125.25 91.2754ZM1.75 99.2754C1.62462 99.2752 1.49952 99.3501 1.25 99.5L0 100.5H3.5L2.25 99.5C2.00102 99.351 1.87538 99.2756 1.75 99.2754ZM10.75 99.2754C10.6246 99.2752 10.4995 99.3501 10.25 99.5L9 100.5H12.5L11.25 99.5C11.001 99.351 10.8754 99.2756 10.75 99.2754ZM20.25 99.2754C20.1246 99.2752 19.9995 99.3501 19.75 99.5L18.5 100.5H22L20.75 99.5C20.501 99.351 20.3754 99.2756 20.25 99.2754ZM29.25 99.2754C29.1246 99.2752 28.9995 99.3501 28.75 99.5L27.5 100.5H31L29.75 99.5C29.501 99.351 29.3754 99.2756 29.25 99.2754ZM38.25 99.2754C38.1246 99.2752 37.9995 99.3501 37.75 99.5L36.5 100.5H40L38.75 99.5C38.501 99.351 38.3754 99.2756 38.25 99.2754ZM47.75 99.2754C47.6246 99.2752 47.4995 99.3501 47.25 99.5L46 100.5H49.5L48.25 99.5C48.001 99.351 47.8754 99.2756 47.75 99.2754ZM56.75 99.2754C56.6246 99.2752 56.4995 99.3501 56.25 99.5L55 100.5H58.5L57.25 99.5C57.001 99.351 56.8754 99.2756 56.75 99.2754ZM65.75 99.2754C65.6246 99.2752 65.4995 99.3501 65.25 99.5L64 100.5H67.5L66.25 99.5C66.001 99.351 65.8754 99.2756 65.75 99.2754ZM74.75 99.2754C74.6246 99.2752 74.4995 99.3501 74.25 99.5L73 100.5H76.5L75.25 99.5C75.001 99.351 74.8754 99.2756 74.75 99.2754ZM84.25 99.2754C84.1246 99.2752 83.9995 99.3501 83.75 99.5L82.5 100.5H86L84.75 99.5C84.501 99.351 84.3754 99.2756 84.25 99.2754ZM93.25 99.2754C93.1246 99.2752 92.9995 99.3501 92.75 99.5L91.5 100.5H95L93.75 99.5C93.501 99.351 93.3754 99.2756 93.25 99.2754ZM102.25 99.2754C102.125 99.2752 102 99.3501 101.75 99.5L100.5 100.5H104L102.75 99.5C102.501 99.351 102.375 99.2756 102.25 99.2754ZM111.75 99.2754C111.625 99.2752 111.5 99.3501 111.25 99.5L110 100.5H113.5L112.25 99.5C112.001 99.351 111.875 99.2756 111.75 99.2754ZM120.75 99.2754C120.625 99.2752 120.5 99.3501 120.25 99.5L119 100.5H122.5L121.25 99.5C121.001 99.351 120.875 99.2756 120.75 99.2754ZM6.25 107.275C6.12462 107.275 5.99952 107.35 5.75 107.5L4.5 108.5H8L6.75 107.5C6.50102 107.351 6.37538 107.276 6.25 107.275ZM15.75 107.275C15.6246 107.275 15.4995 107.35 15.25 107.5L14 108.5H17.5L16.25 107.5C16.001 107.351 15.8754 107.276 15.75 107.275ZM24.75 107.275C24.6246 107.275 24.4995 107.35 24.25 107.5L23 108.5H26.5L25.25 107.5C25.001 107.351 24.8754 107.276 24.75 107.275ZM33.75 107.275C33.6246 107.275 33.4995 107.35 33.25 107.5L32 108.5H35.5L34.25 107.5C34.001 107.351 33.8754 107.276 33.75 107.275ZM42.75 107.275C42.6246 107.275 42.4995 107.35 42.25 107.5L41 108.5H44.5L43.25 107.5C43.001 107.351 42.8754 107.276 42.75 107.275ZM52.25 107.275C52.1246 107.275 51.9995 107.35 51.75 107.5L50.5 108.5H54L52.75 107.5C52.501 107.351 52.3754 107.276 52.25 107.275ZM61.25 107.275C61.1246 107.275 60.9995 107.35 60.75 107.5L59.5 108.5H63L61.75 107.5C61.501 107.351 61.3754 107.276 61.25 107.275ZM70.25 107.275C70.1246 107.275 69.9995 107.35 69.75 107.5L68.5 108.5H72L70.75 107.5C70.501 107.351 70.3754 107.276 70.25 107.275ZM79.75 107.275C79.6246 107.275 79.4995 107.35 79.25 107.5L78 108.5H81.5L80.25 107.5C80.001 107.351 79.8754 107.276 79.75 107.275ZM88.75 107.275C88.6246 107.275 88.4995 107.35 88.25 107.5L87 108.5H90.5L89.25 107.5C89.001 107.351 88.8754 107.276 88.75 107.275ZM97.75 107.275C97.6246 107.275 97.4995 107.35 97.25 107.5L96 108.5H99.5L98.25 107.5C98.001 107.351 97.8754 107.276 97.75 107.275ZM106.75 107.275C106.625 107.275 106.5 107.35 106.25 107.5L105 108.5H108.5L107.25 107.5C107.001 107.351 106.875 107.276 106.75 107.275ZM116.25 107.275C116.125 107.275 116 107.35 115.75 107.5L114.5 108.5H118L116.75 107.5C116.501 107.351 116.375 107.276 116.25 107.275ZM125.25 107.275C125.125 107.275 125 107.35 124.75 107.5L123.5 108.5H127L125.75 107.5C125.501 107.351 125.375 107.276 125.25 107.275ZM1.75 115.275C1.62462 115.275 1.49952 115.35 1.25 115.5L0 116.5H3.5L2.25 115.5C2.00102 115.351 1.87538 115.276 1.75 115.275ZM10.75 115.275C10.6246 115.275 10.4995 115.35 10.25 115.5L9 116.5H12.5L11.25 115.5C11.001 115.351 10.8754 115.276 10.75 115.275ZM20.25 115.275C20.1246 115.275 19.9995 115.35 19.75 115.5L18.5 116.5H22L20.75 115.5C20.501 115.351 20.3754 115.276 20.25 115.275ZM29.25 115.275C29.1246 115.275 28.9995 115.35 28.75 115.5L27.5 116.5H31L29.75 115.5C29.501 115.351 29.3754 115.276 29.25 115.275ZM38.25 115.275C38.1246 115.275 37.9995 115.35 37.75 115.5L36.5 116.5H40L38.75 115.5C38.501 115.351 38.3754 115.276 38.25 115.275ZM47.75 115.275C47.6246 115.275 47.4995 115.35 47.25 115.5L46 116.5H49.5L48.25 115.5C48.001 115.351 47.8754 115.276 47.75 115.275ZM56.75 115.275C56.6246 115.275 56.4995 115.35 56.25 115.5L55 116.5H58.5L57.25 115.5C57.001 115.351 56.8754 115.276 56.75 115.275ZM65.75 115.275C65.6246 115.275 65.4995 115.35 65.25 115.5L64 116.5H67.5L66.25 115.5C66.001 115.351 65.8754 115.276 65.75 115.275ZM74.75 115.275C74.6246 115.275 74.4995 115.35 74.25 115.5L73 116.5H76.5L75.25 115.5C75.001 115.351 74.8754 115.276 74.75 115.275ZM84.25 115.275C84.1246 115.275 83.9995 115.35 83.75 115.5L82.5 116.5H86L84.75 115.5C84.501 115.351 84.3754 115.276 84.25 115.275ZM93.25 115.275C93.1246 115.275 92.9995 115.35 92.75 115.5L91.5 116.5H95L93.75 115.5C93.501 115.351 93.3754 115.276 93.25 115.275ZM102.25 115.275C102.125 115.275 102 115.35 101.75 115.5L100.5 116.5H104L102.75 115.5C102.501 115.351 102.375 115.276 102.25 115.275ZM111.75 115.275C111.625 115.275 111.5 115.35 111.25 115.5L110 116.5H113.5L112.25 115.5C112.001 115.351 111.875 115.276 111.75 115.275ZM120.75 115.275C120.625 115.275 120.5 115.35 120.25 115.5L119 116.5H122.5L121.25 115.5C121.001 115.351 120.875 115.276 120.75 115.275ZM6.25 123.275C6.12462 123.275 5.99952 123.35 5.75 123.5L4.5 124.5H8L6.75 123.5C6.50102 123.351 6.37538 123.276 6.25 123.275ZM15.75 123.275C15.6246 123.275 15.4995 123.35 15.25 123.5L14 124.5H17.5L16.25 123.5C16.001 123.351 15.8754 123.276 15.75 123.275ZM24.75 123.275C24.6246 123.275 24.4995 123.35 24.25 123.5L23 124.5H26.5L25.25 123.5C25.001 123.351 24.8754 123.276 24.75 123.275ZM33.75 123.275C33.6246 123.275 33.4995 123.35 33.25 123.5L32 124.5H35.5L34.25 123.5C34.001 123.351 33.8754 123.276 33.75 123.275ZM42.75 123.275C42.6246 123.275 42.4995 123.35 42.25 123.5L41 124.5H44.5L43.25 123.5C43.001 123.351 42.8754 123.276 42.75 123.275ZM52.25 123.275C52.1246 123.275 51.9995 123.35 51.75 123.5L50.5 124.5H54L52.75 123.5C52.501 123.351 52.3754 123.276 52.25 123.275ZM61.25 123.275C61.1246 123.275 60.9995 123.35 60.75 123.5L59.5 124.5H63L61.75 123.5C61.501 123.351 61.3754 123.276 61.25 123.275ZM70.25 123.275C70.1246 123.275 69.9995 123.35 69.75 123.5L68.5 124.5H72L70.75 123.5C70.501 123.351 70.3754 123.276 70.25 123.275ZM79.75 123.275C79.6246 123.275 79.4995 123.35 79.25 123.5L78 124.5H81.5L80.25 123.5C80.001 123.351 79.8754 123.276 79.75 123.275ZM88.75 123.275C88.6246 123.275 88.4995 123.35 88.25 123.5L87 124.5H90.5L89.25 123.5C89.001 123.351 88.8754 123.276 88.75 123.275ZM97.75 123.275C97.6246 123.275 97.4995 123.35 97.25 123.5L96 124.5H99.5L98.25 123.5C98.001 123.351 97.8754 123.276 97.75 123.275ZM106.75 123.275C106.625 123.275 106.5 123.35 106.25 123.5L105 124.5H108.5L107.25 123.5C107.001 123.351 106.875 123.276 106.75 123.275ZM116.25 123.275C116.125 123.275 116 123.35 115.75 123.5L114.5 124.5H118L116.75 123.5C116.501 123.351 116.375 123.276 116.25 123.275ZM125.25 123.275C125.125 123.275 125 123.35 124.75 123.5L123.5 124.5H127L125.75 123.5C125.501 123.351 125.375 123.276 125.25 123.275Z" fill="black"/>
</svg>
