<svg width="14" height="14" viewBox="0 0 14 14" fill="none" xmlns="http://www.w3.org/2000/svg">
<path fill-rule="evenodd" clip-rule="evenodd" d="M4.00781 0L3.00781 2H3.47656L4.52344 0H4.00781ZM8.00781 0L7.00781 2H7.47656L8.52344 0H8.00781ZM12.0078 0L11.0078 2H11.4766L12.5234 0H12.0078ZM1 2L0 4H0.46875L1.51758 2H1ZM5.00781 2L4.00781 4H4.47656L5.52344 2H5.00781ZM9.00781 2L8.00781 4H8.47656L9.52344 2H9.00781ZM13.0078 2L12.0078 4H12.4766L13.5234 2H13.0078ZM2.5 4L1.5 6H1.96875L3.01758 4H2.5ZM10.4824 4L9.48242 6H9.95117L11 4H10.4824ZM7 5L0 9H2L3 8.59961V13.4824V13.5C2.99991 13.5859 3.02197 13.6704 3.06405 13.7454C3.10613 13.8203 3.16681 13.8831 3.24023 13.9277C3.31601 13.9735 3.4026 13.9984 3.49113 13.9998C3.57967 14.0011 3.66698 13.979 3.74414 13.9355C3.82161 13.8922 3.88615 13.829 3.93112 13.7525C3.97608 13.6759 3.99986 13.5888 4 13.5V8.19922L7 7L10 8.19922V13.5C9.99991 13.5859 10.022 13.6704 10.0641 13.7454C10.1061 13.8203 10.1668 13.8831 10.2402 13.9277C10.316 13.9735 10.4026 13.9984 10.4911 13.9998C10.5797 14.0011 10.667 13.979 10.7441 13.9355C10.8216 13.8922 10.8862 13.829 10.9311 13.7525C10.9761 13.6759 10.9999 13.5888 11 13.5V8.59961L12 9H14L7 5Z" fill="#666666"/>
</svg>
