<?xml version="1.0" encoding="UTF-8" standalone="no"?>
<!-- Created with Inkscape (http://www.inkscape.org/) -->

<svg
   xmlns="http://www.w3.org/2000/svg"
   version="1.1"
   width="16"
   height="16"
   viewBox="0 0 16 16">
  <rect
     width="14"
     height="14"
     x="0"
     y="0"
     id="canvas"
     style="fill:none;stroke:none;visibility:hidden" />
  <path
     d="m 0,0 c 0,1 0.654545,1.639242 1,1.984387 0.345455,0.345145 0.842678,0.2121799 0.842678,0.4724826 0,0 0.157322,0.5275173 0.657322,0.5275173 l 1.25,0 c 0,0.2876366 0.25,0.5 0.25,0.5 0,0 -0.25,0.1404543 -0.25,0.5000002 l -1.25,0 c -0.5,0 -0.5,0.2499999 -0.5,0.5 0,0.5273339 0,0.9999999 0,0.9999999 0,0.2396973 0.2311,0.5 0.5,0.5 0.2689,0 1.25,0 1.25,0 l 0,1 -0.75,0 c 0,0.406026 0.270606,0.731586 0.75,1 0,0.316353 0,5.5 0,5.5 0,0.658649 1.5,0.715727 1.5,0 l 0,-7.5 3.5,0 0,7.5 c 0,0.691758 1.5,0.643818 1.5,0 0,0 -10e-7,-5.183647 0,-5.5 0.479394,-0.311606 0.75,-0.592515 0.75,-1 l -0.75,0 0,-1 c 0,0 0.981099,0 1.25,0 0.220961,0 0.5,-0.2603027 0.5,-0.5 0,0 0,-0.4999999 0,-0.9999999 0,-0.5 -0.274339,-0.5 -0.5,-0.5 l -1.25,0 c 0.02397,-0.2636668 -0.25,-0.5 -0.25,-0.5 0,0 0.25,-0.2123634 0.25,-0.5000002 l 1.25,0 c 0.5,0 0.5,-0.5 0.5,-0.5 C 12,2.2480539 12.582844,2.3457742 13,1.984387 13.417156,1.6229998 14,1 14,0 8,1 5,1 0,0 z m 5.25,2.9843869 c -1.46e-4,0 1,0 1,0 l 0,1.0000002 -1,0 C 5.25,3.6967505 5,3.4843869 5,3.4843869 c 0,0 0.25,-0.1883936 0.25,-0.5 z m 2.5,0 1,0 c 0,0.2647543 0.25,0.5 0.25,0.5 0,0 -0.25,0.2363334 -0.25,0.5000002 l -1,0 z"
     id="shintoist" />
</svg>
