<svg width="14" height="14" viewBox="0 0 14 14" fill="none" xmlns="http://www.w3.org/2000/svg">
<g clip-path="url(#clip0)">
<path d="M3.27705 9.7718L2.98822 9.71753L2.26692 13.5566L2.55575 13.6108L3.27705 9.7718Z" fill="white"/>
<path fill-rule="evenodd" clip-rule="evenodd" d="M3.26685 4.4106C3.54444 2.9332 4.96715 1.9605 6.44455 2.2381C7.92195 2.51569 8.89465 3.9384 8.61705 5.4158" fill="#734A08"/>
<path d="M7.55807 0.852754C7.63113 0.463874 7.37511 0.089394 6.98623 0.016329C6.59735 -0.056736 6.22287 0.199283 6.14981 0.588163L5.63311 3.33824C5.56004 3.72712 5.81606 4.1016 6.20494 4.17467C6.59382 4.24773 6.9683 3.99172 7.04137 3.60283L7.55807 0.852754Z" fill="#734A08"/>
<path d="M5.19043 8.65935C5.65478 8.7466 6.10193 8.44089 6.18918 7.97654C6.27642 7.51219 5.97072 7.06504 5.50637 6.97779C5.04202 6.89055 4.59486 7.19625 4.50762 7.6606C4.42037 8.12495 4.72608 8.57211 5.19043 8.65935Z" fill="#734A08"/>
<path d="M4.72607 11.2684C5.19042 11.3556 5.63758 11.0499 5.72482 10.5856C5.81206 10.1212 5.50636 9.67405 5.04201 9.5868C4.57766 9.49956 4.13051 9.80526 4.04326 10.2696C3.95602 10.734 4.26172 11.1811 4.72607 11.2684Z" fill="#734A08"/>
<path d="M4.1748 13.8803C4.63915 13.9675 5.08631 13.6618 5.17355 13.1975C5.26079 12.7331 4.95509 12.286 4.49074 12.1987C4.02639 12.1115 3.57924 12.4172 3.49199 12.8815C3.40475 13.3459 3.71045 13.7931 4.1748 13.8803Z" fill="#734A08"/>
<path d="M7.80822 8.61345C8.27257 8.7007 8.71973 8.39499 8.80697 7.93064C8.89422 7.4663 8.58851 7.01914 8.12417 6.9319C7.65982 6.84465 7.21266 7.15035 7.12542 7.6147C7.03817 8.07905 7.34388 8.52621 7.80822 8.61345Z" fill="#734A08"/>
<path d="M7.76776 11.2807C8.23211 11.3679 8.67926 11.0622 8.76651 10.5979C8.85375 10.1335 8.54805 9.68638 8.0837 9.59913C7.61935 9.51189 7.17219 9.81759 7.08495 10.2819C6.99771 10.7463 7.30341 11.1934 7.76776 11.2807Z" fill="#734A08"/>
<path d="M7.83008 13.985C8.29442 14.0723 8.74158 13.7666 8.82882 13.3022C8.91607 12.8379 8.61037 12.3907 8.14602 12.3035C7.68167 12.2162 7.23451 12.5219 7.14727 12.9863C7.06002 13.4506 7.36573 13.8978 7.83008 13.985Z" fill="#734A08"/>
<path d="M2.83093 7.71563C3.29528 7.80287 3.74243 7.49717 3.82968 7.03282C3.91692 6.56847 3.61122 6.12131 3.14687 6.03407C2.68252 5.94682 2.23537 6.25253 2.14812 6.71688C2.06088 7.18123 2.36658 7.62838 2.83093 7.71563Z" fill="#734A08"/>
<path d="M1.75232 10.16C2.21667 10.2472 2.66382 9.9415 2.75106 9.47715C2.83831 9.0128 2.53261 8.56565 2.06826 8.4784C1.60391 8.39116 1.15675 8.69686 1.06951 9.16121C0.982263 9.62556 1.28797 10.0727 1.75232 10.16Z" fill="#734A08"/>
<path d="M0.697567 12.6196C1.16192 12.7068 1.60907 12.4011 1.69632 11.9367C1.78356 11.4724 1.47786 11.0252 1.01351 10.938C0.549159 10.8508 0.102004 11.1565 0.0147593 11.6208C-0.0724852 12.0852 0.233218 12.5323 0.697567 12.6196Z" fill="#734A08"/>
<path d="M14 0.732949L14 0.732909C14.0048 0.337236 13.6878 0.0152876 13.2921 0.0138174L7.11915 -0.00911852C6.72346 -0.0105887 6.39883 0.308976 6.39408 0.704649L6.39408 0.704689C6.38933 1.10036 6.70625 1.42231 7.10195 1.42378L13.2749 1.44672C13.6706 1.44819 13.9953 1.12862 14 0.732949Z" fill="#734A08"/>
<path d="M13.9916 1.46119L14.0003 0.0283203L10.1364 5.97938e-05L10.1277 1.43293L13.9916 1.46119Z" fill="#734A08"/>
</g>
<defs>
<clipPath id="clip0">
<rect width="14" height="14" fill="white"/>
</clipPath>
</defs>
</svg>
