<svg width="14" height="14" viewBox="0 0 14 14" fill="none" xmlns="http://www.w3.org/2000/svg">
<path fill-rule="evenodd" clip-rule="evenodd" d="M5.54331 1.27559C5.54331 1.44103 5.51052 1.60486 5.44681 1.75771C5.3831 1.91056 5.28972 2.04945 5.172 2.16643C5.05428 2.28342 4.91453 2.37622 4.76072 2.43953C4.60692 2.50285 4.44207 2.53543 4.27559 2.53543C4.10911 2.53543 3.94426 2.50285 3.79046 2.43953C3.63665 2.37622 3.4969 2.28342 3.37918 2.16643C3.26146 2.04945 3.16808 1.91056 3.10437 1.75771C3.04066 1.60486 3.00787 1.44103 3.00787 1.27559C3.00787 1.11014 3.04066 0.94632 3.10437 0.793469C3.16808 0.640618 3.26146 0.501734 3.37918 0.384746C3.4969 0.267759 3.63665 0.17496 3.79046 0.111647C3.94426 0.0483338 4.10911 0.015747 4.27559 0.0157471C4.61181 0.0157471 4.93426 0.14848 5.172 0.384746C5.40974 0.621013 5.54331 0.941459 5.54331 1.27559V1.27559ZM12.3955 9.83465L9.71438 10.5238C9.60487 10.5519 9.36231 10.5271 9.27048 10.5044C9.03514 10.4588 8.96747 10.3495 8.87538 10.2352L7.60606 8.14369L6.01031 9.85656L6.65461 13.0591C6.67521 13.1278 6.68552 13.1849 6.68552 13.2305C6.68552 13.4361 6.61905 13.6131 6.48607 13.7616C6.3531 13.91 6.19454 13.9843 6.01031 13.9843C5.66261 13.9843 5.44771 13.7844 5.36559 13.3847L4.58316 9.49694C4.49107 9.08575 4.53195 8.78312 4.70584 8.58901L6.10208 7.03029L4.58313 5.06079L3.60123 6.15686C3.49887 6.2708 3.38118 6.32779 3.24818 6.32779C3.07433 6.32779 2.90562 6.24223 2.74204 6.07116L1.14629 4.2898C1.06453 4.17549 1.02369 4.04987 1.02362 3.91293C1.02369 3.74186 1.07733 3.59917 1.18474 3.48486C1.29209 3.37059 1.41746 3.31342 1.5607 3.31342C1.70401 3.31342 1.81654 3.35905 1.8983 3.45035L3.2178 4.92381L4.81355 3.14249C4.93622 3.00518 5.09365 2.8964 5.27382 2.93651L8.74773 3.70979C8.89799 3.74323 9.00796 3.88489 9.12033 4.0222L9.89197 5.35192C10.0146 5.46586 10.076 5.60855 10.076 5.77999C10.076 5.93993 10.0249 6.07698 9.92265 6.19111C9.82045 6.30519 9.69768 6.36225 9.55437 6.36225C9.40112 6.36225 9.26812 6.29376 9.15545 6.15682L8.25947 4.65618L6.80384 4.40952L9.8235 9.09732L12.284 8.39092C12.4784 8.39092 12.6559 8.43019 12.7889 8.56732C12.9218 8.70441 13.0569 8.82599 13.0569 9.04273C13.0569 9.24831 12.9722 9.42677 12.8392 9.56949C12.7062 9.71222 12.5745 9.78863 12.3955 9.83465Z" fill="#AC39AC"/>
</svg>
