<svg width="14" height="14" viewBox="0 0 14 14" fill="none" xmlns="http://www.w3.org/2000/svg">
<path d="M4 3.5H3.5V8.5H4V3.5Z" fill="#AC39AC"/>
<path d="M6 3.5H5.5V9H6V3.5Z" fill="#AC39AC"/>
<path d="M8 3.5H7.5V9.5H8V3.5Z" fill="#AC39AC"/>
<path d="M10 3.5H9.5V9.5H10V3.5Z" fill="#AC39AC"/>
<path d="M11.5 5H1V5.5H11.5V5Z" fill="#AC39AC"/>
<path d="M11.5 7H1V7.5H11.5V7Z" fill="#AC39AC"/>
<path d="M9.5 13.2C10.0523 13.2 10.5 12.7523 10.5 12.2C10.5 11.6477 10.0523 11.2 9.5 11.2C8.94772 11.2 8.5 11.6477 8.5 12.2C8.5 12.7523 8.94772 13.2 9.5 13.2Z" fill="#AC39AC"/>
<path d="M3.5 13.2C4.05228 13.2 4.5 12.7523 4.5 12.2C4.5 11.6477 4.05228 11.2 3.5 11.2C2.94772 11.2 2.5 11.6477 2.5 12.2C2.5 12.7523 2.94772 13.2 3.5 13.2Z" fill="#AC39AC"/>
<path d="M11 10V12H1.5C1.36739 12 1.24021 11.9473 1.14645 11.8536C1.05268 11.7598 1 11.6326 1 11.5C1 11.3674 1.05268 11.2402 1.14645 11.1464C1.24021 11.0527 1.36739 11 1.5 11H10V9.5L11 10Z" fill="#AC39AC"/>
<path d="M11.5 3.00003L11.768 1.75003L13.25 1.20003C13.3189 1.17705 13.3917 1.16787 13.4642 1.17302C13.5367 1.17817 13.6075 1.19755 13.6725 1.23005C13.7375 1.26256 13.7955 1.30754 13.8431 1.36244C13.8907 1.41734 13.927 1.48109 13.95 1.55003C13.973 1.61897 13.9822 1.69177 13.977 1.76426C13.9719 1.83675 13.9525 1.90752 13.92 1.97252C13.8875 2.03752 13.8425 2.09548 13.7876 2.1431C13.7327 2.19071 13.6689 2.22705 13.6 2.25003L12.6 2.60003L12.5 3.00003" fill="#AC39AC"/>
<path fill-rule="evenodd" clip-rule="evenodd" d="M0 3H12.5L11 10L1 9L0 3ZM1.167 4H11.286L10.25 8.9L1.9 8.1L1.167 4Z" fill="#AC39AC"/>
</svg>
