<svg width="14" height="14" viewBox="0 0 14 14" fill="none" xmlns="http://www.w3.org/2000/svg">
<path d="M5.96875 0C5.42943 0 5 0.487647 5 1L4.96875 2H3L1.75 6C0.989697 6 0 6.49664 0 8V12H2V13C2 13 2 14 3 14C4 14 4 13 4 13V12L10 11.9688V13C10 13 10 14 11 14C12 14 12 13 12 13V12H14V8C14 6.47267 13 6 12 6L11 2H9V1C9 0.433715 8.56629 0 8 0H5.96875ZM6 1H8V2H6V1ZM4 3.5H10L10.5938 6H3.3125L4 3.5ZM3 8C3.55229 8 4 8.44771 4 9C4 9.55229 3.55229 10 3 10C2.44771 10 2 9.55229 2 9C2 8.44771 2.44771 8 3 8ZM11 8C11.5523 8 12 8.44771 12 9C12 9.55229 11.5523 10 11 10C10.4477 10 10 9.55229 10 9C10 8.44771 10.4477 8 11 8Z" fill="#0092DA"/>
</svg>
