<svg width="14" height="14" viewBox="0 0 14 14" fill="none" xmlns="http://www.w3.org/2000/svg">
<g clip-path="url(#clip0)">
<path d="M6.83205 1.89844C6.67372 1.89849 6.51696 1.92308 6.37071 1.97081C6.22446 2.01854 6.09159 2.08847 5.97968 2.17662C5.86778 2.26476 5.77904 2.36939 5.71852 2.48453C5.658 2.59966 5.62689 2.72306 5.62697 2.84766C5.6269 3.04902 5.70824 3.24518 5.85922 3.40775C6.01021 3.57032 6.223 3.69087 6.46681 3.75195C5.08902 3.86296 3.89915 4.57116 3.20119 5.61719C3.18715 5.6109 3.17424 5.59752 3.16017 5.5918C2.51137 5.32776 1.53816 5.19523 0.908217 5.60352C0.294827 6.0011 0.0370467 6.71239 0.00196675 7.59961C-0.0692832 9.40257 1.28209 9.76386 2.62892 9.94531C2.73802 9.96001 2.84562 9.95204 2.95314 9.94726C3.24893 10.8011 3.69031 11.6029 4.25978 12.0039H9.40626C10.0192 11.5716 10.4826 10.6746 10.7754 9.74804C11.0093 9.79491 11.2626 9.74986 11.6133 9.4707C12.2225 8.98575 12.859 8.02441 13.0664 7.55468C13.4407 6.74332 14 3.83008 14 3.83008C14 3.83008 13.1186 4.06927 12.416 3.82617C12.2612 4.35339 12.0691 5.34869 11.7774 5.82421C11.5262 6.23362 11.3578 6.58914 10.9434 6.6543C10.4622 5.06962 8.99237 3.89647 7.19533 3.75195C7.4395 3.69114 7.65272 3.5707 7.80408 3.40811C7.95544 3.24552 8.03706 3.04921 8.03712 2.84766C8.0372 2.72306 8.00609 2.59966 7.94557 2.48453C7.88505 2.36939 7.79631 2.26476 7.68441 2.17662C7.5725 2.08847 7.43963 2.01854 7.29338 1.97081C7.14713 1.92308 6.99037 1.89849 6.83205 1.89844V1.89844ZM1.97853 6.14844C2.30141 6.13839 2.57054 6.24074 2.81251 6.37891C2.6442 6.81247 2.53705 7.27518 2.53712 7.76367C2.53777 8.15516 2.60338 8.63613 2.71876 9.13477C1.9447 9.12161 1.03252 9.02319 1.08595 7.67188C1.11575 6.91827 1.31859 6.26326 1.69337 6.18359C1.79262 6.1625 1.88711 6.15128 1.97853 6.14844V6.14844Z" fill="#AC39AC"/>
</g>
<defs>
<clipPath id="clip0">
<rect width="14" height="14" fill="white"/>
</clipPath>
</defs>
</svg>
