<svg width="14" height="14" viewBox="0 0 14 14" fill="none" xmlns="http://www.w3.org/2000/svg">
<path fill-rule="evenodd" clip-rule="evenodd" d="M3 0V1V11V14H11V11V1V0H10H4H3ZM4 1H10V11H4V1ZM7 1.99414C6.86711 1.99408 6.73551 2.02011 6.61273 2.07074C6.48994 2.12137 6.37838 2.19561 6.28442 2.2892C6.19046 2.3828 6.11594 2.49393 6.06513 2.61622C6.01431 2.73852 5.9882 2.8696 5.98828 3.00195C5.9882 3.13431 6.01431 3.26538 6.06513 3.38768C6.11594 3.50998 6.19046 3.62111 6.28442 3.7147C6.37838 3.8083 6.48994 3.88254 6.61273 3.93317C6.73551 3.98379 6.86711 4.00982 7 4.00977C7.13289 4.00982 7.26449 3.98379 7.38727 3.93317C7.51006 3.88254 7.62162 3.8083 7.71558 3.7147C7.80954 3.62111 7.88406 3.50998 7.93487 3.38768C7.98569 3.26538 8.0118 3.13431 8.01172 3.00195C8.0118 2.8696 7.98569 2.73852 7.93487 2.61622C7.88406 2.49393 7.80954 2.3828 7.71558 2.2892C7.62162 2.19561 7.51006 2.12137 7.38727 2.07074C7.26449 2.02011 7.13289 1.99408 7 1.99414ZM7.66797 4.67383L5.66406 5.33789V6.00195H6.2793L6.33203 9.33008H5.66406V9.99414H8.33594V9.33008H7.66797V4.67383Z" fill="#666666"/>
</svg>
