<svg width="14" height="14" viewBox="0 0 14 14" fill="none" xmlns="http://www.w3.org/2000/svg">
<g clip-path="url(#clip0)">
<path d="M8.76884 0.026782C11.0209 0.026782 12.8444 3.15562 12.8444 7.01339C12.8444 10.8688 11.0209 14 8.76884 14C6.51799 14 4.69332 10.8688 4.69332 7.01339C4.69332 3.15562 6.51799 0.026782 8.76884 0.026782V0.026782ZM7.02219 7.01339C7.02219 9.22582 7.9351 11.0027 9.05995 11.0027C10.2244 11.0027 11.0977 9.21534 11.0977 7.01106C11.0977 4.80562 10.186 3.01821 9.05995 3.01821C7.89551 3.01821 7.02219 4.80562 7.02219 7.01106V7.01339ZM9.05995 3.52009C8.73274 3.52009 8.43232 3.79024 8.18895 4.23039C8.5476 4.95001 8.76884 5.9293 8.76884 7.01339C8.76884 8.17783 8.54643 9.07444 8.18662 9.79639C8.43232 10.2389 8.73158 10.5067 9.05995 10.5067C9.86457 10.5067 10.5155 8.94635 10.5155 7.01339C10.5155 5.08276 9.86341 3.52009 9.05995 3.52009V3.52009ZM4.1111 7.01339C4.1111 3.33378 5.65281 0.317891 7.6044 0.026782V0H5.85775C3.28319 0.026782 1.20001 3.14747 1.20001 7.01339C1.20001 10.87 3.28319 14 5.85775 14H7.58228C5.65281 13.7031 4.1111 10.693 4.1111 7.01339Z" fill="#AC39AC"/>
</g>
<defs>
<clipPath id="clip0">
<rect width="14" height="14" fill="white"/>
</clipPath>
</defs>
</svg>
