<svg width="14" height="14" viewBox="0 0 14 14" fill="none" xmlns="http://www.w3.org/2000/svg">
<g clip-path="url(#clip0)">
<path d="M9.65619 0.593808C9.35372 0.640072 9.08224 0.84238 8.90619 1.09381C8.49147 1.65431 8.38456 2.34799 8.18744 3.00006C7.9662 3.84212 7.75215 4.7007 7.62494 5.56256C7.60434 5.81072 7.79259 5.86454 8.03119 5.62506C8.85637 4.85661 9.66893 4.0448 10.4687 3.25006C10.663 3.04357 10.8579 2.83984 10.9999 2.59381C11.2211 2.22416 11.325 1.73562 11.0937 1.34381C10.8549 0.947766 10.4178 0.67858 9.96869 0.593808C9.86495 0.574051 9.75702 0.578387 9.65619 0.593808ZM4.21869 0.656308C3.75632 0.664493 3.29832 0.903898 2.99994 1.25006C2.72364 1.56956 2.73369 2.03519 2.90619 2.40631C3.18346 3.04605 3.7219 3.50274 4.18744 4.00006C4.80532 4.61345 5.44282 5.20813 6.12494 5.75006C6.32938 5.89223 6.46264 5.76403 6.37494 5.43756C6.12338 4.3384 5.84949 3.24664 5.56244 2.15631C5.48111 1.88468 5.39168 1.59002 5.24994 1.34381C5.04085 0.967216 4.67365 0.652486 4.21869 0.656308ZM0.999942 5.65631C0.672801 5.71345 0.355753 5.89073 0.187442 6.18756C-0.0369077 6.59194 -0.0566345 7.09973 0.0936919 7.53131C0.231991 7.93044 0.654818 8.18239 1.06244 8.21881C1.75507 8.29899 2.39888 8.02915 3.06244 7.87506C3.90273 7.64718 4.75186 7.41307 5.56244 7.09381C5.78785 6.98798 5.73273 6.77505 5.40619 6.68756C4.32872 6.35516 3.24379 6.04731 2.15619 5.75006C1.88033 5.6845 1.59654 5.65684 1.31244 5.65631C1.20477 5.65444 1.10899 5.63726 0.999942 5.65631ZM12.6874 5.65631C12.4033 5.65684 12.1196 5.6845 11.8437 5.75006C10.7561 6.04731 9.67116 6.35516 8.59369 6.68756C8.26715 6.77505 8.21203 6.98799 8.43744 7.09381C9.24802 7.41307 10.0972 7.64718 10.9374 7.87506C11.601 8.02915 12.2448 8.29899 12.9374 8.21881C13.3451 8.18239 13.7679 7.93044 13.9062 7.53131C14.0565 7.09973 14.0368 6.59194 13.8124 6.18756C13.588 5.79178 13.1181 5.64885 12.6874 5.65631ZM6.28119 8.06256C6.24101 8.06478 6.17605 8.08951 6.12494 8.12506C5.44282 8.66698 4.80532 9.29292 4.18744 9.90631C3.7219 10.4036 3.18346 10.8291 2.90619 11.4688C2.73369 11.8399 2.72364 12.3056 2.99994 12.6251C3.29832 12.9712 3.75632 13.2418 4.21869 13.2501C4.67365 13.2539 5.04085 12.9079 5.24994 12.5313C5.39168 12.2851 5.48111 12.0217 5.56244 11.7501C5.84949 10.6597 6.12338 9.53671 6.37494 8.43756C6.44072 8.19271 6.40173 8.05589 6.28119 8.06256ZM7.74994 8.12506C7.67635 8.13876 7.61464 8.21973 7.62494 8.34381C7.75215 9.20566 7.9662 10.033 8.18744 10.8751C8.38456 11.5271 8.49148 12.2521 8.90619 12.8126C9.14093 13.1478 9.55374 13.3603 9.96869 13.2813C10.4178 13.1965 10.8549 12.9273 11.0937 12.5313C11.325 12.1395 11.2211 11.651 10.9999 11.2813C10.8579 11.0353 10.663 10.8315 10.4687 10.6251C9.66893 9.83031 8.85637 9.04976 8.03119 8.28131C7.91189 8.16157 7.82353 8.11136 7.74994 8.12506Z" fill="#734A08"/>
</g>
<defs>
<clipPath id="clip0">
<rect width="14" height="14" fill="white"/>
</clipPath>
</defs>
</svg>
