<svg width="14" height="14" viewBox="0 0 14 14" fill="none" xmlns="http://www.w3.org/2000/svg">
<path d="M2 0V3.5C2 4.94692 2.79055 5.98027 3.90625 6.625L3 14H4.5L4.6875 12.5312L7 11L9.3125 12.5625L9.5 14H11L10.0938 6.65625C11.2182 6.01327 12 4.96281 12 3.5V0H10.5V1.5H10C8.87288 2 8 2 7 1.5C6 1 5.03814 1 4 1.5H3.5V0H2ZM5.34375 7.1875C6.41297 7.45466 7.58643 7.48107 8.65625 7.21875L8.84375 8.78125L7 10L5.15625 8.78125L5.34375 7.1875ZM5.03125 9.6875L6.25 10.5L4.8125 11.4688L5.03125 9.6875ZM8.96875 9.6875L9.1875 11.4688L7.75 10.5L8.96875 9.6875Z" fill="#666666"/>
</svg>
