<svg width="14" height="14" viewBox="0 0 14 14" fill="none" xmlns="http://www.w3.org/2000/svg">
<path d="M2.71875 0L1 1.71875L5.96875 6L1 10.2812L2.71875 12L7 7.03125L11.2812 12L13 10.2812L8.03125 6L13 1.71875L11.2812 0L7 4.96875L2.71875 0ZM7 2C6.58461 2 6.23719 2.0902 5.9375 2.21875L7 3.4375L8.0625 2.21875C7.76449 2.08327 7.41041 2 7 2ZM7 5.5C7.27614 5.5 7.5 5.72386 7.5 6C7.5 6.27614 7.27614 6.5 7 6.5C6.72386 6.5 6.5 6.27614 6.5 6C6.5 5.72386 6.72386 5.5 7 5.5ZM4.1875 5.78125L4.15625 6.25L4.4375 6L4.1875 5.78125ZM9.8125 5.78125L9.5625 6L9.84375 6.25L9.8125 5.78125ZM7 8.5625L3.625 12.4688L3.5 14H10.5L10.375 12.4688L7 8.5625Z" fill="#666666"/>
</svg>
