<svg width="14" height="14" viewBox="0 0 14 14" fill="none" xmlns="http://www.w3.org/2000/svg">
<path d="M7 0L0 3.5V5.5L1.5 4.84961V14H3V4.19922L7 2.5L11 4.19922V14H12.5V4.84961L14 5.5V3.5L7 0ZM6.97266 5.04883C6.5841 5.04883 6.26758 5.36304 6.26758 5.75195C6.26758 6.14173 6.5841 6.45508 6.97266 6.45508C7.36104 6.45508 7.67578 6.14173 7.67578 5.75195C7.67578 5.36304 7.36087 5.04883 6.97266 5.04883ZM5.04883 6.1875C4.93938 6.16254 4.83125 6.22611 4.80664 6.33398L4.31445 8.375C4.28792 8.48322 4.35414 8.58996 4.46289 8.61719L5.04883 8.75781C5.15566 8.78591 5.2664 8.71955 5.29102 8.61133L5.7832 6.57227C5.80956 6.46404 5.74302 6.35518 5.63672 6.32812L5.04883 6.1875ZM6.76758 6.56445C6.19382 6.54996 6.04883 7.15234 6.04883 7.15234L4.56055 13.4062C4.55531 13.4396 4.55273 13.4725 4.55273 13.5059C4.55273 13.7803 4.77443 14 5.04883 14C5.27208 14 5.46109 13.8502 5.52148 13.6465L6.37305 10.127L7.18164 13.625C7.23401 13.8413 7.43082 14 7.66211 14C7.93546 14 8.1543 13.7801 8.1543 13.5059C8.1543 13.4685 8.15259 13.4319 8.14648 13.3965L7.0332 8.74805L7.12695 8.33984L7.19922 8.66211C7.2652 8.8721 7.45703 8.89062 7.45703 8.89062L8.60156 9.18359C8.62495 9.18759 8.64831 9.18945 8.67188 9.18945C8.85935 9.18945 9.00977 9.04064 9.00977 8.85352C9.00977 8.69345 8.90029 8.55692 8.75 8.52148L7.75781 8.27344L7.48633 7.16602C7.35646 6.54862 6.76758 6.56445 6.76758 6.56445ZM9.83008 7.2793C9.74786 7.2793 9.6872 7.34085 9.66992 7.41992L8.48828 13.8262C8.48828 13.8304 8.48633 13.8338 8.48633 13.8359C8.48633 13.9255 8.55924 13.998 8.64844 13.998C8.72961 13.998 8.79937 13.9354 8.81055 13.8574L9.99023 7.45117V7.43945C9.99023 7.35217 9.91927 7.2793 9.83008 7.2793Z" fill="#0092DA"/>
</svg>
