<svg width="14" height="14" viewBox="0 0 14 14" fill="none" xmlns="http://www.w3.org/2000/svg">
<g clip-path="url(#clip0)">
<path d="M14 0.00195312C13.3328 0.0917181 12.6659 0.200437 12 0.304688V10.1719L11.4922 10.1328C10.1769 10.039 8.78613 10.693 8.17578 11.6914C7.95109 12.0589 7.92742 12.6419 8.125 12.959C8.43345 13.454 9.16608 13.8683 9.96289 14.002C11.7952 13.9488 13.108 13.3018 13.998 11.9688C14 7.99996 14 4.00061 14 0.00195312ZM7.10742 0.00585938C4.65318 -0.0577682 2.24141 1.19025 0.927732 3.46484C-0.983071 6.77334 0.151325 11.0039 3.46093 12.9141C4.01365 13.2331 4.71605 13.0447 5.03515 12.4922C5.1851 12.2326 5.22533 11.9424 5.16406 11.6719C5.10945 11.4051 5.14885 11.1254 5.29687 10.8691C5.61598 10.3166 6.31838 10.1283 6.87109 10.4473L7.12304 10.5918C7.84552 9.63925 8.92737 9.14095 10.0996 8.91992C9.91763 8.70433 9.8065 8.43792 9.78134 8.15696C9.75618 7.87599 9.8182 7.59409 9.95898 7.34961C10.0873 7.12888 10.2747 6.94829 10.5 6.82812V5.55078C10.3301 5.52544 10.1665 5.46847 10.0176 5.38281C9.70271 5.2003 9.47319 4.90031 9.37944 4.54875C9.28569 4.19718 9.33537 3.82278 9.51758 3.50781C9.62064 3.32969 9.76244 3.177 9.93249 3.06104C10.1025 2.94508 10.2965 2.86882 10.5 2.83789V1.00781C10.4593 0.983368 10.4221 0.955462 10.3809 0.931641C9.3466 0.334714 8.22298 0.034781 7.10742 0.00585938ZM7.29492 0.914062C7.55846 0.900953 7.8202 0.964015 8.04883 1.0957C8.20541 1.18591 8.34265 1.30613 8.45267 1.44947C8.56269 1.59281 8.64333 1.75644 8.68996 1.93099C8.73659 2.10555 8.7483 2.28758 8.72442 2.46667C8.70053 2.64575 8.64153 2.81837 8.55078 2.97461C8.46055 3.13082 8.34042 3.26772 8.19724 3.3775C8.05407 3.48727 7.89066 3.56777 7.71635 3.61438C7.54204 3.661 7.36025 3.67282 7.18137 3.64917C7.00249 3.62552 6.83002 3.56687 6.67383 3.47656C6.35863 3.29438 6.1287 2.99453 6.03457 2.64294C5.94045 2.29134 5.98983 1.91677 6.17187 1.60156C6.28647 1.40209 6.44936 1.2346 6.64559 1.11448C6.84182 0.99435 7.0651 0.925436 7.29492 0.914062V0.914062ZM3.75586 2.43555C4.01874 2.42282 4.27975 2.48586 4.50781 2.61719C4.66414 2.7074 4.80115 2.82753 4.911 2.97071C5.02085 3.1139 5.10138 3.27732 5.148 3.45165C5.19462 3.62597 5.20641 3.80777 5.18269 3.98665C5.15897 4.16553 5.10021 4.33798 5.00976 4.49414C4.82788 4.80942 4.5282 5.03961 4.17661 5.1341C3.82502 5.22859 3.45028 5.17965 3.13476 4.99805C2.97827 4.908 2.84108 4.78799 2.73103 4.64488C2.62099 4.50177 2.54025 4.33837 2.49345 4.16403C2.44665 3.9897 2.43469 3.80785 2.45827 3.62889C2.48185 3.44993 2.54049 3.27737 2.63086 3.12109C2.74587 2.92172 2.90917 2.75445 3.10575 2.63466C3.30233 2.51486 3.52589 2.4464 3.75586 2.43555Z" fill="#734A08"/>
</g>
<defs>
<clipPath id="clip0">
<rect width="14" height="14" fill="white"/>
</clipPath>
</defs>
</svg>
