<svg width="14" height="14" viewBox="0 0 14 14" fill="none" xmlns="http://www.w3.org/2000/svg">
<path d="M4 0L5 2H6L5 4L6 6L5 8L6 10L5 12H9L8 10L9 8L8 6L9 4L8 2H9L10 0H4ZM7 3C7.26522 3 7.51957 3.10536 7.70711 3.29289C7.89464 3.48043 8 3.73478 8 4C8 4.26522 7.89464 4.51957 7.70711 4.70711C7.51957 4.89464 7.26522 5 7 5C6.73478 5 6.48043 4.89464 6.29289 4.70711C6.10536 4.51957 6 4.26522 6 4C6 3.73478 6.10536 3.48043 6.29289 3.29289C6.48043 3.10536 6.73478 3 7 3ZM7 7C7.26522 7 7.51957 7.10536 7.70711 7.29289C7.89464 7.48043 8 7.73478 8 8C8 8.26522 7.89464 8.51957 7.70711 8.70711C7.51957 8.89464 7.26522 9 7 9C6.73478 9 6.48043 8.89464 6.29289 8.70711C6.10536 8.51957 6 8.26522 6 8C6 7.73478 6.10536 7.48043 6.29289 7.29289C6.48043 7.10536 6.73478 7 7 7V7ZM3 13V14H11V13H3Z" fill="#734A08"/>
</svg>
