<svg width="14" height="14" viewBox="0 0 14 14" fill="none" xmlns="http://www.w3.org/2000/svg">
<path d="M0 0C0 1 0 2 0 3H1V1H13V3H14V0C9.33333 0 4.66667 0 0 0ZM2 2C2 5 2 8 2 11C2 11.5992 2.40076 12 3 12H11C11.5273 12 12 11.5513 12 11C12 8 12 5 12 2H11C11 4.33333 11 6.66667 11 9C10 9 9 10 9 11H5C5 10 4 9 3 9C3 6.66667 3 4.33333 3 2H2ZM7 4C5.4292 4 4 4.9528 4 6C4 7.0472 5.4292 8 7 8C8.5708 8 10 7.0472 10 6C10 4.9528 8.5708 4 7 4ZM2 12.5C2 13.5547 2.42473 14 3 14H11C11.5273 14 12 13.5547 12 12.5C11.6949 12.7712 11.5034 12.9927 11 12.9688L3 13.0312C2.52061 13.0073 2.30509 12.8051 2 12.5Z" fill="#734A08"/>
</svg>
