<svg width="14" height="14" viewBox="0 0 14 14" fill="none" xmlns="http://www.w3.org/2000/svg">
<path d="M7 1C5.67392 1 4.40215 1.52678 3.46447 2.46447C2.52678 3.40215 2 4.67392 2 6C0.892 6 0 6.892 0 8V10C0 11.108 0.892 12 2 12H3V6C3 4.93913 3.42143 3.92172 4.17157 3.17157C4.92172 2.42143 5.93913 2 7 2C8.06087 2 9.07828 2.42143 9.82843 3.17157C10.5786 3.92172 11 4.93913 11 6V12H12C13.108 12 14 11.108 14 10V8C14 6.892 13.108 6 12 6C12 5.34339 11.8707 4.69321 11.6194 4.08658C11.3681 3.47995 10.9998 2.92876 10.5355 2.46447C10.0712 2.00017 9.52004 1.63188 8.91342 1.3806C8.30679 1.12933 7.65661 1 7 1ZM7 4.95508C6.69802 4.95512 6.40842 5.0751 6.19488 5.28863C5.98135 5.50217 5.86137 5.79177 5.86133 6.09375C5.86137 6.39573 5.98135 6.68533 6.19488 6.89887C6.40842 7.1124 6.69802 7.23238 7 7.23242C7.30198 7.23238 7.59158 7.1124 7.80512 6.89887C8.01865 6.68533 8.13863 6.39573 8.13867 6.09375C8.13863 5.79177 8.01865 5.50217 7.80512 5.28863C7.59158 5.0751 7.30198 4.95512 7 4.95508ZM7.75195 7.98242L5.49609 8.73438V9.48633H6.1875L6.24805 13.248H5.49609V14H8.50391V13.248H7.75195V7.98242Z" fill="#734A08"/>
</svg>
