<svg width="14" height="14" viewBox="0 0 14 14" fill="none" xmlns="http://www.w3.org/2000/svg">
<path d="M0 2V9C0 9.62712 0.423729 10 1 10H13C13.5763 10 14 9.57627 14 9V2H0ZM3 3H11C11 4 12 5 13 5V7C12 7 11 8 11 9H3C3 8 2 7 1 7V5C2 5 3 4 3 3ZM7 4C5.34315 4 4 4.89543 4 6C4 7.10457 5.34315 8 7 8C8.65685 8 10 7.10457 10 6C10 4.89543 8.65685 4 7 4ZM0 10.5C0 11.6266 0.448696 12 1 12H13C13.5513 12 14 11.5547 14 10.5C13.7119 10.7712 13.4407 11 13 11H1C0.559322 11 0.271186 10.7542 0 10.5Z" fill="#734A08"/>
</svg>
