<svg width="14" height="14" viewBox="0 0 14 14" fill="none" xmlns="http://www.w3.org/2000/svg">
<path d="M4 0C3 0.5 2 0.5 2 1.5C2 2.5 3.5 3 3.5 3.5C3.5 4 2.83333 4.5 2.5 5C4 4.5 4.5 4.5 4.5 3.5C4.5 2.5 3.5 2 3 1.5C3 1 3.83333 0.666667 4 0ZM7.75 0C6.75 0.5 5.75 0.5 5.75 1.5C5.75 2.5 7.25 3 7.25 3.5C7.25 4 6.58333 4.5 6.25 5C7.75 4.5 8.25 4.5 8.25 3.5C8.25 2.5 7.25 2 6.75 1.5C6.75 1 7.58333 0.666667 7.75 0ZM11.5 0C10.5 0.5 9.5 0.5 9.5 1.5C9.5 2.5 11 3 11 3.5C11 4 10.3333 4.5 10 5C11.5 4.5 12 4.5 12 3.5C12 2.5 11 2 10.5 1.5C10.5 1 11.3333 0.666667 11.5 0ZM1 6V14H2V12H12V14H13V6C9 6 5 6 1 6ZM2 7H12V11H2V7ZM4 8C3.44772 8 3 8.44772 3 9C3 9.55228 3.44772 10 4 10C4.55228 10 5 9.55228 5 9C5 8.44772 4.55228 8 4 8ZM7 8C6.44772 8 6 8.44772 6 9C6 9.55228 6.44772 10 7 10C7.55228 10 8 9.55228 8 9C8 8.44772 7.55228 8 7 8ZM10 8C9.44772 8 9 8.44772 9 9C9 9.55228 9.44772 10 10 10C10.5523 10 11 9.55228 11 9C11 8.44772 10.5523 8 10 8Z" fill="#734A08"/>
</svg>
