<svg width="14" height="14" viewBox="0 0 14 14" fill="none" xmlns="http://www.w3.org/2000/svg">
<path d="M4.12191 13.6267C3.90409 13.568 3.70436 13.4805 3.04318 13.1542C2.3936 12.8336 2.17109 12.7493 1.9125 12.7255C1.66974 12.7031 1.39289 12.7942 0.763128 13.1037C0.493235 13.2363 0.270939 13.3411 0.269136 13.3365C0.267316 13.332 0.26992 12.9033 0.274885 12.3839L0.283891 11.4395L0.664067 11.2545C1.81722 10.6933 1.85955 10.694 3.10287 11.2948C3.98676 11.722 4.10549 11.7658 4.38244 11.767C4.66428 11.7682 4.72731 11.7457 5.626 11.3222C6.75203 10.7914 6.88154 10.7608 7.34443 10.9159C7.49964 10.9679 7.92124 11.1517 8.28132 11.3243C9.10133 11.7173 9.33291 11.7985 9.57684 11.7783C9.84148 11.7564 10.0684 11.6697 10.8492 11.2926C11.2362 11.1057 11.6521 10.9229 11.7734 10.8865C12.1621 10.7699 12.43 10.8321 13.2655 11.2331L13.7208 11.4515L13.7067 12.0755C13.6889 12.8627 13.67 13.3168 13.6542 13.3326C13.6475 13.3393 13.4211 13.2363 13.1513 13.1037C12.614 12.8397 12.2641 12.7145 12.0634 12.7145C11.8487 12.7145 11.5591 12.8224 10.8193 13.1779C10.4323 13.3639 10.0012 13.5525 9.86125 13.597C9.45024 13.7277 9.32718 13.7 8.43916 13.2767C7.19256 12.6824 7.02307 12.64 6.54178 12.8014C6.3874 12.8532 5.95628 13.0422 5.58373 13.2214C4.65075 13.6703 4.47001 13.7204 4.12189 13.6267L4.12191 13.6267Z" fill="#2F6133"/>
<path d="M6.0166 6.02372C5.93287 5.93787 3.6379 6.98631 2.6955 7.54094C2.33207 7.75483 1.96225 7.92983 1.87368 7.92983C1.50242 7.92983 1.31055 7.46318 1.31055 6.5602C1.31055 5.31886 1.78211 4.05397 2.63542 3.00644C2.95526 2.6138 3.84911 1.9017 4.2095 1.75242C4.40835 1.67005 4.42777 1.63561 4.42777 1.36529C4.42777 0.789491 4.92729 0.593917 5.28685 1.02894C5.47133 1.25215 5.48898 1.25828 5.78308 1.20131C6.34895 1.09168 7.41619 1.1263 7.99157 1.27294C9.41504 1.63572 10.6596 2.54067 11.3575 3.72041C11.6481 4.21159 11.6618 4.3061 11.477 4.54103C11.361 4.68854 11.2412 4.72669 10.5791 4.8269C9.31844 5.01773 7.11775 5.54557 7.03681 5.67653C7.79987 8.0494 8.31657 9.55271 9.17314 11.8873L7.85575 11.3504C7.12333 9.13193 6.79159 8.14619 6.0166 6.02372Z" fill="#2F6133"/>
</svg>
