<svg width="14" height="14" viewBox="0 0 14 14" fill="none" xmlns="http://www.w3.org/2000/svg">
<path fill-rule="evenodd" clip-rule="evenodd" d="M7 0L3 3V14H4V6C4 5.20435 4.31607 4.44129 4.87868 3.87868C5.44129 3.31607 6.20435 3 7 3C7.79565 3 8.55871 3.31607 9.12132 3.87868C9.68393 4.44129 10 5.20435 10 6V14H11V3L7 0ZM6.64258 4.5C5.17135 5.59901 5.62638 6.11716 5.125 8.0293C5.0267 8.12974 4.5 8.45173 4.5 8.75977V9H9.5V8.75977C9.50659 8.45173 8.92837 8.12974 8.83008 8.0293C8.33663 6.1474 8.76148 5.34294 7.35742 4.5H6.64258ZM7 9.75C6.80109 9.75 6.61032 9.82902 6.46967 9.96967C6.32902 10.1103 6.25 10.3011 6.25 10.5C6.25 10.6989 6.32902 10.8897 6.46967 11.0303C6.61032 11.171 6.80109 11.25 7 11.25C7.19891 11.25 7.38968 11.171 7.53033 11.0303C7.67098 10.8897 7.75 10.6989 7.75 10.5C7.75 10.3011 7.67098 10.1103 7.53033 9.96967C7.38968 9.82902 7.19891 9.75 7 9.75V9.75Z" fill="#666666"/>
</svg>
