<svg width="14" height="14" viewBox="0 0 14 14" fill="none" xmlns="http://www.w3.org/2000/svg">
<path d="M0 0V10H2.00008V6.5H4.50017C6.47633 6.5 8.00031 5.5 8.00031 3.25C8.00031 1 6.4871 2e-07 4.96894 0H0ZM2.00008 2H4.50017C5.46378 2 6.00023 2.52543 6.00023 3.25C6.00023 3.97457 5.36843 4.5 4.50017 4.5H2.00008V2ZM9 7V7.59386L9.50037 8V8.75H6.50025V8.5H7.00027C7.47968 8.5 7.45571 8 7.00027 8H5.50021C5.00019 8 5.00019 8.45206 5.50021 8.5H6.00023V8.75L5.43771 10.0312C5.29638 10.0014 5.14796 10 5.00019 10C3.97837 10 3.00012 10.7939 3.00012 12C3.00012 13.2061 3.97837 14 5.00019 14C6.02201 14 6.93777 13.1436 6.93777 11.9375C6.93777 11.7867 6.93387 11.6354 6.90652 11.5H7.7503L9.57225 9.5L9.93789 10.2812C9.38329 10.6158 9.00035 11.2297 9.00035 12C9.00035 13.2061 9.97861 14 11.0004 14C12.0222 14 12.938 13.1436 12.938 11.9375C12.938 10.7314 12.0222 10 11.0004 10C10.8503 10 10.7081 10.0295 10.5629 10.0625L10.0004 8.75L10 7.8L9 7ZM6.4065 9.5H8.60033L7.40654 10.75H6.56275C6.42264 10.5634 6.25827 10.4014 6.06273 10.2812L6.4065 9.5ZM5.00019 11C5.63529 11 6.00023 11.5492 6.00023 12C6.00023 12.4508 5.63529 13 5.00019 13C4.3651 13 4.00015 12.4508 4.00015 12C4.00015 11.5492 4.3651 11 5.00019 11ZM11.0004 11C11.6355 11 12.0005 11.5492 12.0005 12C12.0005 12.4508 11.6355 13 11.0004 13C10.3653 13 10.0004 12.4508 10.0004 12C10.0004 11.5492 10.3653 11 11.0004 11Z" fill="#0092DA"/>
</svg>
