<svg width="14" height="11" viewBox="0 0 14 11" fill="none" xmlns="http://www.w3.org/2000/svg">
<path d="M8 0.5V1.375L9.25 2.15625V3.25H5V2.5H5.5C6.5 2.5 6.5 1.5 5.5 1.5H3.5C2.5 1.5 2.5 2.5 3.5 2.5H4V3.25L3.0625 5C3.0416 4.99953 3.02098 5 3 5C1.38772 5 0 6.38772 0 8C0 9.61228 1.38772 11 3 11C4.61228 11 6 9.61228 6 8C6 7.65403 5.92843 7.31342 5.8125 7H6.25C7 7 7.17275 6.546 7.4375 6.28125L9.21875 4.25L9.75 5.28125C8.72746 5.76592 8 6.82487 8 8C8 9.61228 9.38772 11 11 11C12.6123 11 14 9.61228 14 8C14 6.38772 12.6123 5 11 5C10.9685 5 10.9375 4.99895 10.9062 5L10 3.25V1.65625L8 0.5ZM4.78125 4.25H7.90625L6.34375 6H5.21875C5.20027 6 5.17516 6.00212 5.15625 6C4.89285 5.71705 4.59952 5.48038 4.25 5.3125C4.23775 5.29387 4.22991 5.26855 4.21875 5.25L4.78125 4.25ZM3 6C4.00571 6 5 6.99429 5 8C5 9.00571 4.00571 10 3 10C1.99429 10 1 9.00571 1 8C1 6.99429 1.99429 6 3 6ZM11 6C12.0057 6 13 6.99429 13 8C13 9.00571 12.0057 10 11 10C9.99429 10 9 9.00571 9 8C9 6.99429 9.99429 6 11 6Z" fill="#AC39AC"/>
</svg>
