<svg width="14" height="14" viewBox="0 0 14 14" fill="none" xmlns="http://www.w3.org/2000/svg">
<g clip-path="url(#clip0)">
<path d="M2.74414 0C2.03388 0.0003935 1.37403 0.411708 1 1H3.36914L3.99219 2L3.36914 3H1.00195C1.37563 3.58774 2.03455 3.99897 2.74414 4C3.50238 4 4.15626 3.59577 4.51172 3H9.17773C9.53316 3.59592 10.1889 4 10.9473 4C12.081 4 13 3.10457 13 2C13 0.89543 12.081 -2e-07 10.9473 0C10.1889 -2.67571e-07 9.53316 0.404077 9.17773 1H4.51172C4.15626 0.404234 3.50238 6.68822e-08 2.74414 0ZM10.3223 1H11.5723L12.1953 2L11.5723 3H10.3223L9.69922 2L10.3223 1ZM7.98242 5.45117L8.01367 6.44922L8.97852 7.01172V8.00977H5.23828H4.99023V7.01172H5.48828C6.48568 7.01172 6.48568 6.01367 5.48828 6.01367H3.49414C2.49674 6.01367 2.49674 7.01172 3.49414 7.01172H3.99219V8.00977L3.43164 9.38281C3.3901 9.38055 3.34869 9.38281 3.30664 9.38281C2.03944 9.38281 1 10.4229 1 11.6914C1 12.9599 2.03944 14 3.30664 14C4.57384 14 5.61328 12.9599 5.61328 11.6914C5.61328 11.4518 5.55767 11.2225 5.48828 11.0039H5.98633H6.98438L9.13477 9.00781L9.41602 9.72656C8.77804 10.1428 8.35547 10.8828 8.35547 11.6914C8.35547 12.9599 9.39491 14 10.6621 14C11.9293 14 13 12.9599 13 11.6914C13 10.4229 11.9293 9.38281 10.6621 9.38281C10.62 9.38281 10.5787 9.38055 10.5371 9.38281L9.97656 8.00977V6.63672L7.98242 5.45117ZM4.83398 9.00781H7.9375L6.63477 10.2559H5.08398C4.93052 10.0684 4.756 9.85918 4.55273 9.72656L4.83398 9.00781ZM3.30664 10.5059C3.96742 10.5059 4.49023 11.03 4.49023 11.6914C4.49023 12.3528 3.96742 12.877 3.30664 12.877C2.64586 12.877 2.12305 12.3528 2.12305 11.6914C2.12305 11.03 2.64586 10.5059 3.30664 10.5059ZM10.6621 10.5059C11.3229 10.5059 11.8477 11.03 11.8477 11.6914C11.8477 12.3528 11.3229 12.877 10.6621 12.877C10.0013 12.877 9.50977 12.3528 9.50977 11.6914C9.50977 11.03 10.0013 10.5059 10.6621 10.5059Z" fill="#0092DA"/>
</g>
<defs>
<clipPath id="clip0">
<rect width="14" height="14" fill="white"/>
</clipPath>
</defs>
</svg>
