<svg width="14" height="14" viewBox="0 0 14 14" fill="none" xmlns="http://www.w3.org/2000/svg">
<path d="M3.07107 0.108276V2.01514H5.73183V0.108276H3.07107ZM8.2807 0.108276V2.01514H10.9456V0.108276H8.2807ZM8.2807 2.61207V7.87668C8.2807 8.12924 8.48407 8.33267 8.73659 8.33267H8.76974H9.19248V13.4356C9.19248 13.6797 9.3919 13.8792 9.63594 13.8792H13.5483C13.7924 13.8792 13.9918 13.6797 13.9918 13.4356V10.2603L14 9.79598L12.3049 2.61207H8.2807ZM1.69924 2.62038L0 9.80429L0.00831104 10.2727V13.4481C0.00831847 13.6921 0.207752 13.8916 0.45178 13.8916H4.36418C4.61245 13.8916 4.81179 13.6921 4.81179 13.4481V8.34926H5.23037H5.26353C5.51604 8.34926 5.71942 8.14169 5.71942 7.88912V2.62036L1.69924 2.62038ZM6.30792 2.62038V7.51602H7.68803V2.62036L6.30792 2.62038Z" fill="#2F6133"/>
</svg>
