<svg width="14" height="14" viewBox="0 0 14 14" fill="none" xmlns="http://www.w3.org/2000/svg">
<path d="M3.5 0C2.11929 0 1 1.11929 1 2.5C1 3.88071 2.11929 5 3.5 5C4.42534 5 5.22398 4.49724 5.65625 3.75H7L8 2.75L9 3.75L10 2.75L11 3.75H11.5L13 2.5L11.5 1.25H5.65625C5.22398 0.502762 4.42534 0 3.5 0ZM2.5 2C2.77614 2 3 2.22386 3 2.5C3 2.77614 2.77614 3 2.5 3C2.22386 3 2 2.77614 2 2.5C2 2.22386 2.22386 2 2.5 2ZM5.23242 5.42969V8.02539H0L1.46484 10.5664H12.5352L14 8.02539H8.76758V5.42969H5.23242ZM3 11.5C2.4661 11.5 1.50771 12.5 1 12.5V14C1.53718 14 2.52542 13 3 13C3.50424 13 4.4661 14 5 14C5.4755 14 6.49229 13 7 13C7.50424 13 8.52173 14 9 14C9.50424 14 10.5254 13 11 13C11.4746 13 12.4958 14 13 14V12.5C12.5847 12.5 11.5339 11.4703 11 11.5C10.5217 11.5 9.53472 12.5 9 12.5C8.55509 12.5 7.50424 11.5 7 11.5C6.49576 11.5 5.4459 12.5 5 12.5C4.5245 12.5 3.5339 11.5 3 11.5Z" fill="#0092DA"/>
</svg>
