<?xml version="1.0" encoding="UTF-8" standalone="no"?>
<svg
   xmlns:dc="http://purl.org/dc/elements/1.1/"
   xmlns:cc="http://creativecommons.org/ns#"
   xmlns:rdf="http://www.w3.org/1999/02/22-rdf-syntax-ns#"
   xmlns:svg="http://www.w3.org/2000/svg"
   xmlns="http://www.w3.org/2000/svg"
   xmlns:sodipodi="http://sodipodi.sourceforge.net/DTD/sodipodi-0.dtd"
   xmlns:inkscape="http://www.inkscape.org/namespaces/inkscape"
   width="14"
   height="14"
   viewBox="0 0 14 14"
   fill="none"
   version="1.1"
   id="svg25532"
   sodipodi:docname="books.svg"
   inkscape:version="1.0.2 (e86c8708, 2021-01-15)">
  <metadata
     id="metadata25538">
    <rdf:RDF>
      <cc:Work
         rdf:about="">
        <dc:format>image/svg+xml</dc:format>
        <dc:type
           rdf:resource="http://purl.org/dc/dcmitype/StillImage" />
        <dc:title></dc:title>
      </cc:Work>
    </rdf:RDF>
  </metadata>
  <defs
     id="defs25536" />
  <sodipodi:namedview
     pagecolor="#ffffff"
     bordercolor="#666666"
     borderopacity="1"
     objecttolerance="10"
     gridtolerance="10"
     guidetolerance="10"
     inkscape:pageopacity="0"
     inkscape:pageshadow="2"
     inkscape:window-width="1263"
     inkscape:window-height="722"
     id="namedview25534"
     showgrid="false"
     inkscape:zoom="39.357143"
     inkscape:cx="12.044554"
     inkscape:cy="7"
     inkscape:window-x="93"
     inkscape:window-y="25"
     inkscape:window-maximized="0"
     inkscape:current-layer="svg25532" />
  <path
     d="M2.5918 0.876915C2.39328 0.884915 2.1959 0.92461 2 0.999962V8.99996C2 8.99996 5.1875 8.87496 6 12V3.59957C5.38001 2.29397 3.98142 0.820917 2.5918 0.876915ZM6 12C3.9375 10.4062 1 9.99996 1 9.99996V2.40035L0 1.99996V11L6 13H8L14 11V1.99996L13 2.40035V10.4004L8 12C7.33333 11.7453 6.55618 11.7906 6 12ZM12 0.999962C10.0075 0.893411 7.7073 2.08964 6.5 3.1191V11.5839C7.61477 10.6593 9.61358 9.44267 12 9.19918V0.999962Z"
     fill="#734A08"
     id="path25530"
     style="fill:#ac39ac;fill-opacity:1" />
</svg>
