<svg width="14" height="14" viewBox="0 0 14 14" fill="none" xmlns="http://www.w3.org/2000/svg">
<g clip-path="url(#clip0)">
<path d="M11 0C9.89543 -9.99999e-08 9 0.89543 9 2C9.00107 2.35139 9.32323 2.6963 9.5 3H12.5C12.6761 2.69611 12.9995 2.35122 13 2C13 0.89543 12.1046 -3e-07 11 0ZM9.5 4V5H12.5V4H9.5ZM9.5 6C9.21563 6.57528 8.84893 7.2576 8.54883 8C8.84563 8.62039 9.00015 9.30538 9 10C8.99789 10.8188 8.78093 11.6211 8.37305 12.3184C8.57813 12.9139 8.82493 13.482 9 14H13C13.3506 12.9569 13.9997 11.7169 14 10.4453C13.9999 8.77293 13.0761 7.17018 12.5 6H9.5ZM4 6.05469C3.47471 6.05469 2.95457 6.15815 2.46927 6.35917C1.98396 6.56019 1.54301 6.85483 1.17157 7.22626C0.800138 7.5977 0.505501 8.03865 0.304482 8.52395C0.103463 9.00926 -6.56609e-08 9.5294 0 10.0547C0 11.1156 0.421427 12.133 1.17157 12.8831C1.92172 13.6333 2.93913 14.0547 4 14.0547C5.06087 14.0547 6.07828 13.6333 6.82843 12.8831C7.57857 12.133 8 11.1156 8 10.0547C8 9.5294 7.89654 9.00926 7.69552 8.52395C7.4945 8.03865 7.19986 7.5977 6.82843 7.22626C6.45699 6.85483 6.01604 6.56019 5.53073 6.35917C5.04543 6.15815 4.52529 6.05469 4 6.05469V6.05469ZM4 7C4.26522 7 4.51957 7.10536 4.70711 7.29289C4.89464 7.48043 5 7.73478 5 8C5 8.26522 4.89464 8.51957 4.70711 8.70711C4.51957 8.89464 4.26522 9 4 9C3.73478 9 3.48043 8.89464 3.29289 8.70711C3.10536 8.51957 3 8.26522 3 8C3 7.73478 3.10536 7.48043 3.29289 7.29289C3.48043 7.10536 3.73478 7 4 7V7ZM6 9C6.26522 9 6.51957 9.10536 6.70711 9.29289C6.89464 9.48043 7 9.73478 7 10C7 10.2652 6.89464 10.5196 6.70711 10.7071C6.51957 10.8946 6.26522 11 6 11C5.73478 11 5.48043 10.8946 5.29289 10.7071C5.10536 10.5196 5 10.2652 5 10C5 9.73478 5.10536 9.48043 5.29289 9.29289C5.48043 9.10536 5.73478 9 6 9ZM3.5 9.5C3.76522 9.5 4.01957 9.60536 4.20711 9.79289C4.39464 9.98043 4.5 10.2348 4.5 10.5C4.5 10.7652 4.39464 11.0196 4.20711 11.2071C4.01957 11.3946 3.76522 11.5 3.5 11.5C3.23478 11.5 2.98043 11.3946 2.79289 11.2071C2.60536 11.0196 2.5 10.7652 2.5 10.5C2.5 10.2348 2.60536 9.98043 2.79289 9.79289C2.98043 9.60536 3.23478 9.5 3.5 9.5V9.5Z" fill="#2F6133"/>
</g>
<defs>
<clipPath id="clip0">
<rect width="14" height="14" fill="white"/>
</clipPath>
</defs>
</svg>
