<?xml version="1.0" encoding="UTF-8" standalone="no"?>
<!-- Created with Inkscape (http://www.inkscape.org/) -->

<svg
   xmlns="http://www.w3.org/2000/svg"
   version="1.1"
   width="14"
   height="14"
   viewBox="0 0 14 14">
  <rect
     width="14"
     height="14"
     x="0"
     y="0"
     id="canvas"
     style="fill:none;stroke:none;visibility:hidden" />
  <path
     d="m 7.0002108,0.02315904 c -0.246143,-0.00213 -0.48457,0.3250143 -0.5,0.96875 -2.897016,0.25455126 -5.243685,2.60238176 -5.5,5.49999996 -1.27039499,0 -1.28747199,0.96914 0,1 0.228319,2.916564 2.584827,5.219257 5.5,5.468751 0,1.404649 1,1.356045 1,0 2.9353962,-0.222296 5.2464402,-2.531918 5.4687502,-5.468751 1.394629,0 1.355936,-1 0,-1 -0.249604,-2.9177553 -2.551719,-5.2731708 -5.4687502,-5.49999996 0,-0.6351976 -0.253858,-0.9666155 -0.5,-0.96875 z m -0.5,2.28124996 0,3.5 -2.46875,-2.46875 c 0.688492,-0.5601379 1.536531,-0.9285408 2.46875,-1.03125 z m 1,0 c 0.93137,0.098765 1.774011,0.4754302 2.46875,1.03125 l -2.46875,2.46875 0,-3.5 z m 3.1875002,1.71875 c 0.558746,0.6876469 0.928206,1.536661 1.03125,2.46875 l -3.5000002,0 2.4687502,-2.46875 z m -7.3437502,0.03125 2.4375,2.4375 -3.46875,0 c 0.107683,-0.9146799 0.482886,-1.7563102 1.03125,-2.4375 z m 3.65625,2.1875 c 0.414213,0 0.75,0.3357863 0.75,0.75 0,0.414214 -0.335787,0.75 -0.75,0.75 -0.414214,0 -0.75,-0.335786 -0.75,-0.75 0,-0.4142137 0.335786,-0.75 0.75,-0.75 z m -4.6875,1.25 3.53125,0 -2.5,2.5000005 C 2.7801318,9.2946675 2.4096658,8.4330355 2.3127108,7.491909 z m 5.84375,0 3.5625002,0 c -0.100162,0.9519805 -0.493668,1.8015395 -1.0625,2.5000005 L 8.1564608,7.491909 z m -1.65625,0.7187505 0,3.5000005 c -0.932089,-0.103044 -1.781103,-0.472504 -2.46875,-1.03125 l 2.46875,-2.4687505 z m 1,0 2.46875,2.5000005 c -0.687689,0.544344 -1.538834,0.905241 -2.46875,1 l 0,-3.5000005 z"
     id="buddhist" />
</svg>
