<svg width="14" height="14" viewBox="0 0 14 14" fill="none" xmlns="http://www.w3.org/2000/svg">
<g clip-path="url(#clip0)">
<path d="M1.05859 9.99805C1.02307 10.165 1.00476 10.3352 1.00391 10.5059C1.0049 11.8464 2.06301 12.9475 3.40231 13.002V14L6.00001 12.5L3.40231 11V12C2.61604 11.9466 2.00511 11.2939 2.00391 10.5059C2.00431 10.3327 2.03471 10.1609 2.09375 9.9981L1.05859 9.99805Z" fill="#734A08"/>
<path d="M12.07 4.99999C11.2724 4.99999 10.5425 5.17319 9.88052 5.52147C8.80742 6.08348 8.29792 6.76497 7.88832 7.99997H7.17153L6.99964 8.99997H7.80823C7.80847 9.33872 7.7923 9.65965 7.81995 9.99997H7.17151L6.99963 11H7.94299C8.03756 11.4274 8.04579 11.4941 8.17737 11.7949C8.83111 13.283 10.192 14 12.0504 14C12.6712 14 13.2396 13.8858 13.7535 13.6562V12.4335C13.3218 12.8214 12.7216 13.0136 11.9527 13.0136C11.4017 13.0136 10.8884 12.8785 10.4156 12.6054C9.75771 12.2255 9.34407 11.9063 9.17147 10.9999H12.8395L13.0133 9.99992H9.0406C9.03781 9.66678 9.02796 9.33312 9.0406 8.99992H13.1793L13.3453 7.99992H9.14022C9.18134 7.67538 9.24005 7.60031 9.4703 7.24015C9.69644 6.89187 10.0267 6.65669 10.3062 6.46671C10.775 6.14613 11.3537 5.98624 12.0445 5.98624C12.6818 5.98624 13.2519 6.18611 13.7535 6.58585L13.9996 5.48035C13.4775 5.15977 12.8347 4.99988 12.0699 4.99988L12.07 4.99999Z" fill="#734A08"/>
<path d="M10.5979 0L8.00024 1.5L10.5979 3V1.998C11.3842 2.05136 11.9951 2.70406 11.9963 3.4921C11.9959 3.66529 11.9655 3.8371 11.9065 3.99991H12.9417C12.9772 3.83295 12.9955 3.66279 12.9964 3.4921C12.9954 2.1516 11.9373 1.0505 10.598 0.996L10.5979 0Z" fill="#734A08"/>
<path d="M3.00005 4e-05V1.02934C2.57938 1.05855 2.17909 1.11578 1.81845 1.23051C1.33459 1.38442 0.96491 1.6116 0.71295 1.9102C0.46102 2.20571 0.336 2.52359 0.336 2.86528C0.336 3.17619 0.4387 3.45856 0.64264 3.71098C0.85058 3.96032 1.16417 4.16863 1.58405 4.33793C1.86378 4.45224 2.35947 4.57508 3.00005 4.70316V7.14846C2.76892 7.11539 2.55064 7.06589 2.34575 6.99807C1.94586 6.86263 1.64902 6.68621 1.45708 6.47073C1.26913 6.25217 1.14969 5.97536 1.0977 5.63675L0 5.70902C0.015995 6.16153 0.17656 6.56956 0.48047 6.92972C0.78838 7.2868 1.21025 7.55391 1.74607 7.73245C2.10197 7.85015 2.53284 7.915 2.99997 7.95511V9.00001H3.99997V7.98051C4.52387 7.95927 5.01197 7.88711 5.44137 7.73637C5.94523 7.55783 6.3297 7.31125 6.59757 6.99418C6.86549 6.67404 6.99991 6.33285 6.99991 5.97268C6.99991 5.60944 6.87861 5.28879 6.63468 5.01174C6.39075 4.73162 6.01177 4.50195 5.49988 4.32033C5.21388 4.22026 4.67945 4.10309 3.99988 3.97658V1.83788C4.40908 1.88313 4.76449 1.96261 5.00768 2.11718C5.35558 2.33574 5.56098 2.66 5.62096 3.08788L6.73616 3.02147C6.71617 2.62437 6.57244 2.26905 6.30452 1.95507C6.0366 1.64109 5.65203 1.4042 5.15222 1.24413C4.80986 1.13149 4.41658 1.07197 3.99992 1.0371V0L3.00005 4e-05ZM3.00005 1.82814V3.77154C2.415 3.64701 1.96895 3.52551 1.79885 3.40631C1.57092 3.24932 1.45705 3.04793 1.45705 2.80475C1.45705 2.52463 1.61761 2.28692 1.93752 2.08991C2.17648 1.9423 2.55431 1.86691 3.00002 1.82819L3.00005 1.82814ZM4.00005 4.91404C4.29473 4.97481 4.7182 5.0535 4.84575 5.09177C5.21364 5.19951 5.47876 5.33209 5.63872 5.49216C5.79867 5.64915 5.87895 5.83445 5.87895 6.04685C5.87895 6.25617 5.79495 6.45034 5.627 6.62888C5.46305 6.80434 5.21104 6.94331 4.87114 7.0449C4.61384 7.1218 4.31692 7.15903 4.00005 7.17771V4.91404Z" fill="#734A08"/>
</g>
<defs>
<clipPath id="clip0">
<rect width="14" height="14" fill="white"/>
</clipPath>
</defs>
</svg>
