<svg width="14" height="14" viewBox="0 0 14 14" fill="none" xmlns="http://www.w3.org/2000/svg">
<g clip-path="url(#clip0)">
<path d="M7 0.461914C5.79459 0.471454 4.16017 0.812646 3.47852 1.09668C2.78709 1.38478 2.32762 1.67136 2.18359 2.3916L1.66406 6.38574V11.8877H2.55859V12.749C2.55859 13.801 4.0957 13.801 4.0957 12.749V11.8877H6.93945H6.94725H9.90233V12.749C9.90233 13.801 11.4414 13.801 11.4414 12.749V11.8877H12.3359V6.38574L11.8164 2.3916C11.6723 1.67136 11.2129 1.38478 10.5215 1.09668C9.83976 0.81262 8.20544 0.471404 7 0.461914ZM4.80469 1.46973H6.94727H9.19531C9.62747 1.46973 9.62747 2.11816 9.19531 2.11816H6.94336H4.80469C4.37253 2.11816 4.37253 1.46973 4.80469 1.46973ZM3.63867 2.77246H6.94336H10.3594C10.8159 2.77246 10.9368 3.00654 10.9922 3.3584L11.3945 6.25488C11.4321 6.53246 11.3523 6.80566 10.9687 6.80566H6.94727H3.03125C2.64776 6.80566 2.56783 6.53246 2.60547 6.25488L3.00781 3.3584C3.06323 3.00654 3.18217 2.77246 3.63867 2.77246V2.77246ZM3.32812 8.68652C3.73593 8.68652 4.06641 9.01698 4.06641 9.4248C4.06641 9.83263 3.73593 10.1611 3.32812 10.1611C2.92031 10.1611 2.58984 9.83263 2.58984 9.4248C2.58984 9.01698 2.92031 8.68652 3.32812 8.68652V8.68652ZM10.6719 8.68652C11.0797 8.68652 11.4102 9.01698 11.4102 9.4248C11.4102 9.83263 11.0797 10.1611 10.6719 10.1611C10.2641 10.1611 9.93359 9.83263 9.93359 9.4248C9.93359 9.01698 10.2641 8.68652 10.6719 8.68652V8.68652Z" fill="white"/>
<path d="M1.56778 0.00154089C0.563898 0.00154089 0 0.518574 0 1.57723V12.4911C0 13.4814 0.507871 14 1.51081 14H12.4892C13.4924 14 14 13.5073 14 12.4911V1.57723C14 0.544371 13.4923 0.00154089 12.4578 0.00154089C12.4577 0.00154089 1.56433 -0.00192611 1.56778 0.00154089V0.00154089ZM7 0.46128C8.20543 0.47077 9.83891 0.811817 10.5206 1.09588C11.2121 1.38398 11.6732 1.67037 11.8173 2.39061L12.336 6.38484V11.886H11.442V12.7485C11.442 13.8005 9.90177 13.8005 9.90177 12.7485V11.886H6.94696H6.9391H4.09627V12.7485C4.09627 13.8005 2.55796 13.8005 2.55796 12.7485V11.886H1.66405V6.38484L2.18271 2.39061C2.32674 1.67037 2.78795 1.38398 3.47937 1.09588C4.16103 0.811843 5.79459 0.470823 7 0.46128ZM4.8055 1.46917C4.37334 1.46917 4.37334 2.11752 4.8055 2.11752H6.94303H9.1945C9.62666 2.11752 9.62666 1.46918 9.1945 1.46917H6.94696H4.8055ZM3.63851 2.77176C3.182 2.77176 3.06328 3.00538 3.00786 3.35724L2.60511 6.2532C2.56747 6.53078 2.64794 6.80528 3.03143 6.80528H6.94696H10.9686C11.3521 6.80528 11.4325 6.53078 11.3949 6.2532L10.9921 3.35724C10.9367 3.00538 10.816 2.77176 10.3595 2.77176H6.94303H3.63851ZM3.32809 8.6855C2.92028 8.6855 2.58939 9.0164 2.58939 9.42422C2.58939 9.83205 2.92028 10.161 3.32809 10.161C3.7359 10.161 4.0668 9.83205 4.0668 9.42422C4.0668 9.0164 3.7359 8.6855 3.32809 8.6855ZM10.6719 8.6855C10.2641 8.6855 9.9332 9.0164 9.9332 9.42422C9.9332 9.83205 10.2641 10.161 10.6719 10.161C11.0797 10.161 11.4106 9.83205 11.4106 9.42422C11.4106 9.0164 11.0797 8.6855 10.6719 8.6855Z" fill="#0092DA"/>
</g>
<defs>
<clipPath id="clip0">
<rect width="14" height="14" fill="white"/>
</clipPath>
</defs>
</svg>
