<svg width="14" height="14" viewBox="0 0 14 14" fill="none" xmlns="http://www.w3.org/2000/svg">
<g clip-path="url(#clip0)">
<path fill-rule="evenodd" clip-rule="evenodd" d="M7 0C6.46957 0 5.96086 0.210714 5.58579 0.585786C5.21071 0.960859 5 1.46957 5 2C5 2.53043 5.21071 3.03914 5.58579 3.41421C5.96086 3.78929 6.46957 4 7 4C7.53043 4 8.03914 3.78929 8.41421 3.41421C8.78929 3.03914 9 2.53043 9 2C9 1.46957 8.78929 0.960859 8.41421 0.585786C8.03914 0.210714 7.53043 0 7 0V0ZM6.95703 4.68164C5.29028 4.68508 3.63758 5.21686 2 6.26758C3.35301 7.1709 4.46236 8.25342 4.43555 9.77539H9.54102C9.4719 8.23527 10.815 7.115 12 6.26758C10.3046 5.2031 8.62378 4.6782 6.95703 4.68164ZM5 11V12H9V11H5ZM3 13V14H11V13H3Z" fill="#734A08"/>
</g>
<defs>
<clipPath id="clip0">
<rect width="14" height="14" fill="white"/>
</clipPath>
</defs>
</svg>
