<svg width="14" height="14" viewBox="0 0 14 14" fill="none" xmlns="http://www.w3.org/2000/svg">
<path fill-rule="evenodd" clip-rule="evenodd" d="M6.26776 9.86821C6.26776 9.86821 5.2317 8.65538 4.15442 6.89108C3.29968 5.49133 2.50917 3.64761 2.43677 3.45172C3.02027 3.02819 5.99798 1.68951 6.60171 1.55832C6.77726 2.23532 7.05208 3.56108 7.63275 4.84907C8.23266 6.17979 8.95481 7.21724 9.22359 7.56785C8.58041 8.1735 6.26776 9.86821 6.26776 9.86821ZM8.29682 9.12635C8.37168 9.74654 10.4653 12.6302 11.1731 13.1532C11.4464 13.355 11.6374 13.1903 12.1014 12.8631C12.5655 12.5356 12.7402 12.2567 12.5711 11.8625C12.224 11.0532 10.7057 8.14772 9.99287 7.68209C9.30703 6.68551 8.73235 5.93203 8.16719 4.55031C7.58245 3.12076 7.20925 1.66853 6.98549 0.815369C6.18946 1.04594 4.87124 1.60367 4.06024 1.97704C3.15665 2.39298 2.51027 2.79909 1.79224 3.18353C2.01936 3.84281 2.56241 5.46664 3.6965 7.22087C4.59261 8.60701 5.34599 9.71063 6.19553 10.5503L8.29682 9.12635ZM5.14857 3.35807C5.14857 3.0374 5.42358 2.77727 5.76283 2.77727C6.10208 2.77727 6.37709 3.0374 6.37709 3.35807C6.37709 3.67896 6.10208 3.9391 5.76283 3.9391C5.42358 3.9391 5.14857 3.67896 5.14857 3.35807Z" fill="#AC39AC"/>
</svg>
