<svg width="14" height="14" viewBox="0 0 14 14" fill="none" xmlns="http://www.w3.org/2000/svg">
<path fill-rule="evenodd" clip-rule="evenodd" d="M0 9.5C0 9.89782 0.158035 10.2794 0.43934 10.5607C0.720644 10.842 1.10218 11 1.5 11H12.5C12.8978 11 13.2794 10.842 13.5607 10.5607C13.842 10.2794 14 9.89782 14 9.5V6.5C14 6.10218 13.842 5.72064 13.5607 5.43934C13.2794 5.15804 12.8978 5 12.5 5H1.5C1.10218 5 0.720644 5.15804 0.43934 5.43934C0.158035 5.72064 0 6.10218 0 6.5V9.5ZM1.6 7.5C1.60132 7.26174 1.69707 7.03373 1.86625 6.86596C2.03542 6.69818 2.26423 6.60434 2.50249 6.605C2.74075 6.60567 2.96902 6.70078 3.13727 6.86949C3.30551 7.0382 3.39999 7.26674 3.39999 7.505C3.39999 7.74326 3.30551 7.9718 3.13727 8.14051C2.96902 8.30922 2.74075 8.40434 2.50249 8.405C2.26423 8.40566 2.03542 8.31182 1.86625 8.14404C1.69707 7.97627 1.60132 7.74826 1.6 7.51V7.5ZM10.6 7.5C10.6013 7.26174 10.6971 7.03373 10.8662 6.86596C11.0354 6.69818 11.2642 6.60434 11.5025 6.605C11.7407 6.60567 11.969 6.70078 12.1373 6.86949C12.3055 7.0382 12.4 7.26674 12.4 7.505C12.4 7.74326 12.3055 7.9718 12.1373 8.14051C11.969 8.30922 11.7407 8.40434 11.5025 8.405C11.2642 8.40566 11.0354 8.31182 10.8662 8.14404C10.6971 7.97627 10.6013 7.74826 10.6 7.51V7.5Z" fill="#0092DA"/>
<path d="M3 10H1V13H3V10Z" fill="#0092DA"/>
<path d="M13 10H11V13H13V10Z" fill="#0092DA"/>
<path d="M2 5V2.5C2 2.10218 2.15804 1.72064 2.43934 1.43934C2.72064 1.15804 3.10218 1 3.5 1H10.5C10.8978 1 11.2794 1.15804 11.5607 1.43934C11.842 1.72064 12 2.10218 12 2.5V5H10.5V3.5C10.5 3.23478 10.3946 2.98043 10.2071 2.79289C10.0196 2.60536 9.76522 2.5 9.5 2.5H4.5C4.23478 2.5 3.98043 2.60536 3.79289 2.79289C3.60536 2.98043 3.5 3.23478 3.5 3.5V5H2Z" fill="#0092DA"/>
</svg>
