<svg width="14" height="14" viewBox="0 0 14 14" fill="none" xmlns="http://www.w3.org/2000/svg">
<path fill-rule="evenodd" clip-rule="evenodd" d="M5 2L3 5H2L4 2H5ZM9 2L11 5H12L10 2H9ZM6.5 2H7.5V5H6.5V2ZM6 0L4 1H10L8 0H6ZM4 6L3 9C2.52733 9 2 9.3843 2 10V13H3C3 13 3 14 4 14C5 14 5 13 5 13H9C9 13 9 14 10 14C11 14 11 13 11 13H12V10C12 9.47939 11.5446 9 11 9L10 6H4ZM5 7H9L9.625 9H4.375L5 7ZM4 10.25C4.41421 10.25 4.75 10.5858 4.75 11C4.75 11.4142 4.41421 11.75 4 11.75C3.58579 11.75 3.25 11.4142 3.25 11C3.25 10.5858 3.58579 10.25 4 10.25ZM10 10.25C10.4142 10.25 10.75 10.5858 10.75 11C10.75 11.4142 10.4142 11.75 10 11.75C9.58579 11.75 9.25 11.4142 9.25 11C9.25 10.5858 9.58579 10.25 10 10.25Z" fill="#734A08"/>
</svg>
