<svg width="14" height="14" viewBox="0 0 14 14" fill="none" xmlns="http://www.w3.org/2000/svg">
<path d="M2.74414 0C2.03388 0.0003935 1.37403 0.411708 1 1H3.36914L3.99219 2L3.36914 3H1.00195C1.37563 3.58774 2.03455 3.99897 2.74414 4C3.50238 4 4.15626 3.59577 4.51172 3H9.17773C9.53316 3.59592 10.1889 4 10.9473 4C12.081 4 13 3.10457 13 2C13 0.89543 12.081 -2e-07 10.9473 0C10.1889 -2.67571e-07 9.53316 0.404077 9.17773 1H4.51172C4.15626 0.404234 3.50238 6.68821e-08 2.74414 0ZM10.3223 1H11.5723L12.1953 2L11.5723 3H10.3223L9.69922 2L10.3223 1ZM4 6L3 9C2.52734 9 2 9.38429 2 10V13H3C3 13 3.00002 14 4 14C4.99998 14 5 13 5 13H9C9 13 9.00002 14 10 14C11 14 11 13 11 13H12V10C12 9.47939 11.5446 9 11 9L10 6H4ZM5 7H9L9.625 9H4.375L5 7ZM4 10.25C4.41421 10.25 4.75 10.5858 4.75 11C4.75 11.4142 4.41421 11.75 4 11.75C3.58579 11.75 3.25 11.4142 3.25 11C3.25 10.5858 3.58579 10.25 4 10.25ZM10 10.25C10.4142 10.25 10.75 10.5858 10.75 11C10.75 11.4142 10.4142 11.75 10 11.75C9.58579 11.75 9.25 11.4142 9.25 11C9.25 10.5858 9.58579 10.25 10 10.25Z" fill="#AC39AC"/>
</svg>
