<svg width="14" height="14" viewBox="0 0 14 14" fill="none" xmlns="http://www.w3.org/2000/svg">
<path d="M2 2C1 2 0 3 0 4V8C0 9 1 10 2 10H3.0625C3.29562 8.86079 4.29188 8 5.5 8C6.70812 8 7.70438 8.86079 7.9375 10H14C14 10 14 9 13 9H11.5V4C11.5 3.03934 10.4757 2 9.5 2H2ZM2.84375 4C2.9375 3.98438 3 4 3 4H5C5 4 6 4 6 5C6 6 5 6 5 6H3C3 6 2 6 2 5C2 4.25 2.5625 4.04688 2.84375 4ZM8 4H8.5C8.5 4 9.5 4 9.5 5C9.5 6 8.5 6 8.5 6H8C8 6 7 6 7 5C7 4 8 4 8 4ZM5.5 9C4.67157 9 4 9.67157 4 10.5C4 11.3284 4.67157 12 5.5 12C6.32843 12 7 11.3284 7 10.5C7 9.67157 6.32843 9 5.5 9Z" fill="#0092DA"/>
</svg>
