<svg width="14" height="14" viewBox="0 0 14 14" fill="none" xmlns="http://www.w3.org/2000/svg">
<g clip-path="url(#clip0)">
<path d="M1 0.999756L0 2.49976V2.99976H5V2.49976L4 0.999756H1ZM10 0.999756L9 2.49976V2.99976H14V2.49976L13 0.999756H10ZM0 3.99976V12.9998H5C5 11.9998 5 9.99976 7 9.99976C9 9.99976 9 11.9998 9 12.9998H14V3.99976H9V5.99976H7H5V3.99976H0ZM2 5.99976H3V6.99976L2.5 7.99976L2 6.99976V5.99976ZM11 5.99976H12V6.99976L11.5 7.99976L11 6.99976V5.99976Z" fill="#734A08"/>
</g>
<defs>
<clipPath id="clip0">
<rect width="14" height="14" fill="white"/>
</clipPath>
</defs>
</svg>
