<svg width="14" height="14" viewBox="0 0 14 14" fill="none" xmlns="http://www.w3.org/2000/svg">
<path d="M4.24219 0.733398L0 4.59277H0.490234V11.2217H3.08594V7.50684H5.39844V10.2471L3.14648 12.835C3.00616 12.9964 3.12011 13.248 3.33398 13.249L13.748 13.2666C13.9268 13.2676 14.0489 13.0861 13.9805 12.9209L10.6055 4.81348C10.566 4.71825 10.4722 4.65698 10.3691 4.65918C10.2986 4.66062 10.2319 4.69184 10.1855 4.74512L7.99414 7.2627V4.59277H8.48438L4.24219 0.733398ZM10.2969 5.37793L13.373 12.7666L3.88281 12.749L5.39844 11.0068V11.2217H7.99414V8.02441L10.2969 5.37793Z" fill="#0092DA"/>
<path d="M10.2969 5.37793L7.99414 8.02441V11.2217H5.39844V11.0068L3.88281 12.749L13.373 12.7666L10.2969 5.37793Z" fill="#0092DA" fill-opacity="0.2"/>
</svg>
