<svg width="14" height="14" viewBox="0 0 14 14" fill="none" xmlns="http://www.w3.org/2000/svg">
<path d="M5 0C4 0 4 0 4 1L4.00977 4H1V13C1 14 1 14 2 14H12C13 14 13 14 13 13V4H10.0391L10 1C10 0 10 0 9 0H5ZM5 1H9V4H5V1ZM5.17773 5.49805C5.69481 5.49519 5.80326 5.55556 6.10742 5.72266C6.47764 5.92604 6.85873 6.68146 6.9375 6.99023L6.98633 7.18164L7.10547 6.91797C7.83742 5.31559 9.94532 4.86901 10.7012 6.63477C10.9106 7.12399 10.9678 8.12535 10.7559 8.69727C10.4794 9.44331 9.9599 10.0132 8.75977 10.8848C7.9727 11.4564 7.08154 12.3199 7.01953 12.4414C6.94755 12.5824 7.01518 12.4637 6.69727 12.1074C6.52964 11.9196 6.11151 11.5547 5.76758 11.2949C4.74854 10.5254 4.61102 10.4142 4.19727 10.0332C3.43449 9.33083 3.11022 8.62477 3.11133 7.66797C3.11187 7.20089 3.14264 7.02141 3.27344 6.74609C3.49535 6.279 3.82231 5.93103 4.24023 5.71875C4.53624 5.5684 4.68343 5.50078 5.17773 5.49805Z" fill="#AC39AC"/>
</svg>
