<svg width="14" height="14" viewBox="0 0 14 14" fill="none" xmlns="http://www.w3.org/2000/svg">
<path d="M2 1C0.834472 1 0 1.79552 0 3V14H7V6.125C7 6.125 7.875 6 7.875 7V11C7.875 13 9.7397 13.125 10 13.125C10.2757 13.125 12.125 13 12.125 11V7C12.125 7 13.5126 7.01738 13.5 4.03125H12.75V2.03125C12.75 1.46409 12 1.46751 12 2V4H11V2C11 1.45382 10.25 1.45481 10.25 2V4H9.5C9.51252 6.98639 10.875 7 10.875 7V11C10.875 11.8742 10.1079 11.875 10 11.875C9.89214 11.875 9.125 11.8322 9.125 11V7C9.125 5.71909 8 4.875 7 4.875V3C7 1.77754 6.1835 1 5 1H2ZM2.96875 3H5.71875L4 5.66667H6.0625L2.28125 11H1.59375L2.96875 7H1.25L2.96875 3Z" fill="#0092DA"/>
</svg>
