<svg width="14" height="14" viewBox="0 0 14 14" fill="none" xmlns="http://www.w3.org/2000/svg">
<path d="M1 1C0.446 1 0 1.446 0 2V13C0 13.554 0.446 14 1 14H13C13.554 14 14 13.554 14 13V2C14 1.446 13.554 1 13 1H1ZM1.25 2H1.75C1.8885 2 2 2.1115 2 2.25V2.75C2 2.8885 1.8885 3 1.75 3H1.25C1.1115 3 1 2.8885 1 2.75V2.25C1 2.1115 1.1115 2 1.25 2ZM4 2H10V7H4V2ZM12.25 2H12.75C12.8885 2 13 2.1115 13 2.25V2.75C13 2.8885 12.8885 3 12.75 3H12.25C12.1115 3 12 2.8885 12 2.75V2.25C12 2.1115 12.1115 2 12.25 2ZM1.25 4H1.75C1.8885 4 2 4.1115 2 4.25V4.75C2 4.8885 1.8885 5 1.75 5H1.25C1.1115 5 1 4.8885 1 4.75V4.25C1 4.1115 1.1115 4 1.25 4ZM12.25 4H12.75C12.8885 4 13 4.1115 13 4.25V4.75C13 4.8885 12.8885 5 12.75 5H12.25C12.1115 5 12 4.8885 12 4.75V4.25C12 4.1115 12.1115 4 12.25 4ZM1.25 6H1.75C1.8885 6 2 6.1115 2 6.25V6.75C2 6.8885 1.8885 7 1.75 7H1.25C1.1115 7 1 6.8885 1 6.75V6.25C1 6.1115 1.1115 6 1.25 6ZM12.25 6H12.75C12.8885 6 13 6.1115 13 6.25V6.75C13 6.8885 12.8885 7 12.75 7H12.25C12.1115 7 12 6.8885 12 6.75V6.25C12 6.1115 12.1115 6 12.25 6ZM1.25 8H1.75C1.8885 8 2 8.1115 2 8.25V8.75C2 8.8885 1.8885 9 1.75 9H1.25C1.1115 9 1 8.8885 1 8.75V8.25C1 8.1115 1.1115 8 1.25 8ZM4 8H10V13H4V8ZM12.25 8H12.75C12.8885 8 13 8.1115 13 8.25V8.75C13 8.8885 12.8885 9 12.75 9H12.25C12.1115 9 12 8.8885 12 8.75V8.25C12 8.1115 12.1115 8 12.25 8ZM1.25 10H1.75C1.8885 10 2 10.1115 2 10.25V10.75C2 10.8885 1.8885 11 1.75 11H1.25C1.1115 11 1 10.8885 1 10.75V10.25C1 10.1115 1.1115 10 1.25 10ZM12.25 10H12.75C12.8885 10 13 10.1115 13 10.25V10.75C13 10.8885 12.8885 11 12.75 11H12.25C12.1115 11 12 10.8885 12 10.75V10.25C12 10.1115 12.1115 10 12.25 10ZM1.25 12H1.75C1.8885 12 2 12.1115 2 12.25V12.75C2 12.8885 1.8885 13 1.75 13H1.25C1.1115 13 1 12.8885 1 12.75V12.25C1 12.1115 1.1115 12 1.25 12ZM12.25 12H12.75C12.8885 12 13 12.1115 13 12.25V12.75C13 12.8885 12.8885 13 12.75 13H12.25C12.1115 13 12 12.8885 12 12.75V12.25C12 12.1115 12.1115 12 12.25 12Z" fill="#734A08"/>
</svg>
