<svg width="14" height="14" viewBox="0 0 14 14" fill="none" xmlns="http://www.w3.org/2000/svg">
<g clip-path="url(#clip0)">
<path d="M12.3845 0.563045C12.3845 0.563045 11.6287 -0.143672 10.3832 0.0264257C9.13777 0.196524 5.67408 1.85636 4.06432 3.28421C2.45457 4.71206 0.24023 7.00198 0.098327 8.52317C-0.0435763 10.0444 -0.27583 10.7043 1.40652 12.3845C3.08887 14.0648 7.06399 12.4605 7.06399 12.4605C7.06399 12.4605 10.5625 10.8652 12.2825 7.90706C14.0025 4.94896 13.9418 3.69667 13.9418 3.69667C13.9418 3.69667 14.1806 2.60274 13.6906 1.64524C13.2006 0.68774 12.5004 0.77784 12.5004 0.77784C12.5004 0.77784 11.6441 1.33868 10.99 2.05945C10.3359 2.78022 10.3475 2.8017 10.0215 3.08975C9.69556 3.37781 9.19357 3.48834 8.81908 3.83514C8.44459 4.18195 7.52939 6.44318 5.84478 7.83144C4.16016 9.21969 3.29744 9.55384 2.87756 10.0148C2.45768 10.4757 2.37102 10.9594 2.0547 10.8688C1.73838 10.7783 1.86859 9.11969 2.47198 8.60233C3.07537 8.08497 3.23667 8.18563 4.10687 7.61753C4.97707 7.04943 5.97893 4.30451 8.42509 2.44418C10.8712 0.583836 12.3845 0.563045 12.3845 0.563045Z" fill="#AC39AC"/>
</g>
<defs>
<clipPath id="clip0">
<rect width="14" height="14" fill="white"/>
</clipPath>
</defs>
</svg>
