<svg width="14" height="14" viewBox="0 0 14 14" fill="none" xmlns="http://www.w3.org/2000/svg">
<path fill-rule="evenodd" clip-rule="evenodd" d="M11.4735 2.5C11.4735 3.32843 10.8138 4 10 4C9.18621 4 8.52649 3.32843 8.52649 2.5C8.52649 1.67157 9.18621 1 10 1C10.8138 1 11.4735 1.67157 11.4735 2.5ZM3 6H5V9H3V6ZM5.47351 2.5C5.47351 3.32843 4.81379 4 4 4C3.18621 4 2.52649 3.32843 2.52649 2.5C2.52649 1.67157 3.18621 1 4 1C4.81379 1 5.47351 1.67157 5.47351 2.5ZM0 5H7V6H0V5ZM1 13L3 9H4L2 13H1ZM7 13L5 9H4L6 13H7ZM9 6H11V9H9V6ZM7 5H14V6H7V5ZM7 13L9 9H10L8 13H7ZM13 13L11 9H10L12 13H13Z" fill="#734A08"/>
</svg>
