<svg width="14" height="14" viewBox="0 0 14 14" fill="none" xmlns="http://www.w3.org/2000/svg">
<g clip-path="url(#clip0)">
<path d="M6 0V3.27148C5.69648 3.44672 5.44434 3.69864 5.26883 4.002C5.09333 4.30537 5.00062 4.64953 5 5C5.00028 5.35081 5.09282 5.69537 5.26834 5.9991C5.44387 6.30284 5.69619 6.55507 6 6.73047V14H8V6.72852C8.30352 6.55328 8.55566 6.30136 8.73117 5.998C8.90667 5.69463 8.99938 5.35047 9 5C8.99972 4.64919 8.90718 4.30463 8.73166 4.0009C8.55613 3.69716 8.30381 3.44493 8 3.26953V0H6ZM11.0059 0V1.28125C12.2024 1.99175 12.9531 3.19401 12.9531 4.72461C12.9531 6.25521 12.2024 7.477 11.0059 8.1875V9.48633C12.7746 8.68477 14.0039 6.83091 14.0039 4.72461C14.0039 2.61831 12.7745 0.8015 11.0059 0ZM3 0.00390625C1.2313 0.805466 0.00390625 2.63589 0.00390625 4.74219C0.00390625 6.84849 1.2314 8.70241 3 9.50391V8.2793C1.8035 7.5688 1.03516 6.20062 1.03516 4.66992C1.03516 3.13932 1.80345 1.94488 3 1.23438V0.00390625ZM4 1.85938C2.842 2.28813 2 3.40859 2 4.74219C2 6.07589 2.84197 7.20792 4 7.63672V6.49219C3.4026 6.13763 3.07227 5.47173 3.07227 4.70703C3.07227 3.94224 3.4026 3.36622 4 3.01172V1.85938ZM10.0059 1.86914V2.97461C10.6033 3.32917 11.0234 3.97739 11.0234 4.74219C11.0234 5.50698 10.6033 6.04589 10.0059 6.40039V7.52539C11.1639 7.09663 11.9707 6.07589 11.9707 4.74219C11.9707 3.40849 11.1639 2.29784 10.0059 1.86914Z" fill="#666666"/>
<path fill-rule="evenodd" clip-rule="evenodd" d="M4 14L7 11L10 14H4Z" fill="#666666"/>
</g>
<defs>
<clipPath id="clip0">
<rect width="14" height="14" fill="white"/>
</clipPath>
</defs>
</svg>
