<svg width="14" height="14" viewBox="0 0 14 14" fill="none" xmlns="http://www.w3.org/2000/svg">
<path d="M3.00002 1C2.51543 1 2.00002 1.51663 2.00002 2V8C2.00002 8.48337 2.51665 9 3.00002 9H11C11.4834 9 12 8.48337 12 8V2C12 1.51661 11.4834 1 11 1H3.00002ZM3.00002 2H11V8H3.00002V2ZM2.00002 10C1.74929 10 1.67812 10.1477 1.55275 10.3984L0.464862 13.5293C0.278563 13.7792 0.749291 14 1.00002 14H13C13.2507 14 13.6194 13.7497 13.5352 13.5293L12.416 10.3672C12.2907 10.1478 12.2507 10 12 10H2.00002Z" fill="#AC39AC"/>
</svg>
