<svg width="14" height="14" viewBox="0 0 14 14" fill="none" xmlns="http://www.w3.org/2000/svg">
<g clip-path="url(#clip0)">
<path d="M2.5 -4.51278e-06C2.25 -4.51278e-06 2 0.221567 2 0.666011V11.334C2 12.2229 3 12.2229 3 11.334V0.666011C3 0.221567 2.75 -4.51278e-06 2.5 -4.51278e-06ZM8.63477 0.00589549C8.1206 -0.0323645 7.48125 0.0904355 6.75 0.580114C4.8 1.88593 3.5 0.580114 3.5 0.580114V5.15043C3.5 5.15043 4.8 6.45624 6.75 5.15043C8.7 3.84461 10 5.15043 10 5.15043V0.580114C10 0.580114 9.4917 0.0696565 8.63477 0.00589549V0.00589549ZM9.5 6C9.10218 6 8.72064 6.15803 8.43934 6.43934C8.15804 6.72064 8 7.10217 8 7.5C8 7.89782 8.15804 8.27935 8.43934 8.56066C8.72064 8.84196 9.10218 9 9.5 9C9.89782 9 10.2794 8.84196 10.5607 8.56066C10.842 8.27935 11 7.89782 11 7.5C11 7.10217 10.842 6.72064 10.5607 6.43934C10.2794 6.15803 9.89782 6 9.5 6V6ZM10.3281 9.50976C10.1983 9.49269 10.0651 9.50066 9.93359 9.53515C9.77031 9.57795 9.641 9.66598 9.53125 9.77148C9.51881 9.78201 9.5038 9.78688 9.49219 9.79882L7.83399 11.5039L6.02539 12.0137C5.75875 12.0887 5.60464 12.3623 5.67969 12.6289C5.75474 12.8955 6.03024 13.0496 6.29688 12.9746L8.22071 12.4336C8.23825 12.4287 8.25105 12.4167 8.26758 12.4101C8.29969 12.3993 8.32762 12.3809 8.35742 12.3633C8.37658 12.3506 8.39704 12.3411 8.41405 12.3262C8.43113 12.3126 8.45118 12.3051 8.46679 12.2891L9.48436 11.2422L10 14H12L11.2012 10.2148C11.0687 9.82895 10.7175 9.56096 10.3281 9.50976Z" fill="#734A08"/>
</g>
<defs>
<clipPath id="clip0">
<rect width="14" height="14" fill="white"/>
</clipPath>
</defs>
</svg>
