<svg width="14" height="14" viewBox="0 0 14 14" fill="none" xmlns="http://www.w3.org/2000/svg">
<path d="M5 0C4 0 4 0 4 1L4.00977 4H1V13C1 14 1 14 2 14H12C13 14 13 14 13 13V4H10.0391L10 1C10 0 10 0 9 0H5ZM5 1H9V4H5V1ZM6.56836 5.5C7.33247 5.5 7.8931 5.64962 8.25195 5.94531C8.61081 6.24101 8.78906 6.59507 8.78906 7.00781C8.78906 7.23882 8.73637 7.45935 8.625 7.67188C8.51672 7.8844 8.38515 8.05701 8.23047 8.18945C8.07579 8.3219 7.79946 8.51944 7.40039 8.78125C7.7314 9.11082 8.07474 9.4178 8.43359 9.70117C8.5295 9.5102 8.61163 9.30823 8.67969 9.0957L10.1543 9.42188C10.077 9.69293 10.0028 9.91097 9.93164 10.0742C9.86049 10.2375 9.76079 10.4306 9.63086 10.6523L10.3398 11.1367C10.4265 11.1922 10.5397 11.2589 10.6758 11.3359L9.6582 12.5C9.47259 12.4014 9.27921 12.2876 9.07812 12.1582C8.88014 12.0288 8.70269 11.9166 8.54492 11.8242C8.217 12.0398 7.88847 12.1983 7.56055 12.2969C7.10579 12.4324 6.59022 12.5 6.01172 12.5C5.1053 12.5 4.43066 12.3113 3.98828 11.9355C3.5459 11.5598 3.32422 11.1043 3.32422 10.5684C3.32422 10.1833 3.45498 9.82041 3.71484 9.47852C3.9747 9.13354 4.39936 8.84264 4.99023 8.60547C4.74275 8.3067 4.57328 8.04877 4.48047 7.83008C4.38766 7.60831 4.3418 7.38223 4.3418 7.1543C4.3418 6.6738 4.52444 6.27984 4.89258 5.96875C5.26071 5.65766 5.81971 5.5 6.56836 5.5ZM6.64648 6.51562C6.45468 6.51562 6.29838 6.57271 6.17773 6.68359C6.05709 6.79448 5.99805 6.92525 5.99805 7.07617C5.99805 7.26714 6.16752 7.54475 6.50781 7.9082C6.75221 7.77576 6.94119 7.63252 7.07422 7.47852C7.20724 7.32143 7.27344 7.17181 7.27344 7.0332C7.27344 6.88844 7.21879 6.76849 7.10742 6.66992C6.99605 6.56828 6.84138 6.51562 6.64648 6.51562ZM5.83398 9.55273C5.57412 9.73446 5.40303 9.89017 5.31641 10.0195C5.23288 10.1489 5.18945 10.2849 5.18945 10.4297C5.18945 10.6545 5.28753 10.8557 5.48242 11.0312C5.67732 11.2068 5.93169 11.2949 6.24414 11.2949C6.58134 11.2949 6.96013 11.1622 7.38086 10.9004C6.97869 10.5924 6.46198 10.1441 5.83398 9.55273Z" fill="#AC39AC"/>
</svg>
