<svg width="14" height="14" viewBox="0 0 14 14" fill="none" xmlns="http://www.w3.org/2000/svg">
<g clip-path="url(#clip0)">
<path d="M9 2.69052e-06C8.24881 0.490921 7.75 1.34815 7.75 2.3125C7.75 3.3767 8.36565 4.29281 9.25 4.75V12.5C9.25 13.3778 9.77119 14 10.5 14C11.2288 14 11.75 13.3966 11.75 12.5V4.75C12.6343 4.29281 13.25 3.3767 13.25 2.3125C13.25 1.34815 12.7512 0.490921 12 2.69052e-06V1.5L10.5 3L9 1.5C9 1.5 9 -0.00232001 9 2.69052e-06ZM4 2.69052e-06C3.44751 2.69052e-06 3 0.380454 3 0.750003H1.5L0.25 2.5L1.5 4.25H3V12.75C3 13.4349 3.37685 14 4 14C4.62315 14 5 13.4718 5 12.75V4.25H7V0.750003H5C5 0.37248 4.62315 2.69052e-06 4 2.69052e-06ZM10.5 12C10.7761 12 11 12.2239 11 12.5C11 12.7761 10.7761 13 10.5 13C10.2239 13 10 12.7761 10 12.5C10 12.2239 10.2239 12 10.5 12Z" fill="#AC39AC"/>
</g>
<defs>
<clipPath id="clip0">
<rect width="14" height="14" fill="white"/>
</clipPath>
</defs>
</svg>
