<svg xmlns="http://www.w3.org/2000/svg" width="32" height="32" viewBox="0 0 32 32">
  <rect id="mapnik_workaround" width="32" height="32" fill="none"/>
  <path d="M2,19 m6.7235,0.0015369 c-0.88832,0.10266 -1.3927,1.0766 -1.4569,1.9225 -0.10493,0.75203 0.22337,1.7116 1.0132,1.8846 0.68451,0.061054 1.2291,-0.58203 1.4528,-1.1955 0.26419,-0.76784 0.2719,-1.7932 -0.36913,-2.3685 -0.17806,-0.15431 -0.40669,-0.24805 -0.64006,-0.24311 z m-3.6235,0.040262 c-0.73915,0.05347 -1.118,0.91246 -1.0666,1.602 0.00629,0.92195 0.51258,1.9589 1.4358,2.1777 0.68854,0.074461 1.1476,-0.65579 1.1904,-1.2943 0.087865,-0.97718 -0.34509,-2.1609 -1.3255,-2.456 -0.076205,-0.021046 -0.15524,-0.031492 -0.23411,-0.029422 z m5.9393,2.9608 c-0.99169,0.072686 -1.6188,1.1296 -1.6619,2.0846 -0.052178,0.62196 0.34963,1.4041 1.0262,1.3612 1.0118,-0.10725 1.6219,-1.235 1.5967,-2.2148 -0.0065,-0.56409 -0.36396,-1.2075 -0.96099,-1.231 z m-9.0316,1.2892 c-0.091822,1.0582 0.64868,2.2543 1.7244,2.3209 0.65198,-0.043543 0.95942,-0.80078 0.8847,-1.3999 -0.059543,-0.88397 -0.65058,-1.7892 -1.4185,-1.9074 -0.76791,-0.11826 -1.2028,0.42426 -1.1906,0.98638 z m5.1061,0.90273 c-1.0085,0.00235 -1.9306,0.66176 -2.4235,1.554 -0.41302,0.66673 -0.75068,1.4215 -0.8149,2.2181 0.01405,0.61432 0.6002,1.1256 1.1879,1.0032 0.83834,-0.10882 1.5875,-0.69101 2.4593,-0.58193 0.72449,0.057836 1.322,0.61963 2.0535,0.61146 0.71025,0.026672 1.12,-0.78724 0.84911,-1.4247 -0.29147,-0.91278 -0.85656,-1.7066 -1.4631,-2.4216 -0.48383,-0.52701 -1.1175,-0.98183 -1.8483,-0.9585 z" fill="#a6e0ab" opacity="0.7"/>
  <path d="M18,3 m6.7235,0.0015369 c-0.88832,0.10266 -1.3927,1.0766 -1.4569,1.9225 -0.10493,0.75203 0.22337,1.7116 1.0132,1.8846 0.68451,0.061054 1.2291,-0.58203 1.4528,-1.1955 0.26419,-0.76784 0.2719,-1.7932 -0.36913,-2.3685 -0.17806,-0.15431 -0.40669,-0.24805 -0.64006,-0.24311 z m-3.6235,0.040262 c-0.73915,0.05347 -1.118,0.91246 -1.0666,1.602 0.00629,0.92195 0.51258,1.9589 1.4358,2.1777 0.68854,0.074461 1.1476,-0.65579 1.1904,-1.2943 0.087865,-0.97718 -0.34509,-2.1609 -1.3255,-2.456 -0.076205,-0.021046 -0.15524,-0.031492 -0.23411,-0.029422 z m5.9393,2.9608 c-0.99169,0.072686 -1.6188,1.1296 -1.6619,2.0846 -0.052178,0.62196 0.34963,1.4041 1.0262,1.3612 1.0118,-0.10725 1.6219,-1.235 1.5967,-2.2148 -0.0065,-0.56409 -0.36396,-1.2075 -0.96099,-1.231 z m-9.0316,1.2892 c-0.091822,1.0582 0.64868,2.2543 1.7244,2.3209 0.65198,-0.043543 0.95942,-0.80078 0.8847,-1.3999 -0.059543,-0.88397 -0.65058,-1.7892 -1.4185,-1.9074 -0.76791,-0.11826 -1.2028,0.42426 -1.1906,0.98638 z m5.1061,0.90273 c-1.0085,0.00235 -1.9306,0.66176 -2.4235,1.554 -0.41302,0.66673 -0.75068,1.4215 -0.8149,2.2181 0.01405,0.61432 0.6002,1.1256 1.1879,1.0032 0.83834,-0.10882 1.5875,-0.69101 2.4593,-0.58193 0.72449,0.057836 1.322,0.61963 2.0535,0.61146 0.71025,0.026672 1.12,-0.78724 0.84911,-1.4247 -0.29147,-0.91278 -0.85656,-1.7066 -1.4631,-2.4216 -0.48383,-0.52701 -1.1175,-0.98183 -1.8483,-0.9585 z" fill="#a6e0ab" opacity="0.7"/>
</svg>
