<svg width="14" height="14" viewBox="0 0 14 14" fill="none" xmlns="http://www.w3.org/2000/svg">
<g clip-path="url(#clip0)">
<path d="M9.375 0.03131C9.22861 0.0144176 9.06965 0.0554073 8.9375 0.18756L6.03125 3.12506L4.125 1.18756C3.91305 0.901794 3.43751 0.872609 3.1875 1.12506C2.93749 1.37751 2.96699 1.84855 3.25 2.06256L5.15625 4.00006H2C1 4.00006 0 5.00006 0 6.00006V12.0001C0 13.0001 1 14.0001 2 14.0001H12C13 14.0001 14 13.0001 14 12.0001V6.00006C14 5.00006 13 4.00006 12 4.00006H6.90625L9.8125 1.06256C10.2 0.67504 9.81417 0.0819871 9.375 0.03131ZM6 6.00006C9 6.00006 10 6.00006 10 9.00006C10 12.0001 9 12.0001 6 12.0001C3 12.0001 2 12.0001 2 9.00006C2 6.00006 3 6.00006 6 6.00006ZM12 6.12506C12.4832 6.12506 12.875 6.51681 12.875 7.00006C12.875 7.48331 12.4832 7.87506 12 7.87506C11.5168 7.87506 11.125 7.48331 11.125 7.00006C11.125 6.51681 11.5168 6.12506 12 6.12506ZM12 9.12506C12.4832 9.12506 12.875 9.51681 12.875 10.0001C12.875 10.4833 12.4832 10.8751 12 10.8751C11.5168 10.8751 11.125 10.4833 11.125 10.0001C11.125 9.51681 11.5168 9.12506 12 9.12506Z" fill="#AC39AC"/>
</g>
<defs>
<clipPath id="clip0">
<rect width="14" height="14" fill="white"/>
</clipPath>
</defs>
</svg>
