<svg width="14" height="14" viewBox="0 0 14 14" fill="none" xmlns="http://www.w3.org/2000/svg">
<path d="M2 1C1 1 0 2 0 3V4H4L5 3H9L10 4H14V3C14 2 13 1 12 1H2ZM0 4.75V5.25C0 5.25 0.370376 6 1 6H3C3.56635 5.98112 4 5.25 4 5.25V4.75H0ZM10 4.75V5.25C10 5.25 10.4337 6 11 6H13C13.5667 6 14 5.25 14 5.25V4.75H10ZM1.5 8C0.707627 8 0 8.57353 0 9.5C0 10.4789 0.722458 11 1.5 11H2.5C2.5 11 3 11 3 11.5C3 12 2.5 12 2.5 12H0.5V13H2.5C3.27754 13 4 12.3969 4 11.4688C4 10.593 3.26271 10 2.5 10H1.5C1.5 10 1 10 1 9.5C1 9 1.5 9 1.5 9H3.5V8H1.5ZM6.5 8C5 8 5 9.5 5 9.5V11.5C5 11.5 5 13 6.5 13H7.5C9 13 9 11.5 9 11.5V9.5C9 9.5 9 8 7.5 8H6.5ZM11.5 8C10.7076 8 10 8.57353 10 9.5C10 10.4789 10.7225 11 11.5 11H12.5C12.5 11 13 11 13 11.5C13 12 12.5 12 12.5 12H10.5V13H12.5C13.2775 13 14 12.3969 14 11.4688C14 10.593 13.2627 10 12.5 10H11.5C11.5 10 11 10 11 9.5C11 9 11.5 9 11.5 9H13.5V8H11.5ZM6 9.75C6 9.75 6 9 6.75 9H7.25C8 9 8 9.75 8 9.75V11.25C8 11.25 8 12 7.25 12H6.75C6 12 6 11.25 6 11.25V9.75Z" fill="#734A08"/>
</svg>
