<svg width="14" height="14" viewBox="0 0 14 14" fill="none" xmlns="http://www.w3.org/2000/svg">
<path d="M2 0V1H3V0H2ZM5 0C5 1.33333 5 2.66667 5 4H6C6 2.66667 6 1.33333 6 0H5ZM8 0V1H9V0H8ZM11 0C11 1.33333 11 2.66667 11 4H12C12 2.66667 12 1.33333 12 0H11ZM0 2V3C1.33333 3 2.66667 3 4 3V2C2.66667 2 1.33333 2 0 2ZM7 2V3C8 3 9 3 10 3V2C9 2 8 2 7 2ZM13 2V3H14V2H13ZM2 4C2 5.33333 2 6.66667 2 8H3C3 6.66667 3 5.33333 3 4H2ZM8 4C8 5.33333 8 6.66667 8 8H9C9 6.66667 9 5.33333 9 4H8ZM0 5V6H1V5H0ZM4 5V6C5 6 6 6 7 6V5C6 5 5 5 4 5ZM10 5V6C11.3333 6 12.6667 6 14 6V5C12.6667 5 11.3333 5 10 5ZM5 7V8H6V7H5ZM11 7V8H12V7H11ZM1.5 9C0.669 9 0 9.669 0 10.5V12.5C0 13.331 0.669 14 1.5 14C5.5 14 9.5 14 13.5 14C13.777 14 14 13.777 14 13.5C14 13.223 13.777 13 13.5 13C9.5 13 5.5 13 1.5 13C1.223 13 1 12.777 1 12.5V10.5C1 10.223 1.223 10 1.5 10H10.5C10.777 10 11 10.223 11 10.5C11 10.777 10.777 11 10.5 11H2V12C4.83333 12 7.66667 12 10.5 12C11.331 12 12 11.331 12 10.5C12 9.669 11.331 9 10.5 9H1.5Z" fill="#AC39AC"/>
</svg>
