<svg width="14" height="14" viewBox="0 0 14 14" fill="none" xmlns="http://www.w3.org/2000/svg">
<path fill-rule="evenodd" clip-rule="evenodd" d="M7.00001 0C6.1254 0 5.41407 0.702666 5.41407 1.56836C5.41407 2.20595 5.80159 2.75498 6.35352 3C6.34656 3.33341 6.33898 3.66659 6.33204 4H2.00001V5H6.31251C6.27167 6.96525 6.23004 8.92928 6.18946 10.8945C6.18681 11.0204 6.19141 12.288 4.49024 11.4121C2.78443 10.5349 3.74691 9.54082 3.86134 9.51172C2.85918 9.19631 1.95237 8.31946 1.21876 7.41992C0.498732 9.02338 1.78747 10.7361 1.84962 10.9805C2.0044 10.8113 2.23504 10.8376 2.37696 10.8613C4.11332 13.5667 6.38911 13.2419 7.00001 14C7.61091 13.2419 9.8871 13.5667 11.6231 10.8613C11.7648 10.8376 11.9954 10.8113 12.1504 10.9805C12.2127 10.7361 13.5015 9.02338 12.7813 7.41992C12.0478 8.31946 11.1405 9.19631 10.1387 9.51172C10.2526 9.54082 11.2172 10.5349 9.51173 11.4121C7.81022 12.288 7.81321 11.0204 7.81055 10.8945C7.77112 8.92926 7.72853 6.96524 7.68751 5H12V4H7.66798C7.66108 3.66659 7.65329 3.33341 7.64649 3C8.19908 2.75498 8.58595 2.20595 8.58595 1.56836C8.58595 0.702666 7.87528 0 7.00001 0ZM7.00001 0.994141C7.3101 0.994141 7.56251 1.25159 7.56251 1.56836C7.56251 1.88445 7.3101 2.14062 7.00001 2.14062C6.68992 2.14062 6.43751 1.88445 6.43751 1.56836C6.43751 1.25159 6.68992 0.994141 7.00001 0.994141Z" fill="#8461C4"/>
</svg>
