<svg width="14" height="14" viewBox="0 0 14 14" fill="none" xmlns="http://www.w3.org/2000/svg">
<path d="M0 0V5C0 5.79565 0.31607 6.55871 0.87868 7.12132C1.44129 7.68393 2.20435 8 3 8C3.79565 8 4.55871 7.68393 5.12132 7.12132C5.68393 6.55871 6 5.79565 6 5V3L4 5H5C5 5.53043 4.78929 6.03914 4.41421 6.41421C4.03914 6.78929 3.53043 7 3 7C2.46957 7 1.96086 6.78929 1.58579 6.41421C1.21071 6.03914 1 5.53043 1 5V0H0ZM5.5 9C3.14286 9 0.785715 10.25 0 11.5C0.785715 12.75 3.14286 14 5.5 14C7.85714 14 10.2143 12.75 11 11.5C10.2143 10.25 7.85714 9 5.5 9ZM11 11.5L14 14V9L11 11.5ZM3 10C3.26522 10 3.51957 10.1054 3.70711 10.2929C3.89464 10.4804 4 10.7348 4 11C4 11.2652 3.89464 11.5196 3.70711 11.7071C3.51957 11.8946 3.26522 12 3 12C2.73478 12 2.48043 11.8946 2.29289 11.7071C2.10536 11.5196 2 11.2652 2 11C2 10.7348 2.10536 10.4804 2.29289 10.2929C2.48043 10.1054 2.73478 10 3 10V10Z" fill="#2F6133"/>
</svg>
