<svg width="15" height="15" viewBox="0 0 15 15" fill="none" xmlns="http://www.w3.org/2000/svg">
<path fill-rule="evenodd" clip-rule="evenodd" d="M9.10637 1.36068C9.10637 1.53715 9.14134 1.7119 9.2093 1.87494C9.27726 2.03798 9.37686 2.18612 9.50243 2.31091C9.62799 2.4357 9.77706 2.53468 9.94112 2.60222C10.1052 2.66975 10.281 2.70451 10.4586 2.70451C10.6362 2.70451 10.812 2.66975 10.9761 2.60222C11.1401 2.53468 11.2892 2.4357 11.4148 2.31091C11.5403 2.18612 11.6399 2.03798 11.7079 1.87494C11.7759 1.7119 11.8108 1.53715 11.8108 1.36068C11.8108 1.1842 11.7759 1.00946 11.7079 0.846415C11.6399 0.683374 11.5403 0.535231 11.4148 0.410445C11.2892 0.285658 11.1401 0.186672 10.9761 0.119139C10.812 0.0516048 10.6362 0.0168457 10.4586 0.0168457C10.1 0.0168457 9.75602 0.158428 9.50243 0.410445C9.24884 0.662462 9.10637 1.00427 9.10637 1.36068ZM1.7974 10.4903L4.65722 11.2254C4.77403 11.2554 5.03277 11.2289 5.13072 11.2048C5.38174 11.1561 5.45392 11.0395 5.55216 10.9176L6.9061 8.68665L8.60823 10.5137L7.92098 13.9298C7.899 14.003 7.88801 14.064 7.88801 14.1126C7.88801 14.3319 7.95891 14.5207 8.10075 14.6791C8.24259 14.8374 8.41172 14.9166 8.60823 14.9166C8.97911 14.9166 9.20834 14.7034 9.29594 14.2771L10.1305 10.1301C10.2288 9.69151 10.1851 9.36871 9.99967 9.16166L8.51035 7.49902L10.1306 5.39822L11.1779 6.56737C11.2871 6.6889 11.4126 6.74969 11.5545 6.74969C11.7399 6.74969 11.9199 6.65843 12.0944 6.47595L13.7965 4.57583C13.8837 4.4539 13.9273 4.31991 13.9274 4.17384C13.9273 3.99136 13.8701 3.83916 13.7555 3.71723C13.641 3.59534 13.5073 3.53436 13.3545 3.53436C13.2016 3.53436 13.0816 3.58303 12.9944 3.68043L11.5869 5.25212L9.88477 3.35204C9.75393 3.20557 9.586 3.08954 9.39382 3.13232L5.68832 3.95715C5.52804 3.99283 5.41073 4.14394 5.29088 4.2904L4.46779 5.70876C4.33694 5.8303 4.27147 5.9825 4.2715 6.16537C4.27148 6.33598 4.32599 6.48216 4.43507 6.60389C4.54408 6.72558 4.67504 6.78645 4.8279 6.78645C4.99136 6.78645 5.13324 6.7134 5.25342 6.56733L6.20913 4.96665L7.7618 4.70354L4.54083 9.70385L1.91634 8.95036C1.70892 8.95036 1.51965 8.99225 1.37778 9.13852C1.23597 9.28475 1.09186 9.41443 1.09186 9.64563C1.09186 9.86491 1.18225 10.0553 1.32406 10.2075C1.4659 10.3597 1.60642 10.4412 1.7974 10.4903Z" fill="#008C0D"/>
</svg>
