<svg width="14" height="14" viewBox="0 0 14 14" fill="none" xmlns="http://www.w3.org/2000/svg">
<path d="M5 1L1 4.5L5 8V6H9V8L13 4.5L9 1V3H5V1Z" fill="#0092DA"/>
<path d="M0 8.99994C0.7479 8.99994 2.134 10.9999 2.8002 10.9999C3.42442 10.9999 4.8945 8.99994 5.6004 8.99994C6.3063 8.99994 7.7776 10.9999 8.4006 10.9999C9.14966 10.9999 10.5299 8.99994 11.1997 8.99994C11.9476 8.97094 13.4189 10.9999 13.9999 10.9999V13.9999C13.2952 13.9999 11.8647 11.9999 11.1997 11.9999C10.5358 11.9999 9.1054 13.9999 8.4006 13.9999C7.73088 13.9999 6.3063 11.9999 5.6004 11.9999C4.88984 11.9999 3.4664 13.9999 2.8002 13.9999C2.05347 13.9999 0.707 11.9999 0 11.9999L0 8.99994Z" fill="#0092DA"/>
</svg>
