<svg width="14" height="14" viewBox="0 0 14 14" fill="none" xmlns="http://www.w3.org/2000/svg">
<g clip-path="url(#clip0)">
<path d="M1 0.999756V2.99976H6V0.999756H5V1.99976H4V0.999756H3V1.99976H2V0.999756H1ZM8 0.999756V2.99976H13V0.999756H12V1.99976H11V0.999756H10V1.99976H9V0.999756H8ZM1 3.99976V9.99976H13V3.99976H8V5.99976H6V3.99976H1ZM3 5.99976H4V6.99976L3.5 7.99976L3 6.99976V5.99976ZM10 5.99976H11V6.99976L10.5 7.99976L10 6.99976V5.99976ZM1 10.9998L0 13.9998H14L13 10.9998H1Z" fill="#734A08"/>
</g>
<defs>
<clipPath id="clip0">
<rect width="14" height="14" fill="white"/>
</clipPath>
</defs>
</svg>
