<svg width="14" height="14" viewBox="0 0 14 14" fill="none" xmlns="http://www.w3.org/2000/svg">
<g clip-path="url(#clip0)">
<path fill-rule="evenodd" clip-rule="evenodd" d="M0 11H14C13 13 9 14 7 14C5 14 1.30148 13 0 11ZM9 0.0609606C8 0.0609606 7.32485 1.09606 6.98828 1.87465C6.65071 1.05804 6 0.0152588 5 0.0152588C3.49963 0.0152588 3 1.93909 3 2.93909C3 3.93909 4 3.61374 4 2.96956C5 0.969557 6 1.35555 6.24219 4.51722V4.86683C5.85919 4.67762 5.4302 4.55824 5 4.55824C3.53294 4.55824 2.25 5.59072 2.25 7.55824V8.55824C2.25 9.55824 3.75 9.55824 3.75 8.55824V7.55824C3.75 6.59228 4.43302 6.05824 5 6.05824C5.54947 6.05824 6.20204 6.59442 6.24219 7.47621V7.51723V10C7 9.42185 7 9.40583 7.72694 10L7.75 7.55824V7.43324C7.79105 6.55263 8.44313 6.01722 8.99219 6.01722C9.55917 6.01722 10.2422 6.55126 10.2422 7.51722V8.51722C10.2422 9.51722 11.7422 9.51722 11.7422 8.51722V7.51722C11.7422 5.5497 10.4592 4.51722 8.99219 4.51722C8.56177 4.51722 8.13315 4.63839 7.75 4.82777C7.75 4.73793 7.73329 4.64652 7.75 4.55824C8 1.81403 9 1.00002 10 3.00002C10 3.52777 11 3.92386 11 2.92385C11 1.92385 10.5004 0.0609603 9 0.0609606V0.0609606Z" fill="#AAD3DF"/>
</g>
<defs>
<clipPath id="clip0">
<rect width="14" height="14" fill="white"/>
</clipPath>
</defs>
</svg>
