<svg width="14" height="14" viewBox="0 0 14 14" fill="none" xmlns="http://www.w3.org/2000/svg">
<path d="M10.7812 0L10.1562 0.71875L11.3438 1.8125C11.38 1.84871 11.4293 1.89719 11.4688 1.9375L11.2188 2.21875C10.8185 2.61897 11.1057 3.13693 11.25 3.28125L12 4.03125V10C12 11 11.6079 11 11.5 11C11.3921 11 11 11 11 10V6C11 4.71909 10 4 9 4V2C9 1.4487 8.57527 1 8 1H2C1.40076 1 1 1.42473 1 2V14H9V5C9 5 10 5 10 6V10C10 12 11.2397 12 11.5 12C11.7757 12 13 12 13 10V3C13 2 12.714 1.79078 12.375 1.46875L10.7812 0ZM2 3H8V6H2V3Z" fill="#0092da"/>
</svg>
