<svg width="14" height="14" viewBox="0 0 14 14" fill="none" xmlns="http://www.w3.org/2000/svg">
<path d="M12 0C9.57761 1.45344 8.73442 2.00626 7.56445 3.08203C7.88523 3.1765 8.1772 3.34989 8.41365 3.58635C8.65011 3.8228 8.8235 4.11477 8.91797 4.43555C10.0003 3.26075 10.5361 2.43985 12 0ZM3.71875 3.6543C2.79742 3.67647 1.76043 3.79003 0 4C2.60163 5.01281 3.56118 5.34465 5.09766 5.60938C5.03377 5.41253 5.00083 5.20695 5 5C5.00033 4.53508 5.16263 4.08479 5.45898 3.72656C4.84327 3.67274 4.28232 3.64074 3.71875 3.6543ZM7 4C6.73478 4 6.48043 4.10536 6.29289 4.29289C6.10536 4.48043 6 4.73478 6 5C6 5.26522 6.10536 5.51957 6.29289 5.70711C6.48043 5.89464 6.73478 6 7 6C7.26522 6 7.51957 5.89464 7.70711 5.70711C7.89464 5.51957 8 5.26522 8 5C8 4.73478 7.89464 4.48043 7.70711 4.29289C7.51957 4.10536 7.26522 4 7 4V4ZM8.91992 5.55859C8.79901 5.97427 8.54649 6.3395 8.20029 6.59941C7.85409 6.85933 7.43291 6.99989 7 7C6.75614 6.99892 6.51454 6.95324 6.28711 6.86523L5.82812 13H4V14H10V13H8L7.66797 7.00977C8.80556 8.05153 9.5933 8.5528 12 10C10.5376 7.55722 10.0027 6.73573 8.91992 5.55859Z" fill="#666666"/>
</svg>
