<svg width="20" height="20" viewBox="0 0 20 20" fill="none" xmlns="http://www.w3.org/2000/svg">
<path d="M10.2557 1.25L9.5556 2.26683C9.38253 2.50611 9.42475 2.71085 9.67784 2.88359C9.91711 3.0296 10.1215 2.99003 10.2946 2.76413L10.6947 2.16681L16.9234 6.25357L11.8337 7.17038C11.6473 7.21014 11.4968 7.30644 11.3837 7.45932C11.2705 7.61222 11.2415 7.77276 11.2948 7.94551L12.3922 12.2323L8.79715 17.5943C8.73052 17.7135 8.69713 17.8391 8.69713 17.9721C8.69713 18.1846 8.77457 18.3693 8.92772 18.5222C9.08087 18.6751 9.26493 18.75 9.47781 18.75C9.7573 18.75 9.98263 18.6184 10.1557 18.3527L13.9091 12.7102L14.1091 13.4881L13.5507 17.7137C13.5239 17.9262 13.5697 18.117 13.6896 18.2833C13.8094 18.4495 13.9768 18.5519 14.1897 18.5916C14.4029 18.6314 14.5991 18.5872 14.7786 18.4611C14.9582 18.3349 15.0602 18.1656 15.087 17.9526L15.6677 13.627C15.681 13.4806 15.6657 13.3279 15.626 13.1686L14.348 8.08719L17.6847 7.4871C17.8577 7.46074 17.9977 7.37329 18.1042 7.22039C18.2106 7.06751 18.2504 6.90419 18.2236 6.73142C18.1838 6.55867 18.0832 6.41211 17.9236 6.29247L10.2557 1.25ZM1.76825 1.65006V2.00845V18.3972H2.89343V6.40082L8.44987 4.1449L2.89343 2.08069V1.65006H1.76825ZM11.592 4.19769C11.2329 4.1977 10.9283 4.32124 10.6752 4.56719C10.4221 4.81317 10.2946 5.11678 10.2946 5.47567C10.2946 5.83418 10.4221 6.13542 10.6752 6.38137C10.9283 6.62734 11.2329 6.75088 11.592 6.75087C11.9515 6.75088 12.2631 6.62733 12.5227 6.38137C12.7823 6.13542 12.9117 5.83418 12.9117 5.47567C12.9117 5.11678 12.7823 4.81317 12.5227 4.56719C12.2631 4.32124 11.9515 4.1977 11.592 4.19769Z" fill="#008C0D"/>
</svg>
