<svg width="14" height="14" viewBox="0 0 14 14" fill="none" xmlns="http://www.w3.org/2000/svg">
<path d="M7.68114 0.384521C7.10749 0.958178 6.64386 1.7807 6.5 2.49999C6.42138 2.89309 6.38606 3.82555 6.375 4.28111C6.58305 4.4032 6.79119 4.4995 7 4.65611C7.22114 4.49025 7.43601 4.37707 7.65625 4.24986C7.67379 3.85516 7.6944 3.02797 7.75 2.74999C7.85614 2.21927 8.1298 1.68586 8.55614 1.25952L7.68114 0.384521ZM0.5 0.999988C1.03592 2.99999 3.35375 3.99999 5.5 2.99999C4.59672 0.999988 3 0.362058 0.5 0.999988ZM2 5.24999C1.38559 5.89406 1 6.99999 1 7.99999C1 9.99999 3 13.5 5 13.5C5.56356 13.5 6 13.25 7 12.75C8 13.25 8.43644 13.5 9 13.5C11 13.5 13 9.99999 13 7.99999C13 6.99999 12.6737 5.89406 12 5.24999C10.9778 4.27274 9 4.24974 7 5.74974C5 4.33609 3 4.14459 2 5.24999Z" fill="#AC39AC"/>
</svg>
