<svg width="14" height="14" viewBox="0 0 14 14" fill="none" xmlns="http://www.w3.org/2000/svg">
<path opacity="0.9" d="M7 0.853271L1 4.99996H3V13H6V7.99996H8V13H11V4.99996H13L7 0.853271Z" fill="#0092DA" fill-opacity="0.3"/>
<path d="M0.5 6C0.223 6 0 6.223 0 6.5V7V11V12V12.5V14H1V12.5V12H13V13.5V14H13.5H14V13.5V12V11V9V8.5C14 8.223 13.777 8 13.5 8C13.223 8 13 8.223 13 8.5V9V11H1V7V6.5C1 6.223 0.777 6 0.5 6V6ZM3.5 7C2.67157 7 2 7.67157 2 8.5C2 9.32843 2.67157 10 3.5 10C4.32843 10 5 9.32843 5 8.5C5 7.67157 4.32843 7 3.5 7V7ZM6 8V10H12C12 9 10.9638 8 10 8H6Z" fill="#0092DA"/>
</svg>
