<svg width="14" height="14" viewBox="0 0 14 14" fill="none" xmlns="http://www.w3.org/2000/svg">
<path d="M4 0V9.53125C3.58026 9.21241 3.06454 9 2.5 9C1.12521 9 0 10.1252 0 11.5C0 12.8748 1.12521 14 2.5 14C3.70294 14 4.70333 13.1364 4.9375 12H5.0625C5.29667 13.1364 6.29706 14 7.5 14C8.87479 14 10 12.8748 10 11.5C10 10.1252 8.87479 9 7.5 9C6.93546 9 6.41974 9.21241 6 9.53125V0H4ZM8 0V2H12V3H8V4H12V5H8V6H12V7H8V8H12V14H14V2C14 1 13 0 12 0H8ZM2.5 10C3.33435 10 4 10.6657 4 11.5C4 12.3343 3.33435 13 2.5 13C1.66565 13 1 12.3343 1 11.5C1 10.6657 1.66565 10 2.5 10ZM7.5 10C8.33435 10 9 10.6657 9 11.5C9 12.3343 8.33435 13 7.5 13C6.66565 13 6 12.3343 6 11.5C6 10.6657 6.66565 10 7.5 10Z" fill="#AC39AC"/>
</svg>
