<svg width="14" height="14" viewBox="0 0 14 14" fill="none" xmlns="http://www.w3.org/2000/svg">
<path fill-rule="evenodd" clip-rule="evenodd" d="M8.51184 9.53495C8.51184 9.93277 8.3538 10.3143 8.0725 10.5956C7.79119 10.8769 7.40966 11.0349 7.01184 11.0349C6.61401 11.0349 6.23248 10.8769 5.95118 10.5956C5.66987 10.3143 5.51184 9.93277 5.51184 9.53495C5.51184 9.13712 5.66987 8.75559 5.95118 8.47429C6.23248 8.19298 6.61401 8.03495 7.01184 8.03495C7.40966 8.03495 7.79119 8.19298 8.0725 8.47429C8.3538 8.75559 8.51184 9.13712 8.51184 9.53495V9.53495ZM2 0V14H12V0H2ZM7.07031 0.96875C8.17488 0.96875 9.07031 1.86418 9.07031 2.96875C9.07031 4.07332 8.17488 4.96875 7.07031 4.96875C5.96574 4.96875 5.07031 4.07332 5.07031 2.96875C5.07031 1.86418 5.96574 0.96875 7.07031 0.96875ZM7.00977 5.98828C7.46939 5.98828 7.92452 6.07881 8.34916 6.2547C8.7738 6.43059 9.15963 6.6884 9.48464 7.01341C9.80964 7.33841 10.0675 7.72425 10.2433 8.14889C10.4192 8.57353 10.5098 9.02865 10.5098 9.48828C10.5098 9.94791 10.4192 10.403 10.2433 10.8277C10.0675 11.2523 9.80964 11.6381 9.48464 11.9632C9.15963 12.2882 8.7738 12.546 8.34916 12.7219C7.92452 12.8978 7.46939 12.9883 7.00977 12.9883C6.08151 12.9883 5.19127 12.6195 4.53489 11.9632C3.87851 11.3068 3.50977 10.4165 3.50977 9.48828C3.50977 8.56002 3.87851 7.66978 4.53489 7.01341C5.19127 6.35703 6.08151 5.98828 7.00977 5.98828V5.98828Z" fill="#AC39AC"/>
</svg>
