<?xml version="1.0" encoding="UTF-8" standalone="no"?>
<!-- Created with Inkscape (http://www.inkscape.org/) -->

<svg
   xmlns="http://www.w3.org/2000/svg"
   version="1.1"
   width="14"
   height="14"
   viewBox="0 0 14 14">
  <rect
     width="14"
     height="14"
     x="0"
     y="0"
     id="canvas"
     style="fill:none;stroke:none;visibility:hidden" />
  <path
     d="m 6,1.9999996 c 0,0 1.598346,2.8202261 4,0.5 0.330985,0.5 1,1.5 1,1.5 0,0 -3.443372,2.3559064 -5,-2 z m -5,2 c 0.288621,0.6087858 0.66053,1.357316 1,2 0.504453,-1 2,-1 2,-1 1,0 1.73386,0.3918109 1.73386,1.0271271 C 5.73386,6.6624429 5,6.9999996 4,6.9999996 c 0,0 0,1 0,1.4999997 1.310854,-0.248718 2.002635,0.789559 1.682148,1.5069877 C 5.074951,11.366339 1.503926,11.526643 0,8.9999993 c 0,3.9878227 3.441492,3.9999997 4,3.9999997 2,0 3,-2 3,-3.9999997 0.520803,0.543036 1.354855,0.545623 2,0 0.904803,-0.765275 1.258697,-2.0101201 2.5,-1.9999997 1.513712,0.01234 1.5,2.9999997 0.5,3.9999994 -1,1 -3.394042,0.644701 -4,-0.9999997 0,0.9999997 0,3.0013527 3,2.9999997 3,-0.0014 3.608129,-3.3839527 2.5,-5.9999994 C 12.815126,5.3831651 11.532891,4.9499037 10.150024,5.3783037 9.081908,5.7092038 9.130789,6.1826537 8.5,6.9999996 c -0.329439,0.395708 -0.5,1 -1.5,1 -0.347119,0 -0.771677,-0.274482 -1,-0.5 1.23814,-0.8848373 1.0558,-2.5870484 0,-3.5 -1.387852,-1.2000773 -3.840132,-0.9547373 -5,0 z m 6,-2 1,-0.99999999 1,0.99999999 -1,1 z"
     id="hinduist" />
</svg>
