<svg width="14" height="14" viewBox="0 0 14 14" fill="none" xmlns="http://www.w3.org/2000/svg">
<g clip-path="url(#clip0)">
<path d="M3.5 1C2.67157 1 2 1.67157 2 2.5C2 3.32843 2.67157 4 3.5 4C4.32843 4 5 3.32843 5 2.5C5 1.67157 4.32843 1 3.5 1ZM6 2V4H12C12 3 10.9638 2 10 2H6ZM3.5 7C2.67157 7 2 7.67157 2 8.5C2 9.32843 2.67157 10 3.5 10C4.32843 10 5 9.32843 5 8.5C5 7.67157 4.32843 7 3.5 7ZM6 8V10L12 10.0129C12 9 10.9638 8 10 8H6Z" fill="#0092DA"/>
<path d="M1 1H0V14H1V1Z" fill="#0092DA"/>
<path d="M1 0.5C1 0.223858 0.776142 0 0.5 0C0.223858 0 0 0.223858 0 0.5V12.5C0 12.7761 0.223858 13 0.5 13C0.776142 13 1 12.7761 1 12.5V0.5Z" fill="#0092DA"/>
<path d="M14 4H13V14H14V4Z" fill="#0092DA"/>
<path d="M14 2.5C14 2.22386 13.7761 2 13.5 2C13.2239 2 13 2.22386 13 2.5V13.5C13 13.7761 13.2239 14 13.5 14C13.7761 14 14 13.7761 14 13.5V2.5Z" fill="#0092DA"/>
<path d="M13 6V5L0 5V6L13 6Z" fill="#0092DA"/>
<path d="M13 12V11H0V12H13Z" fill="#0092DA"/>
</g>
<defs>
<clipPath id="clip0">
<rect width="14" height="14" fill="white"/>
</clipPath>
</defs>
</svg>
