<svg width="14" height="14" viewBox="0 0 14 14" fill="none" xmlns="http://www.w3.org/2000/svg">
<g clip-path="url(#clip0)">
<path d="M7.76135 9.67775C7.44104 10.0416 7.08131 10.3351 6.68215 10.5582C6.28793 10.7765 5.89124 10.8857 5.49208 10.8857C5.0535 10.8857 4.62724 10.7595 4.21331 10.5073C3.79937 10.255 3.46181 9.86694 3.20063 9.34303C2.94439 8.81913 2.81626 8.24428 2.81626 7.6185C2.81626 6.84719 3.01584 6.07588 3.415 5.30457C3.81908 4.52841 4.31925 3.94629 4.91552 3.55821C5.51179 3.17013 6.09081 2.97609 6.65259 2.97609C7.08131 2.97609 7.49032 3.08766 7.87962 3.31081C8.26892 3.52911 8.60401 3.86383 8.8849 4.31497L9.13622 3.18711H10.4593L9.39493 8.06965C9.2471 8.74879 9.17318 9.12474 9.17318 9.1975C9.17318 9.32848 9.22246 9.44248 9.32102 9.5395C9.4245 9.63167 9.5477 9.67775 9.6906 9.67775C9.95178 9.67775 10.2943 9.5298 10.7181 9.23389C11.2798 8.84581 11.7233 8.32675 12.0486 7.67671C12.3787 7.02183 12.5438 6.34754 12.5438 5.65385C12.5438 4.84373 12.3319 4.08697 11.9081 3.38358C11.4893 2.68018 10.861 2.11746 10.0232 1.69543C9.19043 1.27339 8.26892 1.06237 7.25871 1.06237C6.1056 1.06237 5.05104 1.32918 4.09504 1.86279C3.14396 2.39155 2.40479 3.15315 1.87751 4.14761C1.35516 5.13721 1.09398 6.19958 1.09398 7.33472C1.09398 8.52322 1.35516 9.54678 1.87751 10.4054C2.40479 11.264 3.16367 11.8971 4.15417 12.3046C5.1496 12.7169 6.25097 12.9231 7.45829 12.9231C8.74938 12.9231 9.83105 12.7096 10.7033 12.2827C11.5755 11.8559 12.2284 11.3368 12.6621 10.7256H14C13.7487 11.2349 13.3175 11.754 12.7064 12.2827C12.0954 12.8115 11.3685 13.2287 10.5259 13.5343C9.68321 13.8448 8.66808 14 7.48047 14C6.38648 14 5.37628 13.8617 4.44984 13.5852C3.52834 13.3087 2.74234 12.8915 2.09187 12.3337C1.44139 11.7807 0.951074 11.1428 0.620908 10.42C0.206969 9.50312 0 8.51351 0 7.45114C0 6.2675 0.246392 5.13964 0.739176 4.06757C1.34037 2.75295 2.19289 1.74636 3.29673 1.04782C4.40549 0.349272 5.74833 0 7.32524 0C8.54734 0 9.64379 0.247401 10.6146 0.742204C11.5903 1.23216 12.359 1.96466 12.9208 2.93971C13.3988 3.77893 13.6378 4.69092 13.6378 5.67568C13.6378 7.08247 13.1352 8.3316 12.1299 9.42308C11.233 10.403 10.2524 10.8929 9.18796 10.8929C8.84794 10.8929 8.57198 10.842 8.36009 10.7401C8.15312 10.6383 8.00035 10.4927 7.9018 10.3035C7.83773 10.1823 7.79092 9.97367 7.76135 9.67775ZM4.18374 7.70582C4.18374 8.37041 4.34389 8.88704 4.6642 9.25572C4.98451 9.62439 5.35164 9.80873 5.76558 9.80873C6.04153 9.80873 6.33228 9.72869 6.6378 9.56861C6.94333 9.40367 7.23407 9.16112 7.51003 8.84096C7.79092 8.52079 8.02006 8.11573 8.19747 7.62578C8.37487 7.13098 8.46357 6.63617 8.46357 6.14137C8.46357 5.48164 8.29602 4.96985 7.96093 4.60603C7.63076 4.2422 7.22668 4.06029 6.74868 4.06029C6.4333 4.06029 6.13516 4.14033 5.85428 4.30042C5.57832 4.45565 5.30975 4.7079 5.04857 5.05717C4.7874 5.40644 4.57797 5.83091 4.42027 6.33056C4.26258 6.83021 4.18374 7.28863 4.18374 7.70582Z" fill="#734A08"/>
</g>
<defs>
<clipPath id="clip0">
<rect width="14" height="14" fill="white"/>
</clipPath>
</defs>
</svg>
