<?xml version="1.0" encoding="UTF-8" standalone="no"?>
<svg
   xmlns:dc="http://purl.org/dc/elements/1.1/"
   xmlns:cc="http://creativecommons.org/ns#"
   xmlns:rdf="http://www.w3.org/1999/02/22-rdf-syntax-ns#"
   xmlns:svg="http://www.w3.org/2000/svg"
   xmlns="http://www.w3.org/2000/svg"
   id="svg4"
   viewBox="0 0 14 14"
   height="14"
   width="14"
   version="1.1">
  <metadata
     id="metadata10">
    <rdf:RDF>
      <cc:Work
         rdf:about="">
        <dc:format>image/svg+xml</dc:format>
        <dc:type
           rdf:resource="http://purl.org/dc/dcmitype/StillImage" />
        <dc:title></dc:title>
      </cc:Work>
    </rdf:RDF>
  </metadata>
  <defs
     id="defs8" />
  <rect
     style="fill:none;stroke:none;visibility:hidden"
     id="canvas"
     y="0"
     x="0"
     height="14"
     width="14" />
  <path
     style="stroke-width:0.87040788"
     id="jewish"
     d="M 6.9999998,0 4.9994361,3.5 H 1 L 3.0005636,7 1,10.5 H 4.9994361 L 6.9999998,14 9.0005635,10.5 H 12.999999 L 10.999436,7 13,3.5 H 9.0005635 Z m 0,1.751709 L 7.9994361,3.5 H 6.0005635 Z M 2.501691,4.375 H 4.5005635 L 3.5011273,6.123291 Z m 2.9999999,0 H 8.4983087 L 9.9983093,7 8.4983087,9.625 H 5.5016909 L 4.001691,7 Z m 3.9977453,0 H 11.498308 L 10.498873,6.123291 Z M 3.5011273,7.876709 4.5005635,9.625 H 2.501691 Z m 6.9977457,0 L 11.498308,9.625 H 9.4994362 Z M 6.0005635,10.5 h 1.9988726 l -0.9994363,1.748291 z" />
</svg>
