<svg width="14" height="14" viewBox="0 0 14 14" fill="none" xmlns="http://www.w3.org/2000/svg">
<path fill-rule="evenodd" clip-rule="evenodd" d="M5 1L4.40039 2H1V3H3.79883L3.19922 4H1V5H2.59961L2 6H3L3.59961 5H7V4H4.19922L4.79883 3H7V2H5.40039L6 1H5ZM7 3V4H8C9.06087 4 10.0783 4.42143 10.8284 5.17157C11.5786 5.92172 12 6.93913 12 8C12 9.06087 11.5786 10.0783 10.8284 10.8284C10.0783 11.5786 9.06087 12 8 12C7.29872 11.9991 6.61 11.8139 6.0029 11.4628C5.3958 11.1118 4.89165 10.6073 4.54102 10H3.41992C3.80891 10.8913 4.44935 11.6498 5.26284 12.1826C6.07633 12.7155 7.02754 12.9995 8 13C9.32608 13 10.5979 12.4732 11.5355 11.5355C12.4732 10.5979 13 9.32608 13 8C13 6.67392 12.4732 5.40215 11.5355 4.46447C10.5979 3.52678 9.32608 3 8 3H7Z" fill="#3F3F3F"/>
</svg>
