<svg width="128" height="128" viewBox="0 0 128 128" fill="none" xmlns="http://www.w3.org/2000/svg">
<path d="M76.5 0V1H77V0H76.5ZM79 0V1H79.5V0H79ZM57.5 2L56.5 5V5.5H57.5V7H58V5.5H59V5L58 2H57.5ZM60.25 2C59.9409 2.00113 59.6431 2.13965 59.4141 2.38882C59.1851 2.63799 59.0412 2.98013 59.0101 3.34918C58.9791 3.71823 59.063 4.08801 59.2458 4.38712C59.4286 4.68622 59.6973 4.89344 60 4.96875V7H60.5V4.96777C60.8018 4.89149 61.0695 4.684 61.2515 4.38519C61.4335 4.08639 61.5171 3.71737 61.4861 3.34911C61.455 2.98086 61.3116 2.63937 61.0835 2.39032C60.8553 2.14127 60.5584 2.00225 60.25 2V2ZM57.75 2.5L58.5 5H57L57.75 2.5ZM60.25 2.5C60.4489 2.5 60.6397 2.60536 60.7803 2.79289C60.921 2.98043 61 3.23478 61 3.5C61 3.76522 60.921 4.01957 60.7803 4.20711C60.6397 4.39464 60.4489 4.5 60.25 4.5C60.0511 4.5 59.8603 4.39464 59.7197 4.20711C59.579 4.01957 59.5 3.76522 59.5 3.5C59.5 3.23478 59.579 2.98043 59.7197 2.79289C59.8603 2.60536 60.0511 2.5 60.25 2.5ZM24.5 3L23.5 6V6.5H24.5V8H25V6.5H26V6L25 3H24.5ZM27.25 3C26.9409 3.00113 26.6431 3.13965 26.4141 3.38882C26.1851 3.63799 26.0412 3.98013 26.0101 4.34918C25.9791 4.71823 26.063 5.08801 26.2458 5.38712C26.4286 5.68622 26.6973 5.89344 27 5.96875V8H27.5V5.96777C27.8018 5.89149 28.0695 5.684 28.2515 5.38519C28.4335 5.08639 28.5171 4.71737 28.4861 4.34911C28.455 3.98086 28.3116 3.63937 28.0835 3.39032C27.8553 3.14127 27.5584 3.00225 27.25 3ZM24.75 3.5L25.5 6H24L24.75 3.5ZM27.25 3.5C27.4489 3.5 27.6397 3.60536 27.7803 3.79289C27.921 3.98043 28 4.23478 28 4.5C28 4.76522 27.921 5.01957 27.7803 5.20711C27.6397 5.39464 27.4489 5.5 27.25 5.5C27.0511 5.5 26.8603 5.39464 26.7197 5.20711C26.579 5.01957 26.5 4.76522 26.5 4.5C26.5 4.23478 26.579 3.98043 26.7197 3.79289C26.8603 3.60536 27.0511 3.5 27.25 3.5V3.5ZM6 5.5L5 8.5V9H6V10.5H6.5V9H7.5V8.5L6.5 5.5H6ZM8.75 5.5C8.44089 5.50113 8.1431 5.63965 7.91411 5.88882C7.68513 6.13799 7.54121 6.48013 7.51013 6.84918C7.47905 7.21823 7.56303 7.58801 7.74584 7.88712C7.92865 8.18622 8.19733 8.39344 8.5 8.46875V10.5H9V8.46777C9.30182 8.39149 9.56949 8.184 9.75151 7.88519C9.93354 7.58639 10.0171 7.21737 9.98606 6.84911C9.95504 6.48086 9.81165 6.13937 9.58347 5.89032C9.35529 5.64127 9.05844 5.50225 8.75 5.5ZM6.25 6L7 8.5H5.5L6.25 6ZM8.75 6C8.94891 6 9.13968 6.10536 9.28033 6.29289C9.42098 6.48043 9.5 6.73478 9.5 7C9.5 7.26522 9.42098 7.51957 9.28033 7.70711C9.13968 7.89464 8.94891 8 8.75 8C8.55109 8 8.36032 7.89464 8.21967 7.70711C8.07902 7.51957 8 7.26522 8 7C8 6.73478 8.07902 6.48043 8.21967 6.29289C8.36032 6.10536 8.55109 6 8.75 6V6ZM107.25 6C106.941 6.00113 106.643 6.13965 106.414 6.38882C106.185 6.63799 106.041 6.98013 106.01 7.34918C105.979 7.71823 106.063 8.08801 106.246 8.38712C106.429 8.68622 106.697 8.89344 107 8.96875V11H107.5V8.96777C107.802 8.89149 108.069 8.684 108.252 8.38519C108.434 8.08639 108.517 7.71737 108.486 7.34911C108.455 6.98086 108.312 6.63937 108.083 6.39032C107.855 6.14127 107.558 6.00225 107.25 6V6ZM109.5 6L108.5 9V9.5H109.5V11H110V9.5H111V9L110 6H109.5ZM107.25 6.5C107.449 6.5 107.64 6.60536 107.78 6.79289C107.921 6.98043 108 7.23478 108 7.5C108 7.76522 107.921 8.01957 107.78 8.20711C107.64 8.39464 107.449 8.5 107.25 8.5C107.051 8.5 106.86 8.39464 106.72 8.20711C106.579 8.01957 106.5 7.76522 106.5 7.5C106.5 7.23478 106.579 6.98043 106.72 6.79289C106.86 6.60536 107.051 6.5 107.25 6.5V6.5ZM109.75 6.5L110.5 9H109L109.75 6.5ZM88.75 9C88.4409 9.00113 88.1431 9.13965 87.9141 9.38882C87.6851 9.63799 87.5412 9.98013 87.5101 10.3492C87.4791 10.7182 87.563 11.088 87.7458 11.3871C87.9286 11.6862 88.1973 11.8934 88.5 11.9688V14H89V11.9678C89.3018 11.8915 89.5695 11.684 89.7515 11.3852C89.9335 11.0864 90.0171 10.7174 89.9861 10.3491C89.955 9.98086 89.8117 9.63937 89.5835 9.39032C89.3553 9.14127 89.0584 9.00225 88.75 9V9ZM91 9L90 12V12.5H91V14H91.5V12.5H92.5V12L91.5 9H91ZM37.5 9.5L36.5 12.5V13H37.5V14.5H38V13H39V12.5L38 9.5H37.5ZM40.25 9.5C39.9409 9.50113 39.6431 9.63965 39.4141 9.88882C39.1851 10.138 39.0412 10.4801 39.0101 10.8492C38.9791 11.2182 39.063 11.588 39.2458 11.8871C39.4286 12.1862 39.6973 12.3934 40 12.4688V14.5H40.5V12.4678C40.8018 12.3915 41.0695 12.184 41.2515 11.8852C41.4335 11.5864 41.5171 11.2174 41.4861 10.8491C41.455 10.4809 41.3116 10.1394 41.0835 9.89032C40.8553 9.64127 40.5584 9.50225 40.25 9.5ZM88.75 9.5C88.9489 9.5 89.1397 9.60536 89.2803 9.79289C89.421 9.98043 89.5 10.2348 89.5 10.5C89.5 10.7652 89.421 11.0196 89.2803 11.2071C89.1397 11.3946 88.9489 11.5 88.75 11.5C88.5511 11.5 88.3603 11.3946 88.2197 11.2071C88.079 11.0196 88 10.7652 88 10.5C88 10.2348 88.079 9.98043 88.2197 9.79289C88.3603 9.60536 88.5511 9.5 88.75 9.5ZM91.25 9.5L92 12H90.5L91.25 9.5ZM37.75 10L38.5 12.5H37L37.75 10ZM40.25 10C40.4489 10 40.6397 10.1054 40.7803 10.2929C40.921 10.4804 41 10.7348 41 11C41 11.2652 40.921 11.5196 40.7803 11.7071C40.6397 11.8946 40.4489 12 40.25 12C40.0511 12 39.8603 11.8946 39.7197 11.7071C39.579 11.5196 39.5 11.2652 39.5 11C39.5 10.7348 39.579 10.4804 39.7197 10.2929C39.8603 10.1054 40.0511 10 40.25 10ZM68.25 11C67.9409 11.0011 67.6431 11.1396 67.4141 11.3888C67.1851 11.638 67.0412 11.9801 67.0101 12.3492C66.9791 12.7182 67.063 13.088 67.2458 13.3871C67.4286 13.6862 67.6973 13.8934 68 13.9688V16H68.5V13.9678C68.8018 13.8915 69.0695 13.684 69.2515 13.3852C69.4335 13.0864 69.5171 12.7174 69.4861 12.3491C69.455 11.9809 69.3117 11.6394 69.0835 11.3903C68.8553 11.1413 68.5584 11.0023 68.25 11V11ZM70.5 11L69.5 14V14.5H70.5V16H71V14.5H72V14L71 11H70.5ZM68.25 11.5C68.4489 11.5 68.6397 11.6054 68.7803 11.7929C68.921 11.9804 69 12.2348 69 12.5C69 12.7652 68.921 13.0196 68.7803 13.2071C68.6397 13.3946 68.4489 13.5 68.25 13.5C68.0511 13.5 67.8603 13.3946 67.7197 13.2071C67.579 13.0196 67.5 12.7652 67.5 12.5C67.5 12.2348 67.579 11.9804 67.7197 11.7929C67.8603 11.6054 68.0511 11.5 68.25 11.5ZM70.75 11.5L71.5 14H70L70.75 11.5ZM120.25 14C119.941 14.0011 119.643 14.1396 119.414 14.3888C119.185 14.638 119.041 14.9801 119.01 15.3492C118.979 15.7182 119.063 16.088 119.246 16.3871C119.429 16.6862 119.697 16.8934 120 16.9688V19H120.5V16.9678C120.802 16.8915 121.069 16.684 121.252 16.3852C121.434 16.0864 121.517 15.7174 121.486 15.3491C121.455 14.9809 121.312 14.6394 121.083 14.3903C120.855 14.1413 120.558 14.0023 120.25 14V14ZM122.5 14L121.5 17V17.5H122.5V19H123V17.5H124V17L123 14H122.5ZM120.25 14.5C120.449 14.5 120.64 14.6054 120.78 14.7929C120.921 14.9804 121 15.2348 121 15.5C121 15.7652 120.921 16.0196 120.78 16.2071C120.64 16.3946 120.449 16.5 120.25 16.5C120.051 16.5 119.86 16.3946 119.72 16.2071C119.579 16.0196 119.5 15.7652 119.5 15.5C119.5 15.2348 119.579 14.9804 119.72 14.7929C119.86 14.6054 120.051 14.5 120.25 14.5V14.5ZM122.75 14.5L123.5 17H122L122.75 14.5ZM22.25 19.5C21.9409 19.5011 21.6431 19.6396 21.4141 19.8888C21.1851 20.138 21.0412 20.4801 21.0101 20.8492C20.9791 21.2182 21.063 21.588 21.2458 21.8871C21.4286 22.1862 21.6973 22.3934 22 22.4688V24.5H22.5V22.4678C22.8018 22.3915 23.0695 22.184 23.2515 21.8852C23.4335 21.5864 23.5171 21.2174 23.4861 20.8491C23.455 20.4809 23.3116 20.1394 23.0835 19.8903C22.8553 19.6413 22.5584 19.5023 22.25 19.5ZM24.5 19.5L23.5 22.5V23H24.5V24.5H25V23H26V22.5L25 19.5H24.5ZM22.25 20C22.4489 20 22.6397 20.1054 22.7803 20.2929C22.921 20.4804 23 20.7348 23 21C23 21.2652 22.921 21.5196 22.7803 21.7071C22.6397 21.8946 22.4489 22 22.25 22C22.0511 22 21.8603 21.8946 21.7197 21.7071C21.579 21.5196 21.5 21.2652 21.5 21C21.5 20.7348 21.579 20.4804 21.7197 20.2929C21.8603 20.1054 22.0511 20 22.25 20V20ZM24.75 20L25.5 22.5H24L24.75 20ZM56.25 20.5C55.9409 20.5011 55.6431 20.6396 55.4141 20.8888C55.1851 21.138 55.0412 21.4801 55.0101 21.8492C54.9791 22.2182 55.063 22.588 55.2458 22.8871C55.4286 23.1862 55.6973 23.3934 56 23.4688V25.5H56.5V23.4678C56.8018 23.3915 57.0695 23.184 57.2515 22.8852C57.4335 22.5864 57.5171 22.2174 57.4861 21.8491C57.455 21.4809 57.3116 21.1394 57.0835 20.8903C56.8553 20.6413 56.5584 20.5023 56.25 20.5V20.5ZM58.5 20.5L57.5 23.5V24H58.5V25.5H59V24H60V23.5L59 20.5H58.5ZM56.25 21C56.4489 21 56.6397 21.1054 56.7803 21.2929C56.921 21.4804 57 21.7348 57 22C57 22.2652 56.921 22.5196 56.7803 22.7071C56.6397 22.8946 56.4489 23 56.25 23C56.0511 23 55.8603 22.8946 55.7197 22.7071C55.579 22.5196 55.5 22.2652 55.5 22C55.5 21.7348 55.579 21.4804 55.7197 21.2929C55.8603 21.1054 56.0511 21 56.25 21ZM58.75 21L59.5 23.5H58L58.75 21ZM77.5 22L76.5 25V25.5H77.5V27H78V25.5H79V25L78 22H77.5ZM80.25 22C79.9409 22.0011 79.6431 22.1396 79.4141 22.3888C79.1851 22.638 79.0412 22.9801 79.0101 23.3492C78.9791 23.7182 79.063 24.088 79.2458 24.3871C79.4286 24.6862 79.6973 24.8934 80 24.9688V27H80.5V24.9678C80.8018 24.8915 81.0695 24.684 81.2515 24.3852C81.4335 24.0864 81.5171 23.7174 81.4861 23.3491C81.455 22.9809 81.3117 22.6394 81.0835 22.3903C80.8553 22.1413 80.5584 22.0023 80.25 22ZM77.75 22.5L78.5 25H77L77.75 22.5ZM80.25 22.5C80.4489 22.5 80.6397 22.6054 80.7803 22.7929C80.921 22.9804 81 23.2348 81 23.5C81 23.7652 80.921 24.0196 80.7803 24.2071C80.6397 24.3946 80.4489 24.5 80.25 24.5C80.0511 24.5 79.8603 24.3946 79.7197 24.2071C79.579 24.0196 79.5 23.7652 79.5 23.5C79.5 23.2348 79.579 22.9804 79.7197 22.7929C79.8603 22.6054 80.0511 22.5 80.25 22.5ZM109.75 23C109.441 23.0011 109.143 23.1396 108.914 23.3888C108.685 23.638 108.541 23.9801 108.51 24.3492C108.479 24.7182 108.563 25.088 108.746 25.3871C108.929 25.6862 109.197 25.8934 109.5 25.9688V28H110V25.9678C110.302 25.8915 110.569 25.684 110.752 25.3852C110.934 25.0864 111.017 24.7174 110.986 24.3491C110.955 23.9809 110.812 23.6394 110.583 23.3903C110.355 23.1413 110.058 23.0023 109.75 23V23ZM112 23L111 26V26.5H112V28H112.5V26.5H113.5V26L112.5 23H112ZM109.75 23.5C109.949 23.5 110.14 23.6054 110.28 23.7929C110.421 23.9804 110.5 24.2348 110.5 24.5C110.5 24.7652 110.421 25.0196 110.28 25.2071C110.14 25.3946 109.949 25.5 109.75 25.5C109.551 25.5 109.36 25.3946 109.22 25.2071C109.079 25.0196 109 24.7652 109 24.5C109 24.2348 109.079 23.9804 109.22 23.7929C109.36 23.6054 109.551 23.5 109.75 23.5V23.5ZM112.25 23.5L113 26H111.5L112.25 23.5ZM36.5 24L35.5 27V27.5H36.5V29H37V27.5H38V27L37 24H36.5ZM39.25 24C38.9409 24.0011 38.6431 24.1396 38.4141 24.3888C38.1851 24.638 38.0412 24.9801 38.0101 25.3492C37.9791 25.7182 38.063 26.088 38.2458 26.3871C38.4286 26.6862 38.6973 26.8934 39 26.9688V29H39.5V26.9678C39.8018 26.8915 40.0695 26.684 40.2515 26.3852C40.4335 26.0864 40.5171 25.7174 40.4861 25.3491C40.455 24.9809 40.3116 24.6394 40.0835 24.3903C39.8553 24.1413 39.5584 24.0023 39.25 24V24ZM4.5 24.5L3.5 27.5V28H4.5V29.5H5V28H6V27.5L5 24.5H4.5ZM7.25 24.5C6.94089 24.5011 6.6431 24.6396 6.41411 24.8888C6.18513 25.138 6.04121 25.4801 6.01013 25.8492C5.97905 26.2182 6.06303 26.588 6.24584 26.8871C6.42865 27.1862 6.69733 27.3934 7 27.4688V29.5H7.5V27.4678C7.80182 27.3915 8.06949 27.184 8.25151 26.8852C8.43354 26.5864 8.51708 26.2174 8.48606 25.8491C8.45504 25.4809 8.31165 25.1394 8.08347 24.8903C7.85529 24.6413 7.55844 24.5023 7.25 24.5V24.5ZM36.75 24.5L37.5 27H36L36.75 24.5ZM39.25 24.5C39.4489 24.5 39.6397 24.6054 39.7803 24.7929C39.921 24.9804 40 25.2348 40 25.5C40 25.7652 39.921 26.0196 39.7803 26.2071C39.6397 26.3946 39.4489 26.5 39.25 26.5C39.0511 26.5 38.8603 26.3946 38.7197 26.2071C38.579 26.0196 38.5 25.7652 38.5 25.5C38.5 25.2348 38.579 24.9804 38.7197 24.7929C38.8603 24.6054 39.0511 24.5 39.25 24.5ZM4.75 25L5.5 27.5H4L4.75 25ZM7.25 25C7.44891 25 7.63968 25.1054 7.78033 25.2929C7.92098 25.4804 8 25.7348 8 26C8 26.2652 7.92098 26.5196 7.78033 26.7071C7.63968 26.8946 7.44891 27 7.25 27C7.05109 27 6.86032 26.8946 6.71967 26.7071C6.57902 26.5196 6.5 26.2652 6.5 26C6.5 25.7348 6.57902 25.4804 6.71967 25.2929C6.86032 25.1054 7.05109 25 7.25 25ZM90.5 26.5L89.5 29.5V30H90.5V31.5H91V30H92V29.5L91 26.5H90.5ZM93.25 26.5C92.9409 26.5011 92.6431 26.6396 92.4141 26.8888C92.1851 27.138 92.0412 27.4801 92.0101 27.8492C91.9791 28.2182 92.063 28.588 92.2458 28.8871C92.4286 29.1862 92.6973 29.3934 93 29.4688V31.5H93.5V29.4678C93.8018 29.3915 94.0695 29.184 94.2515 28.8852C94.4335 28.5864 94.5171 28.2174 94.4861 27.8491C94.455 27.4809 94.3117 27.1394 94.0835 26.8903C93.8553 26.6413 93.5584 26.5023 93.25 26.5V26.5ZM90.75 27L91.5 29.5H90L90.75 27ZM93.25 27C93.4489 27 93.6397 27.1054 93.7803 27.2929C93.921 27.4804 94 27.7348 94 28C94 28.2652 93.921 28.5196 93.7803 28.7071C93.6397 28.8946 93.4489 29 93.25 29C93.0511 29 92.8603 28.8946 92.7197 28.7071C92.579 28.5196 92.5 28.2652 92.5 28C92.5 27.7348 92.579 27.4804 92.7197 27.2929C92.8603 27.1054 93.0511 27 93.25 27ZM17 34L16 37V37.5H17V39H17.5V37.5H18.5V37L17.5 34H17ZM19.75 34C19.4409 34.0011 19.1431 34.1396 18.9141 34.3888C18.6851 34.638 18.5412 34.9801 18.5101 35.3492C18.4791 35.7182 18.563 36.088 18.7458 36.3871C18.9286 36.6862 19.1973 36.8934 19.5 36.9688V39H20V36.9678C20.3018 36.8915 20.5695 36.684 20.7515 36.3852C20.9335 36.0864 21.0171 35.7174 20.9861 35.3491C20.955 34.9809 20.8116 34.6394 20.5835 34.3903C20.3553 34.1413 20.0584 34.0023 19.75 34V34ZM17.25 34.5L18 37H16.5L17.25 34.5ZM19.75 34.5C19.9489 34.5 20.1397 34.6054 20.2803 34.7929C20.421 34.9804 20.5 35.2348 20.5 35.5C20.5 35.7652 20.421 36.0196 20.2803 36.2071C20.1397 36.3946 19.9489 36.5 19.75 36.5C19.5511 36.5 19.3603 36.3946 19.2197 36.2071C19.079 36.0196 19 35.7652 19 35.5C19 35.2348 19.079 34.9804 19.2197 34.7929C19.3603 34.6054 19.5511 34.5 19.75 34.5V34.5ZM50 34.5L49 37.5V38H50V39.5H50.5V38H51.5V37.5L50.5 34.5H50ZM52.75 34.5C52.4409 34.5011 52.1431 34.6396 51.9141 34.8888C51.6851 35.138 51.5412 35.4801 51.5101 35.8492C51.4791 36.2182 51.563 36.588 51.7458 36.8871C51.9286 37.1862 52.1973 37.3934 52.5 37.4688V39.5H53V37.4678C53.3018 37.3915 53.5695 37.184 53.7515 36.8852C53.9335 36.5864 54.0171 36.2174 53.9861 35.8491C53.955 35.4809 53.8116 35.1394 53.5835 34.8903C53.3553 34.6413 53.0584 34.5023 52.75 34.5ZM50.25 35L51 37.5H49.5L50.25 35ZM52.75 35C52.9489 35 53.1397 35.1054 53.2803 35.2929C53.421 35.4804 53.5 35.7348 53.5 36C53.5 36.2652 53.421 36.5196 53.2803 36.7071C53.1397 36.8946 52.9489 37 52.75 37C52.5511 37 52.3603 36.8946 52.2197 36.7071C52.079 36.5196 52 36.2652 52 36C52 35.7348 52.079 35.4804 52.2197 35.2929C52.3603 35.1054 52.5511 35 52.75 35ZM66.75 35.5C66.4409 35.5011 66.1431 35.6396 65.9141 35.8888C65.6851 36.138 65.5412 36.4801 65.5101 36.8492C65.4791 37.2182 65.563 37.588 65.7458 37.8871C65.9286 38.1862 66.1973 38.3934 66.5 38.4688V40.5H67V38.4678C67.3018 38.3915 67.5695 38.184 67.7515 37.8852C67.9335 37.5864 68.0171 37.2174 67.9861 36.8491C67.955 36.4809 67.8117 36.1394 67.5835 35.8903C67.3553 35.6413 67.0584 35.5023 66.75 35.5V35.5ZM69 35.5L68 38.5V39H69V40.5H69.5V39H70.5V38.5L69.5 35.5H69ZM66.75 36C66.9489 36 67.1397 36.1054 67.2803 36.2929C67.421 36.4804 67.5 36.7348 67.5 37C67.5 37.2652 67.421 37.5196 67.2803 37.7071C67.1397 37.8946 66.9489 38 66.75 38C66.5511 38 66.3603 37.8946 66.2197 37.7071C66.079 37.5196 66 37.2652 66 37C66 36.7348 66.079 36.4804 66.2197 36.2929C66.3603 36.1054 66.5511 36 66.75 36ZM69.25 36L70 38.5H68.5L69.25 36ZM103 37.5L102 40.5V41H103V42.5H103.5V41H104.5V40.5L103.5 37.5H103ZM105.75 37.5C105.441 37.5011 105.143 37.6396 104.914 37.8888C104.685 38.138 104.541 38.4801 104.51 38.8492C104.479 39.2182 104.563 39.588 104.746 39.8871C104.929 40.1862 105.197 40.3934 105.5 40.4688V42.5H106V40.4678C106.302 40.3915 106.569 40.184 106.752 39.8852C106.934 39.5864 107.017 39.2174 106.986 38.8491C106.955 38.4809 106.812 38.1394 106.583 37.8903C106.355 37.6413 106.058 37.5023 105.75 37.5V37.5ZM103.25 38L104 40.5H102.5L103.25 38ZM105.75 38C105.949 38 106.14 38.1054 106.28 38.2929C106.421 38.4804 106.5 38.7348 106.5 39C106.5 39.2652 106.421 39.5196 106.28 39.7071C106.14 39.8946 105.949 40 105.75 40C105.551 40 105.36 39.8946 105.22 39.7071C105.079 39.5196 105 39.2652 105 39C105 38.7348 105.079 38.4804 105.22 38.2929C105.36 38.1054 105.551 38 105.75 38ZM81.5 39.5L80.5 42.5V43H81.5V44.5H82V43H83V42.5L82 39.5H81.5ZM84.25 39.5C83.9409 39.5011 83.6431 39.6396 83.4141 39.8888C83.1851 40.138 83.0412 40.4801 83.0101 40.8492C82.9791 41.2182 83.063 41.588 83.2458 41.8871C83.4286 42.1862 83.6973 42.3934 84 42.4688V44.5H84.5V42.4678C84.8018 42.3915 85.0695 42.184 85.2515 41.8852C85.4335 41.5864 85.5171 41.2174 85.4861 40.8491C85.455 40.4809 85.3117 40.1394 85.0835 39.8903C84.8553 39.6413 84.5584 39.5023 84.25 39.5V39.5ZM81.75 40L82.5 42.5H81L81.75 40ZM84.25 40C84.4489 40 84.6397 40.1054 84.7803 40.2929C84.921 40.4804 85 40.7348 85 41C85 41.2652 84.921 41.5196 84.7803 41.7071C84.6397 41.8946 84.4489 42 84.25 42C84.0511 42 83.8603 41.8946 83.7197 41.7071C83.579 41.5196 83.5 41.2652 83.5 41C83.5 40.7348 83.579 40.4804 83.7197 40.2929C83.8603 40.1054 84.0511 40 84.25 40ZM36.5 41L35.5 44V44.5H36.5V46H37V44.5H38V44L37 41H36.5ZM39.25 41C38.9409 41.0011 38.6431 41.1396 38.4141 41.3888C38.1851 41.638 38.0412 41.9801 38.0101 42.3492C37.9791 42.7182 38.063 43.088 38.2458 43.3871C38.4286 43.6862 38.6973 43.8934 39 43.9688V46H39.5V43.9678C39.8018 43.8915 40.0695 43.684 40.2515 43.3852C40.4335 43.0864 40.5171 42.7174 40.4861 42.3491C40.455 41.9809 40.3116 41.6394 40.0835 41.3903C39.8553 41.1413 39.5584 41.0023 39.25 41V41ZM36.75 41.5L37.5 44H36L36.75 41.5ZM39.25 41.5C39.4489 41.5 39.6397 41.6054 39.7803 41.7929C39.921 41.9804 40 42.2348 40 42.5C40 42.7652 39.921 43.0196 39.7803 43.2071C39.6397 43.3946 39.4489 43.5 39.25 43.5C39.0511 43.5 38.8603 43.3946 38.7197 43.2071C38.579 43.0196 38.5 42.7652 38.5 42.5C38.5 42.2348 38.579 41.9804 38.7197 41.7929C38.8603 41.6054 39.0511 41.5 39.25 41.5ZM118.25 42.5C117.941 42.5011 117.643 42.6396 117.414 42.8888C117.185 43.138 117.041 43.4801 117.01 43.8492C116.979 44.2182 117.063 44.588 117.246 44.8871C117.429 45.1862 117.697 45.3934 118 45.4688V47.5H118.5V45.4678C118.802 45.3915 119.069 45.184 119.252 44.8852C119.434 44.5864 119.517 44.2174 119.486 43.8491C119.455 43.4809 119.312 43.1394 119.083 42.8903C118.855 42.6413 118.558 42.5023 118.25 42.5V42.5ZM120.5 42.5L119.5 45.5V46H120.5V47.5H121V46H122V45.5L121 42.5H120.5ZM5.25 43C4.94089 43.0011 4.6431 43.1396 4.41411 43.3888C4.18513 43.638 4.04121 43.9801 4.01013 44.3492C3.97905 44.7182 4.06303 45.088 4.24584 45.3871C4.42865 45.6862 4.69733 45.8934 5 45.9688V48H5.5V45.9678C5.80182 45.8915 6.06949 45.684 6.25151 45.3852C6.43354 45.0864 6.51708 44.7174 6.48606 44.3491C6.45504 43.9809 6.31165 43.6394 6.08347 43.3903C5.85529 43.1413 5.55844 43.0023 5.25 43V43ZM7.5 43L6.5 46V46.5H7.5V48H8V46.5H9V46L8 43H7.5ZM118.25 43C118.449 43 118.64 43.1054 118.78 43.2929C118.921 43.4804 119 43.7348 119 44C119 44.2652 118.921 44.5196 118.78 44.7071C118.64 44.8946 118.449 45 118.25 45C118.051 45 117.86 44.8946 117.72 44.7071C117.579 44.5196 117.5 44.2652 117.5 44C117.5 43.7348 117.579 43.4804 117.72 43.2929C117.86 43.1054 118.051 43 118.25 43ZM120.75 43L121.5 45.5H120L120.75 43ZM5.25 43.5C5.44891 43.5 5.63968 43.6054 5.78033 43.7929C5.92098 43.9804 6 44.2348 6 44.5C6 44.7652 5.92098 45.0196 5.78033 45.2071C5.63968 45.3946 5.44891 45.5 5.25 45.5C5.05109 45.5 4.86032 45.3946 4.71967 45.2071C4.57902 45.0196 4.5 44.7652 4.5 44.5C4.5 44.2348 4.57902 43.9804 4.71967 43.7929C4.86032 43.6054 5.05109 43.5 5.25 43.5ZM7.75 43.5L8.5 46H7L7.75 43.5ZM92.75 50C92.4409 50.0011 92.1431 50.1396 91.9141 50.3888C91.6851 50.638 91.5412 50.9801 91.5101 51.3492C91.4791 51.7182 91.563 52.088 91.7458 52.3871C91.9286 52.6862 92.1973 52.8934 92.5 52.9688V55H93V52.9678C93.3018 52.8915 93.5695 52.684 93.7515 52.3852C93.9335 52.0864 94.0171 51.7174 93.9861 51.3491C93.955 50.9809 93.8117 50.6394 93.5835 50.3903C93.3553 50.1413 93.0584 50.0023 92.75 50ZM95 50L94 53V53.5H95V55H95.5V53.5H96.5V53L95.5 50H95ZM23.5 50.5L22.5 53.5V54H23.5V55.5H24V54H25V53.5L24 50.5H23.5ZM26.25 50.5C25.9409 50.5011 25.6431 50.6396 25.4141 50.8888C25.1851 51.138 25.0412 51.4801 25.0101 51.8492C24.9791 52.2182 25.063 52.588 25.2458 52.8871C25.4286 53.1862 25.6973 53.3934 26 53.4688V55.5H26.5V53.4678C26.8018 53.3915 27.0695 53.184 27.2515 52.8852C27.4335 52.5864 27.5171 52.2174 27.4861 51.8491C27.455 51.4809 27.3117 51.1394 27.0835 50.8903C26.8553 50.6413 26.5584 50.5023 26.25 50.5ZM54.75 50.5C54.4409 50.5011 54.1431 50.6396 53.9141 50.8888C53.6851 51.138 53.5412 51.4801 53.5101 51.8492C53.4791 52.2182 53.563 52.588 53.7458 52.8871C53.9286 53.1862 54.1973 53.3934 54.5 53.4688V55.5H55V53.4678C55.3018 53.3915 55.5695 53.184 55.7515 52.8852C55.9335 52.5864 56.0171 52.2174 55.9861 51.8491C55.955 51.4809 55.8117 51.1394 55.5835 50.8903C55.3553 50.6413 55.0584 50.5023 54.75 50.5V50.5ZM57 50.5L56 53.5V54H57V55.5H57.5V54H58.5V53.5L57.5 50.5H57ZM92.75 50.5C92.9489 50.5 93.1397 50.6054 93.2803 50.7929C93.421 50.9804 93.5 51.2348 93.5 51.5C93.5 51.7652 93.421 52.0196 93.2803 52.2071C93.1397 52.3946 92.9489 52.5 92.75 52.5C92.5511 52.5 92.3603 52.3946 92.2197 52.2071C92.079 52.0196 92 51.7652 92 51.5C92 51.2348 92.079 50.9804 92.2197 50.7929C92.3603 50.6054 92.5511 50.5 92.75 50.5ZM95.25 50.5L96 53H94.5L95.25 50.5ZM23.75 51L24.5 53.5H23L23.75 51ZM26.25 51C26.4489 51 26.6397 51.1054 26.7803 51.2929C26.921 51.4804 27 51.7348 27 52C27 52.2652 26.921 52.5196 26.7803 52.7071C26.6397 52.8946 26.4489 53 26.25 53C26.0511 53 25.8603 52.8946 25.7197 52.7071C25.579 52.5196 25.5 52.2652 25.5 52C25.5 51.7348 25.579 51.4804 25.7197 51.2929C25.8603 51.1054 26.0511 51 26.25 51V51ZM54.75 51C54.9489 51 55.1397 51.1054 55.2803 51.2929C55.421 51.4804 55.5 51.7348 55.5 52C55.5 52.2652 55.421 52.5196 55.2803 52.7071C55.1397 52.8946 54.9489 53 54.75 53C54.5511 53 54.3603 52.8946 54.2197 52.7071C54.079 52.5196 54 52.2652 54 52C54 51.7348 54.079 51.4804 54.2197 51.2929C54.3603 51.1054 54.5511 51 54.75 51ZM57.25 51L58 53.5H56.5L57.25 51ZM72.75 53.5C72.4409 53.5011 72.1431 53.6396 71.9141 53.8888C71.6851 54.138 71.5412 54.4801 71.5101 54.8492C71.4791 55.2182 71.563 55.588 71.7458 55.8871C71.9286 56.1862 72.1973 56.3934 72.5 56.4688V58.5H73V56.4678C73.3018 56.3915 73.5695 56.184 73.7515 55.8852C73.9335 55.5864 74.0171 55.2174 73.9861 54.8491C73.955 54.4809 73.8117 54.1394 73.5835 53.8903C73.3553 53.6413 73.0584 53.5023 72.75 53.5V53.5ZM75 53.5L74 56.5V57H75V58.5H75.5V57H76.5V56.5L75.5 53.5H75ZM72.75 54C72.9489 54 73.1397 54.1054 73.2803 54.2929C73.421 54.4804 73.5 54.7348 73.5 55C73.5 55.2652 73.421 55.5196 73.2803 55.7071C73.1397 55.8946 72.9489 56 72.75 56C72.5511 56 72.3603 55.8946 72.2197 55.7071C72.079 55.5196 72 55.2652 72 55C72 54.7348 72.079 54.4804 72.2197 54.2929C72.3603 54.1054 72.5511 54 72.75 54ZM75.25 54L76 56.5H74.5L75.25 54ZM107.75 55C107.441 55.0011 107.143 55.1396 106.914 55.3888C106.685 55.638 106.541 55.9801 106.51 56.3492C106.479 56.7182 106.563 57.088 106.746 57.3871C106.929 57.6862 107.197 57.8934 107.5 57.9688V60H108V57.9678C108.302 57.8915 108.569 57.684 108.752 57.3852C108.934 57.0864 109.017 56.7174 108.986 56.3491C108.955 55.9809 108.812 55.6394 108.583 55.3903C108.355 55.1413 108.058 55.0023 107.75 55ZM110 55L109 58V58.5H110V60H110.5V58.5H111.5V58L110.5 55H110ZM40.75 55.5C40.4409 55.5011 40.1431 55.6396 39.9141 55.8888C39.6851 56.138 39.5412 56.4801 39.5101 56.8492C39.4791 57.2182 39.563 57.588 39.7458 57.8871C39.9286 58.1862 40.1973 58.3934 40.5 58.4688V60.5H41V58.4678C41.3018 58.3915 41.5695 58.184 41.7515 57.8852C41.9335 57.5864 42.0171 57.2174 41.9861 56.8491C41.955 56.4809 41.8117 56.1394 41.5835 55.8903C41.3553 55.6413 41.0584 55.5023 40.75 55.5V55.5ZM43 55.5L42 58.5V59H43V60.5H43.5V59H44.5V58.5L43.5 55.5H43ZM107.75 55.5C107.949 55.5 108.14 55.6054 108.28 55.7929C108.421 55.9804 108.5 56.2348 108.5 56.5C108.5 56.7652 108.421 57.0196 108.28 57.2071C108.14 57.3946 107.949 57.5 107.75 57.5C107.551 57.5 107.36 57.3946 107.22 57.2071C107.079 57.0196 107 56.7652 107 56.5C107 56.2348 107.079 55.9804 107.22 55.7929C107.36 55.6054 107.551 55.5 107.75 55.5ZM110.25 55.5L111 58H109.5L110.25 55.5ZM40.75 56C40.9489 56 41.1397 56.1054 41.2803 56.2929C41.421 56.4804 41.5 56.7348 41.5 57C41.5 57.2652 41.421 57.5196 41.2803 57.7071C41.1397 57.8946 40.9489 58 40.75 58C40.5511 58 40.3603 57.8946 40.2197 57.7071C40.079 57.5196 40 57.2652 40 57C40 56.7348 40.079 56.4804 40.2197 56.2929C40.3603 56.1054 40.5511 56 40.75 56ZM43.25 56L44 58.5H42.5L43.25 56ZM8.75 56.5C8.44089 56.5011 8.1431 56.6396 7.91411 56.8888C7.68513 57.138 7.54121 57.4801 7.51013 57.8492C7.47905 58.2182 7.56303 58.588 7.74584 58.8871C7.92865 59.1862 8.19733 59.3934 8.5 59.4688V61.5H9V59.4678C9.30182 59.3915 9.56949 59.184 9.75152 58.8852C9.93355 58.5864 10.0171 58.2174 9.98606 57.8491C9.95504 57.4809 9.81165 57.1394 9.58347 56.8903C9.35529 56.6413 9.05844 56.5023 8.75 56.5V56.5ZM11 56.5L10 59.5V60H11V61.5H11.5V60H12.5V59.5L11.5 56.5H11ZM8.75 57C8.94891 57 9.13968 57.1054 9.28033 57.2929C9.42098 57.4804 9.5 57.7348 9.5 58C9.5 58.2652 9.42098 58.5196 9.28033 58.7071C9.13968 58.8946 8.94891 59 8.75 59C8.55109 59 8.36032 58.8946 8.21967 58.7071C8.07902 58.5196 8 58.2652 8 58C8 57.7348 8.07902 57.4804 8.21967 57.2929C8.36032 57.1054 8.55109 57 8.75 57ZM11.25 57L12 59.5H10.5L11.25 57ZM122.25 61.5C121.941 61.5011 121.643 61.6396 121.414 61.8888C121.185 62.138 121.041 62.4801 121.01 62.8492C120.979 63.2182 121.063 63.588 121.246 63.8871C121.429 64.1862 121.697 64.3934 122 64.4688V66.5H122.5V64.4678C122.802 64.3915 123.069 64.184 123.252 63.8852C123.434 63.5864 123.517 63.2174 123.486 62.8491C123.455 62.4809 123.312 62.1394 123.083 61.8903C122.855 61.6413 122.558 61.5023 122.25 61.5V61.5ZM124.5 61.5L123.5 64.5V65H124.5V66.5H125V65H126V64.5L125 61.5H124.5ZM122.25 62C122.449 62 122.64 62.1054 122.78 62.2929C122.921 62.4804 123 62.7348 123 63C123 63.2652 122.921 63.5196 122.78 63.7071C122.64 63.8946 122.449 64 122.25 64C122.051 64 121.86 63.8946 121.72 63.7071C121.579 63.5196 121.5 63.2652 121.5 63C121.5 62.7348 121.579 62.4804 121.72 62.2929C121.86 62.1054 122.051 62 122.25 62ZM124.75 62L125.5 64.5H124L124.75 62ZM83.75 62.5C83.4409 62.5011 83.1431 62.6396 82.9141 62.8888C82.6851 63.138 82.5412 63.4801 82.5101 63.8492C82.4791 64.2182 82.563 64.588 82.7458 64.8871C82.9286 65.1862 83.1973 65.3934 83.5 65.4688V67.5H84V65.4678C84.3018 65.3915 84.5695 65.184 84.7515 64.8852C84.9335 64.5864 85.0171 64.2174 84.9861 63.8491C84.955 63.4809 84.8117 63.1394 84.5835 62.8903C84.3553 62.6413 84.0584 62.5023 83.75 62.5V62.5ZM86 62.5L85 65.5V66H86V67.5H86.5V66H87.5V65.5L86.5 62.5H86ZM83.75 63C83.9489 63 84.1397 63.1054 84.2803 63.2929C84.421 63.4804 84.5 63.7348 84.5 64C84.5 64.2652 84.421 64.5196 84.2803 64.7071C84.1397 64.8946 83.9489 65 83.75 65C83.5511 65 83.3603 64.8946 83.2197 64.7071C83.079 64.5196 83 64.2652 83 64C83 63.7348 83.079 63.4804 83.2197 63.2929C83.3603 63.1054 83.5511 63 83.75 63ZM86.25 63L87 65.5H85.5L86.25 63ZM56.75 66C56.4409 66.0011 56.1431 66.1396 55.9141 66.3888C55.6851 66.638 55.5412 66.9801 55.5101 67.3492C55.4791 67.7182 55.563 68.088 55.7458 68.3871C55.9286 68.6862 56.1973 68.8934 56.5 68.9688V71H57V68.9678C57.3018 68.8915 57.5695 68.684 57.7515 68.3852C57.9335 68.0864 58.0171 67.7174 57.9861 67.3491C57.955 66.9809 57.8117 66.6394 57.5835 66.3903C57.3553 66.1413 57.0584 66.0023 56.75 66V66ZM59 66L58 69V69.5H59V71H59.5V69.5H60.5V69L59.5 66H59ZM19.25 66.5C18.9409 66.5011 18.6431 66.6396 18.4141 66.8888C18.1851 67.138 18.0412 67.4801 18.0101 67.8492C17.9791 68.2182 18.063 68.588 18.2458 68.8871C18.4286 69.1862 18.6973 69.3934 19 69.4688V71.5H19.5V69.4678C19.8018 69.3915 20.0695 69.184 20.2515 68.8852C20.4335 68.5864 20.5171 68.2174 20.4861 67.8491C20.455 67.4809 20.3117 67.1394 20.0835 66.8903C19.8553 66.6413 19.5584 66.5023 19.25 66.5V66.5ZM21.5 66.5L20.5 69.5V70H21.5V71.5H22V70H23V69.5L22 66.5H21.5ZM56.75 66.5C56.9489 66.5 57.1397 66.6054 57.2803 66.7929C57.421 66.9804 57.5 67.2348 57.5 67.5C57.5 67.7652 57.421 68.0196 57.2803 68.2071C57.1397 68.3946 56.9489 68.5 56.75 68.5C56.5511 68.5 56.3603 68.3946 56.2197 68.2071C56.079 68.0196 56 67.7652 56 67.5C56 67.2348 56.079 66.9804 56.2197 66.7929C56.3603 66.6054 56.5511 66.5 56.75 66.5V66.5ZM59.25 66.5L60 69H58.5L59.25 66.5ZM19.25 67C19.4489 67 19.6397 67.1054 19.7803 67.2929C19.921 67.4804 20 67.7348 20 68C20 68.2652 19.921 68.5196 19.7803 68.7071C19.6397 68.8946 19.4489 69 19.25 69C19.0511 69 18.8603 68.8946 18.7197 68.7071C18.579 68.5196 18.5 68.2652 18.5 68C18.5 67.7348 18.579 67.4804 18.7197 67.2929C18.8603 67.1054 19.0511 67 19.25 67V67ZM21.75 67L22.5 69.5H21L21.75 67ZM100.75 69.5C100.441 69.5011 100.143 69.6396 99.9141 69.8888C99.6851 70.138 99.5412 70.4801 99.5101 70.8492C99.4791 71.2182 99.563 71.588 99.7458 71.8871C99.9286 72.1862 100.197 72.3934 100.5 72.4688V74.5H101V72.4678C101.302 72.3915 101.569 72.184 101.752 71.8852C101.934 71.5864 102.017 71.2174 101.986 70.8491C101.955 70.4809 101.812 70.1394 101.583 69.8903C101.355 69.6413 101.058 69.5023 100.75 69.5V69.5ZM103 69.5L102 72.5V73H103V74.5H103.5V73H104.5V72.5L103.5 69.5H103ZM100.75 70C100.949 70 101.14 70.1054 101.28 70.2929C101.421 70.4804 101.5 70.7348 101.5 71C101.5 71.2652 101.421 71.5196 101.28 71.7071C101.14 71.8946 100.949 72 100.75 72C100.551 72 100.36 71.8946 100.22 71.7071C100.079 71.5196 100 71.2652 100 71C100 70.7348 100.079 70.4804 100.22 70.2929C100.36 70.1054 100.551 70 100.75 70V70ZM103.25 70L104 72.5H102.5L103.25 70ZM40.75 72.5C40.4409 72.5011 40.1431 72.6396 39.9141 72.8888C39.6851 73.138 39.5412 73.4801 39.5101 73.8492C39.4791 74.2182 39.563 74.588 39.7458 74.8871C39.9286 75.1862 40.1973 75.3934 40.5 75.4688V77.5H41V75.4678C41.3018 75.3915 41.5695 75.184 41.7515 74.8852C41.9335 74.5864 42.0171 74.2174 41.9861 73.8491C41.955 73.4809 41.8117 73.1394 41.5835 72.8903C41.3553 72.6413 41.0584 72.5023 40.75 72.5V72.5ZM43 72.5L42 75.5V76H43V77.5H43.5V76H44.5V75.5L43.5 72.5H43ZM40.75 73C40.9489 73 41.1397 73.1054 41.2803 73.2929C41.421 73.4804 41.5 73.7348 41.5 74C41.5 74.2652 41.421 74.5196 41.2803 74.7071C41.1397 74.8946 40.9489 75 40.75 75C40.5511 75 40.3603 74.8946 40.2197 74.7071C40.079 74.5196 40 74.2652 40 74C40 73.7348 40.079 73.4804 40.2197 73.2929C40.3603 73.1054 40.5511 73 40.75 73ZM43.25 73L44 75.5H42.5L43.25 73ZM113.75 74.5C113.441 74.5011 113.143 74.6396 112.914 74.8888C112.685 75.138 112.541 75.4801 112.51 75.8492C112.479 76.2182 112.563 76.588 112.746 76.8871C112.929 77.1862 113.197 77.3934 113.5 77.4688V79.5H114V77.4678C114.302 77.3915 114.569 77.184 114.752 76.8852C114.934 76.5864 115.017 76.2174 114.986 75.8491C114.955 75.4809 114.812 75.1394 114.583 74.8903C114.355 74.6413 114.058 74.5023 113.75 74.5ZM116 74.5L115 77.5V78H116V79.5H116.5V78H117.5V77.5L116.5 74.5H116ZM5.25 75C4.94089 75.0011 4.6431 75.1396 4.41411 75.3888C4.18513 75.638 4.04121 75.9801 4.01013 76.3492C3.97905 76.7182 4.06303 77.088 4.24584 77.3871C4.42865 77.6862 4.69733 77.8934 5 77.9688V80H5.5V77.9678C5.80182 77.8915 6.06949 77.684 6.25152 77.3852C6.43355 77.0864 6.51708 76.7174 6.48606 76.3491C6.45504 75.9809 6.31165 75.6394 6.08347 75.3903C5.85529 75.1413 5.55844 75.0023 5.25 75ZM7.5 75L6.5 78V78.5H7.5V80H8V78.5H9V78L8 75H7.5ZM72.5 75L71.5 78V78.5H72.5V80H73V78.5H74V78L73 75H72.5ZM75.25 75C74.9409 75.0011 74.6431 75.1396 74.4141 75.3888C74.1851 75.638 74.0412 75.9801 74.0101 76.3492C73.9791 76.7182 74.063 77.088 74.2458 77.3871C74.4286 77.6862 74.6973 77.8934 75 77.9688V80H75.5V77.9678C75.8018 77.8915 76.0695 77.684 76.2515 77.3852C76.4335 77.0864 76.5171 76.7174 76.4861 76.3491C76.455 75.9809 76.3117 75.6394 76.0835 75.3903C75.8553 75.1413 75.5584 75.0023 75.25 75ZM113.75 75C113.949 75 114.14 75.1054 114.28 75.2929C114.421 75.4804 114.5 75.7348 114.5 76C114.5 76.2652 114.421 76.5196 114.28 76.7071C114.14 76.8946 113.949 77 113.75 77C113.551 77 113.36 76.8946 113.22 76.7071C113.079 76.5196 113 76.2652 113 76C113 75.7348 113.079 75.4804 113.22 75.2929C113.36 75.1054 113.551 75 113.75 75ZM116.25 75L117 77.5H115.5L116.25 75ZM5.25 75.5C5.44891 75.5 5.63968 75.6054 5.78033 75.7929C5.92098 75.9804 6 76.2348 6 76.5C6 76.7652 5.92098 77.0196 5.78033 77.2071C5.63968 77.3946 5.44891 77.5 5.25 77.5C5.05109 77.5 4.86032 77.3946 4.71967 77.2071C4.57902 77.0196 4.5 76.7652 4.5 76.5C4.5 76.2348 4.57902 75.9804 4.71967 75.7929C4.86032 75.6054 5.05109 75.5 5.25 75.5ZM7.75 75.5L8.5 78H7L7.75 75.5ZM72.75 75.5L73.5 78H72L72.75 75.5ZM75.25 75.5C75.4489 75.5 75.6397 75.6054 75.7803 75.7929C75.921 75.9804 76 76.2348 76 76.5C76 76.7652 75.921 77.0196 75.7803 77.2071C75.6397 77.3946 75.4489 77.5 75.25 77.5C75.0511 77.5 74.8603 77.3946 74.7197 77.2071C74.579 77.0196 74.5 76.7652 74.5 76.5C74.5 76.2348 74.579 75.9804 74.7197 75.7929C74.8603 75.6054 75.0511 75.5 75.25 75.5ZM26.75 78C26.4409 78.0011 26.1431 78.1396 25.9141 78.3888C25.6851 78.638 25.5412 78.9801 25.5101 79.3492C25.4791 79.7182 25.563 80.088 25.7458 80.3871C25.9286 80.6862 26.1973 80.8934 26.5 80.9688V83H27V80.9678C27.3018 80.8915 27.5695 80.684 27.7515 80.3852C27.9335 80.0864 28.0171 79.7174 27.9861 79.3491C27.955 78.9809 27.8117 78.6394 27.5835 78.3903C27.3553 78.1413 27.0584 78.0023 26.75 78V78ZM29 78L28 81V81.5H29V83H29.5V81.5H30.5V81L29.5 78H29ZM26.75 78.5C26.9489 78.5 27.1397 78.6054 27.2803 78.7929C27.421 78.9804 27.5 79.2348 27.5 79.5C27.5 79.7652 27.421 80.0196 27.2803 80.2071C27.1397 80.3946 26.9489 80.5 26.75 80.5C26.5511 80.5 26.3603 80.3946 26.2197 80.2071C26.079 80.0196 26 79.7652 26 79.5C26 79.2348 26.079 78.9804 26.2197 78.7929C26.3603 78.6054 26.5511 78.5 26.75 78.5V78.5ZM29.25 78.5L30 81H28.5L29.25 78.5ZM87.75 80C87.4409 80.0011 87.1431 80.1396 86.9141 80.3888C86.6851 80.638 86.5412 80.9801 86.5101 81.3492C86.4791 81.7182 86.563 82.088 86.7458 82.3871C86.9286 82.6862 87.1973 82.8934 87.5 82.9688V85H88V82.9678C88.3018 82.8915 88.5695 82.684 88.7515 82.3852C88.9335 82.0864 89.0171 81.7174 88.9861 81.3491C88.955 80.9809 88.8117 80.6394 88.5835 80.3903C88.3553 80.1413 88.0584 80.0023 87.75 80V80ZM90 80L89 83V83.5H90V85H90.5V83.5H91.5V83L90.5 80H90ZM87.75 80.5C87.9489 80.5 88.1397 80.6054 88.2803 80.7929C88.421 80.9804 88.5 81.2348 88.5 81.5C88.5 81.7652 88.421 82.0196 88.2803 82.2071C88.1397 82.3946 87.9489 82.5 87.75 82.5C87.5511 82.5 87.3603 82.3946 87.2197 82.2071C87.079 82.0196 87 81.7652 87 81.5C87 81.2348 87.079 80.9804 87.2197 80.7929C87.3603 80.6054 87.5511 80.5 87.75 80.5ZM90.25 80.5L91 83H89.5L90.25 80.5ZM58.25 82C57.9409 82.0011 57.6431 82.1396 57.4141 82.3888C57.1851 82.638 57.0412 82.9801 57.0101 83.3492C56.9791 83.7182 57.063 84.088 57.2458 84.3871C57.4286 84.6862 57.6973 84.8934 58 84.9688V87H58.5V84.9678C58.8018 84.8915 59.0695 84.684 59.2515 84.3852C59.4335 84.0864 59.5171 83.7174 59.4861 83.3491C59.455 82.9809 59.3117 82.6394 59.0835 82.3903C58.8553 82.1413 58.5584 82.0023 58.25 82V82ZM60.5 82L59.5 85V85.5H60.5V87H61V85.5H62V85L61 82H60.5ZM58.25 82.5C58.4489 82.5 58.6397 82.6054 58.7803 82.7929C58.921 82.9804 59 83.2348 59 83.5C59 83.7652 58.921 84.0196 58.7803 84.2071C58.6397 84.3946 58.4489 84.5 58.25 84.5C58.0511 84.5 57.8603 84.3946 57.7197 84.2071C57.579 84.0196 57.5 83.7652 57.5 83.5C57.5 83.2348 57.579 82.9804 57.7197 82.7929C57.8603 82.6054 58.0511 82.5 58.25 82.5V82.5ZM60.75 82.5L61.5 85H60L60.75 82.5ZM104 87L103 90V90.5H104V92H104.5V90.5H105.5V90L104.5 87H104ZM106.75 87C106.441 87.0011 106.143 87.1396 105.914 87.3888C105.685 87.638 105.541 87.9801 105.51 88.3492C105.479 88.7182 105.563 89.088 105.746 89.3871C105.929 89.6862 106.197 89.8934 106.5 89.9688V92H107V89.9678C107.302 89.8915 107.569 89.684 107.752 89.3852C107.934 89.0864 108.017 88.7174 107.986 88.3491C107.955 87.9809 107.812 87.6394 107.583 87.3903C107.355 87.1413 107.058 87.0023 106.75 87ZM43 87.5L42 90.5V91H43V92.5H43.5V91H44.5V90.5L43.5 87.5H43ZM45.75 87.5C45.4409 87.5011 45.1431 87.6396 44.9141 87.8888C44.6851 88.138 44.5412 88.4801 44.5101 88.8492C44.4791 89.2182 44.563 89.588 44.7458 89.8871C44.9286 90.1862 45.1973 90.3934 45.5 90.4688V92.5H46V90.4678C46.3018 90.3915 46.5695 90.184 46.7515 89.8852C46.9335 89.5864 47.0171 89.2174 46.9861 88.8491C46.955 88.4809 46.8117 88.1394 46.5835 87.8903C46.3553 87.6413 46.0584 87.5023 45.75 87.5V87.5ZM104.25 87.5L105 90H103.5L104.25 87.5ZM106.75 87.5C106.949 87.5 107.14 87.6054 107.28 87.7929C107.421 87.9804 107.5 88.2348 107.5 88.5C107.5 88.7652 107.421 89.0196 107.28 89.2071C107.14 89.3946 106.949 89.5 106.75 89.5C106.551 89.5 106.36 89.3946 106.22 89.2071C106.079 89.0196 106 88.7652 106 88.5C106 88.2348 106.079 87.9804 106.22 87.7929C106.36 87.6054 106.551 87.5 106.75 87.5V87.5ZM12.75 88C12.4409 88.0011 12.1431 88.1396 11.9141 88.3888C11.6851 88.638 11.5412 88.9801 11.5101 89.3492C11.4791 89.7182 11.563 90.088 11.7458 90.3871C11.9286 90.6862 12.1973 90.8934 12.5 90.9688V93H13V90.9678C13.3018 90.8915 13.5695 90.684 13.7515 90.3852C13.9335 90.0864 14.0171 89.7174 13.9861 89.3491C13.955 88.9809 13.8117 88.6394 13.5835 88.3903C13.3553 88.1413 13.0584 88.0023 12.75 88V88ZM15 88L14 91V91.5H15V93H15.5V91.5H16.5V91L15.5 88H15ZM43.25 88L44 90.5H42.5L43.25 88ZM45.75 88C45.9489 88 46.1397 88.1054 46.2803 88.2929C46.421 88.4804 46.5 88.7348 46.5 89C46.5 89.2652 46.421 89.5196 46.2803 89.7071C46.1397 89.8946 45.9489 90 45.75 90C45.5511 90 45.3603 89.8946 45.2197 89.7071C45.079 89.5196 45 89.2652 45 89C45 88.7348 45.079 88.4804 45.2197 88.2929C45.3603 88.1054 45.5511 88 45.75 88ZM12.75 88.5C12.9489 88.5 13.1397 88.6054 13.2803 88.7929C13.421 88.9804 13.5 89.2348 13.5 89.5C13.5 89.7652 13.421 90.0196 13.2803 90.2071C13.1397 90.3946 12.9489 90.5 12.75 90.5C12.5511 90.5 12.3603 90.3946 12.2197 90.2071C12.079 90.0196 12 89.7652 12 89.5C12 89.2348 12.079 88.9804 12.2197 88.7929C12.3603 88.6054 12.5511 88.5 12.75 88.5ZM15.25 88.5L16 91H14.5L15.25 88.5ZM0 90V91.333L0.5 93H0V93.5H1V93L0 90ZM125.25 90C124.941 90.0011 124.643 90.1396 124.414 90.3888C124.185 90.638 124.041 90.9801 124.01 91.3492C123.979 91.7182 124.063 92.088 124.246 92.3871C124.429 92.6862 124.697 92.8934 125 92.9688V95H125.5V92.9678C125.802 92.8915 126.069 92.684 126.252 92.3852C126.434 92.0864 126.517 91.7174 126.486 91.3491C126.455 90.9809 126.312 90.6394 126.083 90.3903C125.855 90.1413 125.558 90.0023 125.25 90ZM127.5 90L126.5 93V93.5H127.5V95H128V93.5V93H127L127.75 90.5L128 91.333V90H127.5ZM125.25 90.5C125.449 90.5 125.64 90.6054 125.78 90.7929C125.921 90.9804 126 91.2348 126 91.5C126 91.7652 125.921 92.0196 125.78 92.2071C125.64 92.3946 125.449 92.5 125.25 92.5C125.051 92.5 124.86 92.3946 124.72 92.2071C124.579 92.0196 124.5 91.7652 124.5 91.5C124.5 91.2348 124.579 90.9804 124.72 90.7929C124.86 90.6054 125.051 90.5 125.25 90.5ZM72.5 92.5L71.5 95.5V96H72.5V97.5H73V96H74V95.5L73 92.5H72.5ZM75.25 92.5C74.9409 92.5011 74.6431 92.6396 74.4141 92.8888C74.1851 93.138 74.0412 93.4801 74.0101 93.8492C73.9791 94.2182 74.063 94.588 74.2458 94.8871C74.4286 95.1862 74.6973 95.3934 75 95.4688V97.5H75.5V95.4678C75.8018 95.3915 76.0695 95.184 76.2515 94.8852C76.4335 94.5864 76.5171 94.2174 76.4861 93.8491C76.455 93.4809 76.3117 93.1394 76.0835 92.8903C75.8553 92.6413 75.5584 92.5023 75.25 92.5V92.5ZM72.75 93L73.5 95.5H72L72.75 93ZM75.25 93C75.4489 93 75.6397 93.1054 75.7803 93.2929C75.921 93.4804 76 93.7348 76 94C76 94.2652 75.921 94.5196 75.7803 94.7071C75.6397 94.8946 75.4489 95 75.25 95C75.0511 95 74.8603 94.8946 74.7197 94.7071C74.579 94.5196 74.5 94.2652 74.5 94C74.5 93.7348 74.579 93.4804 74.7197 93.2929C74.8603 93.1054 75.0511 93 75.25 93ZM88.25 94.5C87.9409 94.5011 87.6431 94.6396 87.4141 94.8888C87.1851 95.138 87.0412 95.4801 87.0101 95.8492C86.9791 96.2182 87.063 96.588 87.2458 96.8871C87.4286 97.1862 87.6973 97.3934 88 97.4688V99.5H88.5V97.4678C88.8018 97.3915 89.0695 97.184 89.2515 96.8852C89.4335 96.5864 89.5171 96.2174 89.4861 95.8491C89.455 95.4809 89.3117 95.1394 89.0835 94.8903C88.8553 94.6413 88.5584 94.5023 88.25 94.5V94.5ZM90.5 94.5L89.5 97.5V98H90.5V99.5H91V98H92V97.5L91 94.5H90.5ZM88.25 95C88.4489 95 88.6397 95.1054 88.7803 95.2929C88.921 95.4804 89 95.7348 89 96C89 96.2652 88.921 96.5196 88.7803 96.7071C88.6397 96.8946 88.4489 97 88.25 97C88.0511 97 87.8603 96.8946 87.7197 96.7071C87.579 96.5196 87.5 96.2652 87.5 96C87.5 95.7348 87.579 95.4804 87.7197 95.2929C87.8603 95.1054 88.0511 95 88.25 95ZM90.75 95L91.5 97.5H90L90.75 95ZM28.25 97C27.9409 97.0011 27.6431 97.1396 27.4141 97.3888C27.1851 97.638 27.0412 97.9801 27.0101 98.3492C26.9791 98.7182 27.063 99.088 27.2458 99.3871C27.4286 99.6862 27.6973 99.8934 28 99.9688V102H28.5V99.9678C28.8018 99.8915 29.0695 99.684 29.2515 99.3852C29.4335 99.0864 29.5171 98.7174 29.4861 98.3491C29.455 97.9809 29.3117 97.6394 29.0835 97.3903C28.8553 97.1413 28.5584 97.0023 28.25 97V97ZM30.5 97L29.5 100V100.5H30.5V102H31V100.5H32V100L31 97H30.5ZM28.25 97.5C28.4489 97.5 28.6397 97.6054 28.7803 97.7929C28.921 97.9804 29 98.2348 29 98.5C29 98.7652 28.921 99.0196 28.7803 99.2071C28.6397 99.3946 28.4489 99.5 28.25 99.5C28.0511 99.5 27.8603 99.3946 27.7197 99.2071C27.579 99.0196 27.5 98.7652 27.5 98.5C27.5 98.2348 27.579 97.9804 27.7197 97.7929C27.8603 97.6054 28.0511 97.5 28.25 97.5V97.5ZM30.75 97.5L31.5 100H30L30.75 97.5ZM56.25 98C55.9409 98.0011 55.6431 98.1396 55.4141 98.3888C55.1851 98.638 55.0412 98.9801 55.0101 99.3492C54.9791 99.7182 55.063 100.088 55.2458 100.387C55.4286 100.686 55.6973 100.893 56 100.969V103H56.5V100.968C56.8018 100.891 57.0695 100.684 57.2515 100.385C57.4335 100.086 57.5171 99.7174 57.4861 99.3491C57.455 98.9809 57.3117 98.6394 57.0835 98.3903C56.8553 98.1413 56.5584 98.0023 56.25 98V98ZM58.5 98L57.5 101V101.5H58.5V103H59V101.5H60V101L59 98H58.5ZM56.25 98.5C56.4489 98.5 56.6397 98.6054 56.7803 98.7929C56.921 98.9804 57 99.2348 57 99.5C57 99.7652 56.921 100.02 56.7803 100.207C56.6397 100.395 56.4489 100.5 56.25 100.5C56.0511 100.5 55.8603 100.395 55.7197 100.207C55.579 100.02 55.5 99.7652 55.5 99.5C55.5 99.2348 55.579 98.9804 55.7197 98.7929C55.8603 98.6054 56.0511 98.5 56.25 98.5ZM58.75 98.5L59.5 101H58L58.75 98.5ZM116.5 102.5L115.5 105.5V106H116.5V107.5H117V106H118V105.5L117 102.5H116.5ZM119.25 102.5C118.941 102.501 118.643 102.64 118.414 102.889C118.185 103.138 118.041 103.48 118.01 103.849C117.979 104.218 118.063 104.588 118.246 104.887C118.429 105.186 118.697 105.393 119 105.469V107.5H119.5V105.468C119.802 105.391 120.069 105.184 120.252 104.885C120.434 104.586 120.517 104.217 120.486 103.849C120.455 103.481 120.312 103.139 120.083 102.89C119.855 102.641 119.558 102.502 119.25 102.5V102.5ZM116.75 103L117.5 105.5H116L116.75 103ZM119.25 103C119.449 103 119.64 103.105 119.78 103.293C119.921 103.48 120 103.735 120 104C120 104.265 119.921 104.52 119.78 104.707C119.64 104.895 119.449 105 119.25 105C119.051 105 118.86 104.895 118.72 104.707C118.579 104.52 118.5 104.265 118.5 104C118.5 103.735 118.579 103.48 118.72 103.293C118.86 103.105 119.051 103 119.25 103ZM7.25 103.5C6.94089 103.501 6.6431 103.64 6.41411 103.889C6.18513 104.138 6.04121 104.48 6.01013 104.849C5.97905 105.218 6.06303 105.588 6.24584 105.887C6.42865 106.186 6.69733 106.393 7 106.469V108.5H7.5V106.468C7.80182 106.391 8.06949 106.184 8.25152 105.885C8.43355 105.586 8.51708 105.217 8.48606 104.849C8.45504 104.481 8.31165 104.139 8.08347 103.89C7.85529 103.641 7.55844 103.502 7.25 103.5V103.5ZM9.5 103.5L8.5 106.5V107H9.5V108.5H10V107H11V106.5L10 103.5H9.5ZM7.25 104C7.44891 104 7.63968 104.105 7.78033 104.293C7.92098 104.48 8 104.735 8 105C8 105.265 7.92098 105.52 7.78033 105.707C7.63968 105.895 7.44891 106 7.25 106C7.05109 106 6.86032 105.895 6.71967 105.707C6.57902 105.52 6.5 105.265 6.5 105C6.5 104.735 6.57902 104.48 6.71967 104.293C6.86032 104.105 7.05109 104 7.25 104ZM9.75 104L10.5 106.5H9L9.75 104ZM101.25 104C100.941 104.001 100.643 104.14 100.414 104.389C100.185 104.638 100.041 104.98 100.01 105.349C99.9791 105.718 100.063 106.088 100.246 106.387C100.429 106.686 100.697 106.893 101 106.969V109H101.5V106.968C101.802 106.891 102.069 106.684 102.252 106.385C102.434 106.086 102.517 105.717 102.486 105.349C102.455 104.981 102.312 104.639 102.083 104.39C101.855 104.141 101.558 104.002 101.25 104V104ZM103.5 104L102.5 107V107.5H103.5V109H104V107.5H105V107L104 104H103.5ZM101.25 104.5C101.449 104.5 101.64 104.605 101.78 104.793C101.921 104.98 102 105.235 102 105.5C102 105.765 101.921 106.02 101.78 106.207C101.64 106.395 101.449 106.5 101.25 106.5C101.051 106.5 100.86 106.395 100.72 106.207C100.579 106.02 100.5 105.765 100.5 105.5C100.5 105.235 100.579 104.98 100.72 104.793C100.86 104.605 101.051 104.5 101.25 104.5ZM103.75 104.5L104.5 107H103L103.75 104.5ZM39.25 105.5C38.9409 105.501 38.6431 105.64 38.4141 105.889C38.1851 106.138 38.0412 106.48 38.0101 106.849C37.9791 107.218 38.063 107.588 38.2458 107.887C38.4286 108.186 38.6973 108.393 39 108.469V110.5H39.5V108.468C39.8018 108.391 40.0695 108.184 40.2515 107.885C40.4335 107.586 40.5171 107.217 40.4861 106.849C40.455 106.481 40.3117 106.139 40.0835 105.89C39.8553 105.641 39.5584 105.502 39.25 105.5V105.5ZM41.5 105.5L40.5 108.5V109H41.5V110.5H42V109H43V108.5L42 105.5H41.5ZM39.25 106C39.4489 106 39.6397 106.105 39.7803 106.293C39.921 106.48 40 106.735 40 107C40 107.265 39.921 107.52 39.7803 107.707C39.6397 107.895 39.4489 108 39.25 108C39.0511 108 38.8603 107.895 38.7197 107.707C38.579 107.52 38.5 107.265 38.5 107C38.5 106.735 38.579 106.48 38.7197 106.293C38.8603 106.105 39.0511 106 39.25 106ZM41.75 106L42.5 108.5H41L41.75 106ZM69.25 107C68.9409 107.001 68.6431 107.14 68.4141 107.389C68.1851 107.638 68.0412 107.98 68.0101 108.349C67.9791 108.718 68.063 109.088 68.2458 109.387C68.4286 109.686 68.6973 109.893 69 109.969V112H69.5V109.968C69.8018 109.891 70.0695 109.684 70.2515 109.385C70.4335 109.086 70.5171 108.717 70.4861 108.349C70.455 107.981 70.3117 107.639 70.0835 107.39C69.8553 107.141 69.5584 107.002 69.25 107V107ZM71.5 107L70.5 110V110.5H71.5V112H72V110.5H73V110L72 107H71.5ZM69.25 107.5C69.4489 107.5 69.6397 107.605 69.7803 107.793C69.921 107.98 70 108.235 70 108.5C70 108.765 69.921 109.02 69.7803 109.207C69.6397 109.395 69.4489 109.5 69.25 109.5C69.0511 109.5 68.8603 109.395 68.7197 109.207C68.579 109.02 68.5 108.765 68.5 108.5C68.5 108.235 68.579 107.98 68.7197 107.793C68.8603 107.605 69.0511 107.5 69.25 107.5ZM71.75 107.5L72.5 110H71L71.75 107.5ZM22 110L21 113V113.5H22V115H22.5V113.5H23.5V113L22.5 110H22ZM24.75 110C24.4409 110.001 24.1431 110.14 23.9141 110.389C23.6851 110.638 23.5412 110.98 23.5101 111.349C23.4791 111.718 23.563 112.088 23.7458 112.387C23.9286 112.686 24.1973 112.893 24.5 112.969V115H25V112.968C25.3018 112.891 25.5695 112.684 25.7515 112.385C25.9335 112.086 26.0171 111.717 25.9861 111.349C25.955 110.981 25.8117 110.639 25.5835 110.39C25.3553 110.141 25.0584 110.002 24.75 110V110ZM22.25 110.5L23 113H21.5L22.25 110.5ZM24.75 110.5C24.9489 110.5 25.1397 110.605 25.2803 110.793C25.421 110.98 25.5 111.235 25.5 111.5C25.5 111.765 25.421 112.02 25.2803 112.207C25.1397 112.395 24.9489 112.5 24.75 112.5C24.5511 112.5 24.3603 112.395 24.2197 112.207C24.079 112.02 24 111.765 24 111.5C24 111.235 24.079 110.98 24.2197 110.793C24.3603 110.605 24.5511 110.5 24.75 110.5V110.5ZM84.25 111.5C83.9409 111.501 83.6431 111.64 83.4141 111.889C83.1851 112.138 83.0412 112.48 83.0101 112.849C82.9791 113.218 83.063 113.588 83.2458 113.887C83.4286 114.186 83.6973 114.393 84 114.469V116.5H84.5V114.468C84.8018 114.391 85.0695 114.184 85.2515 113.885C85.4335 113.586 85.5171 113.217 85.4861 112.849C85.455 112.481 85.3117 112.139 85.0835 111.89C84.8553 111.641 84.5584 111.502 84.25 111.5V111.5ZM86.5 111.5L85.5 114.5V115H86.5V116.5H87V115H88V114.5L87 111.5H86.5ZM84.25 112C84.4489 112 84.6397 112.105 84.7803 112.293C84.921 112.48 85 112.735 85 113C85 113.265 84.921 113.52 84.7803 113.707C84.6397 113.895 84.4489 114 84.25 114C84.0511 114 83.8603 113.895 83.7197 113.707C83.579 113.52 83.5 113.265 83.5 113C83.5 112.735 83.579 112.48 83.7197 112.293C83.8603 112.105 84.0511 112 84.25 112ZM86.75 112L87.5 114.5H86L86.75 112ZM53 117L52 120V120.5H53V122H53.5V120.5H54.5V120L53.5 117H53ZM55.75 117C55.4409 117.001 55.1431 117.14 54.9141 117.389C54.6851 117.638 54.5412 117.98 54.5101 118.349C54.4791 118.718 54.563 119.088 54.7458 119.387C54.9286 119.686 55.1973 119.893 55.5 119.969V122H56V119.968C56.3018 119.891 56.5695 119.684 56.7515 119.385C56.9335 119.086 57.0171 118.717 56.9861 118.349C56.955 117.981 56.8117 117.639 56.5835 117.39C56.3553 117.141 56.0584 117.002 55.75 117V117ZM53.25 117.5L54 120H52.5L53.25 117.5ZM55.75 117.5C55.9489 117.5 56.1397 117.605 56.2803 117.793C56.421 117.98 56.5 118.235 56.5 118.5C56.5 118.765 56.421 119.02 56.2803 119.207C56.1397 119.395 55.9489 119.5 55.75 119.5C55.5511 119.5 55.3603 119.395 55.2197 119.207C55.079 119.02 55 118.765 55 118.5C55 118.235 55.079 117.98 55.2197 117.793C55.3603 117.605 55.5511 117.5 55.75 117.5ZM108.75 119C108.441 119.001 108.143 119.14 107.914 119.389C107.685 119.638 107.541 119.98 107.51 120.349C107.479 120.718 107.563 121.088 107.746 121.387C107.929 121.686 108.197 121.893 108.5 121.969V124H109V121.968C109.302 121.891 109.569 121.684 109.752 121.385C109.934 121.086 110.017 120.717 109.986 120.349C109.955 119.981 109.812 119.639 109.583 119.39C109.355 119.141 109.058 119.002 108.75 119V119ZM111 119L110 122V122.5H111V124H111.5V122.5H112.5V122L111.5 119H111ZM108.75 119.5C108.949 119.5 109.14 119.605 109.28 119.793C109.421 119.98 109.5 120.235 109.5 120.5C109.5 120.765 109.421 121.02 109.28 121.207C109.14 121.395 108.949 121.5 108.75 121.5C108.551 121.5 108.36 121.395 108.22 121.207C108.079 121.02 108 120.765 108 120.5C108 120.235 108.079 119.98 108.22 119.793C108.36 119.605 108.551 119.5 108.75 119.5ZM111.25 119.5L112 122H110.5L111.25 119.5ZM10.75 120C10.4409 120.001 10.1431 120.14 9.91411 120.389C9.68513 120.638 9.54121 120.98 9.51013 121.349C9.47905 121.718 9.56303 122.088 9.74584 122.387C9.92865 122.686 10.1973 122.893 10.5 122.969V125H11V122.968C11.3018 122.891 11.5695 122.684 11.7515 122.385C11.9335 122.086 12.0171 121.717 11.9861 121.349C11.955 120.981 11.8117 120.639 11.5835 120.39C11.3553 120.141 11.0584 120.002 10.75 120V120ZM13 120L12 123V123.5H13V125H13.5V123.5H14.5V123L13.5 120H13ZM10.75 120.5C10.9489 120.5 11.1397 120.605 11.2803 120.793C11.421 120.98 11.5 121.235 11.5 121.5C11.5 121.765 11.421 122.02 11.2803 122.207C11.1397 122.395 10.9489 122.5 10.75 122.5C10.5511 122.5 10.3603 122.395 10.2197 122.207C10.079 122.02 10 121.765 10 121.5C10 121.235 10.079 120.98 10.2197 120.793C10.3603 120.605 10.5511 120.5 10.75 120.5ZM13.25 120.5L14 123H12.5L13.25 120.5ZM40.25 121C39.9409 121.001 39.6431 121.14 39.4141 121.389C39.1851 121.638 39.0412 121.98 39.0101 122.349C38.9791 122.718 39.063 123.088 39.2458 123.387C39.4286 123.686 39.6973 123.893 40 123.969V126H40.5V123.968C40.8018 123.891 41.0695 123.684 41.2515 123.385C41.4335 123.086 41.5171 122.717 41.4861 122.349C41.455 121.981 41.3117 121.639 41.0835 121.39C40.8553 121.141 40.5584 121.002 40.25 121V121ZM42.5 121L41.5 124V124.5H42.5V126H43V124.5H44V124L43 121H42.5ZM40.25 121.5C40.4489 121.5 40.6397 121.605 40.7803 121.793C40.921 121.98 41 122.235 41 122.5C41 122.765 40.921 123.02 40.7803 123.207C40.6397 123.395 40.4489 123.5 40.25 123.5C40.0511 123.5 39.8603 123.395 39.7197 123.207C39.579 123.02 39.5 122.765 39.5 122.5C39.5 122.235 39.579 121.98 39.7197 121.793C39.8603 121.605 40.0511 121.5 40.25 121.5ZM42.75 121.5L43.5 124H42L42.75 121.5ZM123.5 122L122.5 125V125.5H123.5V127H124V125.5H125V125L124 122H123.5ZM126.25 122C125.941 122.001 125.643 122.14 125.414 122.389C125.185 122.638 125.041 122.98 125.01 123.349C124.979 123.718 125.063 124.088 125.246 124.387C125.429 124.686 125.697 124.893 126 124.969V127H126.5V124.968C126.802 124.891 127.069 124.684 127.252 124.385C127.434 124.086 127.517 123.717 127.486 123.349C127.455 122.981 127.312 122.639 127.083 122.39C126.855 122.141 126.558 122.002 126.25 122V122ZM123.75 122.5L124.5 125H123L123.75 122.5ZM126.25 122.5C126.449 122.5 126.64 122.605 126.78 122.793C126.921 122.98 127 123.235 127 123.5C127 123.765 126.921 124.02 126.78 124.207C126.64 124.395 126.449 124.5 126.25 124.5C126.051 124.5 125.86 124.395 125.72 124.207C125.579 124.02 125.5 123.765 125.5 123.5C125.5 123.235 125.579 122.98 125.72 122.793C125.86 122.605 126.051 122.5 126.25 122.5V122.5ZM94.5 123L93.5 126V126.5H94.5V128H95V126.5H96V126L95 123H94.5ZM97.25 123C96.9409 123.001 96.6431 123.14 96.4141 123.389C96.1851 123.638 96.0412 123.98 96.0101 124.349C95.9791 124.718 96.063 125.088 96.2458 125.387C96.4286 125.686 96.6973 125.893 97 125.969V128H97.5V125.968C97.8018 125.891 98.0695 125.684 98.2515 125.385C98.4335 125.086 98.5171 124.717 98.4861 124.349C98.455 123.981 98.3117 123.639 98.0835 123.39C97.8553 123.141 97.5584 123.002 97.25 123V123ZM94.75 123.5L95.5 126H94L94.75 123.5ZM97.25 123.5C97.4489 123.5 97.6397 123.605 97.7803 123.793C97.921 123.98 98 124.235 98 124.5C98 124.765 97.921 125.02 97.7803 125.207C97.6397 125.395 97.4489 125.5 97.25 125.5C97.0511 125.5 96.8603 125.395 96.7197 125.207C96.579 125.02 96.5 124.765 96.5 124.5C96.5 124.235 96.579 123.98 96.7197 123.793C96.8603 123.605 97.0511 123.5 97.25 123.5ZM76.5 124L75.5 127V127.5H76.5V128H77V127.5H78V127L77 124H76.5ZM79.25 124C78.9409 124.001 78.6431 124.14 78.4141 124.389C78.1851 124.638 78.0412 124.98 78.0101 125.349C77.9791 125.718 78.063 126.088 78.2458 126.387C78.4286 126.686 78.6973 126.893 79 126.969V128H79.5V126.968C79.8018 126.891 80.0695 126.684 80.2515 126.385C80.4335 126.086 80.5171 125.717 80.4861 125.349C80.455 124.981 80.3117 124.639 80.0835 124.39C79.8553 124.141 79.5584 124.002 79.25 124V124ZM76.75 124.5L77.5 127H76L76.75 124.5ZM79.25 124.5C79.4489 124.5 79.6397 124.605 79.7803 124.793C79.921 124.98 80 125.235 80 125.5C80 125.765 79.921 126.02 79.7803 126.207C79.6397 126.395 79.4489 126.5 79.25 126.5C79.0511 126.5 78.8603 126.395 78.7197 126.207C78.579 126.02 78.5 125.765 78.5 125.5C78.5 125.235 78.579 124.98 78.7197 124.793C78.8603 124.605 79.0511 124.5 79.25 124.5Z" fill="#6B8D5E"/>
</svg>
