<svg width="128" height="128" viewBox="0 0 128 128" fill="none" xmlns="http://www.w3.org/2000/svg">
<path d="M77 0V2H77.5V0.5H78.75C78.8163 0.499993 78.8799 0.473652 78.9268 0.426769C78.9737 0.379887 79 0.316302 79 0.25V0H78.5H77.5H77ZM95 0V1H95.5V0H95ZM58.2461 1.99609C58.2133 1.99661 58.1809 2.00358 58.1507 2.01662C58.1206 2.02965 58.0933 2.0485 58.0705 2.07208C58.0476 2.09565 58.0297 2.1235 58.0176 2.15403C58.0055 2.18456 57.9995 2.21717 58 2.25V4.5H57V2.75C57.0006 2.71651 56.9943 2.68326 56.9818 2.65222C56.9692 2.62118 56.9505 2.59298 56.9268 2.56929C56.9031 2.54561 56.8749 2.52693 56.8439 2.51435C56.8129 2.50178 56.7796 2.49557 56.7461 2.49609C56.7133 2.49661 56.6809 2.50358 56.6507 2.51662C56.6206 2.52965 56.5933 2.5485 56.5705 2.57208C56.5476 2.59565 56.5297 2.6235 56.5176 2.65403C56.5055 2.68456 56.4995 2.71717 56.5 2.75V4.75C56.5 4.8163 56.5264 4.87989 56.5733 4.92677C56.6201 4.97365 56.6837 4.99999 56.75 5H58V6V8H58.5V6.5H59.75C59.8163 6.49999 59.8799 6.47365 59.9268 6.42677C59.9737 6.37989 60 6.3163 60 6.25V3.75C60.0006 3.71651 59.9943 3.68326 59.9818 3.65222C59.9692 3.62118 59.9505 3.59298 59.9268 3.56929C59.9031 3.54561 59.8749 3.52693 59.8439 3.51435C59.8129 3.50178 59.7796 3.49557 59.7461 3.49609C59.7133 3.49661 59.6809 3.50358 59.6507 3.51662C59.6206 3.52965 59.5933 3.5485 59.5705 3.57208C59.5476 3.59565 59.5297 3.6235 59.5176 3.65403C59.5055 3.68456 59.4995 3.71717 59.5 3.75V6H58.5V2.5V2.25C58.5006 2.21651 58.4943 2.18326 58.4818 2.15222C58.4692 2.12118 58.4505 2.09298 58.4268 2.06929C58.4031 2.04561 58.3749 2.02693 58.3439 2.01435C58.3129 2.00178 58.2796 1.99557 58.2461 1.99609V1.99609ZM25.2461 2.99609C25.2133 2.99661 25.1809 3.00358 25.1507 3.01662C25.1206 3.02965 25.0933 3.0485 25.0705 3.07208C25.0476 3.09566 25.0297 3.1235 25.0176 3.15403C25.0055 3.18456 24.9995 3.21717 25 3.25V5.5H24V3.75C24.0006 3.71651 23.9943 3.68326 23.9818 3.65222C23.9692 3.62118 23.9505 3.59298 23.9268 3.56929C23.9031 3.54561 23.8749 3.52693 23.8439 3.51435C23.8129 3.50178 23.7796 3.49557 23.7461 3.49609C23.7133 3.49661 23.6809 3.50358 23.6507 3.51662C23.6206 3.52965 23.5933 3.5485 23.5705 3.57208C23.5476 3.59566 23.5297 3.6235 23.5176 3.65403C23.5055 3.68456 23.4995 3.71717 23.5 3.75V5.75C23.5 5.8163 23.5264 5.87989 23.5733 5.92677C23.6201 5.97365 23.6837 5.99999 23.75 6H25V7V9H25.5V7.5H26.75C26.8163 7.49999 26.8799 7.47365 26.9268 7.42677C26.9737 7.37989 27 7.3163 27 7.25V4.75C27.0006 4.71651 26.9943 4.68326 26.9818 4.65222C26.9692 4.62118 26.9505 4.59298 26.9268 4.56929C26.9031 4.54561 26.8749 4.52693 26.8439 4.51435C26.8129 4.50178 26.7796 4.49557 26.7461 4.49609C26.7133 4.49661 26.6809 4.50358 26.6507 4.51662C26.6206 4.52965 26.5933 4.5485 26.5705 4.57208C26.5476 4.59566 26.5297 4.6235 26.5176 4.65403C26.5055 4.68456 26.4995 4.71717 26.5 4.75V7H25.5V3.5V3.25C25.5006 3.21651 25.4943 3.18326 25.4818 3.15222C25.4692 3.12118 25.4505 3.09298 25.4268 3.06929C25.4031 3.04561 25.3749 3.02693 25.3439 3.01435C25.3129 3.00178 25.2796 2.99557 25.2461 2.99609ZM6.74612 5.49609C6.71329 5.49661 6.68089 5.50358 6.65075 5.51662C6.62061 5.52965 6.59334 5.5485 6.57049 5.57208C6.54764 5.59566 6.52965 5.6235 6.51756 5.65403C6.50547 5.68456 6.49952 5.71717 6.50003 5.75V8H5.50003V6.25C5.50055 6.21651 5.49435 6.18326 5.48177 6.15222C5.4692 6.12118 5.45051 6.09298 5.42683 6.06929C5.40315 6.04561 5.37495 6.02693 5.34391 6.01435C5.31286 6.00178 5.27961 5.99557 5.24612 5.99609C5.21329 5.99661 5.18089 6.00358 5.15075 6.01662C5.12061 6.02965 5.09334 6.0485 5.07049 6.07208C5.04764 6.09566 5.02965 6.1235 5.01756 6.15403C5.00547 6.18456 4.99952 6.21717 5.00003 6.25V8.25C5.00004 8.3163 5.02638 8.37989 5.07326 8.42677C5.12014 8.47365 5.18373 8.49999 5.25003 8.5H6.50003V9.5V11.5H7.00003V10H8.25003C8.31633 9.99999 8.37992 9.97365 8.4268 9.92677C8.47368 9.87989 8.50002 9.8163 8.50003 9.75V7.25C8.50055 7.21651 8.49434 7.18326 8.48177 7.15222C8.4692 7.12118 8.45051 7.09298 8.42683 7.06929C8.40315 7.04561 8.37495 7.02693 8.34391 7.01435C8.31286 7.00178 8.27961 6.99557 8.24612 6.99609C8.21329 6.99661 8.18089 7.00358 8.15075 7.01662C8.12061 7.02965 8.09334 7.0485 8.07049 7.07208C8.04764 7.09566 8.02965 7.1235 8.01756 7.15403C8.00548 7.18456 7.99952 7.21717 8.00003 7.25V9.5H7.00003V6V5.75C7.00055 5.71651 6.99434 5.68326 6.98177 5.65222C6.9692 5.62118 6.95051 5.59298 6.92683 5.56929C6.90315 5.54561 6.87495 5.52693 6.84391 5.51435C6.81286 5.50178 6.77961 5.49557 6.74612 5.49609ZM107.753 5.99609C107.72 5.9957 107.686 6.00201 107.655 6.01464C107.625 6.02728 107.596 6.04598 107.573 6.06965C107.549 6.09332 107.531 6.12147 107.518 6.15245C107.506 6.18342 107.5 6.2166 107.5 6.25V6.5V10H106.5V7.75C106.501 7.71717 106.495 7.68456 106.482 7.65403C106.47 7.6235 106.452 7.59565 106.43 7.57208C106.407 7.5485 106.379 7.52965 106.349 7.51662C106.319 7.50358 106.287 7.49661 106.254 7.49609C106.22 7.49557 106.187 7.50178 106.156 7.51435C106.125 7.52693 106.097 7.54561 106.073 7.56929C106.05 7.59298 106.031 7.62118 106.018 7.65222C106.006 7.68326 106 7.71651 106 7.75V10.25C106 10.3163 106.026 10.3799 106.073 10.4268C106.12 10.4737 106.184 10.5 106.25 10.5H107.5V12H108V10V9H109.25C109.316 8.99999 109.38 8.97365 109.427 8.92677C109.474 8.87989 109.5 8.8163 109.5 8.75V6.75C109.501 6.71717 109.495 6.68456 109.482 6.65403C109.47 6.6235 109.452 6.59565 109.43 6.57208C109.407 6.5485 109.379 6.52965 109.349 6.51662C109.319 6.50358 109.287 6.49661 109.254 6.49609C109.22 6.49557 109.187 6.50178 109.156 6.51435C109.125 6.52693 109.097 6.54561 109.073 6.56929C109.05 6.59298 109.031 6.62118 109.018 6.65222C109.006 6.68326 109 6.71651 109 6.75V8.5H108V6.25C108.001 6.21717 107.995 6.18456 107.982 6.15403C107.97 6.1235 107.952 6.09565 107.93 6.07208C107.907 6.0485 107.879 6.02965 107.849 6.01662C107.819 6.00358 107.787 5.99661 107.754 5.99609C107.754 5.99609 107.753 5.99609 107.753 5.99609V5.99609ZM89.253 8.99609C89.2196 8.9957 89.1864 9.00201 89.1555 9.01464C89.1246 9.02728 89.0965 9.04598 89.0729 9.06965C89.0493 9.09332 89.0307 9.12147 89.0182 9.15245C89.0057 9.18343 88.9995 9.2166 89 9.25V9.5V13H88V10.75C88.0005 10.7172 87.9946 10.6846 87.9825 10.654C87.9704 10.6235 87.9524 10.5957 87.9296 10.5721C87.9067 10.5485 87.8794 10.5297 87.8493 10.5166C87.8192 10.5036 87.7868 10.4966 87.7539 10.4961C87.7204 10.4956 87.6872 10.5018 87.6562 10.5144C87.6251 10.5269 87.5969 10.5456 87.5732 10.5693C87.5495 10.593 87.5309 10.6212 87.5183 10.6522C87.5057 10.6833 87.4995 10.7165 87.5 10.75V13.25C87.5 13.3163 87.5264 13.3799 87.5733 13.4268C87.6201 13.4737 87.6837 13.5 87.75 13.5H89V15H89.5V13V12H90.75C90.8163 12 90.8799 11.9737 90.9268 11.9268C90.9737 11.8799 91 11.8163 91 11.75V9.75C91.0005 9.71717 90.9946 9.68456 90.9825 9.65403C90.9704 9.6235 90.9524 9.59566 90.9296 9.57208C90.9067 9.5485 90.8794 9.52965 90.8493 9.51662C90.8192 9.50358 90.7868 9.49661 90.7539 9.49609C90.7204 9.49557 90.6872 9.50178 90.6562 9.51435C90.6251 9.52693 90.5969 9.54561 90.5732 9.56929C90.5495 9.59298 90.5309 9.62118 90.5183 9.65222C90.5057 9.68326 90.4995 9.71651 90.5 9.75V11.5H89.5V9.25C89.5005 9.21717 89.4946 9.18456 89.4825 9.15403C89.4704 9.1235 89.4524 9.09566 89.4296 9.07208C89.4067 9.0485 89.3794 9.02965 89.3493 9.01662C89.3192 9.00358 89.2868 8.99661 89.2539 8.99609C89.2536 8.99609 89.2533 8.99609 89.253 8.99609V8.99609ZM38.2461 9.49609C38.2133 9.49661 38.1809 9.50358 38.1507 9.51662C38.1206 9.52966 38.0933 9.5485 38.0705 9.57208C38.0476 9.59566 38.0297 9.6235 38.0176 9.65403C38.0055 9.68456 37.9995 9.71717 38 9.75V12H37V10.25C37.0006 10.2165 36.9943 10.1833 36.9818 10.1522C36.9692 10.1212 36.9505 10.093 36.9268 10.0693C36.9031 10.0456 36.8749 10.0269 36.8439 10.0144C36.8129 10.0018 36.7796 9.99557 36.7461 9.99609C36.7133 9.99661 36.6809 10.0036 36.6507 10.0166C36.6206 10.0297 36.5933 10.0485 36.5705 10.0721C36.5476 10.0957 36.5297 10.1235 36.5176 10.154C36.5055 10.1846 36.4995 10.2172 36.5 10.25V12.25C36.5 12.3163 36.5264 12.3799 36.5733 12.4268C36.6201 12.4737 36.6837 12.5 36.75 12.5H38V13.5V15.5H38.5V14H39.75C39.8163 14 39.8799 13.9737 39.9268 13.9268C39.9737 13.8799 40 13.8163 40 13.75V11.25C40.0006 11.2165 39.9943 11.1833 39.9818 11.1522C39.9692 11.1212 39.9505 11.093 39.9268 11.0693C39.9031 11.0456 39.8749 11.0269 39.8439 11.0144C39.8129 11.0018 39.7796 10.9956 39.7461 10.9961C39.7133 10.9966 39.6809 11.0036 39.6507 11.0166C39.6206 11.0297 39.5933 11.0485 39.5705 11.0721C39.5476 11.0957 39.5297 11.1235 39.5176 11.154C39.5055 11.1846 39.4995 11.2172 39.5 11.25V13.5H38.5V10V9.75C38.5006 9.71651 38.4943 9.68326 38.4818 9.65222C38.4692 9.62118 38.4505 9.59298 38.4268 9.56929C38.4031 9.54561 38.3749 9.52693 38.3439 9.51435C38.3129 9.50178 38.2796 9.49557 38.2461 9.49609ZM68.753 10.9961C68.7196 10.9957 68.6864 11.002 68.6555 11.0146C68.6246 11.0273 68.5965 11.046 68.5729 11.0696C68.5493 11.0933 68.5307 11.1215 68.5182 11.1524C68.5057 11.1834 68.4995 11.2166 68.5 11.25V11.5V15H67.5V12.75C67.5005 12.7172 67.4946 12.6846 67.4825 12.654C67.4704 12.6235 67.4524 12.5957 67.4296 12.5721C67.4067 12.5485 67.3794 12.5297 67.3493 12.5166C67.3192 12.5036 67.2868 12.4966 67.2539 12.4961C67.2204 12.4956 67.1872 12.5018 67.1562 12.5144C67.1251 12.5269 67.0969 12.5456 67.0732 12.5693C67.0495 12.593 67.0309 12.6212 67.0183 12.6522C67.0057 12.6833 66.9995 12.7165 67 12.75V15.25C67 15.3163 67.0264 15.3799 67.0733 15.4268C67.1201 15.4737 67.1837 15.5 67.25 15.5H68.5V17H69V15V14H70.25C70.3163 14 70.3799 13.9737 70.4268 13.9268C70.4737 13.8799 70.5 13.8163 70.5 13.75V11.75C70.5005 11.7172 70.4946 11.6846 70.4825 11.654C70.4704 11.6235 70.4524 11.5957 70.4296 11.5721C70.4067 11.5485 70.3794 11.5297 70.3493 11.5166C70.3192 11.5036 70.2868 11.4966 70.2539 11.4961C70.2204 11.4956 70.1872 11.5018 70.1562 11.5144C70.1251 11.5269 70.0969 11.5456 70.0732 11.5693C70.0495 11.593 70.0309 11.6212 70.0183 11.6522C70.0057 11.6833 69.9995 11.7165 70 11.75V13.5H69V11.25C69.0005 11.2172 68.9946 11.1846 68.9825 11.154C68.9704 11.1235 68.9524 11.0957 68.9296 11.0721C68.9067 11.0485 68.8794 11.0297 68.8493 11.0166C68.8192 11.0036 68.7868 10.9966 68.7539 10.9961C68.7536 10.9961 68.7533 10.9961 68.753 10.9961V10.9961ZM120.753 13.9961C120.72 13.9957 120.686 14.002 120.655 14.0146C120.625 14.0273 120.596 14.046 120.573 14.0696C120.549 14.0933 120.531 14.1215 120.518 14.1524C120.506 14.1834 120.5 14.2166 120.5 14.25V14.5V18H119.5V15.75C119.501 15.7172 119.495 15.6846 119.482 15.654C119.47 15.6235 119.452 15.5957 119.43 15.5721C119.407 15.5485 119.379 15.5297 119.349 15.5166C119.319 15.5036 119.287 15.4966 119.254 15.4961C119.22 15.4956 119.187 15.5018 119.156 15.5144C119.125 15.5269 119.097 15.5456 119.073 15.5693C119.05 15.593 119.031 15.6212 119.018 15.6522C119.006 15.6833 119 15.7165 119 15.75V18.25C119 18.3163 119.026 18.3799 119.073 18.4268C119.12 18.4737 119.184 18.5 119.25 18.5H120.5V20H121V18V17H122.25C122.316 17 122.38 16.9737 122.427 16.9268C122.474 16.8799 122.5 16.8163 122.5 16.75V14.75C122.501 14.7172 122.495 14.6846 122.482 14.654C122.47 14.6235 122.452 14.5957 122.43 14.5721C122.407 14.5485 122.379 14.5297 122.349 14.5166C122.319 14.5036 122.287 14.4966 122.254 14.4961C122.22 14.4956 122.187 14.5018 122.156 14.5144C122.125 14.5269 122.097 14.5456 122.073 14.5693C122.05 14.593 122.031 14.6212 122.018 14.6522C122.006 14.6833 122 14.7165 122 14.75V16.5H121V14.25C121.001 14.2172 120.995 14.1846 120.982 14.154C120.97 14.1235 120.952 14.0957 120.93 14.0721C120.907 14.0485 120.879 14.0297 120.849 14.0166C120.819 14.0036 120.787 13.9966 120.754 13.9961C120.754 13.9961 120.753 13.9961 120.753 13.9961ZM22.753 19.4961C22.7196 19.4957 22.6864 19.502 22.6555 19.5146C22.6246 19.5273 22.5965 19.546 22.5729 19.5696C22.5493 19.5933 22.5307 19.6215 22.5182 19.6524C22.5057 19.6834 22.4995 19.7166 22.5 19.75V20V23.5H21.5V21.25C21.5005 21.2172 21.4946 21.1846 21.4825 21.154C21.4704 21.1235 21.4524 21.0957 21.4296 21.0721C21.4067 21.0485 21.3794 21.0297 21.3493 21.0166C21.3192 21.0036 21.2868 20.9966 21.2539 20.9961C21.2204 20.9956 21.1872 21.0018 21.1562 21.0144C21.1251 21.0269 21.0969 21.0456 21.0732 21.0693C21.0495 21.093 21.0309 21.1212 21.0183 21.1522C21.0057 21.1833 20.9995 21.2165 21 21.25V23.75C21 23.8163 21.0264 23.8799 21.0733 23.9268C21.1201 23.9737 21.1837 24 21.25 24H22.5V25.5H23V23.5V22.5H24.25C24.3163 22.5 24.3799 22.4737 24.4268 22.4268C24.4737 22.3799 24.5 22.3163 24.5 22.25V20.25C24.5005 20.2172 24.4946 20.1846 24.4825 20.154C24.4704 20.1235 24.4524 20.0957 24.4296 20.0721C24.4067 20.0485 24.3794 20.0297 24.3493 20.0166C24.3192 20.0036 24.2868 19.9966 24.2539 19.9961C24.2204 19.9956 24.1872 20.0018 24.1562 20.0144C24.1251 20.0269 24.0969 20.0456 24.0732 20.0693C24.0495 20.093 24.0309 20.1212 24.0183 20.1522C24.0057 20.1833 23.9995 20.2165 24 20.25V22H23V19.75C23.0005 19.7172 22.9946 19.6846 22.9825 19.654C22.9704 19.6235 22.9524 19.5957 22.9296 19.5721C22.9067 19.5485 22.8794 19.5297 22.8493 19.5166C22.8192 19.5036 22.7868 19.4966 22.7539 19.4961C22.7536 19.4961 22.7533 19.4961 22.753 19.4961V19.4961ZM56.753 20.4961C56.7196 20.4957 56.6864 20.502 56.6555 20.5146C56.6246 20.5273 56.5965 20.546 56.5729 20.5696C56.5493 20.5933 56.5307 20.6215 56.5182 20.6524C56.5057 20.6834 56.4995 20.7166 56.5 20.75V21V24.5H55.5V22.25C55.5005 22.2172 55.4946 22.1846 55.4825 22.154C55.4704 22.1235 55.4524 22.0957 55.4296 22.0721C55.4067 22.0485 55.3794 22.0297 55.3493 22.0166C55.3192 22.0036 55.2868 21.9966 55.2539 21.9961C55.2204 21.9956 55.1872 22.0018 55.1562 22.0144C55.1251 22.0269 55.0969 22.0456 55.0732 22.0693C55.0495 22.093 55.0309 22.1212 55.0183 22.1522C55.0057 22.1833 54.9995 22.2165 55 22.25V24.75C55 24.8163 55.0264 24.8799 55.0733 24.9268C55.1201 24.9737 55.1837 25 55.25 25H56.5V26.5H57V24.5V23.5H58.25C58.3163 23.5 58.3799 23.4737 58.4268 23.4268C58.4737 23.3799 58.5 23.3163 58.5 23.25V21.25C58.5005 21.2172 58.4946 21.1846 58.4825 21.154C58.4704 21.1235 58.4524 21.0957 58.4296 21.0721C58.4067 21.0485 58.3794 21.0297 58.3493 21.0166C58.3192 21.0036 58.2868 20.9966 58.2539 20.9961C58.2204 20.9956 58.1872 21.0018 58.1562 21.0144C58.1251 21.0269 58.0969 21.0456 58.0732 21.0693C58.0495 21.093 58.0309 21.1212 58.0183 21.1522C58.0057 21.1833 57.9995 21.2165 58 21.25V23H57V20.75C57.0005 20.7172 56.9946 20.6846 56.9825 20.654C56.9704 20.6235 56.9524 20.5957 56.9296 20.5721C56.9067 20.5485 56.8794 20.5297 56.8493 20.5166C56.8192 20.5036 56.7868 20.4966 56.7539 20.4961C56.7536 20.4961 56.7533 20.4961 56.753 20.4961V20.4961ZM78.2461 21.9961C78.2133 21.9966 78.1809 22.0036 78.1507 22.0166C78.1206 22.0297 78.0933 22.0485 78.0705 22.0721C78.0476 22.0957 78.0297 22.1235 78.0176 22.154C78.0055 22.1846 77.9995 22.2172 78 22.25V24.5H77V22.75C77.0006 22.7165 76.9943 22.6833 76.9818 22.6522C76.9692 22.6212 76.9505 22.593 76.9268 22.5693C76.9032 22.5456 76.875 22.5269 76.8439 22.5144C76.8129 22.5018 76.7796 22.4956 76.7461 22.4961C76.7133 22.4966 76.6809 22.5036 76.6507 22.5166C76.6206 22.5297 76.5933 22.5485 76.5705 22.5721C76.5476 22.5957 76.5297 22.6235 76.5176 22.654C76.5055 22.6846 76.4995 22.7172 76.5 22.75V24.75C76.5 24.8163 76.5264 24.8799 76.5733 24.9268C76.6201 24.9737 76.6837 25 76.75 25H78V26V28H78.5V26.5H79.75C79.8163 26.5 79.8799 26.4737 79.9268 26.4268C79.9737 26.3799 80 26.3163 80 26.25V23.75C80.0006 23.7165 79.9943 23.6833 79.9818 23.6522C79.9692 23.6212 79.9505 23.593 79.9268 23.5693C79.9032 23.5456 79.875 23.5269 79.8439 23.5144C79.8129 23.5018 79.7796 23.4956 79.7461 23.4961C79.7133 23.4966 79.6809 23.5036 79.6507 23.5166C79.6206 23.5297 79.5933 23.5485 79.5705 23.5721C79.5476 23.5957 79.5297 23.6235 79.5176 23.654C79.5055 23.6846 79.4995 23.7172 79.5 23.75V26H78.5V22.5V22.25C78.5006 22.2165 78.4943 22.1833 78.4818 22.1522C78.4692 22.1212 78.4505 22.093 78.4268 22.0693C78.4032 22.0456 78.375 22.0269 78.3439 22.0144C78.3129 22.0018 78.2796 21.9956 78.2461 21.9961ZM110.253 22.9961C110.22 22.9957 110.186 23.002 110.155 23.0146C110.125 23.0273 110.096 23.046 110.073 23.0696C110.049 23.0933 110.031 23.1215 110.018 23.1524C110.006 23.1834 110 23.2166 110 23.25V23.5V27H109V24.75C109.001 24.7172 108.995 24.6846 108.982 24.654C108.97 24.6235 108.952 24.5957 108.93 24.5721C108.907 24.5485 108.879 24.5297 108.849 24.5166C108.819 24.5036 108.787 24.4966 108.754 24.4961C108.72 24.4956 108.687 24.5018 108.656 24.5144C108.625 24.5269 108.597 24.5456 108.573 24.5693C108.55 24.593 108.531 24.6212 108.518 24.6522C108.506 24.6833 108.5 24.7165 108.5 24.75V27.25C108.5 27.3163 108.526 27.3799 108.573 27.4268C108.62 27.4737 108.684 27.5 108.75 27.5H110V29H110.5V27V26H111.75C111.816 26 111.88 25.9737 111.927 25.9268C111.974 25.8799 112 25.8163 112 25.75V23.75C112.001 23.7172 111.995 23.6846 111.982 23.654C111.97 23.6235 111.952 23.5957 111.93 23.5721C111.907 23.5485 111.879 23.5297 111.849 23.5166C111.819 23.5036 111.787 23.4966 111.754 23.4961C111.72 23.4956 111.687 23.5018 111.656 23.5144C111.625 23.5269 111.597 23.5456 111.573 23.5693C111.55 23.593 111.531 23.6212 111.518 23.6522C111.506 23.6833 111.5 23.7165 111.5 23.75V25.5H110.5V23.25C110.501 23.2172 110.495 23.1846 110.482 23.154C110.47 23.1235 110.452 23.0957 110.43 23.0721C110.407 23.0485 110.379 23.0297 110.349 23.0166C110.319 23.0036 110.287 22.9966 110.254 22.9961C110.254 22.9961 110.253 22.9961 110.253 22.9961V22.9961ZM37.2461 23.9961C37.2133 23.9966 37.1809 24.0036 37.1507 24.0166C37.1206 24.0297 37.0933 24.0485 37.0705 24.0721C37.0476 24.0957 37.0297 24.1235 37.0176 24.154C37.0055 24.1846 36.9995 24.2172 37 24.25V26.5H36V24.75C36.0006 24.7165 35.9943 24.6833 35.9818 24.6522C35.9692 24.6212 35.9505 24.593 35.9268 24.5693C35.9031 24.5456 35.8749 24.5269 35.8439 24.5144C35.8129 24.5018 35.7796 24.4956 35.7461 24.4961C35.7133 24.4966 35.6809 24.5036 35.6507 24.5166C35.6206 24.5297 35.5933 24.5485 35.5705 24.5721C35.5476 24.5957 35.5297 24.6235 35.5176 24.654C35.5055 24.6846 35.4995 24.7172 35.5 24.75V26.75C35.5 26.8163 35.5264 26.8799 35.5733 26.9268C35.6201 26.9737 35.6837 27 35.75 27H37V28V30H37.5V28.5H38.75C38.8163 28.5 38.8799 28.4737 38.9268 28.4268C38.9737 28.3799 39 28.3163 39 28.25V25.75C39.0006 25.7165 38.9943 25.6833 38.9818 25.6522C38.9692 25.6212 38.9505 25.593 38.9268 25.5693C38.9031 25.5456 38.8749 25.5269 38.8439 25.5144C38.8129 25.5018 38.7796 25.4956 38.7461 25.4961C38.7133 25.4966 38.6809 25.5036 38.6507 25.5166C38.6206 25.5297 38.5933 25.5485 38.5705 25.5721C38.5476 25.5957 38.5297 25.6235 38.5176 25.654C38.5055 25.6846 38.4995 25.7172 38.5 25.75V28H37.5V24.5V24.25C37.5006 24.2165 37.4943 24.1833 37.4818 24.1522C37.4692 24.1212 37.4505 24.093 37.4268 24.0693C37.4031 24.0456 37.3749 24.0269 37.3439 24.0144C37.3129 24.0018 37.2796 23.9956 37.2461 23.9961ZM5.24612 24.4961C5.21329 24.4966 5.18089 24.5036 5.15075 24.5166C5.12061 24.5297 5.09334 24.5485 5.07049 24.5721C5.04764 24.5957 5.02965 24.6235 5.01756 24.654C5.00547 24.6846 4.99952 24.7172 5.00003 24.75V27H4.00003V25.25C4.00055 25.2165 3.99435 25.1833 3.98177 25.1522C3.9692 25.1212 3.95051 25.093 3.92683 25.0693C3.90315 25.0456 3.87495 25.0269 3.84391 25.0144C3.81286 25.0018 3.77961 24.9956 3.74612 24.9961C3.71329 24.9966 3.68089 25.0036 3.65075 25.0166C3.62061 25.0297 3.59334 25.0485 3.57049 25.0721C3.54764 25.0957 3.52965 25.1235 3.51756 25.154C3.50547 25.1846 3.49952 25.2172 3.50003 25.25V27.25C3.50004 27.3163 3.52638 27.3799 3.57326 27.4268C3.62014 27.4737 3.68373 27.5 3.75003 27.5H5.00003V28.5V30.5H5.50003V29H6.75003C6.81633 29 6.87992 28.9737 6.9268 28.9268C6.97368 28.8799 7.00002 28.8163 7.00003 28.75V26.25C7.00055 26.2165 6.99434 26.1833 6.98177 26.1522C6.9692 26.1212 6.95051 26.093 6.92683 26.0693C6.90315 26.0456 6.87495 26.0269 6.84391 26.0144C6.81286 26.0018 6.77961 25.9956 6.74612 25.9961C6.71329 25.9966 6.68089 26.0036 6.65075 26.0166C6.62061 26.0297 6.59334 26.0485 6.57049 26.0721C6.54764 26.0957 6.52965 26.1235 6.51756 26.154C6.50547 26.1846 6.49952 26.2172 6.50003 26.25V28.5H5.50003V25V24.75C5.50055 24.7165 5.49435 24.6833 5.48177 24.6522C5.4692 24.6212 5.45051 24.593 5.42683 24.5693C5.40315 24.5456 5.37495 24.5269 5.34391 24.5144C5.31286 24.5018 5.27961 24.4956 5.24612 24.4961V24.4961ZM91.2461 26.4961C91.2133 26.4966 91.1809 26.5036 91.1507 26.5166C91.1206 26.5297 91.0933 26.5485 91.0705 26.5721C91.0476 26.5957 91.0297 26.6235 91.0176 26.654C91.0055 26.6846 90.9995 26.7172 91 26.75V29H90V27.25C90.0006 27.2165 89.9943 27.1833 89.9818 27.1522C89.9692 27.1212 89.9505 27.093 89.9268 27.0693C89.9032 27.0456 89.875 27.0269 89.8439 27.0144C89.8129 27.0018 89.7796 26.9956 89.7461 26.9961C89.7133 26.9966 89.6809 27.0036 89.6507 27.0166C89.6206 27.0297 89.5933 27.0485 89.5705 27.0721C89.5476 27.0957 89.5297 27.1235 89.5176 27.154C89.5055 27.1846 89.4995 27.2172 89.5 27.25V29.25C89.5 29.3163 89.5264 29.3799 89.5733 29.4268C89.6201 29.4737 89.6837 29.5 89.75 29.5H91V30.5V32.5H91.5V31H92.75C92.8163 31 92.8799 30.9737 92.9268 30.9268C92.9737 30.8799 93 30.8163 93 30.75V28.25C93.0006 28.2165 92.9943 28.1833 92.9818 28.1522C92.9692 28.1212 92.9505 28.093 92.9268 28.0693C92.9032 28.0456 92.875 28.0269 92.8439 28.0144C92.8129 28.0018 92.7796 27.9956 92.7461 27.9961C92.7133 27.9966 92.6809 28.0036 92.6507 28.0166C92.6206 28.0297 92.5933 28.0485 92.5705 28.0721C92.5476 28.0957 92.5297 28.1235 92.5176 28.154C92.5055 28.1846 92.4995 28.2172 92.5 28.25V30.5H91.5V27V26.75C91.5006 26.7165 91.4943 26.6833 91.4818 26.6522C91.4692 26.6212 91.4505 26.593 91.4268 26.5693C91.4032 26.5456 91.375 26.5269 91.3439 26.5144C91.3129 26.5018 91.2796 26.4956 91.2461 26.4961V26.4961ZM17.7461 33.9961C17.7133 33.9966 17.6809 34.0036 17.6507 34.0166C17.6206 34.0297 17.5933 34.0485 17.5705 34.0721C17.5476 34.0957 17.5297 34.1235 17.5176 34.154C17.5055 34.1846 17.4995 34.2172 17.5 34.25V36.5H16.5V34.75C16.5006 34.7165 16.4943 34.6833 16.4818 34.6522C16.4692 34.6212 16.4505 34.593 16.4268 34.5693C16.4031 34.5456 16.3749 34.5269 16.3439 34.5144C16.3129 34.5018 16.2796 34.4956 16.2461 34.4961C16.2133 34.4966 16.1809 34.5036 16.1507 34.5166C16.1206 34.5297 16.0933 34.5485 16.0705 34.5721C16.0476 34.5957 16.0297 34.6235 16.0176 34.654C16.0055 34.6846 15.9995 34.7172 16 34.75V36.75C16 36.8163 16.0264 36.8799 16.0733 36.9268C16.1201 36.9737 16.1837 37 16.25 37H17.5V38V40H18V38.5H19.25C19.3163 38.5 19.3799 38.4737 19.4268 38.4268C19.4737 38.3799 19.5 38.3163 19.5 38.25V35.75C19.5006 35.7165 19.4943 35.6833 19.4818 35.6522C19.4692 35.6212 19.4505 35.593 19.4268 35.5693C19.4031 35.5456 19.3749 35.5269 19.3439 35.5144C19.3129 35.5018 19.2796 35.4956 19.2461 35.4961C19.2133 35.4966 19.1809 35.5036 19.1507 35.5166C19.1206 35.5297 19.0933 35.5485 19.0705 35.5721C19.0476 35.5957 19.0297 35.6235 19.0176 35.654C19.0055 35.6846 18.9995 35.7172 19 35.75V38H18V34.5V34.25C18.0006 34.2165 17.9943 34.1833 17.9818 34.1522C17.9692 34.1212 17.9505 34.093 17.9268 34.0693C17.9031 34.0456 17.8749 34.0269 17.8439 34.0144C17.8129 34.0018 17.7796 33.9956 17.7461 33.9961ZM50.7461 34.4961C50.7133 34.4966 50.6809 34.5036 50.6507 34.5166C50.6206 34.5297 50.5933 34.5485 50.5705 34.5721C50.5476 34.5957 50.5297 34.6235 50.5176 34.654C50.5055 34.6846 50.4995 34.7172 50.5 34.75V37H49.5V35.25C49.5006 35.2165 49.4943 35.1833 49.4818 35.1522C49.4692 35.1212 49.4505 35.093 49.4268 35.0693C49.4031 35.0456 49.3749 35.0269 49.3439 35.0144C49.3129 35.0018 49.2796 34.9956 49.2461 34.9961C49.2133 34.9966 49.1809 35.0036 49.1507 35.0166C49.1206 35.0297 49.0933 35.0485 49.0705 35.0721C49.0476 35.0957 49.0297 35.1235 49.0176 35.154C49.0055 35.1846 48.9995 35.2172 49 35.25V37.25C49 37.3163 49.0264 37.3799 49.0733 37.4268C49.1201 37.4737 49.1837 37.5 49.25 37.5H50.5V38.5V40.5H51V39H52.25C52.3163 39 52.3799 38.9737 52.4268 38.9268C52.4737 38.8799 52.5 38.8163 52.5 38.75V36.25C52.5006 36.2165 52.4943 36.1833 52.4818 36.1522C52.4692 36.1212 52.4505 36.093 52.4268 36.0693C52.4031 36.0456 52.3749 36.0269 52.3439 36.0144C52.3129 36.0018 52.2796 35.9956 52.2461 35.9961C52.2133 35.9966 52.1809 36.0036 52.1507 36.0166C52.1206 36.0297 52.0933 36.0485 52.0705 36.0721C52.0476 36.0957 52.0297 36.1235 52.0176 36.154C52.0055 36.1846 51.9995 36.2172 52 36.25V38.5H51V35V34.75C51.0006 34.7165 50.9943 34.6833 50.9818 34.6522C50.9692 34.6212 50.9505 34.593 50.9268 34.5693C50.9031 34.5456 50.8749 34.5269 50.8439 34.5144C50.8129 34.5018 50.7796 34.4956 50.7461 34.4961V34.4961ZM67.253 35.4961C67.2196 35.4957 67.1864 35.502 67.1555 35.5146C67.1246 35.5273 67.0965 35.546 67.0729 35.5696C67.0493 35.5933 67.0307 35.6215 67.0182 35.6524C67.0057 35.6834 66.9995 35.7166 67 35.75V36V39.5H66V37.25C66.0005 37.2172 65.9946 37.1846 65.9825 37.154C65.9704 37.1235 65.9524 37.0957 65.9296 37.0721C65.9067 37.0485 65.8794 37.0297 65.8493 37.0166C65.8192 37.0036 65.7868 36.9966 65.7539 36.9961C65.7204 36.9956 65.6872 37.0018 65.6562 37.0144C65.6251 37.0269 65.5969 37.0456 65.5732 37.0693C65.5495 37.093 65.5309 37.1212 65.5183 37.1522C65.5057 37.1833 65.4995 37.2165 65.5 37.25V39.75C65.5 39.8163 65.5264 39.8799 65.5733 39.9268C65.6201 39.9737 65.6837 40 65.75 40H67V41.5H67.5V39.5V38.5H68.75C68.8163 38.5 68.8799 38.4737 68.9268 38.4268C68.9737 38.3799 69 38.3163 69 38.25V36.25C69.0005 36.2172 68.9946 36.1846 68.9825 36.154C68.9704 36.1235 68.9524 36.0957 68.9296 36.0721C68.9067 36.0485 68.8794 36.0297 68.8493 36.0166C68.8192 36.0036 68.7868 35.9966 68.7539 35.9961C68.7204 35.9956 68.6872 36.0018 68.6562 36.0144C68.6251 36.0269 68.5969 36.0456 68.5732 36.0693C68.5495 36.093 68.5309 36.1212 68.5183 36.1522C68.5057 36.1833 68.4995 36.2165 68.5 36.25V38H67.5V35.75C67.5005 35.7172 67.4946 35.6846 67.4825 35.654C67.4704 35.6235 67.4524 35.5957 67.4296 35.5721C67.4067 35.5485 67.3794 35.5297 67.3493 35.5166C67.3192 35.5036 67.2868 35.4966 67.2539 35.4961C67.2536 35.4961 67.2533 35.4961 67.253 35.4961ZM103.746 37.4961C103.713 37.4966 103.681 37.5036 103.651 37.5166C103.621 37.5297 103.593 37.5485 103.57 37.5721C103.548 37.5957 103.53 37.6235 103.518 37.654C103.505 37.6846 103.5 37.7172 103.5 37.75V40H102.5V38.25C102.501 38.2165 102.494 38.1833 102.482 38.1522C102.469 38.1212 102.451 38.093 102.427 38.0693C102.403 38.0456 102.375 38.0269 102.344 38.0144C102.313 38.0018 102.28 37.9956 102.246 37.9961C102.213 37.9966 102.181 38.0036 102.151 38.0166C102.121 38.0297 102.093 38.0485 102.07 38.0721C102.048 38.0957 102.03 38.1235 102.018 38.154C102.005 38.1846 102 38.2172 102 38.25V40.25C102 40.3163 102.026 40.3799 102.073 40.4268C102.12 40.4737 102.184 40.5 102.25 40.5H103.5V41.5V43.5H104V42H105.25C105.316 42 105.38 41.9737 105.427 41.9268C105.474 41.8799 105.5 41.8163 105.5 41.75V39.25C105.501 39.2165 105.494 39.1833 105.482 39.1522C105.469 39.1212 105.451 39.093 105.427 39.0693C105.403 39.0456 105.375 39.0269 105.344 39.0144C105.313 39.0018 105.28 38.9956 105.246 38.9961C105.213 38.9966 105.181 39.0036 105.151 39.0166C105.121 39.0297 105.093 39.0485 105.07 39.0721C105.048 39.0957 105.03 39.1235 105.018 39.154C105.005 39.1846 105 39.2172 105 39.25V41.5H104V38V37.75C104.001 37.7165 103.994 37.6833 103.982 37.6522C103.969 37.6212 103.951 37.593 103.927 37.5693C103.903 37.5456 103.875 37.5269 103.844 37.5144C103.813 37.5018 103.78 37.4956 103.746 37.4961V37.4961ZM82.2461 39.4961C82.2133 39.4966 82.1809 39.5036 82.1507 39.5166C82.1206 39.5297 82.0933 39.5485 82.0705 39.5721C82.0476 39.5957 82.0297 39.6235 82.0176 39.654C82.0055 39.6846 81.9995 39.7172 82 39.75V42H81V40.25C81.0006 40.2165 80.9943 40.1833 80.9818 40.1522C80.9692 40.1212 80.9505 40.093 80.9268 40.0693C80.9032 40.0456 80.875 40.0269 80.8439 40.0144C80.8129 40.0018 80.7796 39.9956 80.7461 39.9961C80.7133 39.9966 80.6809 40.0036 80.6507 40.0166C80.6206 40.0297 80.5933 40.0485 80.5705 40.0721C80.5476 40.0957 80.5297 40.1235 80.5176 40.154C80.5055 40.1846 80.4995 40.2172 80.5 40.25V42.25C80.5 42.3163 80.5264 42.3799 80.5733 42.4268C80.6201 42.4737 80.6837 42.5 80.75 42.5H82V43.5V45.5H82.5V44H83.75C83.8163 44 83.8799 43.9737 83.9268 43.9268C83.9737 43.8799 84 43.8163 84 43.75V41.25C84.0006 41.2165 83.9943 41.1833 83.9818 41.1522C83.9692 41.1212 83.9505 41.093 83.9268 41.0693C83.9032 41.0456 83.875 41.0269 83.8439 41.0144C83.8129 41.0018 83.7796 40.9956 83.7461 40.9961C83.7133 40.9966 83.6809 41.0036 83.6507 41.0166C83.6206 41.0297 83.5933 41.0485 83.5705 41.0721C83.5476 41.0957 83.5297 41.1235 83.5176 41.154C83.5055 41.1846 83.4995 41.2172 83.5 41.25V43.5H82.5V40V39.75C82.5006 39.7165 82.4943 39.6833 82.4818 39.6522C82.4692 39.6212 82.4505 39.593 82.4268 39.5693C82.4032 39.5456 82.375 39.5269 82.3439 39.5144C82.3129 39.5018 82.2796 39.4956 82.2461 39.4961V39.4961ZM37.2461 40.9961C37.2133 40.9966 37.1809 41.0036 37.1507 41.0166C37.1206 41.0297 37.0933 41.0485 37.0705 41.0721C37.0476 41.0957 37.0297 41.1235 37.0176 41.154C37.0055 41.1846 36.9995 41.2172 37 41.25V43.5H36V41.75C36.0006 41.7165 35.9943 41.6833 35.9818 41.6522C35.9692 41.6212 35.9505 41.593 35.9268 41.5693C35.9031 41.5456 35.8749 41.5269 35.8439 41.5144C35.8129 41.5018 35.7796 41.4956 35.7461 41.4961C35.7133 41.4966 35.6809 41.5036 35.6507 41.5166C35.6206 41.5297 35.5933 41.5485 35.5705 41.5721C35.5476 41.5957 35.5297 41.6235 35.5176 41.654C35.5055 41.6846 35.4995 41.7172 35.5 41.75V43.75C35.5 43.8163 35.5264 43.8799 35.5733 43.9268C35.6201 43.9737 35.6837 44 35.75 44H37V45V47H37.5V45.5H38.75C38.8163 45.5 38.8799 45.4737 38.9268 45.4268C38.9737 45.3799 39 45.3163 39 45.25V42.75C39.0006 42.7165 38.9943 42.6833 38.9818 42.6522C38.9692 42.6212 38.9505 42.593 38.9268 42.5693C38.9031 42.5456 38.8749 42.5269 38.8439 42.5144C38.8129 42.5018 38.7796 42.4956 38.7461 42.4961C38.7133 42.4966 38.6809 42.5036 38.6507 42.5166C38.6206 42.5297 38.5933 42.5485 38.5705 42.5721C38.5476 42.5957 38.5297 42.6235 38.5176 42.654C38.5055 42.6846 38.4995 42.7172 38.5 42.75V45H37.5V41.5V41.25C37.5006 41.2165 37.4943 41.1833 37.4818 41.1522C37.4692 41.1212 37.4505 41.093 37.4268 41.0693C37.4031 41.0456 37.3749 41.0269 37.3439 41.0144C37.3129 41.0018 37.2796 40.9956 37.2461 40.9961ZM118.753 42.4961C118.72 42.4957 118.686 42.502 118.655 42.5146C118.625 42.5273 118.596 42.546 118.573 42.5696C118.549 42.5933 118.531 42.6215 118.518 42.6524C118.506 42.6834 118.5 42.7166 118.5 42.75V43V46.5H117.5V44.25C117.501 44.2172 117.495 44.1846 117.482 44.154C117.47 44.1235 117.452 44.0957 117.43 44.0721C117.407 44.0485 117.379 44.0297 117.349 44.0166C117.319 44.0036 117.287 43.9966 117.254 43.9961C117.22 43.9956 117.187 44.0018 117.156 44.0144C117.125 44.0269 117.097 44.0456 117.073 44.0693C117.05 44.093 117.031 44.1212 117.018 44.1522C117.006 44.1833 117 44.2165 117 44.25V46.75C117 46.8163 117.026 46.8799 117.073 46.9268C117.12 46.9737 117.184 47 117.25 47H118.5V48.5H119V46.5V45.5H120.25C120.316 45.5 120.38 45.4737 120.427 45.4268C120.474 45.3799 120.5 45.3163 120.5 45.25V43.25C120.501 43.2172 120.495 43.1846 120.482 43.154C120.47 43.1235 120.452 43.0957 120.43 43.0721C120.407 43.0485 120.379 43.0297 120.349 43.0166C120.319 43.0036 120.287 42.9966 120.254 42.9961C120.22 42.9956 120.187 43.0018 120.156 43.0144C120.125 43.0269 120.097 43.0456 120.073 43.0693C120.05 43.093 120.031 43.1212 120.018 43.1522C120.006 43.1833 120 43.2165 120 43.25V45H119V42.75C119.001 42.7172 118.995 42.6846 118.982 42.654C118.97 42.6235 118.952 42.5957 118.93 42.5721C118.907 42.5485 118.879 42.5297 118.849 42.5166C118.819 42.5036 118.787 42.4966 118.754 42.4961C118.754 42.4961 118.753 42.4961 118.753 42.4961ZM5.75296 42.9961C5.71955 42.9957 5.68641 43.002 5.65548 43.0146C5.62455 43.0273 5.59647 43.046 5.57289 43.0696C5.54931 43.0933 5.53072 43.1215 5.5182 43.1524C5.50569 43.1834 5.49951 43.2166 5.50003 43.25V43.5V47H4.50003V44.75C4.50054 44.7172 4.49459 44.6846 4.4825 44.654C4.47041 44.6235 4.45242 44.5957 4.42957 44.5721C4.40672 44.5485 4.37945 44.5297 4.34931 44.5166C4.31918 44.5036 4.28677 44.4966 4.25394 44.4961C4.22045 44.4956 4.1872 44.5018 4.15615 44.5144C4.12511 44.5269 4.09691 44.5456 4.07323 44.5693C4.04955 44.593 4.03087 44.6212 4.01829 44.6522C4.00572 44.6833 3.99951 44.7165 4.00003 44.75V47.25C4.00004 47.3163 4.02638 47.3799 4.07326 47.4268C4.12014 47.4737 4.18373 47.5 4.25003 47.5H5.50003V49H6.00003V47V46H7.25003C7.31633 46 7.37992 45.9737 7.4268 45.9268C7.47368 45.8799 7.50002 45.8163 7.50003 45.75V43.75C7.50054 43.7172 7.49459 43.6846 7.4825 43.654C7.47041 43.6235 7.45242 43.5957 7.42957 43.5721C7.40672 43.5485 7.37945 43.5297 7.34931 43.5166C7.31918 43.5036 7.28677 43.4966 7.25394 43.4961C7.22045 43.4956 7.1872 43.5018 7.15615 43.5144C7.12511 43.5269 7.09691 43.5456 7.07323 43.5693C7.04955 43.593 7.03086 43.6212 7.01829 43.6522C7.00572 43.6833 6.99951 43.7165 7.00003 43.75V45.5H6.00003V43.25C6.00054 43.2172 5.99459 43.1846 5.9825 43.154C5.97041 43.1235 5.95242 43.0957 5.92957 43.0721C5.90672 43.0485 5.87945 43.0297 5.84931 43.0166C5.81918 43.0036 5.78677 42.9966 5.75394 42.9961C5.75361 42.9961 5.75329 42.9961 5.75296 42.9961V42.9961ZM93.253 49.9961C93.2196 49.9957 93.1864 50.002 93.1555 50.0146C93.1246 50.0273 93.0965 50.046 93.0729 50.0696C93.0493 50.0933 93.0307 50.1215 93.0182 50.1524C93.0057 50.1834 92.9995 50.2166 93 50.25V50.5V54H92V51.75C92.0005 51.7172 91.9946 51.6846 91.9825 51.654C91.9704 51.6235 91.9524 51.5957 91.9296 51.5721C91.9067 51.5485 91.8794 51.5297 91.8493 51.5166C91.8192 51.5036 91.7868 51.4966 91.7539 51.4961C91.7204 51.4956 91.6872 51.5018 91.6562 51.5144C91.6251 51.5269 91.5969 51.5456 91.5732 51.5693C91.5495 51.593 91.5309 51.6212 91.5183 51.6522C91.5057 51.6833 91.4995 51.7165 91.5 51.75V54.25C91.5 54.3163 91.5264 54.3799 91.5733 54.4268C91.6201 54.4737 91.6837 54.5 91.75 54.5H93V56H93.5V54V53H94.75C94.8163 53 94.8799 52.9737 94.9268 52.9268C94.9737 52.8799 95 52.8163 95 52.75V50.75C95.0005 50.7172 94.9946 50.6846 94.9825 50.654C94.9704 50.6235 94.9524 50.5957 94.9296 50.5721C94.9067 50.5485 94.8794 50.5297 94.8493 50.5166C94.8192 50.5036 94.7868 50.4966 94.7539 50.4961C94.7204 50.4956 94.6872 50.5018 94.6562 50.5144C94.6251 50.5269 94.5969 50.5456 94.5732 50.5693C94.5495 50.593 94.5309 50.6212 94.5183 50.6522C94.5057 50.6833 94.4995 50.7165 94.5 50.75V52.5H93.5V50.25C93.5005 50.2172 93.4946 50.1846 93.4825 50.154C93.4704 50.1235 93.4524 50.0957 93.4296 50.0721C93.4067 50.0485 93.3794 50.0297 93.3493 50.0166C93.3192 50.0036 93.2868 49.9966 93.2539 49.9961C93.2536 49.9961 93.2533 49.9961 93.253 49.9961ZM24.2461 50.4961C24.2133 50.4966 24.1809 50.5036 24.1508 50.5166C24.1206 50.5297 24.0933 50.5485 24.0705 50.5721C24.0476 50.5957 24.0297 50.6235 24.0176 50.654C24.0055 50.6846 23.9995 50.7172 24 50.75V53H23V51.25C23.0006 51.2165 22.9943 51.1833 22.9818 51.1522C22.9692 51.1212 22.9505 51.093 22.9268 51.0693C22.9031 51.0456 22.8749 51.0269 22.8439 51.0144C22.8129 51.0018 22.7796 50.9956 22.7461 50.9961C22.7133 50.9966 22.6809 51.0036 22.6508 51.0166C22.6206 51.0297 22.5933 51.0485 22.5705 51.0721C22.5476 51.0957 22.5297 51.1235 22.5176 51.154C22.5055 51.1846 22.4995 51.2172 22.5 51.25V53.25C22.5 53.3163 22.5264 53.3799 22.5733 53.4268C22.6201 53.4737 22.6837 53.5 22.75 53.5H24V54.5V56.5H24.5V55H25.75C25.8163 55 25.8799 54.9737 25.9268 54.9268C25.9737 54.8799 26 54.8163 26 54.75V52.25C26.0006 52.2165 25.9943 52.1833 25.9818 52.1522C25.9692 52.1212 25.9505 52.093 25.9268 52.0693C25.9031 52.0456 25.8749 52.0269 25.8439 52.0144C25.8129 52.0018 25.7796 51.9956 25.7461 51.9961C25.7133 51.9966 25.6809 52.0036 25.6508 52.0166C25.6206 52.0297 25.5933 52.0485 25.5705 52.0721C25.5476 52.0957 25.5297 52.1235 25.5176 52.154C25.5055 52.1846 25.4995 52.2172 25.5 52.25V54.5H24.5V51V50.75C24.5006 50.7165 24.4943 50.6833 24.4818 50.6522C24.4692 50.6212 24.4505 50.593 24.4268 50.5693C24.4031 50.5456 24.3749 50.5269 24.3439 50.5144C24.3129 50.5018 24.2796 50.4956 24.2461 50.4961V50.4961ZM55.253 50.4961C55.2196 50.4957 55.1864 50.502 55.1555 50.5146C55.1246 50.5273 55.0965 50.546 55.0729 50.5696C55.0493 50.5933 55.0307 50.6215 55.0182 50.6524C55.0057 50.6834 54.9995 50.7166 55 50.75V51V54.5H54V52.25C54.0005 52.2172 53.9946 52.1846 53.9825 52.154C53.9704 52.1235 53.9524 52.0957 53.9296 52.0721C53.9067 52.0485 53.8794 52.0297 53.8493 52.0166C53.8192 52.0036 53.7868 51.9966 53.7539 51.9961C53.7204 51.9956 53.6872 52.0018 53.6562 52.0144C53.6251 52.0269 53.5969 52.0456 53.5732 52.0693C53.5495 52.093 53.5309 52.1212 53.5183 52.1522C53.5057 52.1833 53.4995 52.2165 53.5 52.25V54.75C53.5 54.8163 53.5264 54.8799 53.5733 54.9268C53.6201 54.9737 53.6837 55 53.75 55H55V56.5H55.5V54.5V53.5H56.75C56.8163 53.5 56.8799 53.4737 56.9268 53.4268C56.9737 53.3799 57 53.3163 57 53.25V51.25C57.0005 51.2172 56.9946 51.1846 56.9825 51.154C56.9704 51.1235 56.9524 51.0957 56.9296 51.0721C56.9067 51.0485 56.8794 51.0297 56.8493 51.0166C56.8192 51.0036 56.7868 50.9966 56.7539 50.9961C56.7204 50.9956 56.6872 51.0018 56.6562 51.0144C56.6251 51.0269 56.5969 51.0456 56.5732 51.0693C56.5495 51.093 56.5309 51.1212 56.5183 51.1522C56.5057 51.1833 56.4995 51.2165 56.5 51.25V53H55.5V50.75C55.5005 50.7172 55.4946 50.6846 55.4825 50.654C55.4704 50.6235 55.4524 50.5957 55.4296 50.5721C55.4067 50.5485 55.3794 50.5297 55.3493 50.5166C55.3192 50.5036 55.2868 50.4966 55.2539 50.4961C55.2536 50.4961 55.2533 50.4961 55.253 50.4961V50.4961ZM73.253 53.4961C73.2196 53.4957 73.1864 53.502 73.1555 53.5146C73.1246 53.5273 73.0965 53.546 73.0729 53.5696C73.0493 53.5933 73.0307 53.6215 73.0182 53.6524C73.0057 53.6834 72.9995 53.7166 73 53.75V54V57.5H72V55.25C72.0005 55.2172 71.9946 55.1846 71.9825 55.154C71.9704 55.1235 71.9524 55.0957 71.9296 55.0721C71.9067 55.0485 71.8794 55.0297 71.8493 55.0166C71.8192 55.0036 71.7868 54.9966 71.7539 54.9961C71.7204 54.9956 71.6872 55.0018 71.6562 55.0144C71.6251 55.0269 71.5969 55.0456 71.5732 55.0693C71.5495 55.093 71.5309 55.1212 71.5183 55.1522C71.5057 55.1833 71.4995 55.2165 71.5 55.25V57.75C71.5 57.8163 71.5264 57.8799 71.5733 57.9268C71.6201 57.9737 71.6837 58 71.75 58H73V59.5H73.5V57.5V56.5H74.75C74.8163 56.5 74.8799 56.4737 74.9268 56.4268C74.9737 56.3799 75 56.3163 75 56.25V54.25C75.0005 54.2172 74.9946 54.1846 74.9825 54.154C74.9704 54.1235 74.9524 54.0957 74.9296 54.0721C74.9067 54.0485 74.8794 54.0297 74.8493 54.0166C74.8192 54.0036 74.7868 53.9966 74.7539 53.9961C74.7204 53.9956 74.6872 54.0018 74.6562 54.0144C74.6251 54.0269 74.5969 54.0456 74.5732 54.0693C74.5495 54.093 74.5309 54.1212 74.5183 54.1522C74.5057 54.1833 74.4995 54.2165 74.5 54.25V56H73.5V53.75C73.5005 53.7172 73.4946 53.6846 73.4825 53.654C73.4704 53.6235 73.4524 53.5957 73.4296 53.5721C73.4067 53.5485 73.3794 53.5297 73.3493 53.5166C73.3192 53.5036 73.2868 53.4966 73.2539 53.4961C73.2536 53.4961 73.2533 53.4961 73.253 53.4961ZM108.253 54.9961C108.22 54.9957 108.186 55.002 108.155 55.0146C108.125 55.0273 108.096 55.046 108.073 55.0696C108.049 55.0933 108.031 55.1215 108.018 55.1524C108.006 55.1834 108 55.2166 108 55.25V55.5V59H107V56.75C107.001 56.7172 106.995 56.6846 106.982 56.654C106.97 56.6235 106.952 56.5957 106.93 56.5721C106.907 56.5485 106.879 56.5297 106.849 56.5166C106.819 56.5036 106.787 56.4966 106.754 56.4961C106.72 56.4956 106.687 56.5018 106.656 56.5144C106.625 56.5269 106.597 56.5456 106.573 56.5693C106.55 56.593 106.531 56.6212 106.518 56.6522C106.506 56.6833 106.5 56.7165 106.5 56.75V59.25C106.5 59.3163 106.526 59.3799 106.573 59.4268C106.62 59.4737 106.684 59.5 106.75 59.5H108V61H108.5V59V58H109.75C109.816 58 109.88 57.9737 109.927 57.9268C109.974 57.8799 110 57.8163 110 57.75V55.75C110.001 55.7172 109.995 55.6846 109.982 55.654C109.97 55.6235 109.952 55.5957 109.93 55.5721C109.907 55.5485 109.879 55.5297 109.849 55.5166C109.819 55.5036 109.787 55.4966 109.754 55.4961C109.72 55.4956 109.687 55.5018 109.656 55.5144C109.625 55.5269 109.597 55.5456 109.573 55.5693C109.55 55.593 109.531 55.6212 109.518 55.6522C109.506 55.6833 109.5 55.7165 109.5 55.75V57.5H108.5V55.25C108.501 55.2172 108.495 55.1846 108.482 55.154C108.47 55.1235 108.452 55.0957 108.43 55.0721C108.407 55.0485 108.379 55.0297 108.349 55.0166C108.319 55.0036 108.287 54.9966 108.254 54.9961C108.254 54.9961 108.253 54.9961 108.253 54.9961ZM41.253 55.4961C41.2196 55.4957 41.1864 55.502 41.1555 55.5146C41.1246 55.5273 41.0965 55.546 41.0729 55.5696C41.0493 55.5933 41.0307 55.6215 41.0182 55.6524C41.0057 55.6834 40.9995 55.7166 41 55.75V56V59.5H40V57.25C40.0005 57.2172 39.9946 57.1846 39.9825 57.154C39.9704 57.1235 39.9524 57.0957 39.9296 57.0721C39.9067 57.0485 39.8794 57.0297 39.8493 57.0166C39.8192 57.0036 39.7868 56.9966 39.7539 56.9961C39.7204 56.9956 39.6872 57.0018 39.6562 57.0144C39.6251 57.0269 39.5969 57.0456 39.5732 57.0693C39.5495 57.093 39.5309 57.1212 39.5183 57.1522C39.5057 57.1833 39.4995 57.2165 39.5 57.25V59.75C39.5 59.8163 39.5264 59.8799 39.5733 59.9268C39.6201 59.9737 39.6837 60 39.75 60H41V61.5H41.5V59.5V58.5H42.75C42.8163 58.5 42.8799 58.4737 42.9268 58.4268C42.9737 58.3799 43 58.3163 43 58.25V56.25C43.0005 56.2172 42.9946 56.1846 42.9825 56.154C42.9704 56.1235 42.9524 56.0957 42.9296 56.0721C42.9067 56.0485 42.8794 56.0297 42.8493 56.0166C42.8192 56.0036 42.7868 55.9966 42.7539 55.9961C42.7204 55.9956 42.6872 56.0018 42.6562 56.0144C42.6251 56.0269 42.5969 56.0456 42.5732 56.0693C42.5495 56.093 42.5309 56.1212 42.5183 56.1522C42.5057 56.1833 42.4995 56.2165 42.5 56.25V58H41.5V55.75C41.5005 55.7172 41.4946 55.6846 41.4825 55.654C41.4704 55.6235 41.4524 55.5957 41.4296 55.5721C41.4067 55.5485 41.3794 55.5297 41.3493 55.5166C41.3192 55.5036 41.2868 55.4966 41.2539 55.4961C41.2536 55.4961 41.2533 55.4961 41.253 55.4961V55.4961ZM9.25296 56.4961C9.21955 56.4957 9.18641 56.502 9.15548 56.5146C9.12455 56.5273 9.09647 56.546 9.07289 56.5696C9.04931 56.5933 9.03072 56.6215 9.0182 56.6524C9.00569 56.6834 8.99951 56.7166 9.00003 56.75V57V60.5H8.00003V58.25C8.00054 58.2172 7.99459 58.1846 7.9825 58.154C7.97041 58.1235 7.95242 58.0957 7.92957 58.0721C7.90672 58.0485 7.87945 58.0297 7.84931 58.0166C7.81918 58.0036 7.78677 57.9966 7.75394 57.9961C7.72045 57.9956 7.6872 58.0018 7.65615 58.0144C7.62511 58.0269 7.59691 58.0456 7.57323 58.0693C7.54955 58.093 7.53087 58.1212 7.51829 58.1522C7.50572 58.1833 7.49951 58.2165 7.50003 58.25V60.75C7.50004 60.8163 7.52638 60.8799 7.57326 60.9268C7.62014 60.9737 7.68373 61 7.75003 61H9.00003V62.5H9.50003V60.5V59.5H10.75C10.8163 59.5 10.8799 59.4737 10.9268 59.4268C10.9737 59.3799 11 59.3163 11 59.25V57.25C11.0005 57.2172 10.9946 57.1846 10.9825 57.154C10.9704 57.1235 10.9524 57.0957 10.9296 57.0721C10.9067 57.0485 10.8794 57.0297 10.8493 57.0166C10.8192 57.0036 10.7868 56.9966 10.7539 56.9961C10.7204 56.9956 10.6872 57.0018 10.6562 57.0144C10.6251 57.0269 10.5969 57.0456 10.5732 57.0693C10.5495 57.093 10.5309 57.1212 10.5183 57.1522C10.5057 57.1833 10.4995 57.2165 10.5 57.25V59H9.50003V56.75C9.50054 56.7172 9.49459 56.6846 9.4825 56.654C9.47041 56.6235 9.45242 56.5957 9.42957 56.5721C9.40672 56.5485 9.37945 56.5297 9.34931 56.5166C9.31918 56.5036 9.28677 56.4966 9.25394 56.4961C9.25361 56.4961 9.25329 56.4961 9.25296 56.4961V56.4961ZM122.753 61.4961C122.72 61.4957 122.686 61.502 122.655 61.5146C122.625 61.5273 122.596 61.546 122.573 61.5696C122.549 61.5933 122.531 61.6215 122.518 61.6524C122.506 61.6834 122.5 61.7166 122.5 61.75V62V65.5H121.5V63.25C121.501 63.2172 121.495 63.1846 121.482 63.154C121.47 63.1235 121.452 63.0957 121.43 63.0721C121.407 63.0485 121.379 63.0297 121.349 63.0166C121.319 63.0036 121.287 62.9966 121.254 62.9961C121.22 62.9956 121.187 63.0018 121.156 63.0144C121.125 63.0269 121.097 63.0456 121.073 63.0693C121.05 63.093 121.031 63.1212 121.018 63.1522C121.006 63.1833 121 63.2165 121 63.25V65.75C121 65.8163 121.026 65.8799 121.073 65.9268C121.12 65.9737 121.184 66 121.25 66H122.5V67.5H123V65.5V64.5H124.25C124.316 64.5 124.38 64.4737 124.427 64.4268C124.474 64.3799 124.5 64.3163 124.5 64.25V62.25C124.501 62.2172 124.495 62.1846 124.482 62.154C124.47 62.1235 124.452 62.0957 124.43 62.0721C124.407 62.0485 124.379 62.0297 124.349 62.0166C124.319 62.0036 124.287 61.9966 124.254 61.9961C124.22 61.9956 124.187 62.0018 124.156 62.0144C124.125 62.0269 124.097 62.0456 124.073 62.0693C124.05 62.093 124.031 62.1212 124.018 62.1522C124.006 62.1833 124 62.2165 124 62.25V64H123V61.75C123.001 61.7172 122.995 61.6846 122.982 61.654C122.97 61.6235 122.952 61.5957 122.93 61.5721C122.907 61.5485 122.879 61.5297 122.849 61.5166C122.819 61.5036 122.787 61.4966 122.754 61.4961C122.754 61.4961 122.753 61.4961 122.753 61.4961ZM84.253 62.4961C84.2196 62.4957 84.1864 62.502 84.1555 62.5146C84.1246 62.5273 84.0965 62.546 84.0729 62.5696C84.0493 62.5933 84.0307 62.6215 84.0182 62.6524C84.0057 62.6834 83.9995 62.7166 84 62.75V63V66.5H83V64.25C83.0005 64.2172 82.9946 64.1846 82.9825 64.154C82.9704 64.1235 82.9524 64.0957 82.9296 64.0721C82.9067 64.0485 82.8794 64.0297 82.8493 64.0166C82.8192 64.0036 82.7868 63.9966 82.7539 63.9961C82.7204 63.9956 82.6872 64.0018 82.6562 64.0144C82.6251 64.0269 82.5969 64.0456 82.5732 64.0693C82.5495 64.093 82.5309 64.1212 82.5183 64.1522C82.5057 64.1833 82.4995 64.2165 82.5 64.25V66.75C82.5 66.8163 82.5264 66.8799 82.5733 66.9268C82.6201 66.9737 82.6837 67 82.75 67H84V68.5H84.5V66.5V65.5H85.75C85.8163 65.5 85.8799 65.4737 85.9268 65.4268C85.9737 65.3799 86 65.3163 86 65.25V63.25C86.0005 63.2172 85.9946 63.1846 85.9825 63.154C85.9704 63.1235 85.9524 63.0957 85.9296 63.0721C85.9067 63.0485 85.8794 63.0297 85.8493 63.0166C85.8192 63.0036 85.7868 62.9966 85.7539 62.9961C85.7204 62.9956 85.6872 63.0018 85.6562 63.0144C85.6251 63.0269 85.5969 63.0456 85.5732 63.0693C85.5495 63.093 85.5309 63.1212 85.5183 63.1522C85.5057 63.1833 85.4995 63.2165 85.5 63.25V65H84.5V62.75C84.5005 62.7172 84.4946 62.6846 84.4825 62.654C84.4704 62.6235 84.4524 62.5957 84.4296 62.5721C84.4067 62.5485 84.3794 62.5297 84.3493 62.5166C84.3192 62.5036 84.2868 62.4966 84.2539 62.4961C84.2536 62.4961 84.2533 62.4961 84.253 62.4961ZM57.253 65.9961C57.2196 65.9957 57.1864 66.002 57.1555 66.0146C57.1246 66.0273 57.0965 66.046 57.0729 66.0696C57.0493 66.0933 57.0307 66.1215 57.0182 66.1525C57.0057 66.1834 56.9995 66.2166 57 66.25V66.5V70H56V67.75C56.0005 67.7172 55.9946 67.6846 55.9825 67.654C55.9704 67.6235 55.9524 67.5957 55.9296 67.5721C55.9067 67.5485 55.8794 67.5297 55.8493 67.5166C55.8192 67.5036 55.7868 67.4966 55.7539 67.4961C55.7204 67.4956 55.6872 67.5018 55.6562 67.5144C55.6251 67.5269 55.5969 67.5456 55.5732 67.5693C55.5495 67.593 55.5309 67.6212 55.5183 67.6522C55.5057 67.6833 55.4995 67.7165 55.5 67.75V70.25C55.5 70.3163 55.5264 70.3799 55.5733 70.4268C55.6201 70.4737 55.6837 70.5 55.75 70.5H57V72H57.5V70V69H58.75C58.8163 69 58.8799 68.9737 58.9268 68.9268C58.9737 68.8799 59 68.8163 59 68.75V66.75C59.0005 66.7172 58.9946 66.6846 58.9825 66.654C58.9704 66.6235 58.9524 66.5957 58.9296 66.5721C58.9067 66.5485 58.8794 66.5297 58.8493 66.5166C58.8192 66.5036 58.7868 66.4966 58.7539 66.4961C58.7204 66.4956 58.6872 66.5018 58.6562 66.5144C58.6251 66.5269 58.5969 66.5456 58.5732 66.5693C58.5495 66.593 58.5309 66.6212 58.5183 66.6522C58.5057 66.6833 58.4995 66.7165 58.5 66.75V68.5H57.5V66.25C57.5005 66.2172 57.4946 66.1846 57.4825 66.154C57.4704 66.1235 57.4524 66.0957 57.4296 66.0721C57.4067 66.0485 57.3794 66.0297 57.3493 66.0166C57.3192 66.0036 57.2868 65.9966 57.2539 65.9961C57.2536 65.9961 57.2533 65.9961 57.253 65.9961V65.9961ZM19.753 66.4961C19.7196 66.4957 19.6864 66.502 19.6555 66.5146C19.6246 66.5273 19.5965 66.546 19.5729 66.5696C19.5493 66.5933 19.5307 66.6215 19.5182 66.6525C19.5057 66.6834 19.4995 66.7166 19.5 66.75V67V70.5H18.5V68.25C18.5005 68.2172 18.4946 68.1846 18.4825 68.154C18.4704 68.1235 18.4524 68.0957 18.4296 68.0721C18.4067 68.0485 18.3794 68.0297 18.3493 68.0166C18.3192 68.0036 18.2868 67.9966 18.2539 67.9961C18.2204 67.9956 18.1872 68.0018 18.1562 68.0144C18.1251 68.0269 18.0969 68.0456 18.0732 68.0693C18.0495 68.093 18.0309 68.1212 18.0183 68.1522C18.0057 68.1833 17.9995 68.2165 18 68.25V70.75C18 70.8163 18.0264 70.8799 18.0733 70.9268C18.1201 70.9737 18.1837 71 18.25 71H19.5V72.5H20V70.5V69.5H21.25C21.3163 69.5 21.3799 69.4737 21.4268 69.4268C21.4737 69.3799 21.5 69.3163 21.5 69.25V67.25C21.5005 67.2172 21.4946 67.1846 21.4825 67.154C21.4704 67.1235 21.4524 67.0957 21.4296 67.0721C21.4067 67.0485 21.3794 67.0297 21.3493 67.0166C21.3192 67.0036 21.2868 66.9966 21.2539 66.9961C21.2204 66.9956 21.1872 67.0018 21.1562 67.0144C21.1251 67.0269 21.0969 67.0456 21.0732 67.0693C21.0495 67.093 21.0309 67.1212 21.0183 67.1522C21.0057 67.1833 20.9995 67.2165 21 67.25V69H20V66.75C20.0005 66.7172 19.9946 66.6846 19.9825 66.654C19.9704 66.6235 19.9524 66.5957 19.9296 66.5721C19.9067 66.5485 19.8794 66.5297 19.8493 66.5166C19.8192 66.5036 19.7868 66.4966 19.7539 66.4961C19.7536 66.4961 19.7533 66.4961 19.753 66.4961ZM101.253 69.4961C101.22 69.4957 101.186 69.502 101.155 69.5146C101.125 69.5273 101.096 69.546 101.073 69.5696C101.049 69.5933 101.031 69.6215 101.018 69.6525C101.006 69.6834 101 69.7166 101 69.75V70V73.5H100V71.25C100.001 71.2172 99.9946 71.1846 99.9825 71.154C99.9704 71.1235 99.9524 71.0957 99.9296 71.0721C99.9067 71.0485 99.8794 71.0297 99.8493 71.0166C99.8192 71.0036 99.7868 70.9966 99.7539 70.9961C99.7204 70.9956 99.6872 71.0018 99.6562 71.0144C99.6251 71.0269 99.5969 71.0456 99.5732 71.0693C99.5495 71.093 99.5309 71.1212 99.5183 71.1522C99.5057 71.1833 99.4995 71.2165 99.5 71.25V73.75C99.5 73.8163 99.5264 73.8799 99.5733 73.9268C99.6201 73.9737 99.6837 74 99.75 74H101V75.5H101.5V73.5V72.5H102.75C102.816 72.5 102.88 72.4737 102.927 72.4268C102.974 72.3799 103 72.3163 103 72.25V70.25C103.001 70.2172 102.995 70.1846 102.982 70.154C102.97 70.1235 102.952 70.0957 102.93 70.0721C102.907 70.0485 102.879 70.0297 102.849 70.0166C102.819 70.0036 102.787 69.9966 102.754 69.9961C102.72 69.9956 102.687 70.0018 102.656 70.0144C102.625 70.0269 102.597 70.0456 102.573 70.0693C102.55 70.093 102.531 70.1212 102.518 70.1522C102.506 70.1833 102.5 70.2165 102.5 70.25V72H101.5V69.75C101.501 69.7172 101.495 69.6846 101.482 69.654C101.47 69.6235 101.452 69.5957 101.43 69.5721C101.407 69.5485 101.379 69.5297 101.349 69.5166C101.319 69.5036 101.287 69.4966 101.254 69.4961C101.254 69.4961 101.253 69.4961 101.253 69.4961V69.4961ZM41.253 72.4961C41.2196 72.4957 41.1864 72.502 41.1555 72.5146C41.1246 72.5273 41.0965 72.546 41.0729 72.5696C41.0493 72.5933 41.0307 72.6215 41.0182 72.6525C41.0057 72.6834 40.9995 72.7166 41 72.75V73V76.5H40V74.25C40.0005 74.2172 39.9946 74.1846 39.9825 74.154C39.9704 74.1235 39.9524 74.0957 39.9296 74.0721C39.9067 74.0485 39.8794 74.0297 39.8493 74.0166C39.8192 74.0036 39.7868 73.9966 39.7539 73.9961C39.7204 73.9956 39.6872 74.0018 39.6562 74.0144C39.6251 74.0269 39.5969 74.0456 39.5732 74.0693C39.5495 74.093 39.5309 74.1212 39.5183 74.1522C39.5057 74.1833 39.4995 74.2165 39.5 74.25V76.75C39.5 76.8163 39.5264 76.8799 39.5733 76.9268C39.6201 76.9737 39.6837 77 39.75 77H41V78.5H41.5V76.5V75.5H42.75C42.8163 75.5 42.8799 75.4737 42.9268 75.4268C42.9737 75.3799 43 75.3163 43 75.25V73.25C43.0005 73.2172 42.9946 73.1846 42.9825 73.154C42.9704 73.1235 42.9524 73.0957 42.9296 73.0721C42.9067 73.0485 42.8794 73.0297 42.8493 73.0166C42.8192 73.0036 42.7868 72.9966 42.7539 72.9961C42.7204 72.9956 42.6872 73.0018 42.6562 73.0144C42.6251 73.0269 42.5969 73.0456 42.5732 73.0693C42.5495 73.093 42.5309 73.1212 42.5183 73.1522C42.5057 73.1833 42.4995 73.2165 42.5 73.25V75H41.5V72.75C41.5005 72.7172 41.4946 72.6846 41.4825 72.654C41.4704 72.6235 41.4524 72.5957 41.4296 72.5721C41.4067 72.5485 41.3794 72.5297 41.3493 72.5166C41.3192 72.5036 41.2868 72.4966 41.2539 72.4961C41.2536 72.4961 41.2533 72.4961 41.253 72.4961V72.4961ZM114.253 74.4961C114.22 74.4957 114.186 74.502 114.155 74.5146C114.125 74.5273 114.096 74.546 114.073 74.5696C114.049 74.5933 114.031 74.6215 114.018 74.6525C114.006 74.6834 114 74.7166 114 74.75V75V78.5H113V76.25C113.001 76.2172 112.995 76.1846 112.982 76.154C112.97 76.1235 112.952 76.0957 112.93 76.0721C112.907 76.0485 112.879 76.0297 112.849 76.0166C112.819 76.0036 112.787 75.9966 112.754 75.9961C112.72 75.9956 112.687 76.0018 112.656 76.0144C112.625 76.0269 112.597 76.0456 112.573 76.0693C112.55 76.093 112.531 76.1212 112.518 76.1522C112.506 76.1833 112.5 76.2165 112.5 76.25V78.75C112.5 78.8163 112.526 78.8799 112.573 78.9268C112.62 78.9737 112.684 79 112.75 79H114V80.5H114.5V78.5V77.5H115.75C115.816 77.5 115.88 77.4737 115.927 77.4268C115.974 77.3799 116 77.3163 116 77.25V75.25C116.001 75.2172 115.995 75.1846 115.982 75.154C115.97 75.1235 115.952 75.0957 115.93 75.0721C115.907 75.0485 115.879 75.0297 115.849 75.0166C115.819 75.0036 115.787 74.9966 115.754 74.9961C115.72 74.9956 115.687 75.0018 115.656 75.0144C115.625 75.0269 115.597 75.0456 115.573 75.0693C115.55 75.093 115.531 75.1212 115.518 75.1522C115.506 75.1833 115.5 75.2165 115.5 75.25V77H114.5V74.75C114.501 74.7172 114.495 74.6846 114.482 74.654C114.47 74.6235 114.452 74.5957 114.43 74.5721C114.407 74.5485 114.379 74.5297 114.349 74.5166C114.319 74.5036 114.287 74.4966 114.254 74.4961C114.254 74.4961 114.253 74.4961 114.253 74.4961ZM5.75296 74.9961C5.71955 74.9957 5.68641 75.002 5.65548 75.0146C5.62455 75.0273 5.59647 75.046 5.57289 75.0696C5.54931 75.0933 5.53072 75.1215 5.5182 75.1525C5.50569 75.1834 5.49951 75.2166 5.50003 75.25V75.5V79H4.50003V76.75C4.50054 76.7172 4.49459 76.6846 4.4825 76.654C4.47041 76.6235 4.45242 76.5957 4.42957 76.5721C4.40672 76.5485 4.37945 76.5297 4.34931 76.5166C4.31918 76.5036 4.28677 76.4966 4.25394 76.4961C4.22045 76.4956 4.1872 76.5018 4.15615 76.5144C4.12511 76.5269 4.09691 76.5456 4.07323 76.5693C4.04955 76.593 4.03087 76.6212 4.01829 76.6522C4.00572 76.6833 3.99951 76.7165 4.00003 76.75V79.25C4.00004 79.3163 4.02638 79.3799 4.07326 79.4268C4.12014 79.4737 4.18373 79.5 4.25003 79.5H5.50003V81H6.00003V79V78H7.25003C7.31633 78 7.37992 77.9737 7.4268 77.9268C7.47368 77.8799 7.50002 77.8163 7.50003 77.75V75.75C7.50054 75.7172 7.49459 75.6846 7.4825 75.654C7.47041 75.6235 7.45242 75.5957 7.42957 75.5721C7.40672 75.5485 7.37945 75.5297 7.34931 75.5166C7.31918 75.5036 7.28677 75.4966 7.25394 75.4961C7.22045 75.4956 7.1872 75.5018 7.15615 75.5144C7.12511 75.5269 7.09691 75.5456 7.07323 75.5693C7.04955 75.593 7.03087 75.6212 7.01829 75.6522C7.00572 75.6833 6.99951 75.7165 7.00003 75.75V77.5H6.00003V75.25C6.00054 75.2172 5.99459 75.1846 5.9825 75.154C5.97041 75.1235 5.95242 75.0957 5.92957 75.0721C5.90672 75.0485 5.87945 75.0297 5.84931 75.0166C5.81918 75.0036 5.78677 74.9966 5.75394 74.9961C5.75361 74.9961 5.75329 74.9961 5.75296 74.9961V74.9961ZM73.2461 74.9961C73.2133 74.9966 73.1809 75.0036 73.1507 75.0166C73.1206 75.0297 73.0933 75.0485 73.0705 75.0721C73.0476 75.0957 73.0297 75.1235 73.0176 75.154C73.0055 75.1846 72.9995 75.2172 73 75.25V77.5H72V75.75C72.0006 75.7165 71.9943 75.6833 71.9818 75.6522C71.9692 75.6212 71.9505 75.593 71.9268 75.5693C71.9032 75.5456 71.875 75.5269 71.8439 75.5144C71.8129 75.5018 71.7796 75.4956 71.7461 75.4961C71.7133 75.4966 71.6809 75.5036 71.6507 75.5166C71.6206 75.5297 71.5933 75.5485 71.5705 75.5721C71.5476 75.5957 71.5297 75.6235 71.5176 75.654C71.5055 75.6846 71.4995 75.7172 71.5 75.75V77.75C71.5 77.8163 71.5264 77.8799 71.5733 77.9268C71.6201 77.9737 71.6837 78 71.75 78H73V79V81H73.5V79.5H74.75C74.8163 79.5 74.8799 79.4737 74.9268 79.4268C74.9737 79.3799 75 79.3163 75 79.25V76.75C75.0006 76.7165 74.9943 76.6833 74.9818 76.6522C74.9692 76.6212 74.9505 76.593 74.9268 76.5693C74.9032 76.5456 74.875 76.5269 74.8439 76.5144C74.8129 76.5018 74.7796 76.4956 74.7461 76.4961C74.7133 76.4966 74.6809 76.5036 74.6507 76.5166C74.6206 76.5297 74.5933 76.5485 74.5705 76.5721C74.5476 76.5957 74.5297 76.6235 74.5176 76.654C74.5055 76.6846 74.4995 76.7172 74.5 76.75V79H73.5V75.5V75.25C73.5006 75.2165 73.4943 75.1833 73.4818 75.1522C73.4692 75.1212 73.4505 75.093 73.4268 75.0693C73.4032 75.0456 73.375 75.0269 73.3439 75.0144C73.3129 75.0018 73.2796 74.9956 73.2461 74.9961V74.9961ZM27.253 77.9961C27.2196 77.9957 27.1864 78.002 27.1555 78.0146C27.1246 78.0273 27.0965 78.046 27.0729 78.0696C27.0493 78.0933 27.0307 78.1215 27.0182 78.1525C27.0057 78.1834 26.9995 78.2166 27 78.25V78.5V82H26V79.75C26.0005 79.7172 25.9946 79.6846 25.9825 79.654C25.9704 79.6235 25.9524 79.5957 25.9296 79.5721C25.9067 79.5485 25.8794 79.5297 25.8493 79.5166C25.8192 79.5036 25.7868 79.4966 25.7539 79.4961C25.7204 79.4956 25.6872 79.5018 25.6562 79.5144C25.6251 79.5269 25.5969 79.5456 25.5732 79.5693C25.5495 79.593 25.5309 79.6212 25.5183 79.6522C25.5057 79.6833 25.4995 79.7165 25.5 79.75V82.25C25.5 82.3163 25.5264 82.3799 25.5733 82.4268C25.6201 82.4737 25.6837 82.5 25.75 82.5H27V84H27.5V82V81H28.75C28.8163 81 28.8799 80.9737 28.9268 80.9268C28.9737 80.8799 29 80.8163 29 80.75V78.75C29.0005 78.7172 28.9946 78.6846 28.9825 78.654C28.9704 78.6235 28.9524 78.5957 28.9296 78.5721C28.9067 78.5485 28.8794 78.5297 28.8493 78.5166C28.8192 78.5036 28.7868 78.4966 28.7539 78.4961C28.7204 78.4956 28.6872 78.5018 28.6562 78.5144C28.6251 78.5269 28.5969 78.5456 28.5732 78.5693C28.5495 78.593 28.5309 78.6212 28.5183 78.6522C28.5057 78.6833 28.4995 78.7165 28.5 78.75V80.5H27.5V78.25C27.5005 78.2172 27.4946 78.1846 27.4825 78.154C27.4704 78.1235 27.4524 78.0957 27.4296 78.0721C27.4067 78.0485 27.3794 78.0297 27.3493 78.0166C27.3192 78.0036 27.2868 77.9966 27.2539 77.9961C27.2536 77.9961 27.2533 77.9961 27.253 77.9961V77.9961ZM88.253 79.9961C88.2196 79.9957 88.1864 80.002 88.1555 80.0146C88.1246 80.0273 88.0965 80.046 88.0729 80.0696C88.0493 80.0933 88.0307 80.1215 88.0182 80.1525C88.0057 80.1834 87.9995 80.2166 88 80.25V80.5V84H87V81.75C87.0005 81.7172 86.9946 81.6846 86.9825 81.654C86.9704 81.6235 86.9524 81.5957 86.9296 81.5721C86.9067 81.5485 86.8794 81.5297 86.8493 81.5166C86.8192 81.5036 86.7868 81.4966 86.7539 81.4961C86.7204 81.4956 86.6872 81.5018 86.6562 81.5144C86.6251 81.5269 86.5969 81.5456 86.5732 81.5693C86.5495 81.593 86.5309 81.6212 86.5183 81.6522C86.5057 81.6833 86.4995 81.7165 86.5 81.75V84.25C86.5 84.3163 86.5264 84.3799 86.5733 84.4268C86.6201 84.4737 86.6837 84.5 86.75 84.5H88V86H88.5V84V83H89.75C89.8163 83 89.8799 82.9737 89.9268 82.9268C89.9737 82.8799 90 82.8163 90 82.75V80.75C90.0005 80.7172 89.9946 80.6846 89.9825 80.654C89.9704 80.6235 89.9524 80.5957 89.9296 80.5721C89.9067 80.5485 89.8794 80.5297 89.8493 80.5166C89.8192 80.5036 89.7868 80.4966 89.7539 80.4961C89.7204 80.4956 89.6872 80.5018 89.6562 80.5144C89.6251 80.5269 89.5969 80.5456 89.5732 80.5693C89.5495 80.593 89.5309 80.6212 89.5183 80.6522C89.5057 80.6833 89.4995 80.7165 89.5 80.75V82.5H88.5V80.25C88.5005 80.2172 88.4946 80.1846 88.4825 80.154C88.4704 80.1235 88.4524 80.0957 88.4296 80.0721C88.4067 80.0485 88.3794 80.0297 88.3493 80.0166C88.3192 80.0036 88.2868 79.9966 88.2539 79.9961C88.2536 79.9961 88.2533 79.9961 88.253 79.9961V79.9961ZM58.753 81.9961C58.7196 81.9957 58.6864 82.002 58.6555 82.0146C58.6246 82.0273 58.5965 82.046 58.5729 82.0696C58.5493 82.0933 58.5307 82.1215 58.5182 82.1525C58.5057 82.1834 58.4995 82.2166 58.5 82.25V82.5V86H57.5V83.75C57.5005 83.7172 57.4946 83.6846 57.4825 83.654C57.4704 83.6235 57.4524 83.5957 57.4296 83.5721C57.4067 83.5485 57.3794 83.5297 57.3493 83.5166C57.3192 83.5036 57.2868 83.4966 57.2539 83.4961C57.2204 83.4956 57.1872 83.5018 57.1562 83.5144C57.1251 83.5269 57.0969 83.5456 57.0732 83.5693C57.0495 83.593 57.0309 83.6212 57.0183 83.6522C57.0057 83.6833 56.9995 83.7165 57 83.75V86.25C57 86.3163 57.0264 86.3799 57.0733 86.4268C57.1201 86.4737 57.1837 86.5 57.25 86.5H58.5V88H59V86V85H60.25C60.3163 85 60.3799 84.9737 60.4268 84.9268C60.4737 84.8799 60.5 84.8163 60.5 84.75V82.75C60.5005 82.7172 60.4946 82.6846 60.4825 82.654C60.4704 82.6235 60.4524 82.5957 60.4296 82.5721C60.4067 82.5485 60.3794 82.5297 60.3493 82.5166C60.3192 82.5036 60.2868 82.4966 60.2539 82.4961C60.2204 82.4956 60.1872 82.5018 60.1562 82.5144C60.1251 82.5269 60.0969 82.5456 60.0732 82.5693C60.0495 82.593 60.0309 82.6212 60.0183 82.6522C60.0057 82.6833 59.9995 82.7165 60 82.75V84.5H59V82.25C59.0005 82.2172 58.9946 82.1846 58.9825 82.154C58.9704 82.1235 58.9524 82.0957 58.9296 82.0721C58.9067 82.0485 58.8794 82.0297 58.8493 82.0166C58.8192 82.0036 58.7868 81.9966 58.7539 81.9961C58.7536 81.9961 58.7533 81.9961 58.753 81.9961V81.9961ZM104.746 86.9961C104.713 86.9966 104.681 87.0036 104.651 87.0166C104.621 87.0297 104.593 87.0485 104.57 87.0721C104.548 87.0957 104.53 87.1235 104.518 87.154C104.505 87.1846 104.5 87.2172 104.5 87.25V89.5H103.5V87.75C103.501 87.7165 103.494 87.6833 103.482 87.6522C103.469 87.6212 103.451 87.593 103.427 87.5693C103.403 87.5456 103.375 87.5269 103.344 87.5144C103.313 87.5018 103.28 87.4956 103.246 87.4961C103.213 87.4966 103.181 87.5036 103.151 87.5166C103.121 87.5297 103.093 87.5485 103.07 87.5721C103.048 87.5957 103.03 87.6235 103.018 87.654C103.005 87.6846 103 87.7172 103 87.75V89.75C103 89.8163 103.026 89.8799 103.073 89.9268C103.12 89.9737 103.184 90 103.25 90H104.5V91V93H105V91.5H106.25C106.316 91.5 106.38 91.4737 106.427 91.4268C106.474 91.3799 106.5 91.3163 106.5 91.25V88.75C106.501 88.7165 106.494 88.6833 106.482 88.6522C106.469 88.6212 106.451 88.593 106.427 88.5693C106.403 88.5456 106.375 88.5269 106.344 88.5144C106.313 88.5018 106.28 88.4956 106.246 88.4961C106.213 88.4966 106.181 88.5036 106.151 88.5166C106.121 88.5297 106.093 88.5485 106.07 88.5721C106.048 88.5957 106.03 88.6235 106.018 88.654C106.005 88.6846 106 88.7172 106 88.75V91H105V87.5V87.25C105.001 87.2165 104.994 87.1833 104.982 87.1522C104.969 87.1212 104.951 87.093 104.927 87.0693C104.903 87.0456 104.875 87.0269 104.844 87.0144C104.813 87.0018 104.78 86.9956 104.746 86.9961ZM43.7461 87.4961C43.7133 87.4966 43.6809 87.5036 43.6507 87.5166C43.6206 87.5297 43.5933 87.5485 43.5705 87.5721C43.5476 87.5957 43.5297 87.6235 43.5176 87.654C43.5055 87.6846 43.4995 87.7172 43.5 87.75V90H42.5V88.25C42.5006 88.2165 42.4943 88.1833 42.4818 88.1522C42.4692 88.1212 42.4505 88.093 42.4268 88.0693C42.4031 88.0456 42.3749 88.0269 42.3439 88.0144C42.3129 88.0018 42.2796 87.9956 42.2461 87.9961C42.2133 87.9966 42.1809 88.0036 42.1507 88.0166C42.1206 88.0297 42.0933 88.0485 42.0705 88.0721C42.0476 88.0957 42.0297 88.1235 42.0176 88.154C42.0055 88.1846 41.9995 88.2172 42 88.25V90.25C42 90.3163 42.0264 90.3799 42.0733 90.4268C42.1201 90.4737 42.1837 90.5 42.25 90.5H43.5V91.5V93.5H44V92H45.25C45.3163 92 45.3799 91.9737 45.4268 91.9268C45.4737 91.8799 45.5 91.8163 45.5 91.75V89.25C45.5006 89.2165 45.4943 89.1833 45.4818 89.1522C45.4692 89.1212 45.4505 89.093 45.4268 89.0693C45.4031 89.0456 45.3749 89.0269 45.3439 89.0144C45.3129 89.0018 45.2796 88.9956 45.2461 88.9961C45.2133 88.9966 45.1809 89.0036 45.1507 89.0166C45.1206 89.0297 45.0933 89.0485 45.0705 89.0721C45.0476 89.0957 45.0297 89.1235 45.0176 89.154C45.0055 89.1846 44.9995 89.2172 45 89.25V91.5H44V88V87.75C44.0006 87.7165 43.9943 87.6833 43.9818 87.6522C43.9692 87.6212 43.9505 87.593 43.9268 87.5693C43.9031 87.5456 43.8749 87.5269 43.8439 87.5144C43.8129 87.5018 43.7796 87.4956 43.7461 87.4961V87.4961ZM13.253 87.9961C13.2196 87.9957 13.1864 88.002 13.1555 88.0146C13.1246 88.0273 13.0965 88.046 13.0729 88.0696C13.0493 88.0933 13.0307 88.1215 13.0182 88.1525C13.0057 88.1834 12.9995 88.2166 13 88.25V88.5V92H12V89.75C12.0005 89.7172 11.9946 89.6846 11.9825 89.654C11.9704 89.6235 11.9524 89.5957 11.9296 89.5721C11.9067 89.5485 11.8794 89.5297 11.8493 89.5166C11.8192 89.5036 11.7868 89.4966 11.7539 89.4961C11.7204 89.4956 11.6872 89.5018 11.6562 89.5144C11.6251 89.5269 11.5969 89.5456 11.5732 89.5693C11.5495 89.593 11.5309 89.6212 11.5183 89.6522C11.5057 89.6833 11.4995 89.7165 11.5 89.75V92.25C11.5 92.3163 11.5264 92.3799 11.5733 92.4268C11.6201 92.4737 11.6837 92.5 11.75 92.5H13V94H13.5V92V91H14.75C14.8163 91 14.8799 90.9737 14.9268 90.9268C14.9737 90.8799 15 90.8163 15 90.75V88.75C15.0005 88.7172 14.9946 88.6846 14.9825 88.654C14.9704 88.6235 14.9524 88.5957 14.9296 88.5721C14.9067 88.5485 14.8794 88.5297 14.8493 88.5166C14.8192 88.5036 14.7868 88.4966 14.7539 88.4961C14.7204 88.4956 14.6872 88.5018 14.6562 88.5144C14.6251 88.5269 14.5969 88.5456 14.5732 88.5693C14.5495 88.593 14.5309 88.6212 14.5183 88.6522C14.5057 88.6833 14.4995 88.7165 14.5 88.75V90.5H13.5V88.25C13.5005 88.2172 13.4946 88.1846 13.4825 88.154C13.4704 88.1235 13.4524 88.0957 13.4296 88.0721C13.4067 88.0485 13.3794 88.0297 13.3493 88.0166C13.3192 88.0036 13.2868 87.9966 13.2539 87.9961C13.2536 87.9961 13.2533 87.9961 13.253 87.9961V87.9961ZM125.753 89.9961C125.72 89.9957 125.686 90.002 125.655 90.0146C125.625 90.0273 125.596 90.046 125.573 90.0696C125.549 90.0933 125.531 90.1215 125.518 90.1525C125.506 90.1834 125.5 90.2166 125.5 90.25V90.5V94H124.5V91.75C124.501 91.7172 124.495 91.6846 124.482 91.654C124.47 91.6235 124.452 91.5957 124.43 91.5721C124.407 91.5485 124.379 91.5297 124.349 91.5166C124.319 91.5036 124.287 91.4966 124.254 91.4961C124.22 91.4956 124.187 91.5018 124.156 91.5144C124.125 91.5269 124.097 91.5456 124.073 91.5693C124.05 91.593 124.031 91.6212 124.018 91.6522C124.006 91.6833 124 91.7165 124 91.75V94.25C124 94.3163 124.026 94.3799 124.073 94.4268C124.12 94.4737 124.184 94.5 124.25 94.5H125.5V96H126V94V93H127.25C127.316 93 127.38 92.9737 127.427 92.9268C127.474 92.8799 127.5 92.8163 127.5 92.75V90.75C127.501 90.7172 127.495 90.6846 127.482 90.654C127.47 90.6235 127.452 90.5957 127.43 90.5721C127.407 90.5485 127.379 90.5297 127.349 90.5166C127.319 90.5036 127.287 90.4966 127.254 90.4961C127.22 90.4956 127.187 90.5018 127.156 90.5144C127.125 90.5269 127.097 90.5456 127.073 90.5693C127.05 90.593 127.031 90.6212 127.018 90.6522C127.006 90.6833 127 90.7165 127 90.75V92.5H126V90.25C126.001 90.2172 125.995 90.1846 125.982 90.154C125.97 90.1235 125.952 90.0957 125.93 90.0721C125.907 90.0485 125.879 90.0297 125.849 90.0166C125.819 90.0036 125.787 89.9966 125.754 89.9961C125.754 89.9961 125.753 89.9961 125.753 89.9961V89.9961ZM73.2461 92.4961C73.2133 92.4966 73.1809 92.5036 73.1507 92.5166C73.1206 92.5297 73.0933 92.5485 73.0705 92.5721C73.0476 92.5957 73.0297 92.6235 73.0176 92.654C73.0055 92.6846 72.9995 92.7172 73 92.75V95H72V93.25C72.0006 93.2165 71.9943 93.1833 71.9818 93.1522C71.9692 93.1212 71.9505 93.093 71.9268 93.0693C71.9032 93.0456 71.875 93.0269 71.8439 93.0144C71.8129 93.0018 71.7796 92.9956 71.7461 92.9961C71.7133 92.9966 71.6809 93.0036 71.6507 93.0166C71.6206 93.0297 71.5933 93.0485 71.5705 93.0721C71.5476 93.0957 71.5297 93.1235 71.5176 93.154C71.5055 93.1846 71.4995 93.2172 71.5 93.25V95.25C71.5 95.3163 71.5264 95.3799 71.5733 95.4268C71.6201 95.4737 71.6837 95.5 71.75 95.5H73V96.5V98.5H73.5V97H74.75C74.8163 97 74.8799 96.9737 74.9268 96.9268C74.9737 96.8799 75 96.8163 75 96.75V94.25C75.0006 94.2165 74.9943 94.1833 74.9818 94.1522C74.9692 94.1212 74.9505 94.093 74.9268 94.0693C74.9032 94.0456 74.875 94.0269 74.8439 94.0144C74.8129 94.0018 74.7796 93.9956 74.7461 93.9961C74.7133 93.9966 74.6809 94.0036 74.6507 94.0166C74.6206 94.0297 74.5933 94.0485 74.5705 94.0721C74.5476 94.0957 74.5297 94.1235 74.5176 94.154C74.5055 94.1846 74.4995 94.2172 74.5 94.25V96.5H73.5V93V92.75C73.5006 92.7165 73.4943 92.6833 73.4818 92.6522C73.4692 92.6212 73.4505 92.593 73.4268 92.5693C73.4032 92.5456 73.375 92.5269 73.3439 92.5144C73.3129 92.5018 73.2796 92.4956 73.2461 92.4961V92.4961ZM88.753 94.4961C88.7196 94.4957 88.6864 94.502 88.6555 94.5146C88.6246 94.5273 88.5965 94.546 88.5729 94.5696C88.5493 94.5933 88.5307 94.6215 88.5182 94.6525C88.5057 94.6834 88.4995 94.7166 88.5 94.75V95V98.5H87.5V96.25C87.5005 96.2172 87.4946 96.1846 87.4825 96.154C87.4704 96.1235 87.4524 96.0957 87.4296 96.0721C87.4067 96.0485 87.3794 96.0297 87.3493 96.0166C87.3192 96.0036 87.2868 95.9966 87.2539 95.9961C87.2204 95.9956 87.1872 96.0018 87.1562 96.0144C87.1251 96.0269 87.0969 96.0456 87.0732 96.0693C87.0495 96.093 87.0309 96.1212 87.0183 96.1522C87.0057 96.1833 86.9995 96.2165 87 96.25V98.75C87 98.8163 87.0264 98.8799 87.0733 98.9268C87.1201 98.9737 87.1837 99 87.25 99H88.5V100.5H89V98.5V97.5H90.25C90.3163 97.5 90.3799 97.4737 90.4268 97.4268C90.4737 97.3799 90.5 97.3163 90.5 97.25V95.25C90.5005 95.2172 90.4946 95.1846 90.4825 95.154C90.4704 95.1235 90.4524 95.0957 90.4296 95.0721C90.4067 95.0485 90.3794 95.0297 90.3493 95.0166C90.3192 95.0036 90.2868 94.9966 90.2539 94.9961C90.2204 94.9956 90.1872 95.0018 90.1562 95.0144C90.1251 95.0269 90.0969 95.0456 90.0732 95.0693C90.0495 95.093 90.0309 95.1212 90.0183 95.1522C90.0057 95.1833 89.9995 95.2165 90 95.25V97H89V94.75C89.0005 94.7172 88.9946 94.6846 88.9825 94.654C88.9704 94.6235 88.9524 94.5957 88.9296 94.5721C88.9067 94.5485 88.8794 94.5297 88.8493 94.5166C88.8192 94.5036 88.7868 94.4966 88.7539 94.4961C88.7536 94.4961 88.7533 94.4961 88.753 94.4961V94.4961ZM28.753 96.9961C28.7196 96.9957 28.6864 97.002 28.6555 97.0146C28.6246 97.0273 28.5965 97.046 28.5729 97.0696C28.5493 97.0933 28.5307 97.1215 28.5182 97.1525C28.5057 97.1834 28.4995 97.2166 28.5 97.25V97.5V101H27.5V98.75C27.5005 98.7172 27.4946 98.6846 27.4825 98.654C27.4704 98.6235 27.4524 98.5957 27.4296 98.5721C27.4067 98.5485 27.3794 98.5297 27.3493 98.5166C27.3192 98.5036 27.2868 98.4966 27.2539 98.4961C27.2204 98.4956 27.1872 98.5018 27.1562 98.5144C27.1251 98.5269 27.0969 98.5456 27.0732 98.5693C27.0495 98.593 27.0309 98.6212 27.0183 98.6522C27.0057 98.6833 26.9995 98.7165 27 98.75V101.25C27 101.316 27.0264 101.38 27.0733 101.427C27.1201 101.474 27.1837 101.5 27.25 101.5H28.5V103H29V101V100H30.25C30.3163 100 30.3799 99.9737 30.4268 99.9268C30.4737 99.8799 30.5 99.8163 30.5 99.75V97.75C30.5005 97.7172 30.4946 97.6846 30.4825 97.654C30.4704 97.6235 30.4524 97.5957 30.4296 97.5721C30.4067 97.5485 30.3794 97.5297 30.3493 97.5166C30.3192 97.5036 30.2868 97.4966 30.2539 97.4961C30.2204 97.4956 30.1872 97.5018 30.1562 97.5144C30.1251 97.5269 30.0969 97.5456 30.0732 97.5693C30.0495 97.593 30.0309 97.6212 30.0183 97.6522C30.0057 97.6833 29.9995 97.7165 30 97.75V99.5H29V97.25C29.0005 97.2172 28.9946 97.1846 28.9825 97.154C28.9704 97.1235 28.9524 97.0957 28.9296 97.0721C28.9067 97.0485 28.8794 97.0297 28.8493 97.0166C28.8192 97.0036 28.7868 96.9966 28.7539 96.9961C28.7536 96.9961 28.7533 96.9961 28.753 96.9961V96.9961ZM56.753 97.9961C56.7196 97.9957 56.6864 98.002 56.6555 98.0146C56.6246 98.0273 56.5965 98.046 56.5729 98.0696C56.5493 98.0933 56.5307 98.1215 56.5182 98.1525C56.5057 98.1834 56.4995 98.2166 56.5 98.25V98.5V102H55.5V99.75C55.5005 99.7172 55.4946 99.6846 55.4825 99.654C55.4704 99.6235 55.4524 99.5957 55.4296 99.5721C55.4067 99.5485 55.3794 99.5297 55.3493 99.5166C55.3192 99.5036 55.2868 99.4966 55.2539 99.4961C55.2204 99.4956 55.1872 99.5018 55.1562 99.5144C55.1251 99.5269 55.0969 99.5456 55.0732 99.5693C55.0495 99.593 55.0309 99.6212 55.0183 99.6522C55.0057 99.6833 54.9995 99.7165 55 99.75V102.25C55 102.316 55.0264 102.38 55.0733 102.427C55.1201 102.474 55.1837 102.5 55.25 102.5H56.5V104H57V102V101H58.25C58.3163 101 58.3799 100.974 58.4268 100.927C58.4737 100.88 58.5 100.816 58.5 100.75V98.75C58.5005 98.7172 58.4946 98.6846 58.4825 98.654C58.4704 98.6235 58.4524 98.5957 58.4296 98.5721C58.4067 98.5485 58.3794 98.5297 58.3493 98.5166C58.3192 98.5036 58.2868 98.4966 58.2539 98.4961C58.2204 98.4956 58.1872 98.5018 58.1562 98.5144C58.1251 98.5269 58.0969 98.5456 58.0732 98.5693C58.0495 98.593 58.0309 98.6212 58.0183 98.6522C58.0057 98.6833 57.9995 98.7165 58 98.75V100.5H57V98.25C57.0005 98.2172 56.9946 98.1846 56.9825 98.154C56.9704 98.1235 56.9524 98.0957 56.9296 98.0721C56.9067 98.0485 56.8794 98.0297 56.8493 98.0166C56.8192 98.0036 56.7868 97.9966 56.7539 97.9961C56.7536 97.9961 56.7533 97.9961 56.753 97.9961V97.9961ZM117.246 102.496C117.213 102.497 117.181 102.504 117.151 102.517C117.121 102.53 117.093 102.548 117.07 102.572C117.048 102.596 117.03 102.624 117.018 102.654C117.005 102.685 117 102.717 117 102.75V105H116V103.25C116.001 103.217 115.994 103.183 115.982 103.152C115.969 103.121 115.951 103.093 115.927 103.069C115.903 103.046 115.875 103.027 115.844 103.014C115.813 103.002 115.78 102.996 115.746 102.996C115.713 102.997 115.681 103.004 115.651 103.017C115.621 103.03 115.593 103.048 115.57 103.072C115.548 103.096 115.53 103.124 115.518 103.154C115.505 103.185 115.5 103.217 115.5 103.25V105.25C115.5 105.316 115.526 105.38 115.573 105.427C115.62 105.474 115.684 105.5 115.75 105.5H117V106.5V108.5H117.5V107H118.75C118.816 107 118.88 106.974 118.927 106.927C118.974 106.88 119 106.816 119 106.75V104.25C119.001 104.217 118.994 104.183 118.982 104.152C118.969 104.121 118.951 104.093 118.927 104.069C118.903 104.046 118.875 104.027 118.844 104.014C118.813 104.002 118.78 103.996 118.746 103.996C118.713 103.997 118.681 104.004 118.651 104.017C118.621 104.03 118.593 104.048 118.57 104.072C118.548 104.096 118.53 104.124 118.518 104.154C118.505 104.185 118.5 104.217 118.5 104.25V106.5H117.5V103V102.75C117.501 102.717 117.494 102.683 117.482 102.652C117.469 102.621 117.451 102.593 117.427 102.569C117.403 102.546 117.375 102.527 117.344 102.514C117.313 102.502 117.28 102.496 117.246 102.496V102.496ZM7.75296 103.496C7.71955 103.496 7.68641 103.502 7.65548 103.515C7.62455 103.527 7.59647 103.546 7.57289 103.57C7.54931 103.593 7.53072 103.621 7.5182 103.652C7.50569 103.683 7.49951 103.717 7.50003 103.75V104V107.5H6.50003V105.25C6.50054 105.217 6.49459 105.185 6.4825 105.154C6.47041 105.124 6.45242 105.096 6.42957 105.072C6.40672 105.048 6.37945 105.03 6.34931 105.017C6.31918 105.004 6.28677 104.997 6.25394 104.996C6.22045 104.996 6.1872 105.002 6.15615 105.014C6.12511 105.027 6.09691 105.046 6.07323 105.069C6.04955 105.093 6.03087 105.121 6.01829 105.152C6.00572 105.183 5.99951 105.217 6.00003 105.25V107.75C6.00004 107.816 6.02638 107.88 6.07326 107.927C6.12014 107.974 6.18373 108 6.25003 108H7.50003V109.5H8.00003V107.5V106.5H9.25003C9.31633 106.5 9.37992 106.474 9.4268 106.427C9.47368 106.38 9.50002 106.316 9.50003 106.25V104.25C9.50054 104.217 9.49459 104.185 9.4825 104.154C9.47041 104.124 9.45242 104.096 9.42957 104.072C9.40672 104.048 9.37945 104.03 9.34931 104.017C9.31918 104.004 9.28677 103.997 9.25394 103.996C9.22045 103.996 9.1872 104.002 9.15615 104.014C9.12511 104.027 9.09691 104.046 9.07323 104.069C9.04955 104.093 9.03087 104.121 9.01829 104.152C9.00572 104.183 8.99951 104.217 9.00003 104.25V106H8.00003V103.75C8.00054 103.717 7.99459 103.685 7.9825 103.654C7.97041 103.624 7.95242 103.596 7.92957 103.572C7.90672 103.548 7.87945 103.53 7.84931 103.517C7.81918 103.504 7.78677 103.497 7.75394 103.496C7.75361 103.496 7.75329 103.496 7.75296 103.496ZM101.753 103.996C101.72 103.996 101.686 104.002 101.655 104.015C101.625 104.027 101.596 104.046 101.573 104.07C101.549 104.093 101.531 104.121 101.518 104.152C101.506 104.183 101.5 104.217 101.5 104.25V104.5V108H100.5V105.75C100.501 105.717 100.495 105.685 100.482 105.654C100.47 105.624 100.452 105.596 100.43 105.572C100.407 105.548 100.379 105.53 100.349 105.517C100.319 105.504 100.287 105.497 100.254 105.496C100.22 105.496 100.187 105.502 100.156 105.514C100.125 105.527 100.097 105.546 100.073 105.569C100.05 105.593 100.031 105.621 100.018 105.652C100.006 105.683 99.9995 105.717 100 105.75V108.25C100 108.316 100.026 108.38 100.073 108.427C100.12 108.474 100.184 108.5 100.25 108.5H101.5V110H102V108V107H103.25C103.316 107 103.38 106.974 103.427 106.927C103.474 106.88 103.5 106.816 103.5 106.75V104.75C103.501 104.717 103.495 104.685 103.482 104.654C103.47 104.624 103.452 104.596 103.43 104.572C103.407 104.548 103.379 104.53 103.349 104.517C103.319 104.504 103.287 104.497 103.254 104.496C103.22 104.496 103.187 104.502 103.156 104.514C103.125 104.527 103.097 104.546 103.073 104.569C103.05 104.593 103.031 104.621 103.018 104.652C103.006 104.683 103 104.717 103 104.75V106.5H102V104.25C102.001 104.217 101.995 104.185 101.982 104.154C101.97 104.124 101.952 104.096 101.93 104.072C101.907 104.048 101.879 104.03 101.849 104.017C101.819 104.004 101.787 103.997 101.754 103.996C101.754 103.996 101.753 103.996 101.753 103.996V103.996ZM39.753 105.496C39.7196 105.496 39.6864 105.502 39.6555 105.515C39.6246 105.527 39.5965 105.546 39.5729 105.57C39.5493 105.593 39.5307 105.621 39.5182 105.652C39.5057 105.683 39.4995 105.717 39.5 105.75V106V109.5H38.5V107.25C38.5005 107.217 38.4946 107.185 38.4825 107.154C38.4704 107.124 38.4524 107.096 38.4296 107.072C38.4067 107.048 38.3794 107.03 38.3493 107.017C38.3192 107.004 38.2868 106.997 38.2539 106.996C38.2204 106.996 38.1872 107.002 38.1562 107.014C38.1251 107.027 38.0969 107.046 38.0732 107.069C38.0495 107.093 38.0309 107.121 38.0183 107.152C38.0057 107.183 37.9995 107.217 38 107.25V109.75C38 109.816 38.0264 109.88 38.0733 109.927C38.1201 109.974 38.1837 110 38.25 110H39.5V111.5H40V109.5V108.5H41.25C41.3163 108.5 41.3799 108.474 41.4268 108.427C41.4737 108.38 41.5 108.316 41.5 108.25V106.25C41.5005 106.217 41.4946 106.185 41.4825 106.154C41.4704 106.124 41.4524 106.096 41.4296 106.072C41.4067 106.048 41.3794 106.03 41.3493 106.017C41.3192 106.004 41.2868 105.997 41.2539 105.996C41.2204 105.996 41.1872 106.002 41.1562 106.014C41.1251 106.027 41.0969 106.046 41.0732 106.069C41.0495 106.093 41.0309 106.121 41.0183 106.152C41.0057 106.183 40.9995 106.217 41 106.25V108H40V105.75C40.0005 105.717 39.9946 105.685 39.9825 105.654C39.9704 105.624 39.9524 105.596 39.9296 105.572C39.9067 105.548 39.8794 105.53 39.8493 105.517C39.8192 105.504 39.7868 105.497 39.7539 105.496C39.7536 105.496 39.7533 105.496 39.753 105.496V105.496ZM69.753 106.996C69.7196 106.996 69.6864 107.002 69.6555 107.015C69.6246 107.027 69.5965 107.046 69.5729 107.07C69.5493 107.093 69.5307 107.121 69.5182 107.152C69.5057 107.183 69.4995 107.217 69.5 107.25V107.5V111H68.5V108.75C68.5005 108.717 68.4946 108.685 68.4825 108.654C68.4704 108.624 68.4524 108.596 68.4296 108.572C68.4067 108.548 68.3794 108.53 68.3493 108.517C68.3192 108.504 68.2868 108.497 68.2539 108.496C68.2204 108.496 68.1872 108.502 68.1562 108.514C68.1251 108.527 68.0969 108.546 68.0732 108.569C68.0495 108.593 68.0309 108.621 68.0183 108.652C68.0057 108.683 67.9995 108.717 68 108.75V111.25C68 111.316 68.0264 111.38 68.0733 111.427C68.1201 111.474 68.1837 111.5 68.25 111.5H69.5V113H70V111V110H71.25C71.3163 110 71.3799 109.974 71.4268 109.927C71.4737 109.88 71.5 109.816 71.5 109.75V107.75C71.5005 107.717 71.4946 107.685 71.4825 107.654C71.4704 107.624 71.4524 107.596 71.4296 107.572C71.4067 107.548 71.3794 107.53 71.3493 107.517C71.3192 107.504 71.2868 107.497 71.2539 107.496C71.2204 107.496 71.1872 107.502 71.1562 107.514C71.1251 107.527 71.0969 107.546 71.0732 107.569C71.0495 107.593 71.0309 107.621 71.0183 107.652C71.0057 107.683 70.9995 107.717 71 107.75V109.5H70V107.25C70.0005 107.217 69.9946 107.185 69.9825 107.154C69.9704 107.124 69.9524 107.096 69.9296 107.072C69.9067 107.048 69.8794 107.03 69.8493 107.017C69.8192 107.004 69.7868 106.997 69.7539 106.996C69.7536 106.996 69.7533 106.996 69.753 106.996V106.996ZM22.7461 109.996C22.7133 109.997 22.6809 110.004 22.6508 110.017C22.6206 110.03 22.5933 110.048 22.5705 110.072C22.5476 110.096 22.5297 110.124 22.5176 110.154C22.5055 110.185 22.4995 110.217 22.5 110.25V112.5H21.5V110.75C21.5006 110.717 21.4943 110.683 21.4818 110.652C21.4692 110.621 21.4505 110.593 21.4268 110.569C21.4031 110.546 21.3749 110.527 21.3439 110.514C21.3129 110.502 21.2796 110.496 21.2461 110.496C21.2133 110.497 21.1809 110.504 21.1508 110.517C21.1206 110.53 21.0933 110.548 21.0705 110.572C21.0476 110.596 21.0297 110.624 21.0176 110.654C21.0055 110.685 20.9995 110.717 21 110.75V112.75C21 112.816 21.0264 112.88 21.0733 112.927C21.1201 112.974 21.1837 113 21.25 113H22.5V114V116H23V114.5H24.25C24.3163 114.5 24.3799 114.474 24.4268 114.427C24.4737 114.38 24.5 114.316 24.5 114.25V111.75C24.5006 111.717 24.4943 111.683 24.4818 111.652C24.4692 111.621 24.4505 111.593 24.4268 111.569C24.4031 111.546 24.3749 111.527 24.3439 111.514C24.3129 111.502 24.2796 111.496 24.2461 111.496C24.2133 111.497 24.1809 111.504 24.1508 111.517C24.1206 111.53 24.0933 111.548 24.0705 111.572C24.0476 111.596 24.0297 111.624 24.0176 111.654C24.0055 111.685 23.9995 111.717 24 111.75V114H23V110.5V110.25C23.0006 110.217 22.9943 110.183 22.9818 110.152C22.9692 110.121 22.9505 110.093 22.9268 110.069C22.9031 110.046 22.8749 110.027 22.8439 110.014C22.8129 110.002 22.7796 109.996 22.7461 109.996V109.996ZM84.753 111.496C84.7196 111.496 84.6864 111.502 84.6555 111.515C84.6246 111.527 84.5965 111.546 84.5729 111.57C84.5493 111.593 84.5307 111.621 84.5182 111.652C84.5057 111.683 84.4995 111.717 84.5 111.75V112V115.5H83.5V113.25C83.5005 113.217 83.4946 113.185 83.4825 113.154C83.4704 113.124 83.4524 113.096 83.4296 113.072C83.4067 113.048 83.3794 113.03 83.3493 113.017C83.3192 113.004 83.2868 112.997 83.2539 112.996C83.2204 112.996 83.1872 113.002 83.1562 113.014C83.1251 113.027 83.0969 113.046 83.0732 113.069C83.0495 113.093 83.0309 113.121 83.0183 113.152C83.0057 113.183 82.9995 113.217 83 113.25V115.75C83 115.816 83.0264 115.88 83.0733 115.927C83.1201 115.974 83.1837 116 83.25 116H84.5V117.5H85V115.5V114.5H86.25C86.3163 114.5 86.3799 114.474 86.4268 114.427C86.4737 114.38 86.5 114.316 86.5 114.25V112.25C86.5005 112.217 86.4946 112.185 86.4825 112.154C86.4704 112.124 86.4524 112.096 86.4296 112.072C86.4067 112.048 86.3794 112.03 86.3493 112.017C86.3192 112.004 86.2868 111.997 86.2539 111.996C86.2204 111.996 86.1872 112.002 86.1562 112.014C86.1251 112.027 86.0969 112.046 86.0732 112.069C86.0495 112.093 86.0309 112.121 86.0183 112.152C86.0057 112.183 85.9995 112.217 86 112.25V114H85V111.75C85.0005 111.717 84.9946 111.685 84.9825 111.654C84.9704 111.624 84.9524 111.596 84.9296 111.572C84.9067 111.548 84.8794 111.53 84.8493 111.517C84.8192 111.504 84.7868 111.497 84.7539 111.496C84.7536 111.496 84.7533 111.496 84.753 111.496V111.496ZM53.7461 116.996C53.7133 116.997 53.6809 117.004 53.6507 117.017C53.6206 117.03 53.5933 117.048 53.5705 117.072C53.5476 117.096 53.5297 117.124 53.5176 117.154C53.5055 117.185 53.4995 117.217 53.5 117.25V119.5H52.5V117.75C52.5006 117.717 52.4943 117.683 52.4818 117.652C52.4692 117.621 52.4505 117.593 52.4268 117.569C52.4031 117.546 52.3749 117.527 52.3439 117.514C52.3129 117.502 52.2796 117.496 52.2461 117.496C52.2133 117.497 52.1809 117.504 52.1507 117.517C52.1206 117.53 52.0933 117.548 52.0705 117.572C52.0476 117.596 52.0297 117.624 52.0176 117.654C52.0055 117.685 51.9995 117.717 52 117.75V119.75C52 119.816 52.0264 119.88 52.0733 119.927C52.1201 119.974 52.1837 120 52.25 120H53.5V121V123H54V121.5H55.25C55.3163 121.5 55.3799 121.474 55.4268 121.427C55.4737 121.38 55.5 121.316 55.5 121.25V118.75C55.5006 118.717 55.4943 118.683 55.4818 118.652C55.4692 118.621 55.4505 118.593 55.4268 118.569C55.4031 118.546 55.3749 118.527 55.3439 118.514C55.3129 118.502 55.2796 118.496 55.2461 118.496C55.2133 118.497 55.1809 118.504 55.1507 118.517C55.1206 118.53 55.0933 118.548 55.0705 118.572C55.0476 118.596 55.0297 118.624 55.0176 118.654C55.0055 118.685 54.9995 118.717 55 118.75V121H54V117.5V117.25C54.0006 117.217 53.9943 117.183 53.9818 117.152C53.9692 117.121 53.9505 117.093 53.9268 117.069C53.9031 117.046 53.8749 117.027 53.8439 117.014C53.8129 117.002 53.7796 116.996 53.7461 116.996V116.996ZM109.253 118.996C109.22 118.996 109.186 119.002 109.155 119.015C109.125 119.027 109.096 119.046 109.073 119.07C109.049 119.093 109.031 119.121 109.018 119.152C109.006 119.183 109 119.217 109 119.25V119.5V123H108V120.75C108.001 120.717 107.995 120.685 107.982 120.654C107.97 120.624 107.952 120.596 107.93 120.572C107.907 120.548 107.879 120.53 107.849 120.517C107.819 120.504 107.787 120.497 107.754 120.496C107.72 120.496 107.687 120.502 107.656 120.514C107.625 120.527 107.597 120.546 107.573 120.569C107.55 120.593 107.531 120.621 107.518 120.652C107.506 120.683 107.5 120.717 107.5 120.75V123.25C107.5 123.316 107.526 123.38 107.573 123.427C107.62 123.474 107.684 123.5 107.75 123.5H109V125H109.5V123V122H110.75C110.816 122 110.88 121.974 110.927 121.927C110.974 121.88 111 121.816 111 121.75V119.75C111.001 119.717 110.995 119.685 110.982 119.654C110.97 119.624 110.952 119.596 110.93 119.572C110.907 119.548 110.879 119.53 110.849 119.517C110.819 119.504 110.787 119.497 110.754 119.496C110.72 119.496 110.687 119.502 110.656 119.514C110.625 119.527 110.597 119.546 110.573 119.569C110.55 119.593 110.531 119.621 110.518 119.652C110.506 119.683 110.5 119.717 110.5 119.75V121.5H109.5V119.25C109.501 119.217 109.495 119.185 109.482 119.154C109.47 119.124 109.452 119.096 109.43 119.072C109.407 119.048 109.379 119.03 109.349 119.017C109.319 119.004 109.287 118.997 109.254 118.996C109.254 118.996 109.253 118.996 109.253 118.996V118.996ZM11.253 119.996C11.2196 119.996 11.1864 120.002 11.1555 120.015C11.1246 120.027 11.0965 120.046 11.0729 120.07C11.0493 120.093 11.0307 120.121 11.0182 120.152C11.0057 120.183 10.9995 120.217 11 120.25V120.5V124H10V121.75C10.0005 121.717 9.99459 121.685 9.9825 121.654C9.97041 121.624 9.95242 121.596 9.92957 121.572C9.90672 121.548 9.87945 121.53 9.84931 121.517C9.81918 121.504 9.78677 121.497 9.75394 121.496C9.72045 121.496 9.6872 121.502 9.65615 121.514C9.62511 121.527 9.59691 121.546 9.57323 121.569C9.54955 121.593 9.53087 121.621 9.51829 121.652C9.50572 121.683 9.49951 121.717 9.50003 121.75V124.25C9.50004 124.316 9.52638 124.38 9.57326 124.427C9.62014 124.474 9.68373 124.5 9.75003 124.5H11V126H11.5V124V123H12.75C12.8163 123 12.8799 122.974 12.9268 122.927C12.9737 122.88 13 122.816 13 122.75V120.75C13.0005 120.717 12.9946 120.685 12.9825 120.654C12.9704 120.624 12.9524 120.596 12.9296 120.572C12.9067 120.548 12.8794 120.53 12.8493 120.517C12.8192 120.504 12.7868 120.497 12.7539 120.496C12.7204 120.496 12.6872 120.502 12.6562 120.514C12.6251 120.527 12.5969 120.546 12.5732 120.569C12.5495 120.593 12.5309 120.621 12.5183 120.652C12.5057 120.683 12.4995 120.717 12.5 120.75V122.5H11.5V120.25C11.5005 120.217 11.4946 120.185 11.4825 120.154C11.4704 120.124 11.4524 120.096 11.4296 120.072C11.4067 120.048 11.3794 120.03 11.3493 120.017C11.3192 120.004 11.2868 119.997 11.2539 119.996C11.2536 119.996 11.2533 119.996 11.253 119.996V119.996ZM40.753 120.996C40.7196 120.996 40.6864 121.002 40.6555 121.015C40.6246 121.027 40.5965 121.046 40.5729 121.07C40.5493 121.093 40.5307 121.121 40.5182 121.152C40.5057 121.183 40.4995 121.217 40.5 121.25V121.5V125H39.5V122.75C39.5005 122.717 39.4946 122.685 39.4825 122.654C39.4704 122.624 39.4524 122.596 39.4296 122.572C39.4067 122.548 39.3794 122.53 39.3493 122.517C39.3192 122.504 39.2868 122.497 39.2539 122.496C39.2204 122.496 39.1872 122.502 39.1562 122.514C39.1251 122.527 39.0969 122.546 39.0732 122.569C39.0495 122.593 39.0309 122.621 39.0183 122.652C39.0057 122.683 38.9995 122.717 39 122.75V125.25C39 125.316 39.0264 125.38 39.0733 125.427C39.1201 125.474 39.1837 125.5 39.25 125.5H40.5V127H41V125V124H42.25C42.3163 124 42.3799 123.974 42.4268 123.927C42.4737 123.88 42.5 123.816 42.5 123.75V121.75C42.5005 121.717 42.4946 121.685 42.4825 121.654C42.4704 121.624 42.4524 121.596 42.4296 121.572C42.4067 121.548 42.3794 121.53 42.3493 121.517C42.3192 121.504 42.2868 121.497 42.2539 121.496C42.2204 121.496 42.1872 121.502 42.1562 121.514C42.1251 121.527 42.0969 121.546 42.0732 121.569C42.0495 121.593 42.0309 121.621 42.0183 121.652C42.0057 121.683 41.9995 121.717 42 121.75V123.5H41V121.25C41.0005 121.217 40.9946 121.185 40.9825 121.154C40.9704 121.124 40.9524 121.096 40.9296 121.072C40.9067 121.048 40.8794 121.03 40.8493 121.017C40.8192 121.004 40.7868 120.997 40.7539 120.996C40.7536 120.996 40.7533 120.996 40.753 120.996V120.996ZM124.246 121.996C124.213 121.997 124.181 122.004 124.151 122.017C124.121 122.03 124.093 122.048 124.07 122.072C124.048 122.096 124.03 122.124 124.018 122.154C124.005 122.185 124 122.217 124 122.25V124.5H123V122.75C123.001 122.717 122.994 122.683 122.982 122.652C122.969 122.621 122.951 122.593 122.927 122.569C122.903 122.546 122.875 122.527 122.844 122.514C122.813 122.502 122.78 122.496 122.746 122.496C122.713 122.497 122.681 122.504 122.651 122.517C122.621 122.53 122.593 122.548 122.57 122.572C122.548 122.596 122.53 122.624 122.518 122.654C122.505 122.685 122.5 122.717 122.5 122.75V124.75C122.5 124.816 122.526 124.88 122.573 124.927C122.62 124.974 122.684 125 122.75 125H124V126V128H124.5V126.5H125.75C125.816 126.5 125.88 126.474 125.927 126.427C125.974 126.38 126 126.316 126 126.25V123.75C126.001 123.717 125.994 123.683 125.982 123.652C125.969 123.621 125.951 123.593 125.927 123.569C125.903 123.546 125.875 123.527 125.844 123.514C125.813 123.502 125.78 123.496 125.746 123.496C125.713 123.497 125.681 123.504 125.651 123.517C125.621 123.53 125.593 123.548 125.57 123.572C125.548 123.596 125.53 123.624 125.518 123.654C125.505 123.685 125.5 123.717 125.5 123.75V126H124.5V122.5V122.25C124.501 122.217 124.494 122.183 124.482 122.152C124.469 122.121 124.451 122.093 124.427 122.069C124.403 122.046 124.375 122.027 124.344 122.014C124.313 122.002 124.28 121.996 124.246 121.996V121.996ZM95.2461 122.996C95.2133 122.997 95.1809 123.004 95.1507 123.017C95.1206 123.03 95.0933 123.048 95.0705 123.072C95.0476 123.096 95.0297 123.124 95.0176 123.154C95.0055 123.185 94.9995 123.217 95 123.25V125.5H94V123.75C94.0006 123.717 93.9943 123.683 93.9818 123.652C93.9692 123.621 93.9505 123.593 93.9268 123.569C93.9032 123.546 93.875 123.527 93.8439 123.514C93.8129 123.502 93.7796 123.496 93.7461 123.496C93.7133 123.497 93.6809 123.504 93.6507 123.517C93.6206 123.53 93.5933 123.548 93.5705 123.572C93.5476 123.596 93.5297 123.624 93.5176 123.654C93.5055 123.685 93.4995 123.717 93.5 123.75V125.75C93.5 125.816 93.5264 125.88 93.5733 125.927C93.6201 125.974 93.6837 126 93.75 126H95V127V128H95.5V127.5H96.75C96.8163 127.5 96.8799 127.474 96.9268 127.427C96.9737 127.38 97 127.316 97 127.25V124.75C97.0006 124.717 96.9943 124.683 96.9818 124.652C96.9692 124.621 96.9505 124.593 96.9268 124.569C96.9032 124.546 96.875 124.527 96.8439 124.514C96.8129 124.502 96.7796 124.496 96.7461 124.496C96.7133 124.497 96.6809 124.504 96.6507 124.517C96.6206 124.53 96.5933 124.548 96.5705 124.572C96.5476 124.596 96.5297 124.624 96.5176 124.654C96.5055 124.685 96.4995 124.717 96.5 124.75V127H95.5V123.5V123.25C95.5006 123.217 95.4943 123.183 95.4818 123.152C95.4692 123.121 95.4505 123.093 95.4268 123.069C95.4032 123.046 95.375 123.027 95.3439 123.014C95.3129 123.002 95.2796 122.996 95.2461 122.996V122.996ZM77.2461 123.996C77.2133 123.997 77.1809 124.004 77.1507 124.017C77.1206 124.03 77.0933 124.048 77.0705 124.072C77.0476 124.096 77.0297 124.124 77.0176 124.154C77.0055 124.185 76.9995 124.217 77 124.25V126.5H76V124.75C76.0006 124.717 75.9943 124.683 75.9818 124.652C75.9692 124.621 75.9505 124.593 75.9268 124.569C75.9032 124.546 75.875 124.527 75.8439 124.514C75.8129 124.502 75.7796 124.496 75.7461 124.496C75.7133 124.497 75.6809 124.504 75.6507 124.517C75.6206 124.53 75.5933 124.548 75.5705 124.572C75.5476 124.596 75.5297 124.624 75.5176 124.654C75.5055 124.685 75.4995 124.717 75.5 124.75V126.75C75.5 126.816 75.5264 126.88 75.5733 126.927C75.6201 126.974 75.6837 127 75.75 127H77V128H77.5V124.5V124.25C77.5006 124.217 77.4943 124.183 77.4818 124.152C77.4692 124.121 77.4505 124.093 77.4268 124.069C77.4032 124.046 77.375 124.027 77.3439 124.014C77.3129 124.002 77.2796 123.996 77.2461 123.996V123.996ZM78.7461 125.496C78.7133 125.497 78.6809 125.504 78.6507 125.517C78.6206 125.53 78.5933 125.548 78.5705 125.572C78.5476 125.596 78.5297 125.624 78.5176 125.654C78.5055 125.685 78.4995 125.717 78.5 125.75V128H79V125.75C79.0006 125.717 78.9943 125.683 78.9818 125.652C78.9692 125.621 78.9505 125.593 78.9268 125.569C78.9032 125.546 78.875 125.527 78.8439 125.514C78.8129 125.502 78.7796 125.496 78.7461 125.496Z" fill="#6B8D5E"/>
</svg>
