<svg width="128" height="128" viewBox="0 0 128 128" fill="none" xmlns="http://www.w3.org/2000/svg">
<path d="M75.5 0V0.5H77V2.5H77.5V0.5H79V0H78.5H76H75.5ZM95 0V1.5H95.5V0H95ZM124 0V0.5H124.5V0H124ZM58 2L56.5 6V6.5H58V8.5H58.5V6.5H60V6L58.5 2H58ZM58.25 2.5L59.5 6H57L58.25 2.5ZM25 3L23.5 7V7.5H25V9.5H25.5V7.5H27V7L25.5 3H25ZM25.25 3.5L26.5 7H24L25.25 3.5ZM6.5 5.5L5 9.5V10H6.5V12H7V10H8.5V9.5L7 5.5H6.5ZM6.75 6L8 9.5H5.5L6.75 6ZM107.5 6L106 10V10.5H107.5V12.5H108V10.5H109.5V10L108 6H107.5ZM107.75 6.5L109 10H106.5L107.75 6.5ZM89 9L87.5 13V13.5H89V15.5H89.5V13.5H91V13L89.5 9H89ZM38 9.5L36.5 13.5V14H38V16H38.5V14H40V13.5L38.5 9.5H38ZM89.25 9.5L90.5 13H88L89.25 9.5ZM38.25 10L39.5 13.5H37L38.25 10ZM68.5 11L67 15V15.5H68.5V17.5H69V15.5H70.5V15L69 11H68.5ZM68.75 11.5L70 15H67.5L68.75 11.5ZM120.5 14L119 18V18.5H120.5V20.5H121V18.5H122.5V18L121 14H120.5ZM120.75 14.5L122 18H119.5L120.75 14.5ZM22.5 19.5L21 23.5V24H22.5V26H23V24H24.5V23.5L23 19.5H22.5ZM22.75 20L24 23.5H21.5L22.75 20ZM56.5 20.5L55 24.5V25H56.5V27H57V25H58.5V24.5L57 20.5H56.5ZM56.75 21L58 24.5H55.5L56.75 21ZM78 22L76.5 26V26.5H78V28.5H78.5V26.5H80V26L78.5 22H78ZM78.25 22.5L79.5 26H77L78.25 22.5ZM110 23L108.5 27V27.5H110V29.5H110.5V27.5H112V27L110.5 23H110ZM110.25 23.5L111.5 27H109L110.25 23.5ZM37 24L35.5 28V28.5H37V30.5H37.5V28.5H39V28L37.5 24H37ZM5 24.5L3.5 28.5V29H5V31H5.5V29H7V28.5L5.5 24.5H5ZM37.25 24.5L38.5 28H36L37.25 24.5ZM5.25 25L6.5 28.5H4L5.25 25ZM91 26.5L89.5 30.5V31H91V33H91.5V31H93V30.5L91.5 26.5H91ZM91.25 27L92.5 30.5H90L91.25 27ZM17.5 34L16 38V38.5H17.5V40.5H18V38.5H19.5V38L18 34H17.5ZM17.75 34.5L19 38H16.5L17.75 34.5ZM50.5 34.5L49 38.5V39H50.5V41H51V39H52.5V38.5L51 34.5H50.5ZM50.75 35L52 38.5H49.5L50.75 35ZM67 35.5L65.5 39.5V40H67V42H67.5V40H69V39.5L67.5 35.5H67ZM67.25 36L68.5 39.5H66L67.25 36ZM103.5 37.5L102 41.5V42H103.5V44H104V42H105.5V41.5L104 37.5H103.5ZM103.75 38L105 41.5H102.5L103.75 38ZM82 39.5L80.5 43.5V44H82V46H82.5V44H84V43.5L82.5 39.5H82ZM82.25 40L83.5 43.5H81L82.25 40ZM37 41L35.5 45V45.5H37V47.5H37.5V45.5H39V45L37.5 41H37ZM37.25 41.5L38.5 45H36L37.25 41.5ZM118.5 42.5L117 46.5V47H118.5V49H119V47H120.5V46.5L119 42.5H118.5ZM5.5 43L4 47V47.5H5.5V49.5H6V47.5H7.5V47L6 43H5.5ZM118.75 43L120 46.5H117.5L118.75 43ZM5.75 43.5L7 47H4.5L5.75 43.5ZM93 50L91.5 54V54.5H93V56.5H93.5V54.5H95V54L93.5 50H93ZM24 50.5L22.5 54.5V55H24V57H24.5V55H26V54.5L24.5 50.5H24ZM55 50.5L53.5 54.5V55H55V57H55.5V55H57V54.5L55.5 50.5H55ZM93.25 50.5L94.5 54H92L93.25 50.5ZM24.25 51L25.5 54.5H23L24.25 51ZM55.25 51L56.5 54.5H54L55.25 51ZM73 53.5L71.5 57.5V58H73V60H73.5V58H75V57.5L73.5 53.5H73ZM73.25 54L74.5 57.5H72L73.25 54ZM108 55L106.5 59V59.5H108V61.5H108.5V59.5H110V59L108.5 55H108ZM41 55.5L39.5 59.5V60H41V62H41.5V60H43V59.5L41.5 55.5H41ZM108.25 55.5L109.5 59H107L108.25 55.5ZM41.25 56L42.5 59.5H40L41.25 56ZM9 56.5L7.5 60.5V61H9V63H9.5V61H11V60.5L9.5 56.5H9ZM9.25 57L10.5 60.5H8L9.25 57ZM122.5 61.5L121 65.5V66H122.5V68H123V66H124.5V65.5L123 61.5H122.5ZM122.75 62L124 65.5H121.5L122.75 62ZM84 62.5L82.5 66.5V67H84V69H84.5V67H86V66.5L84.5 62.5H84ZM84.25 63L85.5 66.5H83L84.25 63ZM57 66L55.5 70V70.5H57V72.5H57.5V70.5H59V70L57.5 66H57ZM19.5 66.5L18 70.5V71H19.5V73H20V71H21.5V70.5L20 66.5H19.5ZM57.25 66.5L58.5 70H56L57.25 66.5ZM19.75 67L21 70.5H18.5L19.75 67ZM101 69.5L99.5 73.5V74H101V76H101.5V74H103V73.5L101.5 69.5H101ZM101.25 70L102.5 73.5H100L101.25 70ZM41 72.5L39.5 76.5V77H41V79H41.5V77H43V76.5L41.5 72.5H41ZM41.25 73L42.5 76.5H40L41.25 73ZM114 74.5L112.5 78.5V79H114V81H114.5V79H116V78.5L114.5 74.5H114ZM5.5 75L4 79V79.5H5.5V81.5H6V79.5H7.5V79L6 75H5.5ZM73 75L71.5 79V79.5H73V81.5H73.5V79.5H75V79L73.5 75H73ZM114.25 75L115.5 78.5H113L114.25 75ZM5.75 75.5L7 79H4.5L5.75 75.5ZM73.25 75.5L74.5 79H72L73.25 75.5ZM27 78L25.5 82V82.5H27V84.5H27.5V82.5H29V82L27.5 78H27ZM27.25 78.5L28.5 82H26L27.25 78.5ZM88 80L86.5 84V84.5H88V86.5H88.5V84.5H90V84L88.5 80H88ZM88.25 80.5L89.5 84H87L88.25 80.5ZM58.5 82L57 86V86.5H58.5V88.5H59V86.5H60.5V86L59 82H58.5ZM58.75 82.5L60 86H57.5L58.75 82.5ZM104.5 87L103 91V91.5H104.5V93.5H105V91.5H106.5V91L105 87H104.5ZM43.5 87.5L42 91.5V92H43.5V94H44V92H45.5V91.5L44 87.5H43.5ZM104.75 87.5L106 91H103.5L104.75 87.5ZM13 88L11.5 92V92.5H13V94.5H13.5V92.5H15V92L13.5 88H13ZM43.75 88L45 91.5H42.5L43.75 88ZM13.25 88.5L14.5 92H12L13.25 88.5ZM125.5 90L124 94V94.5H125.5V96.5H126V94.5H127.5V94L126 90H125.5ZM125.75 90.5L127 94H124.5L125.75 90.5ZM73 92.5L71.5 96.5V97H73V99H73.5V97H75V96.5L73.5 92.5H73ZM73.25 93L74.5 96.5H72L73.25 93ZM88.5 94.5L87 98.5V99H88.5V101H89V99H90.5V98.5L89 94.5H88.5ZM88.75 95L90 98.5H87.5L88.75 95ZM28.5 97L27 101V101.5H28.5V103.5H29V101.5H30.5V101L29 97H28.5ZM28.75 97.5L30 101H27.5L28.75 97.5ZM56.5 98L55 102V102.5H56.5V104.5H57V102.5H58.5V102L57 98H56.5ZM56.75 98.5L58 102H55.5L56.75 98.5ZM117 102.5L115.5 106.5V107H117V109H117.5V107H119V106.5L117.5 102.5H117ZM117.25 103L118.5 106.5H116L117.25 103ZM7.5 103.5L6 107.5V108H7.5V110H8V108H9.5V107.5L8 103.5H7.5ZM7.75 104L9 107.5H6.5L7.75 104ZM101.5 104L100 108V108.5H101.5V110.5H102V108.5H103.5V108L102 104H101.5ZM101.75 104.5L103 108H100.5L101.75 104.5ZM39.5 105.5L38 109.5V110H39.5V112H40V110H41.5V109.5L40 105.5H39.5ZM39.75 106L41 109.5H38.5L39.75 106ZM69.5 107L68 111V111.5H69.5V113.5H70V111.5H71.5V111L70 107H69.5ZM69.75 107.5L71 111H68.5L69.75 107.5ZM22.5 110L21 114V114.5H22.5V116.5H23V114.5H24.5V114L23 110H22.5ZM22.75 110.5L24 114H21.5L22.75 110.5ZM84.5 111.5L83 115.5V116H84.5V118H85V116H86.5V115.5L85 111.5H84.5ZM84.75 112L86 115.5H83.5L84.75 112ZM53.5 117L52 121V121.5H53.5V123.5H54V121.5H55.5V121L54 117H53.5ZM53.75 117.5L55 121H52.5L53.75 117.5ZM109 119L107.5 123V123.5H109V125.5H109.5V123.5H111V123L109.5 119H109ZM109.25 119.5L110.5 123H108L109.25 119.5ZM11 120L9.5 124V124.5H11V126.5H11.5V124.5H13V124L11.5 120H11ZM11.25 120.5L12.5 124H10L11.25 120.5ZM40.5 121L39 125V125.5H40.5V127.5H41V125.5H42.5V125L41 121H40.5ZM40.75 121.5L42 125H39.5L40.75 121.5ZM124 122L122.5 126V126.5H124V128H124.5V126.5H126V126L124.5 122H124ZM124.25 122.5L125.5 126H123L124.25 122.5ZM95 123L93.5 127V127.5H95V128H95.5V127.5H97V127L95.5 123H95ZM95.25 123.5L96.5 127H94L95.25 123.5ZM77 124L75.5 128H76L77.25 124.5L78.5 128H79L77.5 124H77Z" fill="#6B8D5E"/>
</svg>
