<svg width="14" height="14" viewBox="0 0 14 14" fill="none" xmlns="http://www.w3.org/2000/svg">
<path d="M2.5918 0.876915C2.39328 0.884915 2.1959 0.92461 2 0.999962V8.99996C2 8.99996 5.1875 8.87496 6 12V3.59957C5.38001 2.29397 3.98142 0.820917 2.5918 0.876915ZM6 12C3.9375 10.4062 1 9.99996 1 9.99996V2.40035L0 1.99996V11L6 13H8L14 11V1.99996L13 2.40035V10.4004L8 12C7.33333 11.7453 6.55618 11.7906 6 12ZM12 0.999962C10.0075 0.893411 7.7073 2.08964 6.5 3.1191V11.5839C7.61477 10.6593 9.61358 9.44267 12 9.19918V0.999962Z" fill="#734A08"/>
</svg>
