<svg width="14" height="14" viewBox="0 0 14 14" fill="none" xmlns="http://www.w3.org/2000/svg">
<path d="M7.0003 0L4.0003 1.5C3.53525 3 3.53525 4 4.0003 6H5.0003L4.0003 14H10.0003L9.0003 6H10.0003C10.5305 4 10.5305 3 10.0003 1.5L7.0003 0ZM0.719047 1.46875C0.551781 1.55294 0.48968 1.84503 0.719047 1.9375L2.59405 2.6875C2.90048 2.81104 3.08737 2.34205 2.78155 2.21875L0.906547 1.46875C0.830087 1.43793 0.774802 1.44069 0.719047 1.46875ZM13.094 1.46875L11.219 2.21875C10.9132 2.34205 11.1001 2.81104 11.4065 2.6875L13.2815 1.9375C13.5874 1.8142 13.3999 1.34545 13.094 1.46875ZM4.5003 2H9.5003C9.75938 3 9.75938 4 9.5003 5H4.5003C4.24121 4 4.24121 3 4.5003 2ZM0.750297 3.25C0.420555 3.25 0.420555 3.75 0.750297 3.75H2.7503C3.08069 3.75 3.08004 3.25 2.7503 3.25H0.750297ZM11.2503 3.25C10.9206 3.25 10.9199 3.75 11.2503 3.75H13.2503C13.58 3.75 13.58 3.25 13.2503 3.25H11.2503ZM2.59405 4.375L0.719047 5.125C0.413225 5.2483 0.600118 5.71729 0.906547 5.59375L2.78155 4.84375C3.08737 4.72045 2.89987 4.2517 2.59405 4.375V4.375ZM11.219 4.375C11.0518 4.45919 10.9897 4.75128 11.219 4.84375L13.094 5.59375C13.4005 5.71729 13.5874 5.2483 13.2815 5.125L11.4065 4.375C11.3301 4.34418 11.2748 4.34694 11.219 4.375Z" fill="#666666"/>
</svg>
