<svg width="14" height="14" viewBox="0 0 14 14" fill="none" xmlns="http://www.w3.org/2000/svg">
<path d="M4.46875 1.00003C4.43403 1.00227 4.39998 1.01797 4.36523 1.02737C4.34186 1.03401 4.31674 1.03515 4.29492 1.04495C4.28852 1.04779 4.28171 1.04766 4.27539 1.05081L0.269531 3.05276V3.06253C0.110925 3.14617 0 3.30758 0 3.50003V12.5C0 12.507 0.00363014 12.5127 0.00390625 12.5196C0.0049226 12.5487 0.0151933 12.5764 0.0214844 12.6055C0.0292979 12.6409 0.0339677 12.6769 0.0488281 12.709C0.0511603 12.7141 0.0502174 12.7196 0.0527344 12.7246C0.0575484 12.7343 0.0688894 12.7369 0.0742188 12.7461C0.112527 12.8124 0.163114 12.8677 0.226562 12.9102C0.243949 12.9218 0.258735 12.9341 0.277344 12.9434C0.344937 12.9774 0.418912 13 0.5 13C0.505593 13 0.510077 12.9963 0.515625 12.9961C0.521125 12.996 0.525743 13.0004 0.53125 13C0.564582 12.9979 0.597467 12.9834 0.630859 12.9746C0.655682 12.9678 0.681982 12.9655 0.705078 12.9551C0.711483 12.9523 0.718295 12.9524 0.724609 12.9492L4.48047 11.0723L9.29492 12.9571C9.35757 12.9852 9.42663 13.002 9.5 13.002C9.50346 13.002 9.50827 13.0001 9.51172 13C9.51594 12.9999 9.51923 12.9963 9.52344 12.9961H9.52539C9.5275 12.996 9.52914 12.9982 9.53125 12.9981C9.54369 12.9973 9.55583 12.99 9.56836 12.9883C9.61992 12.981 9.66967 12.9709 9.71484 12.9492C9.71795 12.9478 9.72153 12.9488 9.72461 12.9473L13.7305 10.9453V10.9395C13.8891 10.8558 14 10.6944 14 10.502V1.50198C14 1.49506 13.9964 1.48931 13.9961 1.48245C13.9951 1.45066 13.9838 1.42039 13.9766 1.3887C13.9688 1.35603 13.965 1.32281 13.9512 1.293C13.9486 1.28732 13.9501 1.28105 13.9473 1.27542C13.9409 1.26271 13.9272 1.25804 13.9199 1.24612C13.884 1.18721 13.8377 1.13909 13.7812 1.09964C13.7592 1.08406 13.7409 1.06839 13.7168 1.05667C13.6506 1.02442 13.5789 1.00198 13.5 1.00198C13.4959 1.00198 13.4924 1.00384 13.4883 1.00394C13.4815 1.0041 13.4756 0.999591 13.4688 1.00003C13.4248 1.00286 13.3815 1.02062 13.3379 1.03519C13.3252 1.03958 13.3111 1.03958 13.2988 1.04495C13.2912 1.04825 13.2829 1.04707 13.2754 1.05081L9.51562 2.92972L4.74805 1.06448L4.74609 1.06253C4.74428 1.06151 4.74206 1.06157 4.74023 1.06058L4.70898 1.04886C4.64504 1.01927 4.57533 1.00003 4.5 1.00003C4.49454 1.00003 4.48979 1.00181 4.48438 1.00198C4.48351 1.00201 4.48329 1.00391 4.48242 1.00394C4.47757 1.00411 4.47361 0.999717 4.46875 1.00003ZM5 2.23636L9 3.80276V11.7676L5 10.2012V2.23636ZM4 2.30667V10.1953L1 11.6934V3.80472L4 2.30667ZM13 2.30667V10.1934L10 11.6914V3.80472L13 2.30667Z" fill="#666666"/>
</svg>
