<svg width="14" height="14" viewBox="0 0 14 14" fill="none" xmlns="http://www.w3.org/2000/svg">
<path d="M0 0V1V2C0 2.53043 0.210714 3.03914 0.585786 3.41421C0.960859 3.78929 1.46957 4 2 4C2.53043 4 3.03914 3.78929 3.41421 3.41421C3.78929 3.03914 4 2.53043 4 2H5C5 2.53043 5.21071 3.03914 5.58579 3.41421C5.96086 3.78929 6.46957 4 7 4C7.53043 4 8.03914 3.78929 8.41421 3.41421C8.78929 3.03914 9 2.53043 9 2H10C10 2.53043 10.2107 3.03914 10.5858 3.41421C10.9609 3.78929 11.4696 4 12 4C12.5304 4 13.0391 3.78929 13.4142 3.41421C13.7893 3.03914 14 2.53043 14 2V1V0H12H0Z" fill="#AC39AC"/>
<path d="M0 5V9V11V14H2V11H12V14H14V11V9V5H12V9H2V5H0Z" fill="#AC39AC"/>
</svg>
