<svg width="14" height="14" viewBox="0 0 14 14" fill="none" xmlns="http://www.w3.org/2000/svg">
<path d="M5.54492 1C5.1471 1 4.76557 1.15804 4.48426 1.43934C4.20296 1.72064 4.04492 2.10218 4.04492 2.5C4.04492 2.89782 4.20296 3.27936 4.48426 3.56066C4.76557 3.84196 5.1471 4 5.54492 4C5.94275 4 6.32428 3.84196 6.60558 3.56066C6.88689 3.27936 7.04492 2.89782 7.04492 2.5C7.04492 2.10218 6.88689 1.72064 6.60558 1.43934C6.32428 1.15804 5.94275 1 5.54492 1ZM4.33008 4.50977C3.94068 4.56096 3.58948 4.82896 3.45703 5.21484L2.1582 9H4.22656L5.17383 6.24219L6.19141 7.28906C6.20702 7.30512 6.22706 7.31265 6.24414 7.32617C6.26116 7.34113 6.28162 7.35063 6.30078 7.36328C6.33058 7.38089 6.35852 7.39926 6.39062 7.41016C6.40716 7.41677 6.41996 7.42866 6.4375 7.43359L8.36133 7.97461C8.62797 8.04966 8.90346 7.89554 8.97852 7.62891C9.05357 7.36227 8.89945 7.08872 8.63281 7.01367L6.82422 6.50391L5.16602 4.79883C5.15441 4.78689 5.13939 4.78202 5.12695 4.77148C5.0172 4.66599 4.88789 4.57795 4.72461 4.53516C4.59306 4.50067 4.45988 4.4927 4.33008 4.50977ZM11.5 8C11.1022 8 10.7206 8.15804 10.4393 8.43934C10.158 8.72064 10 9.10218 10 9.5C10 9.89782 10.158 10.2794 10.4393 10.5607C10.7206 10.842 11.1022 11 11.5 11C11.8978 11 12.2794 10.842 12.5607 10.5607C12.842 10.2794 13 9.89782 13 9.5C13 9.10218 12.842 8.72064 12.5607 8.43934C12.2794 8.15804 11.8978 8 11.5 8V8ZM1 10C0.446 10 0 10.446 0 11C0 11.554 0.446 12 1 12H5.53906H7H9.19531L11.2539 12.9492C11.3209 12.9801 11.391 12.9924 11.459 12.9922C11.4732 12.9934 11.4855 13 11.5 13H13.5C13.777 13 14 12.777 14 12.5C14 12.223 13.777 12 13.5 12H11.5605L7.34375 10.0527C7.26121 10.0146 7.17628 10.011 7.09375 10.0195C7.06131 10.0164 7.03329 10 7 10H3.88281H1.81445H1Z" fill="#AC39AC"/>
</svg>
