<svg width="14" height="14" viewBox="0 0 14 14" fill="none" xmlns="http://www.w3.org/2000/svg">
<g clip-path="url(#clip0)">
<path d="M13.8194 0L10.475 0.242207V0.249064L10.4658 0.246775L9.93436 4.64534H4.61538V6.06202H6.95189C6.05354 6.53103 5.35442 7.30543 4.98189 8.24416H2.04293V8.29672L1.42444 10.3509C1.02917 10.4579 0.68025 10.6912 0.431464 11.015C0.182677 11.3387 0.0478373 11.7348 0.0477296 12.1423C0.0476468 12.3862 0.0958754 12.6278 0.189661 12.8532C0.283446 13.0786 0.42095 13.2834 0.594318 13.4559C0.767687 13.6284 0.973523 13.7652 1.20007 13.8586C1.42661 13.952 1.66943 14 1.91465 14C2.15987 14 2.40268 13.952 2.62923 13.8586C2.85577 13.7652 3.06161 13.6284 3.23498 13.4559C3.40835 13.2834 3.54585 13.0786 3.63964 12.8532C3.73342 12.6278 3.78165 12.3862 3.78157 12.1423C3.781 11.818 3.69506 11.4995 3.5323 11.2184C3.36953 10.9374 3.13562 10.7037 2.85383 10.5406L2.97524 10.1338H4.69784C4.7847 11.1872 5.26661 12.1695 6.04786 12.8857C6.82912 13.6019 7.85258 13.9997 8.91502 14C9.47097 14.0001 10.0215 13.8912 10.5351 13.6796C11.0488 13.468 11.5155 13.1578 11.9086 12.7667C12.3017 12.3757 12.6135 11.9114 12.8262 11.4004C13.0389 10.8895 13.1483 10.3418 13.1482 9.7888C13.1476 9.17027 13.0099 8.55949 12.745 7.99988C12.4802 7.44027 12.0946 6.94559 11.6158 6.551L12.2228 1.5355L13.9523 1.40983L13.8194 0ZM8.94251 7.23878C9.28695 7.23875 9.62803 7.30641 9.94626 7.43788C10.2645 7.56935 10.5536 7.76206 10.7972 8.00501C11.0408 8.24796 11.234 8.53639 11.3658 8.85382C11.4976 9.17126 11.5654 9.51148 11.5654 9.85507C11.5654 10.1987 11.4976 10.5389 11.3658 10.8563C11.234 11.1737 11.0408 11.4622 10.7972 11.7051C10.5536 11.9481 10.2645 12.1408 9.94626 12.2723C9.62803 12.4037 9.28695 12.4714 8.94251 12.4714C8.59806 12.4714 8.25699 12.4037 7.93875 12.2723C7.62052 12.1408 7.33137 11.9481 7.08781 11.7051C6.84425 11.4622 6.65106 11.1737 6.51926 10.8563C6.38745 10.5389 6.31963 10.1987 6.31966 9.85507C6.31963 9.51148 6.38745 9.17126 6.51926 8.85382C6.65106 8.53639 6.84425 8.24796 7.08781 8.00501C7.33137 7.76206 7.62052 7.56935 7.93875 7.43788C8.25699 7.30641 8.59806 7.23875 8.94251 7.23878V7.23878Z" fill="#AC39AC"/>
</g>
<defs>
<clipPath id="clip0">
<rect width="14" height="14" fill="white"/>
</clipPath>
</defs>
</svg>
