<svg width="20" height="20" viewBox="0 0 20 20" fill="none" xmlns="http://www.w3.org/2000/svg">
<path d="M3.09561 17.6629L4.32471 9.58675L5.28833 9.00977L6.23094 9.60214C6.23094 9.60214 7.29964 17.7608 7.19932 17.7119C7.09899 17.663 3.11562 17.7364 3.09552 17.663L3.09561 17.6629Z" fill="#2F6133" fill-opacity="0.33333"/>
<path d="M2.44617 6.13074C2.39325 6.13391 2.34311 6.15554 2.30449 6.19186L1.18489 7.23926C1.08552 7.3319 1.08942 7.49056 1.19322 7.57819L4.49092 10.398L1.19322 13.2206C1.08941 13.3082 1.08551 13.4669 1.18489 13.5595L2.30449 14.6069C2.40438 14.7004 2.56365 14.6847 2.64342 14.5736L5.28272 10.9759L7.92202 14.5736C8.00173 14.6827 8.15859 14.6982 8.25818 14.6069L9.37778 13.5595C9.47715 13.4669 9.47325 13.3082 9.36944 13.2206L6.07174 10.398L9.36944 7.57819C9.47325 7.49055 9.47715 7.3319 9.37778 7.23926L8.25818 6.19186C8.21392 6.15037 8.15489 6.12836 8.09428 6.13074C8.02549 6.13441 7.96211 6.16917 7.92204 6.2252L5.28274 9.8229L2.64344 6.2252C2.59824 6.16197 2.52379 6.12632 2.4462 6.13074H2.44617ZM5.28257 10.2618L5.42425 10.398L5.27979 10.5369L5.13811 10.4007L5.28257 10.2618Z" fill="#2F6133"/>
<path d="M13.578 5.47595C13.578 5.11706 13.4484 4.81465 13.1893 4.56869C12.9302 4.32274 12.6212 4.19978 12.2623 4.19976C11.9038 4.19977 11.5982 4.32275 11.3456 4.56869C11.0929 4.81465 10.9666 5.11708 10.9666 5.47595C10.9666 5.83445 11.0929 6.13667 11.3456 6.38262C11.5982 6.62858 11.9038 6.75156 12.2623 6.75155C12.6212 6.75156 12.9302 6.62858 13.1893 6.38262C13.4484 6.13667 13.578 5.83446 13.578 5.47595V5.47595ZM10.1497 18.7509C10.4287 18.7509 10.6546 18.6181 10.8273 18.3525L14.5743 12.7113L14.7739 13.4887L14.2161 17.7145C14.1893 17.927 14.2357 18.1164 14.3554 18.2827C14.475 18.4489 14.641 18.5519 14.8536 18.5917C15.0664 18.6314 15.2625 18.5883 15.4418 18.4621C15.621 18.336 15.724 18.1665 15.7508 17.9536L16.3287 13.6286C16.342 13.4822 16.3288 13.3293 16.2891 13.1699L15.0129 8.08703L18.342 7.48908C18.5148 7.46273 18.6543 7.37311 18.7605 7.22022C18.8668 7.06734 18.9065 6.90453 18.8798 6.73177C18.84 6.55902 18.7404 6.41283 18.5811 6.29319L10.927 1.25049L10.2293 2.26699C10.0565 2.50627 10.0964 2.71227 10.3491 2.88501C10.5879 3.03102 10.7937 2.99107 10.9665 2.76518L11.3655 2.16723L17.5841 6.25383L12.5019 7.17052C12.3158 7.21027 12.1663 7.30658 12.0533 7.45947C11.9404 7.61236 11.9105 7.77519 11.9636 7.94792L13.0597 12.2333L9.47201 17.5955C9.4055 17.7147 9.37225 17.8409 9.37225 17.9739C9.37225 18.1864 9.44869 18.3691 9.60157 18.522C9.75445 18.6748 9.93714 18.7513 10.1497 18.7513L10.1497 18.7509Z" fill="#2F6133"/>
</svg>
