<svg width="14" height="14" viewBox="0 0 14 14" fill="none" xmlns="http://www.w3.org/2000/svg">
<path fill-rule="evenodd" clip-rule="evenodd" d="M12.1054 8.59287C12.3354 8.73636 12.4696 8.89445 12.535 9.09482C12.5566 9.1607 12.5579 9.17423 12.5585 9.30966C12.559 9.43432 12.5575 9.46701 12.5409 9.53623C12.5083 9.67208 12.448 9.82388 12.3768 9.95615L12.3456 10.0167L12.2382 10.0226C11.8474 10.0429 11.5329 10.1132 11.2597 10.2433C10.6736 10.5223 10.3054 11.0464 10.1229 11.8585L10.1073 11.923L10.0311 11.9933C9.9889 12.0314 9.93201 12.0772 9.90419 12.0949C9.65134 12.2548 9.28843 12.3506 8.77333 12.3956C8.54208 12.4159 8.38712 12.4199 7.64051 12.4269C7.20276 12.431 6.84224 12.4364 6.83973 12.4386C6.83733 12.4408 6.8204 12.4425 6.80262 12.4425C6.76386 12.4425 6.76651 12.4575 6.78895 12.2784C6.82362 12.0017 6.81976 11.6805 6.77915 11.4484C6.66245 10.7806 6.24955 10.3422 5.54869 10.1417C5.24076 10.0536 4.96984 10.0219 4.50767 10.0148L4.21275 10.0089L4.19322 9.98935C4.09471 9.88195 4.04425 9.71773 4.07213 9.59286C4.08531 9.53389 4.13082 9.4485 4.16979 9.41122L5 8.56745C6.80007 8.56175 7.2805 8.57035 9 8.58549C9.09552 8.60803 9.53057 9.47948 9.57607 9.55183C9.60066 9.59094 9.63478 9.67724 9.64248 9.7198C9.64558 9.73709 9.64898 9.75105 9.65028 9.75105C9.66186 9.75105 9.82231 9.68719 9.90419 9.64949C10.1233 9.5486 10.3982 9.15325 10.5372 8.99131C10.6695 7.4331 8.50042 3.29687 12.1054 8.59287V8.59287ZM12.0214 10.2003C12.5454 10.1641 13.0612 10.3517 13.4276 10.712C13.9371 11.213 14.0569 11.962 13.7265 12.5792C13.4517 13.0924 12.9087 13.4388 12.3007 13.4894C12.0725 13.5083 11.799 13.4791 11.5839 13.4112C11.0518 13.2434 10.6377 12.8544 10.4647 12.3604C10.3051 11.9046 10.3663 11.3973 10.6288 10.9952C10.9317 10.5312 11.4405 10.2404 12.0214 10.2003ZM4.89052 10.2042C5.10457 10.2044 5.16516 10.2105 5.32021 10.2472C6.01936 10.4126 6.5403 10.9555 6.64052 11.6222C6.65897 11.7452 6.65914 11.9609 6.64052 12.0772C6.55158 12.6329 6.18743 13.0933 5.64833 13.3351C5.4773 13.4118 5.26238 13.4696 5.06826 13.4893C4.95667 13.5007 4.71655 13.4924 4.59951 13.4737C3.84772 13.3534 3.27771 12.8219 3.14443 12.1163C3.11915 11.9829 3.11609 11.738 3.13853 11.6046C3.19898 11.2457 3.37011 10.9339 3.64243 10.6807C3.90644 10.4353 4.21806 10.2833 4.59946 10.2179C4.66686 10.2062 4.72535 10.204 4.89048 10.2042L4.89052 10.2042ZM12.0878 10.7686C11.7413 10.7842 11.428 10.9401 11.2167 11.2003C11.1508 11.2814 11.0623 11.446 11.0331 11.5421C10.9142 11.9328 11.0296 12.3373 11.3397 12.6183C11.4183 12.6894 11.535 12.77 11.619 12.8097C11.6847 12.8407 11.8201 12.8849 11.9003 12.9015C11.9996 12.9221 12.2258 12.9284 12.3241 12.9132C12.7964 12.8403 13.1646 12.5146 13.2733 12.0772C13.2983 11.9768 13.3039 11.7799 13.2851 11.6768C13.1843 11.1253 12.6796 10.7421 12.0878 10.7686V10.7686ZM4.89443 10.7725C4.68617 10.7721 4.53508 10.8055 4.36123 10.8897C4.24016 10.9484 4.15154 11.0083 4.05654 11.1007C3.90051 11.2523 3.80621 11.4184 3.75576 11.628C3.73494 11.7146 3.73121 11.9199 3.74796 12.0186C3.79101 12.2724 3.94469 12.5217 4.15616 12.6807C4.31892 12.8032 4.50467 12.8818 4.69913 12.9112C4.79544 12.9258 4.99727 12.9259 5.08389 12.9112C5.76956 12.7948 6.18878 12.1667 5.99796 11.5421C5.89951 11.2198 5.61955 10.9445 5.2753 10.8311C5.14349 10.7877 5.04581 10.7729 4.89444 10.7725L4.89443 10.7725ZM1 0.000366211V10.0004H3V6.50037H5.5C7.47608 6.50037 9 5.50037 9 3.25037C9 1.00037 7.48685 0.000366411 5.96875 0.000366211H1ZM3 2.00037H5.5C6.46357 2.00037 7 2.5258 7 3.25037C7 3.97494 6.36822 4.50037 5.5 4.50037H3V2.00037Z" fill="#0092DA"/>
</svg>
