<svg width="14" height="14" viewBox="0 0 14 14" fill="none" xmlns="http://www.w3.org/2000/svg">
<g clip-path="url(#clip0)">
<path fill-rule="evenodd" clip-rule="evenodd" d="M11.6562 5.82562C11.9548 6.03567 12.1289 6.26709 12.2138 6.56042C12.2417 6.65686 12.2435 6.67666 12.2442 6.87492C12.2449 7.0574 12.2429 7.10526 12.2214 7.20659C12.1791 7.40547 12.1008 7.62768 12.0085 7.8213L11.9679 7.90994L11.8285 7.91858C11.3214 7.94831 10.9133 8.05125 10.5587 8.24166C9.79808 8.65004 9.32032 9.41728 9.08353 10.6062L9.06325 10.7005L8.9644 10.8035C8.90959 10.8592 8.83576 10.9264 8.79965 10.9521C8.47152 11.1863 8.00056 11.3265 7.33209 11.3924C7.032 11.4221 6.8309 11.4279 5.862 11.4382C5.29391 11.4443 4.82605 11.4521 4.8228 11.4554C4.81969 11.4586 4.79772 11.4612 4.77464 11.4612C4.72434 11.4612 4.72778 11.4831 4.7569 11.221C4.80188 10.8158 4.79687 10.3457 4.74417 10.0058C4.59272 9.02823 4.05687 8.38646 3.14735 8.09297C2.74773 7.96402 2.39616 7.91752 1.79638 7.90713L1.41365 7.89849L1.38831 7.8699C1.26047 7.71269 1.19498 7.47228 1.23116 7.28949C1.24827 7.20317 1.30733 7.07816 1.3579 7.02359L2.4353 5.7884C4.77131 5.78005 5.39478 5.79267 7.62624 5.81481C7.7502 5.84781 8.31478 7.12352 8.37382 7.22942C8.40573 7.28668 8.45001 7.41301 8.46 7.47531C8.46402 7.50062 8.46844 7.52106 8.47013 7.52106C8.48516 7.52106 8.69338 7.42757 8.79963 7.37238C9.08397 7.22469 9.4407 6.64595 9.62108 6.40889C9.79285 4.12784 6.97792 -1.92711 11.6562 5.82562L11.6562 5.82562ZM11.5472 8.1787C12.2272 8.12575 12.8966 8.40027 13.3721 8.92779C14.0333 9.66118 14.1887 10.7576 13.7599 11.6611C13.4034 12.4124 12.6986 12.9196 11.9096 12.9935C11.6136 13.0212 11.2586 12.9785 10.9794 12.8791C10.289 12.6335 9.75158 12.0641 9.52709 11.3409C9.31994 10.6737 9.39932 9.93099 9.73999 9.34236C10.1331 8.66317 10.7933 8.23738 11.5472 8.1787ZM2.29322 8.1844C2.571 8.1847 2.64963 8.19363 2.85084 8.2473C3.75816 8.48945 4.4342 9.2842 4.56426 10.2601C4.5882 10.4402 4.58842 10.756 4.56426 10.9263C4.44884 11.7398 3.97626 12.4137 3.27666 12.7676C3.0547 12.8799 2.77579 12.9645 2.52387 12.9935C2.37907 13.0101 2.06745 12.9979 1.91556 12.9706C0.939944 12.7945 0.200225 12.0164 0.0272551 10.9835C-0.00555125 10.7882 -0.00952264 10.4298 0.0196001 10.2344C0.098048 9.70905 0.320137 9.25259 0.673536 8.88202C1.01615 8.52277 1.42054 8.30028 1.91551 8.20441C2.00297 8.18731 2.07887 8.18412 2.29317 8.1844L2.29322 8.1844ZM11.6334 9.01069C11.1837 9.0334 10.7771 9.26175 10.5029 9.64256C10.4174 9.7613 10.3026 10.0023 10.2647 10.1429C10.1103 10.715 10.2602 11.307 10.6626 11.7183C10.7645 11.8225 10.9159 11.9404 11.0251 11.9985C11.1103 12.0439 11.2859 12.1086 11.39 12.1329C11.5189 12.1632 11.8125 12.1723 11.9401 12.1501C12.553 12.0434 13.0307 11.5666 13.1719 10.9263C13.2043 10.7793 13.2115 10.4911 13.1871 10.3402C13.0564 9.53284 12.4014 8.97192 11.6334 9.01071L11.6334 9.01069ZM2.29829 9.01639C2.02803 9.0158 1.83195 9.06462 1.60634 9.18794C1.44923 9.27381 1.33422 9.36158 1.21093 9.49673C1.00845 9.7187 0.886068 9.96181 0.820597 10.2687C0.793577 10.3954 0.788738 10.696 0.810472 10.8405C0.866339 11.212 1.06578 11.5769 1.34021 11.8098C1.55143 11.989 1.79249 12.1041 2.04484 12.1472C2.16983 12.1686 2.43175 12.1687 2.54416 12.1472C3.43398 11.9767 3.97802 11.0573 3.73038 10.1429C3.60262 9.67115 3.2393 9.26815 2.79256 9.10219C2.62151 9.03866 2.49474 9.01688 2.29831 9.01642L2.29829 9.01639Z" fill="#0092DA"/>
</g>
<defs>
<clipPath id="clip0">
<rect width="14" height="14" fill="white"/>
</clipPath>
</defs>
</svg>
