<svg width="14" height="14" viewBox="0 0 14 14" fill="none" xmlns="http://www.w3.org/2000/svg">
<path fill-rule="evenodd" clip-rule="evenodd" d="M11 6C12 6 13 7 13 8V10C13.0034 10.9466 12 12 11 12H6C5 12 4 11 4 10V8C4 7 5 6 6 6H7C5 7 5 7 5 9C5 9.55806 5.51498 9.96149 6 10H11C11.6054 10 12 9.55806 12 9C12 7 12 7 10 5.99527L11 6ZM7 3V4.98828L5 5V6H7V8H8V6H9V8H10V6H13C13 7 14 7 14 7V4C14 4 13 4.00048 13 4.95312L10 4.9707V3H9V4.97656L8 4.98242V3H7ZM0 10V1C3 1 3 5 5 5V6C3 6 3 10 0 10Z" fill="#AC39AC"/>
</svg>
