<svg width="14" height="14" viewBox="0 0 14 14" fill="none" xmlns="http://www.w3.org/2000/svg">
<g clip-path="url(#clip0)">
<path d="M13.0068 0.00305176L3.0068 2.00305V10.5656C2.62143 10.4962 2.21923 10.4901 1.8193 10.5968C0.664521 10.905 -0.194014 11.9842 0.0380528 12.8468C0.27012 13.7094 1.53952 14.2175 2.6943 13.9093C3.84908 13.6011 4.5068 12.5731 4.5068 11.6593V4.69055L11.5068 3.31555V8.94055C11.1215 8.87931 10.7192 8.89633 10.3193 9.00305C9.16467 9.31121 8.30624 10.3592 8.53805 11.2218C8.77032 12.0843 10.0397 12.5925 11.1943 12.2843C12.3489 11.9761 13.0068 11.0031 13.0068 10.0031V0.00305176Z" fill="#734A08"/>
</g>
<defs>
<clipPath id="clip0">
<rect width="14" height="14" fill="white"/>
</clipPath>
</defs>
</svg>
