<svg width="14" height="14" viewBox="0 0 14 14" fill="none" xmlns="http://www.w3.org/2000/svg">
<g clip-path="url(#clip0)">
<path fill-rule="evenodd" clip-rule="evenodd" d="M7 0C5.14348 0 3.36301 0.737498 2.05025 2.05025C0.737498 3.36301 0 5.14348 0 7C0 8.85652 0.737498 10.637 2.05025 11.9497C3.36301 13.2625 5.14348 14 7 14C8.85652 14 10.637 13.2625 11.9497 11.9497C13.2625 10.637 14 8.85652 14 7C14 5.14348 13.2625 3.36301 11.9497 2.05025C10.637 0.737498 8.85652 0 7 0V0ZM7 1.5C7.72227 1.5 8.43747 1.64226 9.10476 1.91866C9.77205 2.19506 10.3784 2.60019 10.8891 3.11091C11.3998 3.62164 11.8049 4.22795 12.0813 4.89524C12.3577 5.56253 12.5 6.27773 12.5 7C12.5 7.72227 12.3577 8.43747 12.0813 9.10476C11.8049 9.77205 11.3998 10.3784 10.8891 10.8891C10.3784 11.3998 9.77205 11.8049 9.10476 12.0813C8.43747 12.3577 7.72227 12.5 7 12.5C5.54131 12.5 4.14236 11.9205 3.11091 10.8891C2.07946 9.85764 1.5 8.45869 1.5 7C1.5 5.54131 2.07946 4.14236 3.11091 3.11091C4.14236 2.07946 5.54131 1.5 7 1.5V1.5ZM7 2.86914C6.86342 2.86926 6.7282 2.89628 6.60206 2.94867C6.47592 3.00105 6.36134 3.07776 6.26485 3.17443C6.16836 3.2711 6.09186 3.38583 6.03972 3.51207C5.98757 3.6383 5.9608 3.77357 5.96094 3.91016C5.96118 4.18566 6.07073 4.44981 6.26554 4.64462C6.46035 4.83943 6.7245 4.94898 7 4.94922C7.2755 4.94898 7.53965 4.83943 7.73446 4.64462C7.92927 4.44981 8.03882 4.18566 8.03906 3.91016C8.0392 3.77357 8.01243 3.6383 7.96028 3.51207C7.90814 3.38583 7.83164 3.2711 7.73515 3.17443C7.63866 3.07776 7.52408 3.00105 7.39794 2.94867C7.2718 2.89628 7.13658 2.86926 7 2.86914V2.86914ZM7.6875 5.63477L5.62695 6.32227V7.00781H6.25977L6.3125 10.4434H5.62695V11.1309H8.37305V10.4434H7.6875V5.63477Z" fill="#734A08"/>
</g>
<defs>
<clipPath id="clip0">
<rect width="14" height="14" fill="white"/>
</clipPath>
</defs>
</svg>
