<svg width="14" height="14" viewBox="0 0 14 14" fill="none" xmlns="http://www.w3.org/2000/svg">
<path fill-rule="evenodd" clip-rule="evenodd" d="M5.5 1.01562C5.10218 1.01563 4.72064 1.17366 4.43934 1.45496C4.15804 1.73627 4 2.1178 4 2.51562C4 2.91345 4.15804 3.29498 4.43934 3.57629C4.72064 3.85759 5.10218 4.01562 5.5 4.01562C5.89782 4.01562 6.27936 3.85759 6.56066 3.57629C6.84196 3.29498 7 2.91345 7 2.51562C7 2.1178 6.84196 1.73627 6.56066 1.45496C6.27936 1.17366 5.89782 1.01563 5.5 1.01562ZM10 2L8 3L11 9L13 8L10 2ZM8 4L6 5L6.29492 6.4707L4 8L1 7V8L4 10L6.64648 8.23438L7 10L10 9L8 4ZM1 9V14H2V9H1ZM10 10L7 11L5 14H6.83398L8.36523 12L9 14H11L10 10Z" fill="#AC39AC"/>
</svg>
