<svg width="14" height="14" viewBox="0 0 14 14" fill="none" xmlns="http://www.w3.org/2000/svg">
<path fill-rule="evenodd" clip-rule="evenodd" d="M0 0V3H1V1H13V3H14V0C9.17181 0 4.15364 0 0 0ZM3 2V14H6V13V12.9512H6.00195C6.02798 12.4188 6.46699 12.0004 7 12C7.53301 12.0004 7.97202 12.4188 7.99805 12.9512H8V13V14H11V2H10V13H9C9 11.8954 8.10457 11 7 11C5.89543 11 5 11.8954 5 13H4V2H3ZM5 4V10H6V7.5H7.66602C9.44398 7.5 9.44398 4 7.66602 4H5ZM6 4.875H7.44531C8.38171 4.875 8.38171 6.625 7.44531 6.625H6V4.875Z" fill="#734A08"/>
</svg>
