<svg width="14" height="14" viewBox="0 0 14 14" fill="none" xmlns="http://www.w3.org/2000/svg">
<path fill-rule="evenodd" clip-rule="evenodd" d="M3 1V13H4.75V8H9C9.79565 8 10.5587 7.63125 11.1213 6.97487C11.6839 6.3185 12 5.42826 12 4.5C12 3.57174 11.6839 2.6815 11.1213 2.02513C10.5587 1.36875 9.79565 1 9 1H3ZM4.75 2.75V6.25H8.5C8.91904 6.25 9.32092 6.06563 9.61723 5.73744C9.91354 5.40925 10.08 4.96413 10.08 4.5C10.08 4.03587 9.91354 3.59075 9.61723 3.26256C9.32092 2.93437 8.91904 2.75 8.5 2.75H4.75Z" fill="#0092DA"/>
</svg>
