<svg width="14" height="14" viewBox="0 0 14 14" fill="none" xmlns="http://www.w3.org/2000/svg">
<g clip-path="url(#clip0)">
<path d="M14 2.5C14 3.66054 12.8807 4.60134 11.5 4.60134C10.1193 4.60134 9 3.66054 9 2.5C9 1.33946 10.1193 0.39866 11.5 0.39866C12.8807 0.39866 14 1.33946 14 2.5ZM8 2H10V3H8V2ZM3 0H4V1H3V0ZM1 5e-08H2V1H1V5e-08ZM1 4H2V5H1V4ZM3 4H4V5H3V4ZM4 2H5V3H4V2ZM2 2H3V3H2V2ZM0 2H1V3H0V2ZM6 5.42211L8 5.39866V2C8 1 8 1 7 1C6.0336 1.0168 6 1 6 2V5.42211ZM5 6C3 6 1.46875 9 1.46875 11C1.46875 12 4 14 5 14H9C10 14 12.4141 12 12.4141 11C12.4141 9 11 6 9 6H5Z" fill="#AC39AC"/>
</g>
<defs>
<clipPath id="clip0">
<rect width="14" height="14" fill="white"/>
</clipPath>
</defs>
</svg>
