<svg width="14" height="14" viewBox="0 0 14 14" fill="none" xmlns="http://www.w3.org/2000/svg">
<g clip-path="url(#clip0)">
<path d="M9.41296 0.00215259C8.16931 0.145881 7.4632 1.50936 7.37335 2.69365C7.22644 3.7465 7.68606 5.08995 8.79189 5.33204C9.75021 5.41752 10.5126 4.51719 10.8258 3.65837C11.1957 2.58339 11.2065 1.14785 10.309 0.342508C10.0598 0.126472 9.73967 -0.00476331 9.41296 0.00215259ZM4.34002 0.0585196C3.30522 0.133378 2.77482 1.33596 2.8468 2.30128C2.8556 3.59201 3.56441 5.0437 4.85699 5.3501C5.82094 5.45434 6.46365 4.43199 6.52355 3.53806C6.64656 2.17001 6.04042 0.512755 4.66778 0.0997105C4.5611 0.0702455 4.45045 0.0556215 4.34002 0.0585195V0.0585196ZM12.655 4.20363C11.2667 4.30539 10.3887 5.78501 10.3284 7.12203C10.2553 7.99278 10.8178 9.08779 11.765 9.02778C13.1816 8.87763 14.0356 7.29882 14.0004 5.92706C13.9913 5.13733 13.4909 4.23654 12.655 4.20363ZM0.0107561 6.00853C-0.117795 7.49003 0.918905 9.16455 2.42489 9.25783C3.33767 9.19687 3.76808 8.13674 3.66347 7.29799C3.58011 6.06044 2.75265 4.79316 1.67757 4.6276C0.602489 4.46204 -0.00628982 5.22157 0.0107561 6.00853ZM7.15937 7.27235C5.74748 7.27564 4.4566 8.19882 3.76645 9.44788C3.18822 10.3813 2.71551 11.438 2.6256 12.5532C2.64527 13.4133 3.46588 14.1291 4.28872 13.9578C5.4624 13.8054 6.51121 12.9903 7.73169 13.1431C8.74597 13.224 9.58246 14.0105 10.6065 13.9991C11.6009 14.0364 12.1745 12.897 11.7953 12.0045C11.3872 10.7266 10.5961 9.61519 9.74698 8.61425C9.06962 7.87643 8.18245 7.23968 7.15937 7.27235Z" fill="#AC39AC"/>
</g>
<defs>
<clipPath id="clip0">
<rect width="14" height="14" fill="white"/>
</clipPath>
</defs>
</svg>
