<svg width="14" height="14" viewBox="0 0 14 14" fill="none" xmlns="http://www.w3.org/2000/svg">
<g clip-path="url(#clip0)">
<path d="M1.89943 3.98287C1.22786e-05 3.99999 1.22773e-05 4.19648 0.000891114 5.98985L0.0156373 12.0328C1.22776e-05 14 1.22786e-05 14 1.93086 14.0348L12.0527 13.9985C14 14 14 14 14.0504 11.9811L14.0491 5.9969C14 3.99999 14 3.99999 12.052 3.9919L1.89943 3.98287ZM8.00001 5.01562C10.2092 5.01562 12 6.80648 12 9.01562C12 11.2248 10.2092 13.0156 8.00001 13.0156C5.79087 13.0156 4.00001 11.2248 4.00001 9.01562C4.00001 6.80648 5.79087 5.01562 8.00001 5.01562ZM1.98364 1.98128L3.01639 1.98128C4.00001 1.99999 4.00001 2.99999 4.03159 3.48888L1.0503 3.52163C1.00001 2.99999 1.00001 1.99999 1.98364 1.98128V1.98128ZM10.5064 9.038C10.5064 10.4187 9.38716 11.538 8.00644 11.538C6.62573 11.538 5.50645 10.4187 5.50645 9.038C5.50645 7.65729 6.62573 6.538 8.00644 6.538C9.38716 6.538 10.5064 7.65729 10.5064 9.038ZM9.00118 0.982448L8.98406 3.58676L14.0156 3.57084L14.0328 0.867828C14 -8.34465e-06 14 -8.33398e-06 13.0176 0.00194266L10.0566 0.0142299C9.00001 -8.33441e-06 9.00001 -8.34465e-06 9.00118 0.982448ZM10.1041 1.03079L13.0176 1.01366L13.0511 2.99957L10.1361 3.01549L10.1041 1.03079Z" fill="#AC39AC"/>
</g>
<defs>
<clipPath id="clip0">
<rect width="14" height="14" fill="white"/>
</clipPath>
</defs>
</svg>
