<svg width="14" height="14" viewBox="0 0 14 14" fill="none" xmlns="http://www.w3.org/2000/svg">
<path d="M6.49969 0C5.67127 0 4.9997 0.671573 4.9997 1.5C4.9997 2.32843 5.67127 3 6.49969 3C7.32812 3 7.99969 2.32843 7.99969 1.5C7.99969 0.671573 7.32812 0 6.49969 0ZM1.16748 4.57317L2.49969 7L5.49969 6L6.49969 10L4.4997 12C4.22851 12.3051 4.03359 12.4587 3.99969 13C3.99969 14 4.9997 14 4.9997 14H10.9997C10.9997 14 11.9997 14 11.9997 13C11.9997 12 10.9997 12 10.9997 12H7.99969L8.99969 11C9.99969 10 9.92868 9.52733 9.81219 9L8.99969 5C8.7603 4.10658 8.13748 3.67035 6.99969 3.85L5.99969 4L2.99969 5.5L1.99969 4C1.55853 3.41238 0.816478 3.91823 1.16748 4.57317Z" fill="black"/>
</svg>
