<svg width="14" height="14" viewBox="0 0 14 14" fill="none" xmlns="http://www.w3.org/2000/svg">
<path d="M2.49976 1.99951C1.68852 1.99951 0.999756 2.68827 0.999756 3.49951V10.4995C0.999756 11.2688 1.66754 11.9995 2.49976 11.9995H11.4998C12.2481 11.9995 12.9998 11.2898 12.9998 10.4995V3.49951C12.9998 2.73022 12.269 1.99951 11.4998 1.99951H2.49976ZM2.49976 2.99951C2.7759 2.99951 2.99976 3.22337 2.99976 3.49951C2.99976 3.77565 2.7759 3.99951 2.49976 3.99951C2.22361 3.99951 1.99976 3.77565 1.99976 3.49951C1.99976 3.22337 2.22361 2.99951 2.49976 2.99951ZM11.4998 2.99951C11.7759 2.99951 11.9998 3.22337 11.9998 3.49951C11.9998 3.77565 11.7759 3.99951 11.4998 3.99951C11.2236 3.99951 10.9998 3.77565 10.9998 3.49951C10.9998 3.22337 11.2236 2.99951 11.4998 2.99951ZM4.99976 3.99951H5.99976V4.99951H4.99976V3.99951ZM6.99976 3.99951H8.99976V4.99951H6.99976V3.99951ZM2.99976 5.99951H10.9998V6.99951H2.99976V5.99951ZM4.99976 7.99951H8.99976V8.99951H4.99976V7.99951ZM2.49976 9.99951C2.7759 9.99951 2.99976 10.2234 2.99976 10.4995C2.99976 10.7757 2.7759 10.9995 2.49976 10.9995C2.22361 10.9995 1.99976 10.7757 1.99976 10.4995C1.99976 10.2234 2.22361 9.99951 2.49976 9.99951ZM11.4998 9.99951C11.7759 9.99951 11.9998 10.2234 11.9998 10.4995C11.9998 10.7757 11.7759 10.9995 11.4998 10.9995C11.2236 10.9995 10.9998 10.7757 10.9998 10.4995C10.9998 10.2234 11.2236 9.99951 11.4998 9.99951Z" fill="#734A08"/>
</svg>
