<svg width="14" height="14" viewBox="0 0 14 14" fill="none" xmlns="http://www.w3.org/2000/svg">
<g clip-path="url(#clip0)">
<path d="M3.40625 0.999958C2.65262 1.04715 1.99852 1.74485 2 2.49996C2.00029 3.28517 2.71478 3.99941 3.5 3.99941C4.28522 3.99941 4.99971 3.28517 5 2.49996C5.0016 1.68231 4.2223 0.948853 3.40625 0.999958ZM11.4062 3.99996C10.6526 4.04715 9.99852 4.74485 10 5.49996C10.0003 6.28517 10.7148 6.99941 11.5 6.99941C12.2852 6.99941 12.9997 6.28517 13 5.49996C13.0016 4.68231 12.2223 3.94885 11.4062 3.99996ZM3 4.49996C1.52901 4.49996 1.13416 6.37336 1.03125 7.37496L0 6.99996V7.99996L5.96875 10.125L5 14H9L8.0625 10.875L14 13V12L13.0625 11.6562C13.2266 10.7949 13.75 7.49996 12 7.49996C10.3615 7.49996 10.0848 9.74446 10.0312 10.5937L4.09375 8.46871C4.28501 7.33749 4.614 4.49996 3 4.49996Z" fill="#008c0d"/>
</g>
<defs>
<clipPath id="clip0">
<rect width="14" height="14" fill="white"/>
</clipPath>
</defs>
</svg>
