<svg width="14" height="14" viewBox="0 0 14 14" fill="none" xmlns="http://www.w3.org/2000/svg">
<path d="M7 0L0 2V3L7 1L14 3V2L7 0ZM3.53711 3.57227C3.38113 3.57849 3.22619 3.60937 3.07227 3.66797V9.88867C3.07227 9.88867 5.57645 9.79254 6.21484 12.2227V5.68945C5.72771 4.67417 4.62895 3.52872 3.53711 3.57227ZM6.21484 12.2227C4.59431 10.9833 2.28516 10.668 2.28516 10.668V4.75781L1.5 4.44531V11.4453L6.21484 13H7.78516L12.5 11.4453V4.44531L11.7148 4.75781V10.9785L7.78516 12.2227C7.26135 12.0246 6.65184 12.0598 6.21484 12.2227ZM10.9277 3.66797C9.36218 3.58511 7.55602 4.51586 6.60742 5.31641V11.8984C7.48331 11.1794 9.05269 10.2343 10.9277 10.0449V3.66797Z" fill="#734A08"/>
</svg>
