<svg width="14" height="14" viewBox="0 0 14 14" fill="none" xmlns="http://www.w3.org/2000/svg">
<path d="M1.65421 11C1.22784 11 0.597368 11.3625 0.0161386 11.651L0 13.6778C0.609879 13.3856 1.26337 13 1.65421 13C2.32305 13 3.59891 14 4.30709 14C4.93781 14 6.28651 13 6.95996 13C7.6288 13 8.97844 14 9.61284 14C10.2817 14 11.6362 13 12.2657 13C12.6597 13 13.3377 13.3917 13.9539 13.6848L14 11.6613C13.4002 11.3616 12.7025 10.9756 12.2657 11C11.6313 11 10.3221 12 9.61284 12C9.02269 12 7.6288 11 6.95997 11C6.29113 11 4.89855 12 4.30709 12C3.67637 12 2.3624 11 1.65421 11ZM4.75 4.00032C3.94355 4.00038 3 5 3 6.5V10H4.25V6C4.25 5.39764 4.48209 5.3 4.75 5.3V10H9.25V5.3C9.52069 5.3 9.71256 5.40093 9.75 6V10H11V6.5C11 5 10.0565 3.99994 9.25 4L4.75 4.00032ZM7 0.25C6.0335 0.25 5.25 1.03352 5.25 2C5.25 2.96648 6.0335 3.75 7 3.75C7.9665 3.75 8.75 2.96648 8.75 2C8.75 1.03352 7.9665 0.25 7 0.25Z" fill="#734A08"/>
</svg>
