<?xml version="1.0" encoding="UTF-8" standalone="no"?>
<svg
   xmlns:dc="http://purl.org/dc/elements/1.1/"
   xmlns:cc="http://creativecommons.org/ns#"
   xmlns:rdf="http://www.w3.org/1999/02/22-rdf-syntax-ns#"
   xmlns:svg="http://www.w3.org/2000/svg"
   xmlns="http://www.w3.org/2000/svg"
   xmlns:sodipodi="http://sodipodi.sourceforge.net/DTD/sodipodi-0.dtd"
   xmlns:inkscape="http://www.inkscape.org/namespaces/inkscape"
   width="14"
   height="14"
   viewBox="0 0 14 14"
   fill="none"
   version="1.1"
   id="svg35074"
   sodipodi:docname="public_building.svg"
   inkscape:version="1.0.2 (e86c8708, 2021-01-15)">
  <metadata
     id="metadata35080">
    <rdf:RDF>
      <cc:Work
         rdf:about="">
        <dc:format>image/svg+xml</dc:format>
        <dc:type
           rdf:resource="http://purl.org/dc/dcmitype/StillImage" />
        <dc:title></dc:title>
      </cc:Work>
    </rdf:RDF>
  </metadata>
  <defs
     id="defs35078" />
  <sodipodi:namedview
     pagecolor="#ffffff"
     bordercolor="#666666"
     borderopacity="1"
     objecttolerance="10"
     gridtolerance="10"
     guidetolerance="10"
     inkscape:pageopacity="0"
     inkscape:pageshadow="2"
     inkscape:window-width="1036"
     inkscape:window-height="684"
     id="namedview35076"
     showgrid="false"
     inkscape:zoom="39.214286"
     inkscape:cx="7.8160291"
     inkscape:cy="6.7449909"
     inkscape:window-x="0"
     inkscape:window-y="25"
     inkscape:window-maximized="0"
     inkscape:current-layer="svg35074" />
  <path
     d="M12 2L11 3.5V4H14V3.5L13 2H12ZM1 2L0 3.5V4H3V3.5L2 2H1ZM4 4H10V3L7 0L4 3V4ZM0 5V13H5C5 12 5 10 7 10C9 10 9 12 9 13H14V5H11.0181L11 6H10L10.0325 5H4.04332L4 6H3V5H0ZM3 8C4 8 4 9 4 10H2C2 9 2 8 3 8ZM11 8C12 8 12 8.73014 12 10L10 10.0254C9.96454 8.74735 10 8 11 8Z"
     fill="#734A08"
     id="path35072" />
</svg>
