<svg width="14" height="14" viewBox="0 0 14 14" fill="none" xmlns="http://www.w3.org/2000/svg">
<g clip-path="url(#clip0)">
<path d="M-0.000732422 -0.00427246V2.99573H0.999248V0.995728H12.9992V2.99573H13.9992V-0.00427246H-0.000732422ZM2.99917 1.99573V13.9957H5.99907V12.9469H6.00102C6.02705 12.4146 6.46605 11.9962 6.99905 11.9958C7.53205 11.9962 7.97105 12.4146 7.99708 12.9469H7.99903V13.9957H10.9989V1.99573H9.99895V7.99573H3.99905V1.99573H2.99917ZM3.99915 8.99563L9.99905 8.99758V12.9956H8.99907C8.99907 11.891 8.10366 10.9956 6.99907 10.9956C5.89448 10.9956 4.99907 11.891 4.99907 12.9956H3.99909L3.99915 8.99563Z" fill="#734A08"/>
</g>
<defs>
<clipPath id="clip0">
<rect width="14" height="14" fill="white"/>
</clipPath>
</defs>
</svg>
