<svg width="128" height="128" viewBox="0 0 128 128" fill="none" xmlns="http://www.w3.org/2000/svg">
<path d="M9.0625 2.99902C8.20083 3.46896 7.48677 4.17903 7 5.03027V5.1709L7.70312 5.78027C7.87882 5.41533 8.10925 5.0791 8.375 4.78027L9.84375 6.31152L7.625 8.46777C7.57061 8.52027 7.57495 8.59863 7.625 8.65527C7.72131 8.76428 7.81287 8.87145 7.92188 8.96777C7.97852 9.01783 8.07251 9.00653 8.125 8.95215L10.2656 6.7334L12.4062 8.95215C12.4588 9.0065 12.5371 9.01781 12.5938 8.96777C12.7028 8.87143 12.8099 8.76431 12.9062 8.65527C12.9563 8.59865 12.9606 8.52027 12.9062 8.46777L10.6719 6.31152L12.0312 4.90527L12.375 5.2334L13.5 5.62402L13.0781 4.5459L12.7188 4.18652L12.8281 4.09277L12.5 3.76465L12.3906 3.8584L11.5781 3.0459L10.875 3.7334L11.6875 4.5459L10.2656 5.90527L8.73438 4.43652C9.03241 4.1713 9.37023 3.94 9.73438 3.76465L9.0625 2.99902ZM51.5625 2.99902C50.7008 3.46896 49.9868 4.17903 49.5 5.03027V5.1709L50.2031 5.78027C50.3788 5.41533 50.6093 5.0791 50.875 4.78027L52.3438 6.31152L50.125 8.46777C50.0706 8.52027 50.0749 8.59863 50.125 8.65527C50.2213 8.76428 50.3129 8.87145 50.4219 8.96777C50.4785 9.01783 50.5725 9.00653 50.625 8.95215L52.7656 6.7334L54.9062 8.95215C54.9587 9.0065 55.0371 9.01781 55.0938 8.96777C55.2028 8.87143 55.3099 8.76431 55.4062 8.65527C55.4563 8.59865 55.4606 8.52027 55.4062 8.46777L53.1719 6.31152L54.5312 4.90527L54.875 5.2334L56 5.62402L55.5781 4.5459L55.2188 4.18652L55.3281 4.09277L55 3.76465L54.8906 3.8584L54.0781 3.0459L53.375 3.7334L54.1875 4.5459L52.7656 5.90527L51.2344 4.43652C51.5324 4.1713 51.8702 3.94 52.2344 3.76465L51.5625 2.99902ZM94.5625 2.99902C93.7008 3.46896 92.9868 4.17903 92.5 5.03027V5.1709L93.2031 5.78027C93.3788 5.41533 93.6093 5.0791 93.875 4.78027L95.3438 6.31152L93.125 8.46777C93.0706 8.52027 93.0749 8.59863 93.125 8.65527C93.2213 8.76428 93.3129 8.87145 93.4219 8.96777C93.4785 9.01783 93.5725 9.00653 93.625 8.95215L95.7656 6.7334L97.9062 8.95215C97.9587 9.0065 98.0371 9.01781 98.0938 8.96777C98.2028 8.87143 98.3099 8.76431 98.4062 8.65527C98.4563 8.59865 98.4606 8.52027 98.4062 8.46777L96.1719 6.31152L97.5312 4.90527L97.875 5.2334L99 5.62402L98.5781 4.5459L98.2188 4.18652L98.3281 4.09277L98 3.76465L97.8906 3.8584L97.0781 3.0459L96.375 3.7334L97.1875 4.5459L95.7656 5.90527L94.2344 4.43652C94.5324 4.1713 94.8702 3.94 95.2344 3.76465L94.5625 2.99902ZM30.5625 15.999C29.7008 16.469 28.9868 17.179 28.5 18.0303V18.1709L29.2031 18.7803C29.3788 18.4153 29.6093 18.0791 29.875 17.7803L31.3438 19.3115L29.125 21.4678C29.0706 21.5203 29.0749 21.5986 29.125 21.6553C29.2213 21.7643 29.3129 21.8714 29.4219 21.9678C29.4785 22.0178 29.5725 22.0065 29.625 21.9521L31.7656 19.7334L33.9062 21.9521C33.9588 22.0065 34.0371 22.0178 34.0938 21.9678C34.2028 21.8714 34.3099 21.7643 34.4062 21.6553C34.4563 21.5986 34.4606 21.5203 34.4062 21.4678L32.1719 19.3115L33.5312 17.9053L33.875 18.2334L35 18.624L34.5781 17.5459L34.2188 17.1865L34.3281 17.0928L34 16.7646L33.8906 16.8584L33.0781 16.0459L32.375 16.7334L33.1875 17.5459L31.7656 18.9053L30.2344 17.4365C30.5324 17.1713 30.8702 16.94 31.2344 16.7646L30.5625 15.999ZM73.0625 15.999C72.2008 16.469 71.4868 17.179 71 18.0303V18.1709L71.7031 18.7803C71.8788 18.4153 72.1093 18.0791 72.375 17.7803L73.8438 19.3115L71.625 21.4678C71.5706 21.5203 71.5749 21.5986 71.625 21.6553C71.7213 21.7643 71.8129 21.8714 71.9219 21.9678C71.9785 22.0178 72.0725 22.0065 72.125 21.9521L74.2656 19.7334L76.4062 21.9521C76.4587 22.0065 76.5371 22.0178 76.5938 21.9678C76.7028 21.8714 76.8099 21.7643 76.9062 21.6553C76.9563 21.5986 76.9606 21.5203 76.9062 21.4678L74.6719 19.3115L76.0312 17.9053L76.375 18.2334L77.5 18.624L77.0781 17.5459L76.7188 17.1865L76.8281 17.0928L76.5 16.7646L76.3906 16.8584L75.5781 16.0459L74.875 16.7334L75.6875 17.5459L74.2656 18.9053L72.7344 17.4365C73.0324 17.1713 73.3702 16.94 73.7344 16.7646L73.0625 15.999ZM115.562 15.999C114.701 16.469 113.987 17.179 113.5 18.0303V18.1709L114.203 18.7803C114.379 18.4153 114.609 18.0791 114.875 17.7803L116.344 19.3115L114.125 21.4678C114.071 21.5203 114.075 21.5986 114.125 21.6553C114.221 21.7643 114.313 21.8714 114.422 21.9678C114.479 22.0178 114.573 22.0065 114.625 21.9521L116.766 19.7334L118.906 21.9521C118.959 22.0065 119.037 22.0178 119.094 21.9678C119.203 21.8714 119.31 21.7643 119.406 21.6553C119.456 21.5986 119.461 21.5203 119.406 21.4678L117.172 19.3115L118.531 17.9053L118.875 18.2334L120 18.624L119.578 17.5459L119.219 17.1865L119.328 17.0928L119 16.7646L118.891 16.8584L118.078 16.0459L117.375 16.7334L118.188 17.5459L116.766 18.9053L115.234 17.4365C115.532 17.1713 115.87 16.94 116.234 16.7646L115.562 15.999ZM9.0625 28.999C8.20083 29.469 7.48677 30.179 7 31.0303V31.1709L7.70312 31.7803C7.87882 31.4153 8.10925 31.0791 8.375 30.7803L9.84375 32.3115L7.625 34.4678C7.57061 34.5203 7.57495 34.5986 7.625 34.6553C7.72131 34.7643 7.81287 34.8714 7.92188 34.9678C7.97852 35.0178 8.07251 35.0065 8.125 34.9521L10.2656 32.7334L12.4062 34.9521C12.4588 35.0065 12.5371 35.0178 12.5938 34.9678C12.7028 34.8714 12.8099 34.7643 12.9062 34.6553C12.9563 34.5986 12.9606 34.5203 12.9062 34.4678L10.6719 32.3115L12.0312 30.9053L12.375 31.2334L13.5 31.624L13.0781 30.5459L12.7188 30.1865L12.8281 30.0928L12.5 29.7646L12.3906 29.8584L11.5781 29.0459L10.875 29.7334L11.6875 30.5459L10.2656 31.9053L8.73438 30.4365C9.03241 30.1713 9.37023 29.94 9.73438 29.7646L9.0625 28.999ZM51.5625 28.999C50.7008 29.469 49.9868 30.179 49.5 31.0303V31.1709L50.2031 31.7803C50.3788 31.4153 50.6093 31.0791 50.875 30.7803L52.3438 32.3115L50.125 34.4678C50.0706 34.5203 50.0749 34.5986 50.125 34.6553C50.2213 34.7643 50.3129 34.8714 50.4219 34.9678C50.4785 35.0178 50.5725 35.0065 50.625 34.9521L52.7656 32.7334L54.9062 34.9521C54.9587 35.0065 55.0371 35.0178 55.0938 34.9678C55.2028 34.8714 55.3099 34.7643 55.4062 34.6553C55.4563 34.5986 55.4606 34.5203 55.4062 34.4678L53.1719 32.3115L54.5312 30.9053L54.875 31.2334L56 31.624L55.5781 30.5459L55.2188 30.1865L55.3281 30.0928L55 29.7646L54.8906 29.8584L54.0781 29.0459L53.375 29.7334L54.1875 30.5459L52.7656 31.9053L51.2344 30.4365C51.5324 30.1713 51.8702 29.94 52.2344 29.7646L51.5625 28.999ZM94.5625 28.999C93.7008 29.469 92.9868 30.179 92.5 31.0303V31.1709L93.2031 31.7803C93.3788 31.4153 93.6093 31.0791 93.875 30.7803L95.3438 32.3115L93.125 34.4678C93.0706 34.5203 93.0749 34.5986 93.125 34.6553C93.2213 34.7643 93.3129 34.8714 93.4219 34.9678C93.4785 35.0178 93.5725 35.0065 93.625 34.9521L95.7656 32.7334L97.9062 34.9521C97.9587 35.0065 98.0371 35.0178 98.0938 34.9678C98.2028 34.8714 98.3099 34.7643 98.4062 34.6553C98.4563 34.5986 98.4606 34.5203 98.4062 34.4678L96.1719 32.3115L97.5312 30.9053L97.875 31.2334L99 31.624L98.5781 30.5459L98.2188 30.1865L98.3281 30.0928L98 29.7646L97.8906 29.8584L97.0781 29.0459L96.375 29.7334L97.1875 30.5459L95.7656 31.9053L94.2344 30.4365C94.5324 30.1713 94.8702 29.94 95.2344 29.7646L94.5625 28.999ZM30.5625 41.499C29.7008 41.969 28.9868 42.679 28.5 43.5303V43.6709L29.2031 44.2803C29.3788 43.9153 29.6093 43.5791 29.875 43.2803L31.3438 44.8115L29.125 46.9678C29.0706 47.0203 29.0749 47.0986 29.125 47.1553C29.2213 47.2643 29.3129 47.3714 29.4219 47.4678C29.4785 47.5178 29.5725 47.5065 29.625 47.4521L31.7656 45.2334L33.9062 47.4521C33.9588 47.5065 34.0371 47.5178 34.0938 47.4678C34.2028 47.3714 34.3099 47.2643 34.4062 47.1553C34.4563 47.0986 34.4606 47.0203 34.4062 46.9678L32.1719 44.8115L33.5312 43.4053L33.875 43.7334L35 44.124L34.5781 43.0459L34.2188 42.6865L34.3281 42.5928L34 42.2646L33.8906 42.3584L33.0781 41.5459L32.375 42.2334L33.1875 43.0459L31.7656 44.4053L30.2344 42.9365C30.5324 42.6713 30.8702 42.44 31.2344 42.2646L30.5625 41.499ZM73.0625 41.499C72.2008 41.969 71.4868 42.679 71 43.5303V43.6709L71.7031 44.2803C71.8788 43.9153 72.1093 43.5791 72.375 43.2803L73.8438 44.8115L71.625 46.9678C71.5706 47.0203 71.5749 47.0986 71.625 47.1553C71.7213 47.2643 71.8129 47.3714 71.9219 47.4678C71.9785 47.5178 72.0725 47.5065 72.125 47.4521L74.2656 45.2334L76.4062 47.4521C76.4587 47.5065 76.5371 47.5178 76.5938 47.4678C76.7028 47.3714 76.8099 47.2643 76.9062 47.1553C76.9563 47.0986 76.9606 47.0203 76.9062 46.9678L74.6719 44.8115L76.0312 43.4053L76.375 43.7334L77.5 44.124L77.0781 43.0459L76.7188 42.6865L76.8281 42.5928L76.5 42.2646L76.3906 42.3584L75.5781 41.5459L74.875 42.2334L75.6875 43.0459L74.2656 44.4053L72.7344 42.9365C73.0324 42.6713 73.3702 42.44 73.7344 42.2646L73.0625 41.499ZM115.562 41.499C114.701 41.969 113.987 42.679 113.5 43.5303V43.6709L114.203 44.2803C114.379 43.9153 114.609 43.5791 114.875 43.2803L116.344 44.8115L114.125 46.9678C114.071 47.0203 114.075 47.0986 114.125 47.1553C114.221 47.2643 114.313 47.3714 114.422 47.4678C114.479 47.5178 114.573 47.5065 114.625 47.4521L116.766 45.2334L118.906 47.4521C118.959 47.5065 119.037 47.5178 119.094 47.4678C119.203 47.3714 119.31 47.2643 119.406 47.1553C119.456 47.0986 119.461 47.0203 119.406 46.9678L117.172 44.8115L118.531 43.4053L118.875 43.7334L120 44.124L119.578 43.0459L119.219 42.6865L119.328 42.5928L119 42.2646L118.891 42.3584L118.078 41.5459L117.375 42.2334L118.188 43.0459L116.766 44.4053L115.234 42.9365C115.532 42.6713 115.87 42.44 116.234 42.2646L115.562 41.499ZM9.0625 54.499C8.20083 54.969 7.48677 55.679 7 56.5303V56.6709L7.70312 57.2803C7.87882 56.9153 8.10925 56.5791 8.375 56.2803L9.84375 57.8115L7.625 59.9678C7.57061 60.0203 7.57495 60.0986 7.625 60.1553C7.72131 60.2643 7.81287 60.3714 7.92188 60.4678C7.97852 60.5178 8.07251 60.5065 8.125 60.4521L10.2656 58.2334L12.4062 60.4521C12.4588 60.5065 12.5371 60.5178 12.5938 60.4678C12.7028 60.3714 12.8099 60.2643 12.9062 60.1553C12.9563 60.0987 12.9606 60.0203 12.9062 59.9678L10.6719 57.8115L12.0312 56.4053L12.375 56.7334L13.5 57.124L13.0781 56.0459L12.7188 55.6865L12.8281 55.5928L12.5 55.2646L12.3906 55.3584L11.5781 54.5459L10.875 55.2334L11.6875 56.0459L10.2656 57.4053L8.73438 55.9365C9.03241 55.6713 9.37023 55.44 9.73438 55.2646L9.0625 54.499ZM51.5625 54.499C50.7008 54.969 49.9868 55.679 49.5 56.5303V56.6709L50.2031 57.2803C50.3788 56.9153 50.6093 56.5791 50.875 56.2803L52.3438 57.8115L50.125 59.9678C50.0706 60.0203 50.0749 60.0986 50.125 60.1553C50.2213 60.2643 50.3129 60.3714 50.4219 60.4678C50.4785 60.5178 50.5725 60.5065 50.625 60.4521L52.7656 58.2334L54.9062 60.4521C54.9587 60.5065 55.0371 60.5178 55.0938 60.4678C55.2028 60.3714 55.3099 60.2643 55.4062 60.1553C55.4563 60.0987 55.4606 60.0203 55.4062 59.9678L53.1719 57.8115L54.5312 56.4053L54.875 56.7334L56 57.124L55.5781 56.0459L55.2188 55.6865L55.3281 55.5928L55 55.2646L54.8906 55.3584L54.0781 54.5459L53.375 55.2334L54.1875 56.0459L52.7656 57.4053L51.2344 55.9365C51.5324 55.6713 51.8702 55.44 52.2344 55.2646L51.5625 54.499ZM94.5625 54.499C93.7008 54.969 92.9868 55.679 92.5 56.5303V56.6709L93.2031 57.2803C93.3788 56.9153 93.6093 56.5791 93.875 56.2803L95.3438 57.8115L93.125 59.9678C93.0706 60.0203 93.0749 60.0986 93.125 60.1553C93.2213 60.2643 93.3129 60.3714 93.4219 60.4678C93.4785 60.5178 93.5725 60.5065 93.625 60.4521L95.7656 58.2334L97.9062 60.4521C97.9587 60.5065 98.0371 60.5178 98.0938 60.4678C98.2028 60.3714 98.3099 60.2643 98.4062 60.1553C98.4563 60.0987 98.4606 60.0203 98.4062 59.9678L96.1719 57.8115L97.5312 56.4053L97.875 56.7334L99 57.124L98.5781 56.0459L98.2188 55.6865L98.3281 55.5928L98 55.2646L97.8906 55.3584L97.0781 54.5459L96.375 55.2334L97.1875 56.0459L95.7656 57.4053L94.2344 55.9365C94.5324 55.6713 94.8702 55.44 95.2344 55.2646L94.5625 54.499ZM30.5625 66.999C29.7008 67.469 28.9868 68.179 28.5 69.0303V69.1709L29.2031 69.7803C29.3788 69.4153 29.6093 69.0791 29.875 68.7803L31.3438 70.3115L29.125 72.4678C29.0706 72.5203 29.0749 72.5986 29.125 72.6553C29.2213 72.7643 29.3129 72.8714 29.4219 72.9678C29.4785 73.0178 29.5725 73.0065 29.625 72.9521L31.7656 70.7334L33.9062 72.9521C33.9588 73.0065 34.0371 73.0178 34.0938 72.9678C34.2028 72.8714 34.3099 72.7643 34.4062 72.6553C34.4563 72.5986 34.4606 72.5203 34.4062 72.4678L32.1719 70.3115L33.5312 68.9053L33.875 69.2334L35 69.624L34.5781 68.5459L34.2188 68.1865L34.3281 68.0928L34 67.7646L33.8906 67.8584L33.0781 67.0459L32.375 67.7334L33.1875 68.5459L31.7656 69.9053L30.2344 68.4365C30.5324 68.1713 30.8702 67.94 31.2344 67.7646L30.5625 66.999ZM73.0625 66.999C72.2008 67.469 71.4868 68.179 71 69.0303V69.1709L71.7031 69.7803C71.8788 69.4153 72.1093 69.0791 72.375 68.7803L73.8438 70.3115L71.625 72.4678C71.5706 72.5203 71.5749 72.5986 71.625 72.6553C71.7213 72.7643 71.8129 72.8714 71.9219 72.9678C71.9785 73.0178 72.0725 73.0065 72.125 72.9521L74.2656 70.7334L76.4062 72.9521C76.4587 73.0065 76.5371 73.0178 76.5938 72.9678C76.7028 72.8714 76.8099 72.7643 76.9062 72.6553C76.9563 72.5986 76.9606 72.5203 76.9062 72.4678L74.6719 70.3115L76.0312 68.9053L76.375 69.2334L77.5 69.624L77.0781 68.5459L76.7188 68.1865L76.8281 68.0928L76.5 67.7646L76.3906 67.8584L75.5781 67.0459L74.875 67.7334L75.6875 68.5459L74.2656 69.9053L72.7344 68.4365C73.0324 68.1713 73.3702 67.94 73.7344 67.7646L73.0625 66.999ZM115.562 66.999C114.701 67.469 113.987 68.179 113.5 69.0303V69.1709L114.203 69.7803C114.379 69.4153 114.609 69.0791 114.875 68.7803L116.344 70.3115L114.125 72.4678C114.071 72.5203 114.075 72.5986 114.125 72.6553C114.221 72.7643 114.313 72.8714 114.422 72.9678C114.479 73.0178 114.573 73.0065 114.625 72.9521L116.766 70.7334L118.906 72.9521C118.959 73.0065 119.037 73.0178 119.094 72.9678C119.203 72.8714 119.31 72.7643 119.406 72.6553C119.456 72.5986 119.461 72.5203 119.406 72.4678L117.172 70.3115L118.531 68.9053L118.875 69.2334L120 69.624L119.578 68.5459L119.219 68.1865L119.328 68.0928L119 67.7646L118.891 67.8584L118.078 67.0459L117.375 67.7334L118.188 68.5459L116.766 69.9053L115.234 68.4365C115.532 68.1713 115.87 67.94 116.234 67.7646L115.562 66.999ZM9.0625 79.999C8.20083 80.469 7.48677 81.179 7 82.0303V82.1709L7.70312 82.7803C7.87882 82.4153 8.10925 82.0791 8.375 81.7803L9.84375 83.3115L7.625 85.4678C7.57061 85.5203 7.57495 85.5986 7.625 85.6553C7.72131 85.7643 7.81287 85.8714 7.92188 85.9678C7.97852 86.0178 8.07251 86.0065 8.125 85.9521L10.2656 83.7334L12.4062 85.9521C12.4588 86.0065 12.5371 86.0178 12.5938 85.9678C12.7028 85.8714 12.8099 85.7643 12.9062 85.6553C12.9563 85.5986 12.9606 85.5203 12.9062 85.4678L10.6719 83.3115L12.0312 81.9053L12.375 82.2334L13.5 82.624L13.0781 81.5459L12.7188 81.1865L12.8281 81.0928L12.5 80.7646L12.3906 80.8584L11.5781 80.0459L10.875 80.7334L11.6875 81.5459L10.2656 82.9053L8.73438 81.4365C9.03241 81.1713 9.37023 80.94 9.73438 80.7646L9.0625 79.999ZM51.5625 79.999C50.7008 80.469 49.9868 81.179 49.5 82.0303V82.1709L50.2031 82.7803C50.3788 82.4153 50.6093 82.0791 50.875 81.7803L52.3438 83.3115L50.125 85.4678C50.0706 85.5203 50.0749 85.5986 50.125 85.6553C50.2213 85.7643 50.3129 85.8714 50.4219 85.9678C50.4785 86.0178 50.5725 86.0065 50.625 85.9521L52.7656 83.7334L54.9062 85.9521C54.9587 86.0065 55.0371 86.0178 55.0938 85.9678C55.2028 85.8714 55.3099 85.7643 55.4062 85.6553C55.4563 85.5986 55.4606 85.5203 55.4062 85.4678L53.1719 83.3115L54.5312 81.9053L54.875 82.2334L56 82.624L55.5781 81.5459L55.2188 81.1865L55.3281 81.0928L55 80.7646L54.8906 80.8584L54.0781 80.0459L53.375 80.7334L54.1875 81.5459L52.7656 82.9053L51.2344 81.4365C51.5324 81.1713 51.8702 80.94 52.2344 80.7646L51.5625 79.999ZM94.5625 79.999C93.7008 80.469 92.9868 81.179 92.5 82.0303V82.1709L93.2031 82.7803C93.3788 82.4153 93.6093 82.0791 93.875 81.7803L95.3438 83.3115L93.125 85.4678C93.0706 85.5203 93.0749 85.5986 93.125 85.6553C93.2213 85.7643 93.3129 85.8714 93.4219 85.9678C93.4785 86.0178 93.5725 86.0065 93.625 85.9521L95.7656 83.7334L97.9062 85.9521C97.9587 86.0065 98.0371 86.0178 98.0938 85.9678C98.2028 85.8714 98.3099 85.7643 98.4062 85.6553C98.4563 85.5986 98.4606 85.5203 98.4062 85.4678L96.1719 83.3115L97.5312 81.9053L97.875 82.2334L99 82.624L98.5781 81.5459L98.2188 81.1865L98.3281 81.0928L98 80.7646L97.8906 80.8584L97.0781 80.0459L96.375 80.7334L97.1875 81.5459L95.7656 82.9053L94.2344 81.4365C94.5324 81.1713 94.8702 80.94 95.2344 80.7646L94.5625 79.999ZM30.5625 92.999C29.7008 93.469 28.9868 94.179 28.5 95.0303V95.1709L29.2031 95.7803C29.3788 95.4153 29.6093 95.0791 29.875 94.7803L31.3438 96.3115L29.125 98.4678C29.0706 98.5203 29.0749 98.5986 29.125 98.6553C29.2213 98.7643 29.3129 98.8714 29.4219 98.9678C29.4785 99.0178 29.5725 99.0065 29.625 98.9521L31.7656 96.7334L33.9062 98.9521C33.9588 99.0065 34.0371 99.0178 34.0938 98.9678C34.2028 98.8714 34.3099 98.7643 34.4062 98.6553C34.4563 98.5986 34.4606 98.5203 34.4062 98.4678L32.1719 96.3115L33.5312 94.9053L33.875 95.2334L35 95.624L34.5781 94.5459L34.2188 94.1865L34.3281 94.0928L34 93.7646L33.8906 93.8584L33.0781 93.0459L32.375 93.7334L33.1875 94.5459L31.7656 95.9053L30.2344 94.4365C30.5324 94.1713 30.8702 93.94 31.2344 93.7646L30.5625 92.999ZM73.0625 92.999C72.2008 93.469 71.4868 94.179 71 95.0303V95.1709L71.7031 95.7803C71.8788 95.4153 72.1093 95.0791 72.375 94.7803L73.8438 96.3115L71.625 98.4678C71.5706 98.5203 71.5749 98.5986 71.625 98.6553C71.7213 98.7643 71.8129 98.8714 71.9219 98.9678C71.9785 99.0178 72.0725 99.0065 72.125 98.9521L74.2656 96.7334L76.4062 98.9521C76.4587 99.0065 76.5371 99.0178 76.5938 98.9678C76.7028 98.8714 76.8099 98.7643 76.9062 98.6553C76.9563 98.5986 76.9606 98.5203 76.9062 98.4678L74.6719 96.3115L76.0312 94.9053L76.375 95.2334L77.5 95.624L77.0781 94.5459L76.7188 94.1865L76.8281 94.0928L76.5 93.7646L76.3906 93.8584L75.5781 93.0459L74.875 93.7334L75.6875 94.5459L74.2656 95.9053L72.7344 94.4365C73.0324 94.1713 73.3702 93.94 73.7344 93.7646L73.0625 92.999ZM115.562 92.999C114.701 93.469 113.987 94.179 113.5 95.0303V95.1709L114.203 95.7803C114.379 95.4153 114.609 95.0791 114.875 94.7803L116.344 96.3115L114.125 98.4678C114.071 98.5203 114.075 98.5986 114.125 98.6553C114.221 98.7643 114.313 98.8714 114.422 98.9678C114.479 99.0178 114.573 99.0065 114.625 98.9521L116.766 96.7334L118.906 98.9521C118.959 99.0065 119.037 99.0178 119.094 98.9678C119.203 98.8714 119.31 98.7643 119.406 98.6553C119.456 98.5986 119.461 98.5203 119.406 98.4678L117.172 96.3115L118.531 94.9053L118.875 95.2334L120 95.624L119.578 94.5459L119.219 94.1865L119.328 94.0928L119 93.7646L118.891 93.8584L118.078 93.0459L117.375 93.7334L118.188 94.5459L116.766 95.9053L115.234 94.4365C115.532 94.1713 115.87 93.94 116.234 93.7646L115.562 92.999ZM9.0625 105.499C8.20083 105.969 7.48677 106.679 7 107.53V107.671L7.70312 108.28C7.87882 107.915 8.10925 107.579 8.375 107.28L9.84375 108.812L7.625 110.968C7.57061 111.02 7.57495 111.099 7.625 111.155C7.72131 111.264 7.81287 111.371 7.92188 111.468C7.97852 111.518 8.07251 111.506 8.125 111.452L10.2656 109.233L12.4062 111.452C12.4588 111.506 12.5371 111.518 12.5938 111.468C12.7028 111.371 12.8099 111.264 12.9062 111.155C12.9563 111.099 12.9606 111.02 12.9062 110.968L10.6719 108.812L12.0312 107.405L12.375 107.733L13.5 108.124L13.0781 107.046L12.7188 106.687L12.8281 106.593L12.5 106.265L12.3906 106.358L11.5781 105.546L10.875 106.233L11.6875 107.046L10.2656 108.405L8.73438 106.937C9.03241 106.671 9.37023 106.44 9.73438 106.265L9.0625 105.499ZM51.5625 105.499C50.7008 105.969 49.9868 106.679 49.5 107.53V107.671L50.2031 108.28C50.3788 107.915 50.6093 107.579 50.875 107.28L52.3438 108.812L50.125 110.968C50.0706 111.02 50.0749 111.099 50.125 111.155C50.2213 111.264 50.3129 111.371 50.4219 111.468C50.4785 111.518 50.5725 111.506 50.625 111.452L52.7656 109.233L54.9062 111.452C54.9587 111.506 55.0371 111.518 55.0938 111.468C55.2028 111.371 55.3099 111.264 55.4062 111.155C55.4563 111.099 55.4606 111.02 55.4062 110.968L53.1719 108.812L54.5312 107.405L54.875 107.733L56 108.124L55.5781 107.046L55.2188 106.687L55.3281 106.593L55 106.265L54.8906 106.358L54.0781 105.546L53.375 106.233L54.1875 107.046L52.7656 108.405L51.2344 106.937C51.5324 106.671 51.8702 106.44 52.2344 106.265L51.5625 105.499ZM94.5625 105.499C93.7008 105.969 92.9868 106.679 92.5 107.53V107.671L93.2031 108.28C93.3788 107.915 93.6093 107.579 93.875 107.28L95.3438 108.812L93.125 110.968C93.0706 111.02 93.0749 111.099 93.125 111.155C93.2213 111.264 93.3129 111.371 93.4219 111.468C93.4785 111.518 93.5725 111.506 93.625 111.452L95.7656 109.233L97.9062 111.452C97.9587 111.506 98.0371 111.518 98.0938 111.468C98.2028 111.371 98.3099 111.264 98.4062 111.155C98.4563 111.099 98.4606 111.02 98.4062 110.968L96.1719 108.812L97.5312 107.405L97.875 107.733L99 108.124L98.5781 107.046L98.2188 106.687L98.3281 106.593L98 106.265L97.8906 106.358L97.0781 105.546L96.375 106.233L97.1875 107.046L95.7656 108.405L94.2344 106.937C94.5324 106.671 94.8702 106.44 95.2344 106.265L94.5625 105.499ZM30.5625 118.499C29.7008 118.969 28.9868 119.679 28.5 120.53V120.671L29.2031 121.28C29.3788 120.915 29.6093 120.579 29.875 120.28L31.3438 121.812L29.125 123.968C29.0706 124.02 29.0749 124.099 29.125 124.155C29.2213 124.264 29.3129 124.371 29.4219 124.468C29.4785 124.518 29.5725 124.506 29.625 124.452L31.7656 122.233L33.9062 124.452C33.9588 124.506 34.0371 124.518 34.0938 124.468C34.2028 124.371 34.3099 124.264 34.4062 124.155C34.4563 124.099 34.4606 124.02 34.4062 123.968L32.1719 121.812L33.5312 120.405L33.875 120.733L35 121.124L34.5781 120.046L34.2188 119.687L34.3281 119.593L34 119.265L33.8906 119.358L33.0781 118.546L32.375 119.233L33.1875 120.046L31.7656 121.405L30.2344 119.937C30.5324 119.671 30.8702 119.44 31.2344 119.265L30.5625 118.499ZM73.0625 118.499C72.2008 118.969 71.4868 119.679 71 120.53V120.671L71.7031 121.28C71.8788 120.915 72.1093 120.579 72.375 120.28L73.8438 121.812L71.625 123.968C71.5706 124.02 71.5749 124.099 71.625 124.155C71.7213 124.264 71.8129 124.371 71.9219 124.468C71.9785 124.518 72.0725 124.506 72.125 124.452L74.2656 122.233L76.4062 124.452C76.4587 124.506 76.5371 124.518 76.5938 124.468C76.7028 124.371 76.8099 124.264 76.9062 124.155C76.9563 124.099 76.9606 124.02 76.9062 123.968L74.6719 121.812L76.0312 120.405L76.375 120.733L77.5 121.124L77.0781 120.046L76.7188 119.687L76.8281 119.593L76.5 119.265L76.3906 119.358L75.5781 118.546L74.875 119.233L75.6875 120.046L74.2656 121.405L72.7344 119.937C73.0324 119.671 73.3702 119.44 73.7344 119.265L73.0625 118.499ZM115.562 118.499C114.701 118.969 113.987 119.679 113.5 120.53V120.671L114.203 121.28C114.379 120.915 114.609 120.579 114.875 120.28L116.344 121.812L114.125 123.968C114.071 124.02 114.075 124.099 114.125 124.155C114.221 124.264 114.313 124.371 114.422 124.468C114.479 124.518 114.573 124.506 114.625 124.452L116.766 122.233L118.906 124.452C118.959 124.506 119.037 124.518 119.094 124.468C119.203 124.371 119.31 124.264 119.406 124.155C119.456 124.099 119.461 124.02 119.406 123.968L117.172 121.812L118.531 120.405L118.875 120.733L120 121.124L119.578 120.046L119.219 119.687L119.328 119.593L119 119.265L118.891 119.358L118.078 118.546L117.375 119.233L118.188 120.046L116.766 121.405L115.234 119.937C115.532 119.671 115.87 119.44 116.234 119.265L115.562 118.499Z" fill="#E6E6E6"/>
</svg>
