<svg width="14" height="14" viewBox="0 0 14 14" fill="none" xmlns="http://www.w3.org/2000/svg">
<path d="M5.11116 8.69065L3.5134 5.80407H0.300049L1.60626 6.5881L0.798727 8.03112C0.729857 8.16198 0.695423 8.29863 0.695426 8.44108C0.695423 8.58354 0.729856 8.72019 0.798727 8.85104L2.0698 11.1493C2.12713 10.9829 2.18446 10.8403 2.2418 10.7214L3.82278 7.90661L5.11116 8.69065ZM2.72317 11.0069C2.63123 11.1613 2.58526 11.3275 2.58526 11.5055C2.58526 11.7788 2.67982 12.0104 2.86895 12.2003C3.05807 12.3903 3.28424 12.4852 3.54748 12.4852H6.70945V9.83082H3.37601C3.35293 9.87831 3.26694 10.0327 3.11802 10.2941L2.72317 11.0069V11.0069ZM7.00152 4.43227H10.1976L11.8126 1.54624L10.5069 2.33027L9.69889 0.886712C9.54996 0.613779 9.32098 0.477308 9.01196 0.477295H6.46876C6.57188 0.595838 6.65788 0.714548 6.72675 0.833428L8.2899 3.64824L8.03244 3.80863L7.00152 4.43227V4.43227ZM5.43785 0.619749C5.07113 0.61976 4.79618 0.785956 4.61301 1.11833L3.01525 3.96903C3.62211 4.33731 4.36095 4.77681 5.23177 5.28754C5.74704 4.37302 6.30253 3.3753 6.89822 2.29439L6.26268 1.11833C6.07949 0.785956 5.80455 0.61976 5.43785 0.619749ZM9.54473 9.79493V9.47414V8.24534L7.94644 11.1314L9.54473 14V12.4499H11.1425C11.4519 12.4499 11.6866 12.3132 11.8467 12.0399L13.1183 9.74165C12.9467 9.78914 12.8035 9.81288 12.6889 9.81288L9.54473 9.79493V9.79493ZM11.9159 4.91346C11.8586 4.94899 11.1196 5.38849 9.69889 6.23197C10.4092 7.50282 10.9707 8.50651 11.3832 9.24306H12.6716C13.0498 9.24306 13.3305 9.07669 13.5137 8.74393C13.6853 8.42314 13.6796 8.09655 13.4964 7.76415L11.9159 4.91346H11.9159Z" fill="#734A08"/>
</svg>
