<svg width="14" height="14" viewBox="0 0 14 14" fill="none" xmlns="http://www.w3.org/2000/svg">
<path d="M3.5 0C2.11929 0 1 1.11929 1 2.5C1 3.88071 2.11929 5 3.5 5C4.42534 5 5.22398 4.49724 5.65625 3.75H7L8 2.75L9 3.75L10 2.75L11 3.75H11.5L13 2.5L11.5 1.25H5.65625C5.22398 0.502762 4.42534 0 3.5 0ZM2.5 2C2.77614 2 3 2.22386 3 2.5C3 2.77614 2.77614 3 2.5 3C2.22386 3 2 2.77614 2 2.5C2 2.22386 2.22386 2 2.5 2ZM4 6L3 9C2.52733 9 2 9.38429 2 10V13H3C3 13 3 14 4 14C5 14 5 13 5 13H9C9 13 9 14 10 14C11 14 11 13 11 13H12V10C12 9.47939 11.5446 9 11 9L10 6H4ZM5 7H9L9.625 9H4.375L5 7ZM4 10.25C4.41421 10.25 4.75 10.5858 4.75 11C4.75 11.4142 4.41421 11.75 4 11.75C3.58579 11.75 3.25 11.4142 3.25 11C3.25 10.5858 3.58579 10.25 4 10.25ZM10 10.25C10.4142 10.25 10.75 10.5858 10.75 11C10.75 11.4142 10.4142 11.75 10 11.75C9.58579 11.75 9.25 11.4142 9.25 11C9.25 10.5858 9.58579 10.25 10 10.25Z" fill="#0092DA"/>
</svg>
