<svg width="14" height="14" viewBox="0 0 14 14" fill="none" xmlns="http://www.w3.org/2000/svg">
<path d="M3.5 0C2.11929 0 1 1.11929 1 2.5C1 3.88071 2.11929 5 3.5 5C4.42534 5 5.22398 4.49724 5.65625 3.75H7L8 2.75L9 3.75L10 2.75L11 3.75H11.5L13 2.5L11.5 1.25H5.65625C5.22398 0.502762 4.42534 0 3.5 0ZM2.5 2C2.77614 2 3 2.22386 3 2.5C3 2.77614 2.77614 3 2.5 3C2.22386 3 2 2.77614 2 2.5C2 2.22386 2.22386 2 2.5 2ZM8 5.4375L8.03125 6.4375L9 7V8H5.25H5V7H5.5C6.5 7 6.5 6 5.5 6H3.5C2.5 6 2.5 7 3.5 7H4V8L3.4375 9.375C3.39585 9.3727 3.35466 9.375 3.3125 9.375C2.042 9.375 1 10.417 1 11.6875C1 12.958 2.042 14 3.3125 14C4.583 14 5.625 12.958 5.625 11.6875C5.625 11.4475 5.56957 11.2189 5.5 11H6H7L9.156 9H9.15625L9.4375 9.71875C8.79786 10.1357 8.375 10.8776 8.375 11.6875C8.375 12.958 9.417 14 10.6875 14C11.958 14 13.0312 12.958 13.0312 11.6875C13.0312 10.417 11.958 9.375 10.6875 9.375C10.6453 9.375 10.6042 9.3727 10.5625 9.375L10 8V6.625L8 5.4375ZM4.84375 9H7.956L6.65 10.25H5.09375C4.93989 10.0623 4.76629 9.85158 4.5625 9.71875L4.84375 9ZM3.3125 10.5C3.975 10.5 4.5 11.025 4.5 11.6875C4.5 12.35 3.975 12.875 3.3125 12.875C2.65 12.875 2.125 12.35 2.125 11.6875C2.125 11.025 2.65 10.5 3.3125 10.5ZM10.6875 10.5C11.35 10.5 11.875 11.025 11.875 11.6875C11.875 12.35 11.35 12.875 10.6875 12.875C10.025 12.875 9.53125 12.35 9.53125 11.6875C9.53125 11.025 10.025 10.5 10.6875 10.5Z" fill="#0092DA"/>
</svg>
