<?xml version="1.0" encoding="UTF-8" standalone="no"?>
<svg
   xmlns:dc="http://purl.org/dc/elements/1.1/"
   xmlns:cc="http://creativecommons.org/ns#"
   xmlns:rdf="http://www.w3.org/1999/02/22-rdf-syntax-ns#"
   xmlns:svg="http://www.w3.org/2000/svg"
   xmlns="http://www.w3.org/2000/svg"
   xmlns:sodipodi="http://sodipodi.sourceforge.net/DTD/sodipodi-0.dtd"
   xmlns:inkscape="http://www.inkscape.org/namespaces/inkscape"
   id="Svg"
   width="32"
   height="32"
   version="1.1"
   sodipodi:docname="ridge-mz.svg"
   inkscape:version="0.92.2 5c3e80d, 2017-08-06">
  <sodipodi:namedview
     pagecolor="#ffffff"
     bordercolor="#666666"
     borderopacity="1"
     objecttolerance="10"
     gridtolerance="10"
     guidetolerance="10"
     inkscape:pageopacity="0"
     inkscape:pageshadow="2"
     inkscape:window-width="1030"
     inkscape:window-height="669"
     id="namedview8"
     showgrid="false"
     inkscape:zoom="14.09375"
     inkscape:cx="20.70238"
     inkscape:cy="15.756526"
     inkscape:window-x="0"
     inkscape:window-y="0"
     inkscape:window-maximized="0"
     inkscape:current-layer="Svg" />
  <metadata
     id="metadata911">
    <rdf:RDF>
      <cc:Work
         rdf:about="">
        <dc:format>image/svg+xml</dc:format>
        <dc:type
           rdf:resource="http://purl.org/dc/dcmitype/StillImage" />
        <dc:title></dc:title>
      </cc:Work>
    </rdf:RDF>
  </metadata>
  <defs
     id="defs3" />
  <path
     id="path4362"
     style="fill:#999999;fill-opacity:1;stroke:none;stroke-width:0.61599159"
     d="M 9.6640164,24.478355 9.3583291,24.491788 9.2753906,24.789874 9.5324998,25 9.7753906,24.793539 Z m 3.4500886,-0.08796 -0.12973,0.306638 0.169647,0.262658 0.314345,-0.04643 0.116008,-0.245554 -0.12474,-0.258993 z m 10.758792,-0.162382 -0.09751,0.185694 0.03214,0.174698 0.1795,0.122166 0.1795,-0.11728 0.0089,-0.196687 -0.08643,-0.15393 z M 1.6898577,23.901827 1.4965073,23.915259 1.390625,24.08507 l 0.016879,0.210126 0.2654734,0.0561 0.194885,-0.05619 0.1227621,-0.140491 -0.1058824,-0.196688 z m 3.8767889,-0.913805 -0.2326622,0.212568 0.022372,0.310304 0.2695749,0.101396 0.1957495,-0.164925 0.012304,-0.285869 z m 15.3042594,-0.113615 -0.189421,0.03909 -0.05844,0.2199 0.101763,0.153929 0.142065,0.05253 0.156172,-0.147821 -0.03426,-0.210127 z m -4.38469,-0.708566 -0.106863,0.06841 -0.0902,0.102623 -0.02353,0.239446 0.145098,0.08796 0.172549,-0.04887 0.08235,-0.119723 -0.05294,-0.1466 z m 10.37428,-0.542419 -0.301902,0.173476 0.107822,0.30786 0.347567,0.0048 0.104017,-0.30053 z m 3.430245,-0.579069 -0.148163,0.188137 0.09184,0.194244 0.164082,0.06964 0.214285,-0.09285 0.01592,-0.229673 -0.156735,-0.120945 z m -27.8532303,-0.560744 -0.1972763,0.267544 0.1715954,0.279762 0.2976653,0.01222 0.1307393,-0.279761 -0.1319066,-0.232117 z m 11.5461973,-0.128274 -0.139257,0.177141 -0.0026,0.164925 0.1061,0.141713 0.232095,-0.0085 0.11671,-0.12583 0.04509,-0.149045 -0.139256,-0.139269 z m 5.001845,-0.235781 -0.198444,0.267544 0.172763,0.279761 0.297665,0.01222 0.129572,-0.279762 L 19.25637,20.1672 Z m -12.7489244,-0.219901 -0.1646635,0.04032 -0.066106,0.202796 0.076923,0.145378 0.123798,0.09162 0.171875,-0.06964 0.1274039,-0.16859 -0.1177885,-0.182028 z m 4.9969984,-0.338401 -0.216049,0.111173 0.03087,0.19913 0.164198,0.149044 0.158024,0.01589 0.08395,-0.136827 0.06296,-0.23456 -0.133333,-0.06964 z m 15.737227,-0.03787 -0.195348,0.06109 -0.114164,0.142936 0.07357,0.22845 0.220718,0.03543 0.156025,-0.09529 0.04694,-0.228452 z m -17.4992649,-0.04032 -0.2061856,0.09896 -0.083763,0.144155 0.020619,0.171034 0.2048969,0.09162 0.1610824,-0.06109 0.1134021,-0.112399 -0.051546,-0.183249 z m 13.6302249,-0.239447 -0.189356,0.02688 -0.168317,0.130718 0.07426,0.206461 0.136139,0.09529 0.174505,0.0012 0.115099,-0.182028 -0.04208,-0.158817 z m -21.3699913,-0.49233 -0.2537229,0.05375 -0.1675529,0.178364 0.00479,0.157594 0.1898933,0.06597 0.3127654,0.03299 0.071809,-0.13927 0.020745,-0.151486 z m 15.5891113,-0.335958 -0.234292,0.09896 -0.01047,0.213792 0.120418,0.138048 0.248692,0.0171 0.13089,-0.196689 -0.08901,-0.178362 z m 13.138786,-0.07941 -0.157959,0.125831 -0.01714,0.221122 0.135918,0.140491 0.181223,0.08674 0.140816,-0.194245 -0.07469,-0.127053 -0.01714,-0.184471 z m -15.850626,-0.12461 -0.15011,0.117279 0.01325,0.201575 0.155629,0.140491 0.174392,-0.03176 0.156733,-0.10017 -0.07174,-0.226008 -0.13245,-0.01103 z m -7.8087804,-0.01955 -0.1687656,0.0171 -0.1335011,0.113614 0.036524,0.211349 0.1410579,0.09162 0.15869,0.02321 0.1259445,-0.144157 0.037784,-0.207682 z m 18.7545474,-0.03787 -0.22962,0.06109 -0.08152,0.146599 -0.0054,0.155151 0.175272,0.103838 0.233696,0.01103 0.09103,-0.202795 -0.04212,-0.160039 z m -21.7491513,-0.208905 -0.1339067,0.06841 -0.1130221,0.102622 -0.029484,0.239446 0.1818182,0.08796 0.2162162,-0.04887 0.1019656,-0.119722 -0.065111,-0.1466 z m 18.3420043,-0.01466 -0.236775,0.03909 -0.07305,0.218678 0.127204,0.155152 0.177582,0.05131 0.195214,-0.146598 -0.04408,-0.211349 z m -1.610069,-0.130719 -0.323054,0.0623 -0.07006,0.304194 0.201098,0.193023 0.303593,-0.02199 0.145309,-0.309081 z M 9.3647896,17.670109 9.1655321,17.769064 9.09375,17.909556 9.1939975,18.036609 9.3932549,18.1771 9.5071164,18.078145 9.59375,17.952314 9.564047,17.712868 Z m 2.8076994,-0.02932 -0.200882,0.0085 -0.111478,0.151486 -0.0574,0.190581 0.189845,0.116058 0.10596,-0.08918 0.163354,-0.03909 0.04084,-0.19791 z m 16.123977,-0.164925 -0.32381,0.172255 0.117007,0.307859 0.371429,0.0048 0.111564,-0.30053 z m -9.969122,-0.32985 -0.18375,0.07819 -0.1475,0.138049 0.13375,0.200352 0.14875,-0.02565 0.1825,0.05008 0.135,-0.153929 -0.06375,-0.191803 z m 11.94575,-0.05008 -0.165432,0.07575 -0.04321,0.23578 0.17284,0.129497 0.179012,-0.01466 0.148148,-0.182028 -0.09383,-0.211347 z m -28.8705797,-0.02688 -0.2282608,0.05986 -0.082881,0.1466 -0.00543,0.156373 0.1752717,0.103837 0.2350544,0.01103 0.089674,-0.202795 -0.040761,-0.160038 z m 22.2358007,-0.05619 -0.175424,0.211347 0.05847,0.280984 0.336866,0.09896 0.204662,-0.267544 -0.102967,-0.295644 z m -19.2362894,-0.0843 -0.091479,0.222343 0.1052632,0.105064 0.061403,0.174696 0.2067669,0.02199 0.1265665,-0.160038 -0.037594,-0.219899 -0.169173,-0.103838 z m -1.6761516,-0.05131 -0.1586903,0.04764 -0.2078087,0.134384 0.054156,0.140491 0.09194,0.123389 0.2405543,0.05864 0.1133502,-0.169812 -0.023929,-0.218678 z m 23.070072,-0.0012 -0.133907,0.06841 -0.113022,0.103838 -0.02948,0.238226 0.181818,0.08796 0.216217,-0.04764 0.101965,-0.119723 -0.06511,-0.1466 z m -5.720358,-0.0037 -0.364383,0.06964 -0.136986,0.287091 0.238356,0.226008 0.3,-0.04642 0.161644,-0.247997 z m -8.940328,-0.0025 -0.305856,0.1185 -0.05596,0.266323 0.192624,0.222344 0.354013,-0.0623 0.05336,-0.328628 z M 31.998047,16.773315 31.728516,17.040859 32,17.24732 V 16.773315 Z M 0,16.773315 v 0.474005 l 0.04296875,0.03299 0.51757813,-0.09896 -0.0449219,-0.32374 z m 13.063036,-0.0037 -0.371694,0.07575 -0.02924,0.31519 0.325755,0.119722 0.274245,-0.237002 z m 14.270768,-0.07452 -0.142131,0.09163 -0.06472,0.160038 0.134517,0.171032 0.17005,0.01833 0.152284,-0.05131 0.04315,-0.183249 -0.06599,-0.201575 z m 1.924733,-0.01588 -0.141107,0.02199 -0.113524,0.0843 0.0032,0.188136 0.09549,0.180807 0.185669,-0.04887 0.09655,-0.120944 0.0191,-0.171034 z m -4.434465,-0.02199 -0.111675,0.09529 -0.06396,0.135605 0.07614,0.166146 0.151268,0.107505 0.13807,-0.141713 0.03452,-0.158816 -0.04974,-0.16126 z m -19.2102169,-0.01466 -0.236902,0.218677 0.1161731,0.290757 0.2881549,-0.02565 0.095672,-0.322519 z m 16.2426379,-0.0048 -0.133907,0.06964 -0.113022,0.102622 -0.02948,0.238225 0.181818,0.08918 0.216217,-0.04887 0.101965,-0.119724 -0.06511,-0.146599 z m -4.189043,-0.0048 -0.151825,0.09162 0.03357,0.158816 0.129928,0.216235 0.173723,-0.03543 0.160584,-0.07331 0.10219,-0.224786 -0.185402,-0.128275 z m 12.99465,-0.112399 -0.238554,0.0281 -0.09542,0.18447 0.104096,0.20524 0.219759,0.06109 0.235661,-0.0085 0.04048,-0.237002 -0.14747,-0.07696 z m -14.996976,-0.182027 -0.143519,0.112387 -0.146605,0.21257 0.140432,0.100182 0.166667,0.06597 0.03549,0.301751 0.339506,0.155152 0.317902,-0.18325 -0.01852,-0.27121 -0.288581,-0.173476 -0.07407,0.02688 0.01235,-0.111172 -0.152778,-0.183249 z m 2.460267,-0.333514 -0.354412,0.108731 -0.02619,0.06353 -0.09777,-0.114837 -0.405042,-0.04764 -0.247915,0.223565 -0.04713,-0.01103 -0.225218,0.125831 -0.02444,0.221121 0.193791,0.140491 0.25839,0.08674 0.200775,-0.194245 -0.03492,-0.04153 0.333462,0.0085 0.08904,-0.128275 0.261882,0.180807 0.425992,-0.145378 0.07158,-0.30786 z m 1.035979,-0.04032 -0.238589,0.06109 -0.0847,0.146599 -0.0056,0.155152 0.132706,0.07575 -0.162353,0.06474 -0.05082,0.235781 0.197648,0.128275 0.204706,-0.01344 0.169412,-0.182028 -0.09882,-0.195467 0.03247,0.0012 0.09459,-0.202796 -0.04377,-0.160038 z M 32,15.925479 l -0.07422,0.100181 -0.130859,0.01833 -0.01758,0.05865 -0.02539,-0.0048 -0.197265,0.120944 -0.09961,-0.03421 -0.261719,0.0171 -0.01758,0.0098 -0.06445,-0.149044 -0.308594,-0.05864 -0.27539,0.09896 -0.02539,-0.06964 h -0.240234 l -0.234375,0.03787 -0.02539,0.02321 -0.09766,0.02077 -0.171875,-0.08674 -0.300781,0.05986 -0.175782,0.142936 0.113282,0.229672 0.33789,0.03421 0.05078,-0.01955 0.07617,0.06109 0.314454,-0.01344 0.09961,-0.05008 0.08984,0.01588 0.134765,-0.03299 0.01172,0.04887 0.382813,0.0061 0.09961,-0.134383 0.03125,-0.01589 0.04492,0.166146 0.21875,0.09162 0.24414,0.02321 0.158203,-0.116059 0.08984,0.05498 L 32,16.552194 Z m -17.104947,-0.0304 -0.219519,0.149044 0.0018,0.08796 -0.263075,0.05619 -0.02439,-0.0452 -0.449491,0.01344 -0.121955,0.298086 0.245652,0.136826 -0.191643,0.07819 0.08885,0.302972 0.475624,0.06353 0.139377,-0.234559 0.101048,0.07331 0.257847,0.08674 0.200355,-0.194244 -0.106275,-0.127053 -0.02439,-0.184471 -0.05401,-0.01344 0.0035,-0.08063 0.08885,0.0061 0.275229,-0.08792 -0.03136,-0.217457 -0.153314,-0.12461 z m 14.008068,-0.03813 -0.214663,0.04642 -0.283355,0.134383 0.03778,0.07329 h -0.116776 l -0.05667,0.11728 -0.204359,-0.04153 -0.279921,0.238226 0.10819,0.258991 0.370937,0.113615 0.372655,-0.210126 -0.01717,-0.0342 0.09617,-0.04032 0.199207,-0.155151 0.01546,0.0025 0.154557,-0.16859 -0.03091,-0.2199 z m -22.6978423,-0.03166 -0.2180586,0.01466 -0.089992,0.125832 h -0.046727 l -0.2076748,0.03787 -0.1955605,0.19791 0.1696011,0.162481 0.3011285,0.05742 0.2076748,-0.05865 0.00866,-0.09651 0.051919,0.0098 0.041535,-0.01103 -0.013845,0.07208 0.02942,0.150265 0.2544016,0.160037 0.1159518,-0.04642 0.00173,0.0025 0.038074,0.172256 0.2301729,0.150264 0.2215198,0.01588 0.1176824,-0.138048 0.019037,-0.05008 0.2284424,0.02688 0.2128666,-0.09529 0.064033,-0.22845 -0.2544017,-0.144158 -0.2111361,0.04887 -0.2215198,-0.25777 -0.4291946,0.06474 -0.048457,-0.0061 -0.1297968,0.0098 0.091723,-0.09285 -0.119413,-0.19791 z M 0.3125,15.811865 0.04296875,15.868061 0,15.925479 v 0.626715 l 0.13085938,-0.01466 0.0390625,-0.0843 0.13671874,-0.08307 -0.007813,-0.116058 0.125,-0.0061 0.22460938,-0.111173 -0.0136719,0.02077 0.10351563,0.08551 -0.0351563,0.113615 -0.17578125,0.149043 0.140625,0.16248 0.009766,0.08674 0.27734374,0.140491 0.28710938,-0.03054 0.048828,0.09529 0.53125,0.01103 0.2988282,-0.24922 -0.1113282,-0.12461 0.1015625,0.02932 0.3828125,0.03299 0.087891,-0.139271 0.00391,-0.0281 0.095703,0.134383 0.4296875,-0.05619 -0.015625,0.06109 0.4707031,0.160038 0.3632813,-0.219899 -0.054687,-0.07208 0.083984,0.02932 -0.027344,0.03054 0.03125,0.171033 0.3105469,0.09163 0.2441406,-0.06109 0.171875,-0.112388 -0.029297,-0.07085 0.1367188,0.136825 0.4921875,-0.04642 0.1816406,-0.245555 -0.1953125,-0.260214 -0.5390625,-0.01833 -0.1894531,0.282205 -0.1328125,-0.08307 0.00391,-0.0025 -0.2167969,-0.27854 -0.5390625,0.01833 -0.054687,0.216234 -0.3632813,0.01222 0.017578,-0.08063 -0.4570313,-0.135605 -0.2910156,0.191801 -0.125,-0.113613 -0.3105469,0.05375 -0.2050781,0.178363 0.00195,0.04764 -0.4296875,-0.01833 -0.1523437,0.09896 -0.033203,-0.0012 -0.013672,-0.185693 -0.017578,-0.02565 0.109375,-0.02321 0.066406,-0.184471 -0.1015625,-0.201574 -0.3496094,-0.0037 -0.21875,0.09162 -0.0839844,0.135606 -0.0234375,-0.237003 z m 9.3984375,-0.0073 -0.2714844,0.267545 0.095703,0.0733 -0.042969,-0.0025 -0.3085937,0.05619 0.023437,0.145378 -0.1074218,0.03421 -0.1796875,0.102623 -0.042969,0.222342 -0.1582031,-0.06109 -0.4355469,0.09041 -0.09375,0.332292 0.4628907,0.163704 0.4492187,-0.133162 -0.015625,-0.310302 0.076172,0.02321 0.34375,-0.04887 0.1640625,-0.119723 -0.03125,-0.04276 0.021484,0.01222 0.3027344,-0.07452 0.054687,-0.199132 -0.074219,-0.05986 0.3300786,-0.06353 -0.04492,-0.323741 z m 13.6908765,-0.02077 -0.450642,0.141712 0.04471,0.331072 0.110873,0.04398 -0.116237,0.274875 0.388053,0.210126 0.366593,-0.206461 -0.06438,-0.120946 0.05544,0.03909 0.264662,0.08552 0.105508,-0.100182 0.214592,0.04153 0.193131,-0.153929 -0.02503,-0.05131 0.152003,0.09773 0.171673,-0.04642 0.0161,0.05498 0.189556,0.127053 0.345135,-0.04276 0.08762,-0.206461 -0.112661,-0.160038 -0.323675,-0.07208 -0.07154,0.04887 -0.171673,-0.15393 -0.284333,-0.01589 -0.282546,0.05619 0.0161,0.106279 -0.0912,-0.02932 -0.05364,0.01589 -0.0018,-0.02077 -0.278968,-0.06841 -0.05364,0.0281 -0.0054,-0.08063 z m 2.697191,-0.01954 -0.347052,0.21257 0.0317,0.310302 0.193549,0.04887 0.0267,0.186915 0.190211,0.0452 0.183537,0.127053 0.01668,-0.0048 -0.165183,0.105064 0.04839,0.211347 0.186874,0.09162 0.210233,0.02321 0.166853,-0.142935 0.05005,-0.208905 -0.261958,-0.105063 -0.203559,0.0171 0.210233,-0.06109 0.02503,-0.108731 0.03337,0.07696 0.290322,0.03543 0.205229,-0.09529 0.06174,-0.228452 -0.246941,-0.145378 -0.256952,0.0623 -0.138487,0.13194 -0.110123,-0.105064 -0.05339,-0.0037 0.0317,-0.0171 0.01835,-0.28587 z m -18.3572482,-0.0281 -0.2358974,0.267546 0.2752137,0.239446 0.2529915,-0.05498 0.08376,0.164925 0.1880343,0.09529 0.2393163,0.0012 0.1606837,-0.180807 -0.058119,-0.160038 -0.140171,-0.1185 -0.2615385,0.02565 -0.025641,0.01466 -0.025641,-0.210126 z m -5.5166943,-0.175919 -0.1215469,0.184472 0.040055,0.174697 0.2237568,0.123388 0.225138,-0.118501 0.01105,-0.196688 -0.1077348,-0.152707 z m 25.4606775,-0.03054 -0.19693,0.05986 -0.11381,0.144157 0.07417,0.22845 0.221227,0.03543 0.157288,-0.09529 0.04732,-0.228451 z m -15.771797,-0.118542 -0.29045,0.05498 -0.191806,0.178362 0.0036,0.157596 0.219207,0.06597 0.310543,0.0281 -0.0749,0.02199 -0.107776,0.247999 -0.186326,-0.163704 -0.257569,-0.01466 0.04201,-0.04153 -0.04201,-0.238225 -0.294103,-0.04276 -0.295929,0.09896 -0.104124,0.140491 0.0822,0.07085 -0.274008,0.09285 -0.118737,0.144156 0.01827,0.109947 -0.0036,-0.0012 -0.248435,0.11728 0.02375,0.201574 0.257569,0.140493 0.288623,-0.03176 0.259395,-0.100181 -0.113257,-0.216234 0.06576,-0.01833 0.160752,-0.112398 -0.07307,-0.183249 -0.0092,-0.0061 0.07307,0.03421 0.02009,0.134383 0.208247,0.0452 0.0092,0.0048 -0.105951,0.05131 0.02192,0.200352 0.257568,0.140491 0.288622,-0.03176 0.259396,-0.100181 -0.120564,-0.226007 -0.120564,-0.0048 0.03836,-0.152708 0.339771,0.223565 0.160753,-0.05253 0.0274,0.116058 0.242955,0.149044 0.23382,0.01589 0.124217,-0.136826 0.02923,-0.07452 0.02375,0.02444 0.460335,-0.04642 0.168059,-0.245555 -0.180846,-0.260214 -0.418321,-0.01466 0.20642,-0.08918 -0.08768,-0.332293 -0.485909,-0.01103 -0.1845,0.310303 0.367173,0.200353 0.06211,-0.02688 -0.153446,0.247998 -0.124216,-0.01955 0.05115,-0.206462 -0.390918,-0.16859 -0.235649,0.06841 0.06942,-0.11728 0.02375,-0.151486 z m 4.518153,0.05989 -0.288775,0.212569 0.0097,0.09896 -0.157513,0.131939 -0.03454,0.217457 0.08567,0.138048 0.181003,-0.0098 0.256996,-0.08185 -0.01244,-0.09285 0.03178,0.0098 0.243179,-0.164925 0.01382,-0.287091 z m -2.117568,-0.01103 -0.18713,0.111172 -0.10396,0.193023 0.19604,0.147821 0.199012,0.02199 0.184159,-0.07941 0.02079,-0.212569 -0.135149,-0.122167 z m 17.14823,-0.02199 -0.185675,0.0171 -0.107161,0.128275 0.0085,0.232115 0.182492,0.09651 0.145357,-0.103838 0.06366,-0.164925 z m -15.888043,-0.02565 -0.223153,0.141713 0.04729,0.227229 0.218719,0.07819 0.214286,-0.03421 0.119704,-0.217456 -0.164039,-0.167369 z M 3.3592409,15.34148 3.1601562,15.629793 3.4251448,15.853357 3.7601562,15.701872 3.7024902,15.390347 Z m 1.5464739,-0.03543 -0.1850117,0.05619 0.02342,0.238224 0.1334895,0.0452 0.1288056,0.127053 0.1814985,-0.07447 0.032787,-0.199131 -0.1288056,-0.177142 z m 20.0139332,-0.0061 -0.08772,0.122167 -0.05263,0.142935 0.08647,0.226008 0.206766,-0.0061 0.171679,-0.142934 0.03509,-0.152709 -0.129072,-0.100181 z m -6.057509,-0.0085 -0.170733,0.147821 0.0027,0.164925 0.07453,0.140492 0.208675,0.01833 0.214093,-0.08796 -0.02575,-0.217456 -0.119242,-0.124609 z m 2.482669,-0.01954 -0.453508,0.141712 0.04319,0.331071 0.397719,0.155151 0.287941,-0.144156 -0.04499,0.213791 0.107978,0.145379 -0.145771,0.127053 -0.0054,-0.05498 -0.289742,-0.0843 -0.248349,0.05619 -0.01799,0.02688 -0.385123,-0.04276 -0.179964,0.158817 -0.259148,-0.233338 -0.431912,0.100181 -0.03419,0.337181 0.460707,0.08796 0.165566,-0.157595 0.239352,0.252884 0.458907,0.01344 0.107978,-0.152708 0.228554,-0.01103 0.206959,-0.112388 -0.0036,-0.04398 0.187162,0.196688 0.458908,0.01222 0.19976,-0.279761 -0.09358,-0.108731 0.188962,0.03665 0.19436,-0.153929 -0.08998,-0.191801 -0.296941,-0.09529 -0.09538,0.0281 -0.0144,-0.04887 -0.262747,-0.06353 -0.29874,0.03787 0.07379,-0.03665 -0.01979,-0.269989 z m 1.825234,-0.141714 -0.309745,0.07575 -0.02437,0.315189 0.271462,0.119722 0.228538,-0.237002 z m -6.000349,-0.05253 -0.17246,0.125832 -0.01871,0.222342 0.148395,0.140491 0.197862,0.08551 0.153743,-0.194244 -0.08155,-0.125831 -0.01871,-0.184472 z m -8.7931914,-0.07331 -0.2891568,0.100182 -0.022891,0.337179 0.3084339,0.08918 0.1915661,-0.273653 z m -7.60843662,-0.100181 -0.1610257,0.111173 -0.0328205,0.191802 0.0266667,0.197909 0.20205133,0.0048 0.0512819,-0.133161 0.12000003,-0.118501 -0.0441024,-0.195467 z m 5.53863812,-0.129495 -0.336,0.141712 0.032,0.331071 0.2946667,0.155151 0.2733333,-0.184471 -0.014666,-0.269988 z m 22.7351819,-0.07575 -0.252696,0.108732 -0.08216,0.274874 0.245228,0.238226 0.303734,-0.145378 0.05104,-0.30786 z m -2.908494,-0.230895 -0.121,0.03787 -0.112,0.19791 0.098,0.162481 0.174,0.05742 0.118999,-0.05863 0.009,-0.160038 -0.045,-0.237003 z m -5.949451,-0.06841 -0.241058,0.0098 -0.133774,0.151486 -0.06887,0.189358 0.227814,0.116059 0.125827,-0.08918 0.19735,-0.03787 0.04901,-0.19791 z m -10.10318,-0.01954 -0.3346662,0.140492 0.032,0.331071 0.2946662,0.156373 0.273334,-0.184471 -0.01466,-0.269989 z m 4.484838,-0.02565 -0.305856,0.119722 -0.05466,0.265102 0.192625,0.223565 0.354012,-0.06353 0.05336,-0.328628 z m -2.823293,-0.08552 -0.130977,0.306638 0.169647,0.263879 0.314345,-0.04642 0.116008,-0.245555 -0.12474,-0.260215 z m 18.647229,-0.06474 -0.256722,0.224786 0.164302,0.309081 0.381416,-0.0672 0.05428,-0.331071 z m -26.3913864,-0.03299 -0.3231851,0.01833 -0.048009,0.320076 0.2822014,0.160038 0.2177986,-0.219899 z m 20.8191224,-0.41781 -0.256723,0.223565 0.164302,0.310303 0.381416,-0.0672 0.05428,-0.331071 z m -7.066176,-0.180805 -0.13,0.306636 0.17,0.263881 0.315,-0.04642 0.115,-0.245555 -0.12375,-0.260214 z m 10.212106,-0.194245 -0.269841,0.172254 0.09637,0.30786 0.310657,0.0048 0.09297,-0.30053 z m -27.1369933,-0.05742 -0.15940596,0.09896 -0.0574257,0.140491 0.080198,0.127054 0.15940592,0.140491 0.0910892,-0.09896 0.0693069,-0.125831 -0.0237624,-0.239447 z m 7.3419796,-0.215012 -0.1192612,0.141713 -0.02744,0.177141 0.1467019,0.169811 0.1762532,-0.0672 0.077045,-0.15393 -0.058047,-0.223564 z m -1.8663018,-0.04032 -0.211671,0.02199 -0.1702916,0.0843 0.00477,0.189357 0.1432361,0.179584 0.2785144,-0.04764 0.1448275,-0.122167 0.028647,-0.169811 z m 8.2875395,-0.08674 -0.09724,0.185693 0.03204,0.173476 0.179004,0.123388 0.180109,-0.117279 0.0088,-0.19791 -0.08619,-0.152709 z m 7.845815,-0.2932 -0.187192,0.140491 0.03941,0.22723 0.182265,0.0794 0.178572,-0.03421 0.09975,-0.218678 -0.1367,-0.166147 z m -19.3749822,-0.52898 -0.1237624,0.109946 -0.069307,0.193023 0.129703,0.147822 0.1326732,0.02199 0.1237623,-0.07819 0.013861,-0.213791 -0.090099,-0.122167 z m 16.0284322,-0.07085 -0.262668,0.02565 -0.02133,0.147822 0.02266,0.151486 0.196,0.160038 0.192001,-0.09896 0.08933,-0.20524 -0.044,-0.151486 z m -8.195224,-0.167367 -0.121981,0.311524 0.242753,0.199131 0.257247,-0.166146 -0.05797,-0.333515 z m 16.066694,-0.05986 -0.1418,0.162481 0.03174,0.193023 0.11217,0.127054 0.204235,-0.04276 0.05185,-0.206461 -0.06667,-0.160038 z m -6.263723,-1.450116 -0.210144,0.107505 -0.06832,0.276097 0.203933,0.237002 0.253623,-0.145378 0.04244,-0.306637 z M 1.8599215,9.9356597 l -0.1565218,0.061087 -0.092072,0.1429348 0.059335,0.228451 0.176982,0.03543 0.1258313,-0.09529 0.037852,-0.228456 z M 9.6689697,9.5117383 9.555552,9.6033583 9.503907,9.7633963 9.6112488,9.9344301 9.746945,9.9527564 9.8684636,9.9014451 9.9039066,9.718195 9.8502356,9.5166208 Z m 3.8007443,-0.1172801 -0.172839,0.1111725 0.02469,0.1991306 0.131358,0.1490434 0.126419,0.0171 0.06716,-0.1380487 0.05037,-0.2333374 -0.106667,-0.070853 z M 28.348482,9.3174972 28.134766,9.5850425 28.320661,9.864803 28.643132,9.877021 28.784766,9.5972605 28.641867,9.363922 Z M 6.0274284,8.1275966 5.8975051,8.1495859 5.8565844,8.3035163 5.853515,8.5454059 5.9752541,8.5820584 6.1021084,8.5795834 6.253515,8.4207672 6.1890649,8.2338529 Z m 16.7406356,-0.517986 -0.161025,0.1111725 -0.03282,0.1918013 0.02667,0.19791 0.202051,0.00484 0.05128,-0.1331607 0.12,-0.1185018 -0.0441,-0.1954666 z M 16.652474,7 l -0.1225,0.078188 -0.09833,0.1380488 0.09,0.2003524 0.09833,-0.02565 0.121667,0.050085 0.09,-0.1539304 -0.0425,-0.1918013 z"
     inkscape:connector-curvature="0" />
  <rect
     width="32"
     height="32"
     rx="0"
     x="0"
     y="0"
     id="rect8566"
     style="fill:none;fill-opacity:1;stroke:none" />
  <desc
     id="desc907">Created with Snap</desc>
</svg>
