<svg width="14" height="14" viewBox="0 0 14 14" fill="none" xmlns="http://www.w3.org/2000/svg">
<g clip-path="url(#clip0)">
<path d="M0.829224 10.095H4.20142L3.75477 14.0001H1.20887L0.829224 10.095Z" fill="#2F6133"/>
<path d="M1.3678 0.0694925C-2.63 2.66959 4.5931 3.09639 0.149999 6.18059L1.02772 6.1688C5.19532 2.8773 -2.06718 2.6365 2.33212 0.0426025L1.3678 0.0694925Z" fill="#2F6133" stroke="#2F6133" stroke-width="0.086943"/>
<path d="M4.40167 0.070347C0.403874 2.67045 7.62697 3.09725 3.18387 6.18145L4.06159 6.16966C8.22919 2.87816 0.966694 2.63736 5.36599 0.043457L4.40167 0.070347Z" fill="#2F6133" stroke="#2F6133" stroke-width="0.086943"/>
<path d="M10.209 3.6166C10.9778 3.6166 11.6011 2.99333 11.6011 2.2245C11.6011 1.45566 10.9778 0.832397 10.209 0.832397C9.44016 0.832397 8.81689 1.45566 8.81689 2.2245C8.81689 2.99333 9.44016 3.6166 10.209 3.6166Z" fill="#2F6133"/>
<path d="M8.85898 9.78033L6.35666 12.8037C6.11411 13.0968 6.13691 13.551 6.4076 13.8183C6.67828 14.0856 7.09434 14.0647 7.33689 13.7717L9.83922 10.7483C10.0818 10.4552 10.059 10.001 9.78828 9.73367C9.5176 9.46638 9.10154 9.48727 8.85898 9.78033Z" fill="#2F6133"/>
<path d="M9.71869 6.78844L7.07628 7.6923C6.82485 7.7783 6.69109 8.05172 6.77752 8.303C6.86394 8.55427 7.13782 8.68826 7.38925 8.60225L10.0317 7.69839C10.2831 7.61239 10.4168 7.33897 10.3304 7.08769C10.244 6.83642 9.97012 6.70244 9.71869 6.78844Z" fill="#2F6133"/>
<path d="M10.3573 7.37151L11.6061 4.91308C11.725 4.67887 11.6323 4.39119 11.399 4.27051C11.1657 4.14983 10.8801 4.24186 10.7611 4.47607L9.51234 6.9345C9.39337 7.1687 9.48608 7.45639 9.7194 7.57707C9.95273 7.69775 10.2383 7.60572 10.3573 7.37151Z" fill="#2F6133"/>
<path d="M13.3573 9.52165L9.35859 9.51446C9.0034 9.51382 8.71527 9.80125 8.71504 10.1564L8.71504 10.1565C8.71482 10.5117 9.00257 10.8001 9.35777 10.8008L13.3565 10.808C13.7117 10.8086 13.9998 10.5212 14 10.166L14 10.1659C14.0003 9.81075 13.7125 9.52229 13.3573 9.52165Z" fill="#2F6133"/>
<path d="M14 12.1H10.591V12.8292H14V12.1Z" fill="#2F6133"/>
<path d="M13.9605 9.92127L12.0121 4.49999C11.8884 4.15563 11.5089 3.97694 11.1646 4.10089C10.8204 4.22484 10.6416 4.60448 10.7654 4.94884L12.7137 10.3701C12.8375 10.7145 13.2169 10.8932 13.5612 10.7692C13.9055 10.6453 14.0842 10.2656 13.9605 9.92127Z" fill="#2F6133"/>
</g>
<defs>
<clipPath id="clip0">
<rect width="14" height="14" fill="white"/>
</clipPath>
</defs>
</svg>
