<svg width="14" height="14" viewBox="0 0 14 14" fill="none" xmlns="http://www.w3.org/2000/svg">
<path fill-rule="evenodd" clip-rule="evenodd" d="M6 3C3 3 0 5 0 7C0 9 3 11 6 11C8.24331 10.9772 11 9 11 7C11 5 8 3 6 3ZM11 7C11 9 12.6344 10.2742 14 11C14 9 13.3333 8.33333 13 7C13.3333 5.66667 14 5 14 3C12.7715 3.66485 11 5 11 7ZM2.98242 5C3.24666 4.99528 3.50201 5.09535 3.69269 5.27834C3.88336 5.46133 3.99385 5.71236 4 5.97656V6C4 6.2642 3.89545 6.51767 3.70918 6.70504C3.52291 6.89241 3.27006 6.99845 3.00586 7C2.74165 7.00157 2.48755 6.8985 2.29909 6.71333C2.11062 6.52815 2.00309 6.27592 2 6.01172C1.99686 5.7475 2.09843 5.49277 2.28251 5.3032C2.46659 5.11363 2.71822 5.00463 2.98242 5V5Z" fill="#AC39AC"/>
</svg>
