<svg width="14" height="14" viewBox="0 0 14 14" fill="none" xmlns="http://www.w3.org/2000/svg">
<path d="M5 0C4 0 4 0 4 1L4.00977 4H1V13C1 14 1 14 2 14H12C13 14 13 14 13 13V4H10.0391L10 1C10 0 10 0 9 0H5ZM5 1H9V4H5V1ZM7.50586 5L7.70898 5.03711C9.12742 5.28984 10.3126 6.28143 10.8027 7.62891C10.9239 7.96187 10.9979 8.30509 11.0273 8.64648C11.1087 9.59118 10.7995 10.5051 10.2617 11.2754H10.6289C10.8962 11.2759 11.1178 11.4955 11.1172 11.7617L11.1152 12.1348C11.1146 12.4006 10.8943 12.6196 10.627 12.6191L8.28711 12.6152C8.12296 12.6149 7.98586 12.4782 7.98633 12.3145L7.99023 9.98633C7.99071 9.72032 8.21314 9.50146 8.48047 9.50195L8.85547 9.50391C9.12274 9.5044 9.3423 9.7242 9.3418 9.99023V10.1152C9.64411 9.4825 9.78649 8.77649 9.53516 8.08594C9.20903 7.18903 8.4157 6.52777 7.4707 6.35938L7.26758 6.32422L7.50586 5ZM3.37305 5.38086L5.71289 5.38672C5.87685 5.38718 6.01401 5.522 6.01367 5.68555L6.00781 8.01367C6.00731 8.27965 5.78678 8.50032 5.51953 8.5L5.14453 8.49805C4.87726 8.49755 4.65982 8.27759 4.66016 8.01172L4.6582 7.88281C4.35441 8.51629 4.21311 9.22028 4.46484 9.91211C4.79114 10.8088 5.58245 11.4742 6.52734 11.6426L6.73242 11.6777L6.49414 13L6.28906 12.9629C4.87045 12.7101 3.68741 11.7166 3.19727 10.3691C2.74039 9.11272 3.02858 7.77668 3.76367 6.72656H3.36914C3.10188 6.72607 2.88232 6.50626 2.88281 6.24023V5.86719C2.88346 5.60135 3.10581 5.38054 3.37305 5.38086Z" fill="#AC39AC"/>
</svg>
