<svg width="14" height="14" viewBox="0 0 14 14" fill="none" xmlns="http://www.w3.org/2000/svg">
<path d="M0.75 3C0.75 3 0 5.25 0 8.25H5.5C6 8.25 6.80639 9.25 6.8 9.25H14C14 6.25 11 6 10 6H8C7 4 5 3 5 3H4.75C4 4.50841 2.01647 4.50841 1 3H0.75ZM5.5 4C5.77614 4 6 4.22386 6 4.5C6 4.77614 5.77614 5 5.5 5C5.22386 5 5 4.77614 5 4.5C5 4.22386 5.22386 4 5.5 4ZM6.5 5C6.77614 5 7 5.22386 7 5.5C7 5.77614 6.77614 6 6.5 6C6.22386 6 6 5.77614 6 5.5C6 5.22386 6.22386 5 6.5 5ZM0 9V11H5.25V9H0ZM7.3 10C7.3 10 8 11 8.5 11H14V10H7.3Z" fill="#AC39AC"/>
</svg>
