<?xml version="1.0" encoding="UTF-8" standalone="no"?>
<!-- Created with Inkscape (http://www.inkscape.org/) -->

<svg
   xmlns="http://www.w3.org/2000/svg"
   version="1.1"
   width="14"
   height="14"
   viewBox="0 0 14 14">
  <rect
     width="14"
     height="14"
     x="0"
     y="0"
     id="canvas"
     style="fill:none;stroke:none;visibility:hidden" />
  <path
     d="M 6.984334,0 5.981723,1 C 6.044283,1.4367914 6.060103,1.7749535 6.10705,2.15625 4.882655,2.5360844 3.976501,3.653806 3.976501,5 c 0,1.3565494 0.922901,2.472798 2.16188,2.84375 C 6.087361,8.219854 6.053031,8.57327 5.981723,9 l 0.501306,0.5 0,0.40625 C 5.561404,9.285538 4.581513,8.595246 3.976501,8 1.943686,6 2.480323,2.5 4.979112,1 2.980081,1.5 1,3.3084098 1,6 c 0,3 2.976501,4 2.976501,5 l 1.002611,-1 1.284596,0.71875 C 5.649538,11.098319 4.979112,11.5 4.979112,11.5 l 0.501306,0.5 1.065274,-0.59375 0,0.71875 C 6.220259,12.290251 5.981723,12.610806 5.981723,13 c 0,0.552285 0.448885,1 1.002611,1 0.553727,0 1.002611,-0.447715 1.002611,-1 0,-0.389194 -0.207204,-0.709749 -0.532637,-0.875 l 0,-0.71875 L 8.488251,12 8.989556,11.5 c 0,0 -0.706716,-0.44273 -1.253264,-0.78125 L 8.989556,10 9.992167,11 C 9.992167,10 13,9 13,6 13,3.3084098 10.994778,1.5 8.989556,1 11.496084,2.5 12.031277,6 9.992167,8 9.377366,8.603009 8.420949,9.310953 7.48564,9.9375 L 7.48564,9.5 7.986945,9 C 7.917725,8.585777 7.88039,8.225109 7.830287,7.84375 9.069267,7.472798 9.992167,6.3565494 9.992167,5 c 0,-1.3565494 -0.9229,-2.4727975 -2.16188,-2.84375 C 7.880387,1.7748912 7.917727,1.4142232 7.986945,1 L 6.984334,0 z M 7.704961,3.125 C 8.458292,3.4127741 8.989556,4.1474103 8.989556,5 c 0,0.8525897 -0.531264,1.5872258 -1.284595,1.875 -0.121261,-1.2890411 -0.121261,-2.4609588 0,-3.75 z M 6.201044,3.15625 c 0.009,-0.0038 0.02227,0.00367 0.03133,0 C 6.3673,4.5461524 6.383387,5.638887 6.263704,6.875 5.510372,6.5872258 4.979108,5.8525897 4.979108,5 c 0,-0.8284273 0.502228,-1.5401335 1.221932,-1.84375 z M 4.477807,12 c -0.276864,0 -0.501306,0.223858 -0.501306,0.5 0,0.276142 0.224442,0.5 0.501306,0.5 0.276863,0 0.501305,-0.223858 0.501305,-0.5 0,-0.276142 -0.224442,-0.5 -0.501305,-0.5 z m 5.013055,0 c -0.276863,0 -0.501306,0.223858 -0.501306,0.5 0,0.276142 0.224443,0.5 0.501306,0.5 0.276863,0 0.501305,-0.223858 0.501305,-0.5 0,-0.276142 -0.224442,-0.5 -0.501305,-0.5 z"
     id="sikhist" />
</svg>
