<svg width="14" height="14" viewBox="0 0 14 14" fill="none" xmlns="http://www.w3.org/2000/svg">
<path fill-rule="evenodd" clip-rule="evenodd" d="M7.00781 0.0410156C6.17966 0.0410155 5.50821 0.693239 5.50781 1.49805C5.5071 2.30362 6.17888 2.95703 7.00781 2.95703C7.83675 2.95703 8.50853 2.30362 8.50781 1.49805C8.50742 0.693239 7.83596 0.0410155 7.00781 0.0410156ZM1.5 1.5C1.36739 1.5 1.24021 1.55268 1.14645 1.64645C1.05268 1.74021 1 1.86739 1 2V8C1 9 0.999423 9 2.16797 10C2.99942 11 3 11 3 12V14H6V11C6 10.2109 5.58676 10.2626 5 10C3.26112 9 2 8 2 7V2C2 1.86739 1.94732 1.74021 1.85355 1.64645C1.75979 1.55268 1.63261 1.5 1.5 1.5V1.5ZM12.5 1.5C12.3674 1.5 12.2402 1.55268 12.1464 1.64645C12.0527 1.74021 12 1.86739 12 2V7C12 8 10.7389 9 9 10C8.41324 10.2626 8 10.2109 8 11V14H11V12C11 11 11.0006 11 11.832 10C13.0006 9 13 9 13 8V2C13 1.86739 12.9473 1.74021 12.8536 1.64645C12.7598 1.55268 12.6326 1.5 12.5 1.5V1.5ZM7 4C5 4 5 5 5 6V9H9V6C9 5 9 4 7 4Z" fill="#734A08"/>
</svg>
