<svg width="14" height="14" viewBox="0 0 14 14" fill="none" xmlns="http://www.w3.org/2000/svg">
<g clip-path="url(#clip0)">
<path fill-rule="evenodd" clip-rule="evenodd" d="M5 10C5 9.28088 5 4.66667 5 2C5 1 5 1 6 1H7C8 1 8 1 8 2L7.98937 9.00843H6.98937L7 3H6C6 4.66667 5.98937 7.34176 5.98937 9.00843C5.98937 10.0084 5.98937 9.99139 7 10L7.98937 10.0084C8.98937 10.0084 8.98937 10.0084 8.98937 9.0084L9 2C9.00303 2.26498e-06 9 0 7 0C6 0 7 0 6 0C4 0 4 0 4 2C4 5 4 7 4 10C4 11 4 11 6.6545 13.669C6.86174 13.9684 7 14 7.53706 14C8 14 8.19564 14.0163 8.5032 13.6855C11 11 11 11 11 10C11 6.66667 11 5.33333 11 2H10V10C10 10.4892 8 13.2235 7.56281 13C7 13.1596 5 10.6488 5 10Z" fill="#AC39AC"/>
</g>
<defs>
<clipPath id="clip0">
<rect width="14" height="14" fill="white"/>
</clipPath>
</defs>
</svg>
