<svg width="14" height="14" viewBox="0 0 14 14" fill="none" xmlns="http://www.w3.org/2000/svg">
<path fill-rule="evenodd" clip-rule="evenodd" d="M7 0C6.42647 0 5.96094 0.465536 5.96094 1.03906C5.96094 1.61259 6.42647 2.07617 7 2.07617C7.57353 2.07617 8.03906 1.61259 8.03906 1.03906C8.03906 0.465536 7.57353 0 7 0ZM5.96094 2.76953C5.59586 2.76953 5.26953 3.10126 5.26953 3.46094C5.26953 4.15325 6.48047 6.24265 6.48047 6.92383V9H7.51953V6.92383C7.51953 6.25613 8.73047 4.15325 8.73047 3.46094C8.73047 3.07783 8.42073 2.76953 8.03906 2.76953H5.96094ZM4 10V11H10V10H4ZM5 12V14H9V12H5Z" fill="#734A08"/>
</svg>
