<svg width="14" height="14" viewBox="0 0 14 14" fill="none" xmlns="http://www.w3.org/2000/svg">
<path d="M1.99999 8.00004C1.01181 8.98822 0.560034 10.5736 1.54871 11.553L1.99999 12L4.99999 9.00004V7.50004L7.49999 5.00004H8.99999L12 2.00004L11.4894 1.51276C10.5139 0.58175 8.98075 1.01928 7.99999 2.00004L1.99999 8.00004ZM2.54513 12.5376L2.88392 12.8905C2.88392 12.8905 3.73409 12.9664 4.17284 12.5343L5.56654 11.1618C5.94841 10.7598 5.87386 9.85727 5.87386 9.85727L5.53507 9.50438L2.54513 12.5376ZM9.55303 5.52038L9.89182 5.87326C9.89182 5.87326 10.7616 6.0308 11.1562 5.64219L12.5499 4.2697C12.9448 3.88082 12.872 2.86132 12.872 2.86132L12.5332 2.50844L9.55303 5.52038Z" fill="#734A08"/>
</svg>
