<svg width="14" height="14" viewBox="0 0 14 14" fill="none" xmlns="http://www.w3.org/2000/svg">
<g clip-path="url(#clip0)">
<path d="M4.05078 0C1.57899 2.53964 1.57899 6.65763 4.05078 9.19727C6.52257 11.7369 10.5282 11.7369 13 9.19727C12.3434 8.521 12.5628 8.74852 12.0957 8.26758L12.4473 1.89258C12.6131 1.80966 12.7526 1.68228 12.8502 1.52466C12.9478 1.36704 12.9997 1.18539 13 1C13 0.734784 12.8946 0.48043 12.7071 0.292893C12.5196 0.105357 12.2652 0 12 0C11.8133 0.000153733 11.6304 0.0525556 11.472 0.151275C11.3136 0.249995 11.1859 0.39109 11.1035 0.558594L4.96484 0.939453C4.51342 0.47588 4.69077 0.657552 4.05078 0ZM10.7773 1.57227L8.14258 4.20703C7.81096 3.86718 6.63841 2.65824 5.88086 1.88086L10.7773 1.57227ZM11.4297 2.33398L11.1523 7.29688C10.3499 6.47089 9.18208 5.27093 8.8418 4.92188L11.4297 2.33398ZM3.2832 10.1426L1 14H10V12.2285C7.72286 12.6093 5.05754 11.916 3.2832 10.1426Z" fill="#666666"/>
</g>
<defs>
<clipPath id="clip0">
<rect width="14" height="14" fill="white"/>
</clipPath>
</defs>
</svg>
