<svg width="14" height="14" viewBox="0 0 14 14" fill="none" xmlns="http://www.w3.org/2000/svg">
<g clip-path="url(#clip0)">
<path d="M6 0V1H7C8.5913 1 10.1174 1.63214 11.2426 2.75736C12.3679 3.88258 13 5.4087 13 7V8H14V7C13.9968 5.49031 13.5055 4.02212 12.5996 2.81445L14 1.41406L12.5859 0L11.1855 1.40039C9.97788 0.494457 8.50969 0.00323401 7 0L6 0ZM6 2C5.21207 2 4.43185 2.15519 3.7039 2.45672C2.97595 2.75825 2.31451 3.20021 1.75736 3.75736C1.20021 4.31451 0.758251 4.97595 0.456723 5.7039C0.155195 6.43185 0 7.21207 0 8H12C12 7.21207 11.8448 6.43185 11.5433 5.7039C11.2417 4.97595 10.7998 4.31451 10.2426 3.75736C9.68549 3.20021 9.02405 2.75825 8.2961 2.45672C7.56815 2.15519 6.78793 2 6 2V2ZM0 9V14H12V9H0Z" fill="#666666"/>
</g>
<defs>
<clipPath id="clip0">
<rect width="14" height="14" fill="white"/>
</clipPath>
</defs>
</svg>
