<svg width="14" height="14" viewBox="0 0 14 14" fill="none" xmlns="http://www.w3.org/2000/svg">
<path d="M0 0V7C0 7 0 11 4 11C4.48769 11 4.90523 10.9169 5.28125 10.8125C5.22286 10.3292 5.25 10 5.25 10V9.78125C4.90699 9.91518 4.49001 10 4 10C1 10 1 7 1 7V1.5C3 2.45206 5 2.45206 7 1.5V2.65625C7.33449 2.78938 7.67663 2.91375 8 3V0C5 1.37288 3 1.30508 0 0ZM2.5 3C1.94771 3 1.5 3.44772 1.5 4C1.5 4.55228 1.94771 5 2.5 5C3.05229 5 3.5 4.55228 3.5 4C3.5 3.44772 3.05229 3 2.5 3ZM6 3V10C6 10 6 14 10 14C14 14 14 10 14 10V3C11 4.37288 9 4.30508 6 3ZM8.5 6C9.05229 6 9.5 6.44772 9.5 7C9.5 7.55229 9.05229 8 8.5 8C7.94771 8 7.5 7.55229 7.5 7C7.5 6.44772 7.94771 6 8.5 6ZM11.5 6C12.0523 6 12.5 6.44772 12.5 7C12.5 7.55229 12.0523 8 11.5 8C10.9477 8 10.5 7.55229 10.5 7C10.5 6.44772 10.9477 6 11.5 6ZM4 6.5C2.53776 6.5 2 7.51695 2 8.5H5.25V6.84375C4.9457 6.6222 4.54588 6.5 4 6.5ZM8 10H12C12 11 11 12 10 12C9 12 8 11 8 10Z" fill="#734A08"/>
</svg>
