<svg width="14" height="14" viewBox="0 0 14 14" fill="none" xmlns="http://www.w3.org/2000/svg">
<g clip-path="url(#clip0)">
<path d="M7.54014e-06 3C7.49357e-06 3.74991 -9.40186e-06 4.8985 7.54014e-06 6H1.00001C1.26522 6 1.51958 6.10536 1.70711 6.2929C1.89465 6.48043 2.00001 6.73479 2.00001 7C2.00001 7.26522 1.89465 7.51957 1.70711 7.70711C1.51958 7.89465 1.26522 8 1.00001 8H7.54014e-06C1.19209e-05 9.1015 5.78301e-05 10.2501 7.54014e-06 11C4.93161 11.0004 9.72021 10.9998 14 11C14 10.25 14 9.1016 14 8H13C12.7348 8 12.4804 7.89465 12.2929 7.70711C12.1054 7.51957 12 7.26522 12 7C12 6.73479 12.1054 6.48043 12.2929 6.2929C12.4804 6.10536 12.7348 6 13 6H14C14 4.8984 14 3.75 14 3C9.14511 3.00053 4.16361 2.99996 7.54014e-06 3V3ZM8.00001 4H9.00001V10H8.00001V4Z" fill="#AC39AC"/>
</g>
<defs>
<clipPath id="clip0">
<rect width="14" height="14" fill="white"/>
</clipPath>
</defs>
</svg>
