<svg width="14" height="14" viewBox="0 0 14 14" fill="none" xmlns="http://www.w3.org/2000/svg">
<path d="M6.25 0V14H7.75V0H6.25ZM2.5 1C1.67157 1 1 1.67157 1 2.5C1 3.32843 1.67157 4 2.5 4C3.32843 4 4 3.32843 4 2.5C4 1.67157 3.32843 1 2.5 1ZM11.5 1C10.6716 1 10 1.67157 10 2.5C10 3.32843 10.6716 4 11.5 4C12.3284 4 13 3.32843 13 2.5C13 1.67157 12.3284 1 11.5 1ZM1.5 5C0.900278 5 0.5 5.56855 0.5 6C0.5 6.52733 1.75 7.49664 1.75 8C1.75 8.55597 0 9 0 11H1.75V14H3.25V11H5C5 9 3.25 8.52951 3.25 8C3.25 7.47049 4.5 6.5513 4.5 6C4.5 5.59251 4.07527 5 3.5 5H1.5ZM10 5C9.47267 5 9 5.48047 9 6C9 7 10.75 10.0161 10.75 11V14H12.25V11C12.25 10.0355 14 7 14 6C14 5.44662 13.5513 5 13 5H10Z" fill="#734A08"/>
</svg>
