<svg width="14" height="14" viewBox="0 0 14 14" fill="none" xmlns="http://www.w3.org/2000/svg">
<g clip-path="url(#clip0)">
<path d="M8.06848 0.0521751C7.51019 0.0818499 6.95588 0.199186 6.42981 0.402626L7.27942 1.24955C8.66494 0.879987 10.1805 1.2113 11.2736 2.3009C12.3666 3.39051 12.699 4.90128 12.3282 6.28242L13.1779 7.12935C13.9035 5.26479 13.5336 3.04688 12.0294 1.54743C11.0893 0.610281 9.86808 0.11516 8.62708 0.0521751C8.44093 0.0427274 8.25458 0.0422835 8.06848 0.0521751ZM8.047 2.40215C7.5767 2.39852 7.10552 2.50069 6.672 2.70392L7.47473 3.50412C8.16638 3.31947 8.92662 3.48537 9.47278 4.0298C10.0189 4.57423 10.1854 5.33207 10.0001 6.02153L10.8029 6.82173C11.3465 5.66933 11.1596 4.24715 10.2072 3.29774C9.61189 2.70437 8.83082 2.40819 8.047 2.40215ZM2.99817 2.75454C0.943572 4.80265 0.943572 8.12433 2.99817 10.1724C5.05277 12.2205 8.38303 12.2205 10.4376 10.1724L7.21106 6.95607L8.56848 5.60488L7.83801 4.87672L6.48254 6.22791L2.99817 2.75454ZM2.36145 10.9337L0.463013 14.0449H7.73254V12.6159C5.83974 12.9229 3.83631 12.3639 2.36145 10.9337Z" fill="#666666"/>
</g>
<defs>
<clipPath id="clip0">
<rect width="14" height="14" fill="white"/>
</clipPath>
</defs>
</svg>
