<svg width="14" height="14" viewBox="0 0 14 14" fill="none" xmlns="http://www.w3.org/2000/svg">
<path d="M4 0.40625C2.23276 1.18557 0.96875 2.9521 0.96875 5C0.96875 7.0479 2.23276 8.81443 4 9.59375V8.4375C2.80447 7.74671 2 6.48815 2 5C2 3.51185 2.80447 2.25329 4 1.5625V0.40625ZM10 0.40625V1.5625C11.1955 2.25329 12 3.51185 12 5C12 6.48815 11.1955 7.74671 10 8.4375V9.59375C11.7672 8.81443 13.0312 7.0479 13.0312 5C13.0312 2.9521 11.7672 1.18557 10 0.40625ZM5 2.1875C3.84295 2.60436 3 3.70333 3 5C3 6.29667 3.84295 7.39564 5 7.8125V6.71875C4.40308 6.37403 4 5.74357 4 5C4 4.25643 4.40308 3.62597 5 3.28125V2.1875ZM9 2.1875V3.28125C9.59692 3.62597 10 4.25643 10 5C10 5.74357 9.59692 6.37403 9 6.71875V7.8125C10.157 7.39564 11 6.29667 11 5C11 3.70333 10.157 2.60436 9 2.1875ZM7 3L5.20117 10L2.59961 14H4L4.66602 13H9.33398L10 14H11.4004L8.80078 10L7 3ZM7 7L7.75 10H6.25L7 7ZM6 11H8L8.66602 12H5.33398L6 11Z" fill="#666666"/>
</svg>
