<svg width="1" height="1" viewBox="0 0 1 1" fill="none" xmlns="http://www.w3.org/2000/svg">
<g clip-path="url(#clip0)">
<path d="M0.178554 0V0.214286H0.821411V0H0.714268V0.0714286H0.571411V0H0.428554V0.0714286H0.285697V0H0.178554ZM0.214268 0.285714L0.178554 0.928571H0.0714111V1H0.39284C0.39284 0.928571 0.412629 0.821429 0.499983 0.821429C0.590972 0.823337 0.607125 0.928571 0.607125 1H0.928554V0.928571H0.821411L0.785697 0.285714H0.214268ZM0.499983 0.428571C0.571411 0.428571 0.571411 0.5 0.571411 0.5V0.571429H0.428554V0.5C0.428554 0.5 0.428554 0.428571 0.499983 0.428571Z" fill="#666666"/>
</g>
<defs>
<clipPath id="clip0">
<rect width="1" height="1" fill="white"/>
</clipPath>
</defs>
</svg>
