<svg width="14" height="14" viewBox="0 0 14 14" fill="none" xmlns="http://www.w3.org/2000/svg">
<g clip-path="url(#clip0)">
<path d="M3.00003 0V2C2.30303 2.367 0.520525 3.74 0.312525 4C0.112525 4.249 0.0935253 6.054 0.437525 6C1.03853 5.908 3.07178 4.264 3.59378 4.625C4.11478 4.985 3.96503 6.677 4.00003 8C3.28861 8.91554 3.0487 9.91473 2.37503 10.6562C2.0437 10.3553 1.69216 10.0671 1.31253 9.6875C1.2347 9.59668 0.859322 9.37487 0.507563 9.6954C0.285951 10 0.256633 10.3721 0.523371 10.6174C2.53833 12.6323 4.45306 13.6951 7.28143 13.6951C10.0112 13.6951 11.3625 12.6143 13.3829 10.5939C13.6016 10.4458 13.6791 9.85869 13.4923 9.6719C13.3055 9.48512 12.8357 9.46879 12.6875 9.6875C12.3382 10.0368 12.0314 10.3109 11.7188 10.5938C10.7806 9.3277 10.9032 9.00597 10 6C12.1323 5.45297 12.5935 7.71075 14 8.34338V6C14 5 11.703 5.0285 10 5.4375C9.67172 5 9.00003 4 6.63319 4.42169C6.33671 3 5.84425 2.64824 4.51594 2L3.00003 0ZM5.00003 8C6.00003 8.6652 8.30488 8.60972 9.00003 8C9.83913 8.54127 10.5486 10.0634 11.0313 11.1875C9.85047 12.1141 8.73612 12.5625 7.00003 12.5625C5.28626 12.5625 4.21409 12.1708 3.12503 11.3438C3.94391 10.0727 4.06601 9.86803 5.00003 8Z" fill="#AC39AC"/>
</g>
<defs>
<clipPath id="clip0">
<rect width="14" height="14" fill="white"/>
</clipPath>
</defs>
</svg>
