<svg width="13" height="13" viewBox="0 0 13 13" fill="none" xmlns="http://www.w3.org/2000/svg">
<path d="M6.5 0C5.25 0 4 0.8125 4 2.4375V10.5625C4 13.8125 9 13.8125 9 10.5625V2.4375C9 0.8125 7.75 0 6.5 0ZM6.50427 1C7.3327 1 8.00427 1.67157 8.00427 2.5C8.00427 3.32843 7.3327 4 6.50427 4C5.67584 4 5.00427 3.32843 5.00427 2.5C5.00427 1.67157 5.67584 1 6.50427 1ZM6.5 5C7.32843 5 8 5.67157 8 6.5C8 7.32843 7.32843 8 6.5 8C5.67157 8 5 7.32843 5 6.5C5 5.67157 5.67157 5 6.5 5ZM6.5957 9C7.42413 9 8.0957 9.67157 8.0957 10.5C8.0957 11.3284 7.42413 12 6.5957 12C5.76728 12 5.0957 11.3284 5.0957 10.5C5.0957 9.67157 5.76728 9 6.5957 9Z" fill="#545454"/>
</svg>
