<svg width="14" height="14" viewBox="0 0 14 14" fill="none" xmlns="http://www.w3.org/2000/svg">
<g clip-path="url(#clip0)">
<path fill-rule="evenodd" clip-rule="evenodd" d="M0 8.99994C0 7.99994 0 7.99994 1 7.99994C3.33333 7.99994 5.66667 7.99994 8 7.99994C9 7.99994 9 7.99994 9 8.99994C9 10.3333 9 11.6666 9 12.9999C9 13.9999 9 13.9999 8 13.9999C5.66667 13.9999 3.33333 13.9999 1 13.9999C0 13.9999 0 13.9999 0 12.9999C0 11.6666 0 10.3333 0 8.99994ZM13 4.03119V6.99994H14V4.03119H13ZM11.2188 3.68744L9.59375 6.15619L10.4062 6.68744L12.0625 4.24994L11.2188 3.68744ZM9.9375 2.03119L7.125 3.18744L7.5 4.09369L10.3125 2.96869L9.9375 2.03119ZM7 -0.0313083V0.968692L10.0938 0.999942V-5.82933e-05L7 -0.0313083ZM3 7.99994V6.29642H6V7.99994H7V5.99994C7 4.99994 7 4.99994 6 4.99994C5 4.99994 4 4.99994 3 4.99994C2 4.99994 2 4.99994 2 5.99994V7.99994H3ZM14.727 1.48706C14.727 2.59163 13.8315 3.48706 12.727 3.48706C11.6224 3.48706 10.727 2.59163 10.727 1.48706C10.727 0.382491 11.6224 -0.512939 12.727 -0.512939C13.6439 -0.512939 14.4434 0.110606 14.6667 0.999942" fill="#AC39AC"/>
</g>
<defs>
<clipPath id="clip0">
<rect width="14" height="14" fill="white"/>
</clipPath>
</defs>
</svg>
