<svg width="14" height="14" viewBox="0 0 14 14" fill="none" xmlns="http://www.w3.org/2000/svg">
<path d="M2.5 0C2.223 0 2 0.223 2 0.5C2 0.777 2.223 1 2.5 1H6.5C6.777 1 7 0.777 7 0.5C7 0.223 6.777 0 6.5 0H2.5ZM11 0L9.54492 3.63672L9 2H8L9 5H10L12 0H11ZM2.5 2C2.223 2 2 2.223 2 2.5C2 2.777 2.223 3 2.5 3H6.5C6.777 3 7 2.777 7 2.5C7 2.223 6.777 2 6.5 2H2.5ZM2.5 4C2.223 4 2 4.223 2 4.5C2 4.777 2.223 5 2.5 5H6.5C6.777 5 7 4.777 7 4.5C7 4.223 6.777 4 6.5 4H2.5ZM4 6L3 9C2.52733 9 2 9.38429 2 10V13H3C3 13 3 14 4 14C5 14 5 13 5 13H9C9 13 9 14 10 14C11 14 11 13 11 13H12V10C12 9.47939 11.5446 9 11 9L10 6H4ZM5 7H9L9.625 9H4.375L5 7ZM4 10.25C4.41421 10.25 4.75 10.5858 4.75 11C4.75 11.4142 4.41421 11.75 4 11.75C3.58579 11.75 3.25 11.4142 3.25 11C3.25 10.5858 3.58579 10.25 4 10.25ZM10 10.25C10.4142 10.25 10.75 10.5858 10.75 11C10.75 11.4142 10.4142 11.75 10 11.75C9.58579 11.75 9.25 11.4142 9.25 11C9.25 10.5858 9.58579 10.25 10 10.25Z" fill="#734A08"/>
</svg>
