<svg width="14" height="14" viewBox="0 0 14 14" fill="none" xmlns="http://www.w3.org/2000/svg">
<path d="M4.93907 0.125C3.51995 0.125 3.29388 2.05547 3.65782 3.03125C3.88876 3.65423 4.59218 4.25604 5.31407 4C6.24761 3.53846 6.51138 2.35504 6.25157 1.4375C6.12558 0.826274 5.63797 0.125 4.93907 0.125ZM8.90782 0.125C8.20892 0.125 7.72131 0.826274 7.59532 1.4375C7.33551 2.35504 7.59928 3.53846 8.53282 4C9.2547 4.25604 9.95812 3.65423 10.1891 3.03125C10.553 2.05547 10.3269 0.125 8.90782 0.125ZM0.874978 3.21875C0.314398 3.77933 0.387807 5.39252 1.40623 6.0625C2.06631 6.40088 2.73625 5.96336 2.96873 5.4375C3.36133 4.69064 3.25344 3.62902 2.56248 3.09375C1.9011 2.65232 1.39307 2.70066 0.874978 3.21875ZM11.4375 3.09375C10.9553 3.37214 10.6386 4.69064 11.0312 5.4375C11.2637 5.96336 11.9649 6.40088 12.625 6.0625C13.6434 5.39252 13.6965 3.7903 13.125 3.21875C12.593 2.77348 11.9633 2.79014 11.4375 3.09375ZM6.99998 4.5C4.5147 4.5 2.49998 6.51472 2.49998 9C2.49998 11.4853 4.5147 13.5 6.99998 13.5C9.48526 13.5 11.5 11.4853 11.5 9C11.5 6.51472 9.48526 4.5 6.99998 4.5ZM5.99998 6H7.99998V8H9.99998V10L7.99998 10.0312V12H5.99998V10H3.99998V8H5.99998V6Z" fill="#BF0000"/>
</svg>
