<svg width="14" height="14" viewBox="0 0 14 14" fill="none" xmlns="http://www.w3.org/2000/svg">
<g clip-path="url(#clip0)">
<path d="M3.21983 3.82531C2.74687 3.93794 2.45969 4.10122 2.09931 4.46724C1.68828 4.87827 1.37859 5.35123 1.14775 5.9425C0.8411 6.59266 0.629354 7.30206 0.477686 7.95829C0.134172 9.47297 0.0529133 10.9901 0.134172 11.7027C0.320001 12.5474 0.533975 13.0203 0.92814 13.4088C1.33353 13.8143 1.63199 13.9438 2.22321 13.9719C2.80316 14.0001 3.2367 13.8931 3.65341 13.6172C3.97438 13.4032 4.81331 12.5304 5.30887 11.8829L5.64106 11.4437L7.11068 11.4325C7.92152 11.4268 8.58031 11.4325 8.58031 11.4493C8.89065 11.9019 9.26999 12.3339 9.62198 12.7557C10.3653 13.6228 11.0297 13.9832 11.8799 13.9832C12.4881 13.9832 12.8597 13.8255 13.2876 13.392C13.9183 12.75 14.0703 12.2433 14.0647 10.83C14.0647 9.78265 14.0083 9.24208 13.7887 8.15534C13.4991 7.00474 13.1037 5.77159 12.443 4.87827C12.2741 4.65302 12.0207 4.36589 11.8687 4.24199C11.0128 3.53814 9.26729 3.58884 8.36633 4.34897C8.20396 4.46449 7.96217 4.59924 7.81453 4.66993C7.67855 4.73461 7.53048 4.79819 7.47102 4.81634C7.37531 4.88954 6.91926 4.89514 6.76158 4.82198C6.69401 4.7882 6.5223 4.74323 6.36741 4.66429C5.823 4.35087 5.25784 3.9712 4.7683 3.84223C4.27278 3.71833 3.68156 3.71269 3.21988 3.82531H3.21983ZM4.5656 6.05508C4.68386 6.1677 4.69509 6.22399 4.69509 6.7195C4.69509 7.06302 4.71177 7.36744 4.71177 7.36744C4.71177 7.36744 5.02164 7.39521 5.34829 7.39521C5.78183 7.39521 5.88322 7.41212 6.01272 7.51347C6.09151 7.5754 6.14785 7.6486 6.13093 7.67675C6.16164 7.87556 6.1514 8.04983 6.00708 8.19477C5.88881 8.30739 5.79296 8.28384 5.29181 8.3064L4.695 8.32298L4.69509 8.98869C4.67259 9.51798 4.581 9.62525 4.48524 9.69277C4.19811 9.86647 3.92932 9.82771 3.78291 9.52931C3.7097 9.38849 3.68421 9.20266 3.68156 8.84228L3.67753 8.29142C3.67753 8.29142 2.92052 8.28716 2.56104 8.26172C2.26822 8.16032 2.18379 7.81188 2.38649 7.54721C2.49911 7.40648 2.53853 7.4008 3.07906 7.38393L3.69298 7.36706L3.7116 6.79584C3.75102 6.14832 3.73439 6.14117 3.95751 5.95937C4.14329 5.85238 4.39668 5.8918 4.5656 6.05508V6.05508ZM10.6826 6.22798C11.2336 6.91709 10.2074 7.74727 9.64017 7.08681C9.03356 6.43945 10.043 5.49232 10.6826 6.22798ZM9.51669 7.32686C10.1099 8.02252 9.13473 8.96368 8.48241 8.28602C7.76682 7.54263 8.89243 6.59481 9.51669 7.32686ZM11.8714 7.21554C12.5831 7.88982 11.6248 8.88274 10.9405 8.21417C10.212 7.50247 11.2289 6.60689 11.8714 7.21554ZM10.9762 8.95732C10.9909 9.9627 9.59503 9.88526 9.57686 8.94971C9.55501 8.02833 10.9244 8.03464 10.9762 8.95732Z" fill="#AC39AC"/>
<path d="M1.33231 -0.0599365C1.30367 0.468301 1.59878 0.860296 1.95557 1.22574C2.31237 1.59119 2.78092 1.92328 3.3052 2.17716C3.82948 2.43104 4.40913 2.60773 4.99714 2.61442C5.58514 2.62111 6.20192 2.43533 6.65483 1.96422C7.30058 1.29253 7.87163 1.27137 8.17492 1.39287C8.32656 1.45362 8.41152 1.54772 8.44755 1.63709C8.48278 1.7245 8.49132 1.81841 8.4071 1.97533C8.12898 2.42003 7.72225 2.85324 7.35417 3.33458C6.98265 3.8204 6.63199 4.38981 6.6354 5.09703L7.67779 5.09203C7.67607 4.73734 7.85971 4.38939 8.18214 3.96775C8.50456 3.54611 8.94649 3.0853 9.3017 2.51207L9.30846 2.50115L9.31466 2.48995C9.53606 2.09001 9.5677 1.62791 9.41433 1.2474C9.26096 0.866889 8.94506 0.578522 8.56248 0.425259C7.79733 0.118733 6.7667 0.343666 5.9033 1.24175C5.67296 1.48135 5.38781 1.57644 5.00898 1.57213C4.63015 1.56782 4.17801 1.44164 3.75949 1.23898C3.34096 1.03631 2.95571 0.75804 2.70137 0.497533C2.44703 0.237027 2.3737 -0.0125187 2.37321 -0.00348621L1.33231 -0.0599365Z" fill="#AC39AC"/>
</g>
<defs>
<clipPath id="clip0">
<rect width="14" height="14" fill="white"/>
</clipPath>
</defs>
</svg>
