<svg width="14" height="14" viewBox="0 0 14 14" fill="none" xmlns="http://www.w3.org/2000/svg">
<g clip-path="url(#clip0)">
<path d="M13.9902 0.0177002C10.1291 0.0175868 6.99944 3.1457 7 7.00403C7.00051 10.8616 10.1396 14.0002 14 14.0001C14.0101 13.0114 13.9769 13.9851 14 13.0001C10.6918 13.0009 8.03313 10.3273 8.0332 7.00989C8.03312 3.69702 10.7081 1.01159 14.0117 1.00403V0.0216064L13.9902 0.0196533V0.0177002ZM0 1.00012V14.0001H1H2H3H8.66406V13.0001H3V8.00012H6V7.00012H3V2.00012H8V1.00012H3H2H1H0ZM1 2.00012H2V3.00012H1V2.00012ZM1 4.00012H2V5.00012H1V4.00012ZM14.0117 5.00012C12.9124 5.00711 12.0255 5.90047 12.0254 7.00012C12.0255 8.09978 12.9124 8.99256 14.0117 9.00012V7.99817C14.0059 7.99889 14 7.99952 13.9941 8.00012C13.4234 8.00031 12.9609 7.55254 12.9609 7.00012C12.9609 6.44771 13.4234 5.99993 13.9941 6.00012C14 6.00008 14.0059 6.00008 14.0117 6.00012V5.00012ZM1 6.00012H2V7.00012H1V6.00012ZM1 8.00012H2V9.00012H1V8.00012ZM1 10.0001H2V11.0001H1V10.0001ZM1 12.0001H2V13.0001H1V12.0001Z" fill="#AC39AC"/>
</g>
<defs>
<clipPath id="clip0">
<rect width="14" height="14" fill="white"/>
</clipPath>
</defs>
</svg>
