<svg width="14" height="14" viewBox="0 0 14 14" fill="none" xmlns="http://www.w3.org/2000/svg">
<g clip-path="url(#clip0)">
<path d="M8.70832 0.54178C8.58306 0.551741 8.46212 0.592413 8.33332 0.666779L4.29165 2.83343C3.77894 3.07609 3.57852 3.83629 3.91665 4.29175L4.99998 6.00007L0.333317 8.66671L0.374984 9.50004C0.374984 9.50004 0.998861 9.00004 1.66665 9.00004C2.29837 9.00004 3.56429 10 4.33332 10C5.00447 10 6.32825 9.00004 6.99998 9.00004C7.6991 9.00004 8.96753 10 9.66665 10H10.125L6.33332 4.00008L9.12498 2.54176C9.72231 2.1969 9.91536 1.59754 9.66665 1.16678C9.43723 0.76942 9.08408 0.511896 8.70832 0.54178ZM11 4.00008C9.89541 4.00008 8.99998 4.89554 8.99998 6.00007C8.99998 7.10459 9.89541 8.00005 11 8.00005C12.1046 8.00005 13 7.10459 13 6.00007C13 4.89554 12.1046 4.00008 11 4.00008ZM1.66665 11C1.23806 11 0.604311 11.3625 0.0200604 11.651L0.00384521 13.6778C0.616887 13.3855 1.27378 13 1.66665 13C2.33897 13 3.62145 14 4.33332 14C4.96732 14 6.32303 13 6.99998 13C7.6723 13 9.02896 14 9.66665 14C10.339 14 11.7005 13 12.3333 13C12.7294 13 13.4109 13.3917 14.0302 13.6848L14.0766 11.6613C13.4737 11.3618 12.7724 10.9756 12.3333 11C11.6956 11 10.3796 12 9.66665 12C9.07343 12 7.6723 11 6.99999 11C6.32767 11 4.92786 12 4.33332 12C3.69932 12 2.37852 11 1.66665 11Z" fill="#008C0D"/>
</g>
<defs>
<clipPath id="clip0">
<rect width="14" height="14" fill="white"/>
</clipPath>
</defs>
</svg>
