<svg width="14" height="14" viewBox="0 0 14 14" fill="none" xmlns="http://www.w3.org/2000/svg">
<path d="M1 11C1.641 11 2.829 12 3.4 12C3.935 12 5.195 11 5.8 11C6.405 11 7.666 12 8.2 12C8.842 12 10.025 11 10.599 11C11.24 10.971 12.501 12 12.999 12V14C12.395 14 11.169 13 10.599 13C10.03 13 8.804 14 8.2 14C7.626 14 6.405 13 5.8 13C5.191 13 3.971 14 3.4 14C2.76 14 1.606 13 1 13V11ZM1 3C2.094 3 3.001 3.3 3.001 4.75L3 7.25C3 9.25 4.5 10.25 5.5 10.25C5.5 10.25 5 9.25 5 7.25V4.75C5 3.835 4.351 3.442 3.999 3C5.093 3 6 3.3 6 4.75V7.25C6 9.25 7.5 10.25 8.5 10.25C8.5 10.25 8 9.25 8 7.25L8.1 4.75C8.13657 3.83573 7.351 3.442 7 3C8.093 3 9 3.3 9 4.75V7.25C9 9.25 10.5 10.25 11.5 10.25C11.5 10.25 11 9.25 11 7.25V4.75C11 1.75 8 1 7 1H0L0.0005 3H1Z" fill="#4D80B3"/>
</svg>
